<?xml version="1.0" encoding="utf-8"?>
<!-- Generator: Adobe Illustrator 26.0.0, SVG Export Plug-In . SVG Version: 6.00 Build 0)  -->
<svg version="1.1" id="Layer_1" xmlns="http://www.w3.org/2000/svg" xmlns:xlink="http://www.w3.org/1999/xlink" x="0px" y="0px"
	 viewBox="0 0 1654 1088" style="enable-background:new 0 0 1654 1088;" xml:space="preserve">
<style type="text/css">
	.st0{opacity:0.2;}
	.st1{fill:#5299D3;}
</style>
<g class="st0">
	<g>
		<path class="st1" d="M842,614.1c-42-0.5-76.3-36-75.4-78c0.8-40.2,32.6-72.7,72.4-74.7c1.3-0.1,2.6-0.1,3.9-0.1s2.6,0,3.9,0.1
			c12.1,0.6,23.5,4.1,33.4,9.7c2.6,1.5,5.9,0.5,7.3-2.2l19.2-36.8c1.4-2.6,0.3-5.8-2.2-7.2c-18.3-10-39.3-15.7-61.6-15.7
			c-71,0-128.5,57.6-128.5,128.5s57.5,128.5,128.5,128.5c22.1,0,42.9-5.6,61.1-15.4c2.7-1.4,3.7-4.8,2.2-7.4l-20.6-36
			c-1.4-2.5-4.6-3.4-7.1-2.1C867.7,611.1,855.2,614.3,842,614.1z"/>
		<g>
			<path class="st1" d="M461.3,711.9c-42,1.5-77.9-32.3-79.1-74.3c-1.1-40.1,29.1-74.2,68.8-78.1c1.3-0.1,2.6-0.2,3.9-0.3
				s2.6-0.1,3.9-0.1c12.1,0,23.6,2.9,33.9,8.1c2.7,1.3,5.9,0.2,7.2-2.5l17.4-37.7c1.2-2.7,0.1-5.8-2.6-7.1
				c-18.8-9.1-40-13.8-62.3-12.7c-70.9,3.4-125.6,63.7-122.2,134.6S394,767.3,464.9,763.9c22.1-1.1,42.6-7.7,60.3-18.4
				c2.6-1.6,3.4-4.9,1.8-7.5l-22.3-35c-1.5-2.4-4.7-3.2-7.2-1.7C486.8,707.6,474.5,711.4,461.3,711.9z"/>
			<path class="st1" d="M507.9,463.5c42,0.9,76,36.6,74.8,78.6c-1.2,40.1-33.2,72.4-73,74.1c-1.3,0.1-2.6,0.1-3.9,0.1
				c-1.3,0-2.6-0.1-3.9-0.1c-12.1-0.7-23.4-4.3-33.4-10c-2.6-1.5-5.9-0.5-7.3,2.1l-19.5,36.6c-1.4,2.6-0.4,5.8,2.2,7.2
				c18.2,10.2,39.2,16,61.5,16.2c71,0.6,129-56.5,129.6-127.5s-56.5-129-127.5-129.5c-22.1-0.2-43,5.3-61.2,14.9
				c-2.7,1.4-3.7,4.7-2.2,7.4l20.3,36.2c1.4,2.5,4.5,3.4,7.1,2.1C482.2,466.3,494.6,463.2,507.9,463.5z"/>
		</g>
		<g>
			<path class="st1" d="M1150.4,614.1c-42,1.5-77.9-32.3-79.1-74.3c-1.1-40.1,29.1-74.2,68.8-78.1c1.3-0.1,2.6-0.2,3.9-0.3
				c1.3-0.1,2.6-0.1,3.9-0.1c12.1,0,23.6,2.9,33.9,8.1c2.7,1.3,5.9,0.2,7.2-2.5l17.4-37.7c1.2-2.7,0.1-5.8-2.6-7.1
				c-18.8-9.1-40-13.8-62.3-12.7c-70.9,3.4-125.6,63.7-122.2,134.6c3.4,70.9,63.6,125.6,134.6,122.2c22.1-1.1,42.6-7.7,60.3-18.4
				c2.6-1.6,3.4-4.9,1.8-7.5l-22.3-35c-1.5-2.4-4.7-3.2-7.2-1.7C1175.9,609.8,1163.6,613.6,1150.4,614.1z"/>
			<path class="st1" d="M1197,365.7c42,0.9,76,36.6,74.8,78.6c-1.2,40.1-33.2,72.4-73,74.1c-1.3,0.1-2.6,0.1-3.9,0.1
				s-2.6-0.1-3.9-0.1c-12.1-0.7-23.4-4.3-33.4-10c-2.6-1.5-5.9-0.5-7.3,2.1l-19.5,36.6c-1.4,2.6-0.4,5.8,2.2,7.2
				c18.2,10.2,39.2,16,61.5,16.2c71,0.6,129-56.5,129.6-127.5c0.6-71-56.5-129-127.5-129.5c-22.1-0.2-43,5.3-61.2,14.9
				c-2.7,1.4-3.7,4.7-2.2,7.4l20.3,36.2c1.4,2.5,4.5,3.4,7.1,2.1C1171.3,368.5,1183.8,365.4,1197,365.7z"/>
		</g>
		<g>
			<path class="st1" d="M788.8,949.3c-20.8,36.5-68.4,49.4-104.7,28.3c-34.7-20.1-47.8-63.7-30.3-99.5c0.6-1.2,1.2-2.4,1.8-3.5
				c0.6-1.1,1.3-2.3,2-3.4c6.4-10.3,14.9-18.6,24.7-24.6c2.6-1.6,3.3-5,1.6-7.5L661,804.5c-1.6-2.5-4.9-3.1-7.4-1.5
				c-17.6,11.2-32.8,26.8-43.6,46.3c-34.3,62.1-11.8,140.3,50.3,174.7c62.1,34.3,140.3,11.8,174.6-50.3c10.7-19.4,15.9-40.3,16-60.9
				c0-3-2.4-5.5-5.4-5.5l-41.5,0.6c-2.9,0-5.2,2.3-5.2,5.2C798.6,925.4,795.4,937.8,788.8,949.3z"/>
			<path class="st1" d="M601.9,779.2c22.8-35.3,71-45.4,106.1-22.3c33.6,22.1,44.2,66.3,24.7,101.1c-0.6,1.1-1.3,2.3-2,3.4
				c-0.7,1.1-1.4,2.2-2.2,3.3c-7,9.9-15.9,17.7-26,23.2c-2.6,1.4-3.6,4.8-2,7.4l20.9,35.9c1.5,2.5,4.7,3.4,7.3,1.9
				c18.2-10.2,34.2-24.9,46.1-43.8c37.8-60.1,19.7-139.4-40.4-177.2S595,692.3,557.2,752.4c-11.8,18.7-18.1,39.3-19.4,59.9
				c-0.2,3,2.1,5.6,5.1,5.8l41.5,1.7c2.9,0.1,5.3-2,5.5-4.9C590.8,802.6,594.7,790.3,601.9,779.2z"/>
		</g>
		<g>
			<path class="st1" d="M1159.1,769.5c22.2,35.7,10.8,83.6-25,105.5c-34.3,20.9-78.8,11.7-102-20.8c-0.8-1.1-1.5-2.2-2.2-3.3
				c-0.7-1.1-1.4-2.2-2.1-3.4c-6-10.5-9.2-22-9.9-33.4c-0.2-3-2.8-5.2-5.8-5l-41.4,3.6c-2.9,0.3-5.1,2.8-4.9,5.8
				c1.4,20.8,7.9,41.6,20,60.4c38.3,59.8,117.8,77.2,177.5,39s77.2-117.7,39-177.5c-11.9-18.6-27.8-33.1-45.9-43.1
				c-2.7-1.5-6-0.5-7.4,2.2l-19.2,36.8c-1.3,2.5-0.4,5.7,2.1,7.1C1142.7,749.5,1152.1,758.2,1159.1,769.5z"/>
			<path class="st1" d="M920.5,852.7c-20.2-36.9-6.1-84.1,30.9-104c35.4-19,79.3-7.2,100.6,26.5c0.7,1.1,1.4,2.3,2,3.4
				s1.3,2.3,1.9,3.5c5.4,10.8,8,22.4,8,33.9c0,3,2.5,5.4,5.5,5.3l41.5-1.3c2.9-0.1,5.2-2.5,5.2-5.5c-0.3-20.9-5.6-41.9-16.6-61.4
				c-34.8-61.9-113.2-83.7-175.1-48.9c-61.8,34.8-83.7,113.2-48.9,175c10.9,19.3,25.9,34.6,43.4,45.6c2.6,1.6,5.9,0.8,7.5-1.8
				l21.3-35.6c1.5-2.5,0.7-5.6-1.7-7.2C935.7,873.6,926.8,864.3,920.5,852.7z"/>
		</g>
		<g>
			<path class="st1" d="M1049.3,308.2c-21.7,36-69.6,47.6-105.4,25.6c-34.2-21-46.1-64.9-27.8-100.3c0.6-1.2,1.3-2.3,1.9-3.4
				c0.7-1.1,1.4-2.3,2.1-3.4c6.7-10.1,15.4-18.2,25.3-23.9c2.6-1.5,3.4-4.9,1.8-7.4l-22-35.2c-1.6-2.5-4.8-3.2-7.4-1.7
				c-17.9,10.7-33.4,25.9-44.7,45.2c-35.9,61.2-15.4,140,45.8,175.9s139.9,15.4,175.9-45.8c11.2-19.1,16.9-39.8,17.6-60.5
				c0.1-3-2.3-5.6-5.3-5.6l-41.5-0.5c-2.9,0-5.2,2.2-5.4,5.1C1059.7,284.5,1056.2,296.9,1049.3,308.2z"/>
			<path class="st1" d="M866.9,133.3c23.7-34.7,72.2-43.6,106.7-19.6c33,22.9,42.4,67.4,22.1,101.7c-0.7,1.1-1.4,2.2-2.1,3.3
				c-0.7,1.1-1.5,2.2-2.3,3.2c-7.2,9.7-16.4,17.3-26.6,22.5c-2.7,1.4-3.7,4.7-2.2,7.3l20,36.4c1.4,2.6,4.6,3.5,7.2,2.1
				c18.5-9.7,34.8-24,47.2-42.6c39.3-59.1,23.3-138.9-35.8-178.2C942,30.2,862.2,46.2,822.9,105.4c-12.3,18.4-19.1,38.8-21,59.4
				c-0.3,3,1.9,5.7,5,5.9l41.4,2.8c2.9,0.2,5.4-1.9,5.7-4.8C855.2,156.4,859.4,144.3,866.9,133.3z"/>
		</g>
		<g>
			<path class="st1" d="M727.9,219c23,35.1,12.8,83.3-22.5,106.1c-33.8,21.8-78.5,13.6-102.4-18.3c-0.8-1-1.6-2.1-2.3-3.2
				c-0.7-1.1-1.5-2.2-2.1-3.3c-6.2-10.4-9.7-21.7-10.7-33.1c-0.2-3-2.9-5.2-5.9-4.8l-41.3,4.6c-2.9,0.3-5,3-4.7,5.9
				c1.9,20.8,8.9,41.4,21.4,59.9c39.7,58.9,119.5,74.4,178.4,34.8s74.4-119.5,34.7-178.4c-12.4-18.3-28.6-32.5-46.9-42
				c-2.7-1.4-6-0.4-7.3,2.4l-18.3,37.2c-1.3,2.6-0.3,5.7,2.2,7C711,199.4,720.6,207.9,727.9,219z"/>
			<path class="st1" d="M491.3,307.9c-21-36.4-8.1-83.9,28.5-104.7c34.9-19.8,79.1-9.1,101.2,24.1c0.7,1.1,1.4,2.2,2.1,3.3
				c0.7,1.1,1.3,2.3,1.9,3.4c5.6,10.7,8.5,22.2,8.8,33.7c0.1,3,2.6,5.3,5.6,5.2l41.5-2.3c2.9-0.2,5.2-2.7,5.1-5.6
				c-0.7-20.8-6.6-41.8-18-61c-36.3-61-115.2-81-176.2-44.7c-61,36.3-81,115.1-44.7,176.2c11.3,19,26.8,34,44.5,44.6
				c2.6,1.6,6,0.7,7.5-1.9l20.4-36.1c1.4-2.5,0.6-5.7-1.8-7.2C507.1,328.4,497.9,319.3,491.3,307.9z"/>
		</g>
	</g>
</g>
</svg>
