<svg width="476" height="466" viewBox="0 0 476 466" fill="none" xmlns="http://www.w3.org/2000/svg">
<circle cx="242.797" cy="232.797" r="232.797" fill="#F0F0F0"/>
<path d="M186.759 41.277L189.725 49.9355L189.8 50.1526L190.013 50.2378L198.146 53.4883L190.013 56.7388L189.8 56.8239L189.725 57.041L186.759 65.6995L183.792 57.041L183.718 56.8239L183.504 56.7388L175.371 53.4883L183.504 50.2378L183.718 50.1526L183.792 49.9355L186.759 41.277Z" stroke="#306778"/>
<path d="M1.61914 123.297C5.89243 127.238 16.1738 134.169 23.1131 130.367C31.7873 125.614 37.1468 126.387 39.0815 134.122C41.0162 141.857 48.0893 148.542 53.8902 143.569C59.6912 138.595 75.4936 139.809 74.4447 148.76C73.3959 157.711 71.0209 165.115 83.0652 158.815" stroke="black" stroke-width="2"/>
<path d="M307.533 444.468C311.612 440.56 323.236 433.916 337.103 438.606C354.438 444.468 361.066 446.911 370.752 430.789C380.439 414.667 337.613 432.743 357.497 438.606C377.38 444.468 399.813 437.629 404.911 430.789" stroke="black" stroke-width="2"/>
<path d="M373.484 54.4957C377.052 52.3922 386.34 49.6798 394.952 55.6588C405.717 63.1325 409.794 66.1371 419.606 56.1455C429.418 46.154 396.45 51.4707 408.966 59.4139C421.483 67.357 438.237 66.4921 443.079 62.4353" stroke="black" stroke-width="2"/>
<path d="M188.614 404.951L181.224 427.599L165.306 409.875L188.614 404.951Z" fill="#306778"/>
<circle cx="442.575" cy="259.809" r="16.5359" fill="#306778" fill-opacity="0.22"/>
<path d="M338.868 324.497H337.265V240.079C337.265 237.766 335.39 235.891 333.076 235.891H317.201V226.424C317.201 224.111 315.326 222.236 313.013 222.236H286.163V324.497H277.828V200.664C277.828 198.36 275.943 196.475 273.639 196.475H256.926V187.009C256.926 184.705 255.041 182.82 252.737 182.82H230.118C227.773 182.82 225.93 184.705 225.93 187.009V196.475H209.259C206.955 196.475 205.07 198.36 205.07 200.664V243.472C207.751 245.357 210.222 247.661 212.442 250.342C228.472 269.763 218.833 288.531 205.07 309.528V324.497H184.313C190.65 315.546 209.347 291.283 211.982 276.437V276.354C214.899 261.177 200.412 243.912 182.619 245.273C168.46 245.971 156.188 258.015 156.188 273.254C156.188 288.621 183.798 323.837 184.274 324.497H146.189C143.875 324.497 142 326.373 142 328.686C142 330.999 143.875 332.875 146.189 332.875H338.868C341.181 332.875 343.057 330.999 343.057 328.686C343.057 326.373 341.181 324.497 338.868 324.497ZM329.599 313.559C329.599 315.872 327.723 317.748 325.41 317.748H320.534C318.221 317.748 316.346 315.872 316.346 313.559C316.346 311.246 318.221 309.371 320.534 309.371H325.41C327.723 309.371 329.599 311.246 329.599 313.559ZM318.475 246.827H323.351C325.664 246.827 327.539 248.702 327.539 251.015C327.539 253.329 325.664 255.204 323.351 255.204H318.475C316.162 255.204 314.286 253.329 314.286 251.015C314.286 248.702 316.162 246.827 318.475 246.827ZM318.475 267.674H323.351C325.664 267.674 327.539 269.55 327.539 271.863C327.539 274.176 325.664 276.051 323.351 276.051H318.475C316.162 276.051 314.286 274.176 314.286 271.863C314.286 269.55 316.162 267.674 318.475 267.674ZM318.475 288.523H323.351C325.664 288.523 327.539 290.399 327.539 292.712C327.539 295.025 325.664 296.901 323.351 296.901H318.475C316.162 296.901 314.286 295.025 314.286 292.712C314.286 290.399 316.162 288.523 318.475 288.523ZM311.21 313.559C311.21 315.872 309.334 317.748 307.021 317.748H302.145C299.832 317.748 297.957 315.872 297.957 313.559C297.957 311.246 299.832 309.371 302.145 309.371H307.021C309.334 309.371 311.21 311.246 311.21 313.559ZM300.086 246.827H304.962C307.275 246.827 309.15 248.702 309.15 251.015C309.15 253.329 307.275 255.204 304.962 255.204H300.086C297.773 255.204 295.897 253.329 295.897 251.015C295.897 248.702 297.773 246.827 300.086 246.827ZM300.086 267.674H304.962C307.275 267.674 309.15 269.55 309.15 271.863C309.15 274.176 307.275 276.051 304.962 276.051H300.086C297.773 276.051 295.897 274.176 295.897 271.863C295.897 269.55 297.773 267.674 300.086 267.674ZM300.086 288.523H304.962C307.275 288.523 309.15 290.399 309.15 292.712C309.15 295.025 307.275 296.901 304.962 296.901H300.086C297.773 296.901 295.897 295.025 295.897 292.712C295.897 290.399 297.773 288.523 300.086 288.523ZM257.806 318.435H251.403C249.089 318.435 247.214 316.56 247.214 314.247C247.214 311.933 249.089 310.058 251.403 310.058H257.806C260.12 310.058 261.995 311.933 261.995 314.247C261.995 316.56 260.12 318.435 257.806 318.435ZM250.313 207.844H256.716C259.029 207.844 260.905 209.72 260.905 212.033C260.905 214.346 259.029 216.222 256.716 216.222H250.313C247.999 216.222 246.124 214.346 246.124 212.033C246.124 209.72 247.999 207.844 250.313 207.844ZM250.313 228.287H256.716C259.029 228.287 260.905 230.162 260.905 232.475C260.905 234.788 259.029 236.664 256.716 236.664H250.313C247.999 236.664 246.124 234.788 246.124 232.475C246.124 230.162 247.999 228.287 250.313 228.287ZM250.313 248.729H256.716C259.029 248.729 260.905 250.604 260.905 252.918C260.905 255.231 259.029 257.106 256.716 257.106H250.313C247.999 257.106 246.124 255.231 246.124 252.918C246.124 250.604 247.999 248.729 250.313 248.729ZM250.313 269.171H256.716C259.029 269.171 260.905 271.047 260.905 273.36C260.905 275.673 259.029 277.549 256.716 277.549H250.313C247.999 277.549 246.124 275.673 246.124 273.36C246.124 271.047 247.999 269.171 250.313 269.171ZM250.313 289.613H256.716C259.029 289.613 260.905 291.489 260.905 293.802C260.905 296.115 259.029 297.991 256.716 297.991H250.313C247.999 297.991 246.124 296.115 246.124 293.802C246.124 291.489 247.999 289.613 250.313 289.613ZM233.654 318.435H227.25C224.937 318.435 223.062 316.56 223.062 314.247C223.062 311.933 224.937 310.058 227.25 310.058H233.654C235.967 310.058 237.843 311.933 237.843 314.247C237.843 316.56 235.967 318.435 233.654 318.435ZM226.16 207.844H232.564C234.877 207.844 236.753 209.72 236.753 212.033C236.753 214.346 234.877 216.222 232.564 216.222H226.16C223.847 216.222 221.971 214.346 221.971 212.033C221.971 209.72 223.847 207.844 226.16 207.844ZM226.16 228.287H232.564C234.877 228.287 236.753 230.162 236.753 232.475C236.753 234.788 234.877 236.664 232.564 236.664H226.16C223.847 236.664 221.971 234.788 221.971 232.475C221.971 230.162 223.847 228.287 226.16 228.287ZM226.16 248.729H232.564C234.877 248.729 236.753 250.604 236.753 252.918C236.753 255.231 234.877 257.106 232.564 257.106H226.16C223.847 257.106 221.971 255.231 221.971 252.918C221.971 250.604 223.847 248.729 226.16 248.729ZM226.16 269.171H232.564C234.877 269.171 236.753 271.047 236.753 273.36C236.753 275.673 234.877 277.549 232.564 277.549H226.16C223.847 277.549 221.971 275.673 221.971 273.36C221.971 271.047 223.847 269.171 226.16 269.171ZM226.16 289.613H232.564C234.877 289.613 236.753 291.489 236.753 293.802C236.753 296.115 234.877 297.991 232.564 297.991H226.16C223.847 297.991 221.971 296.115 221.971 293.802C221.971 291.489 223.847 289.613 226.16 289.613ZM173.823 272.835C173.823 267.097 178.472 262.447 184.211 262.447C189.949 262.447 194.64 267.097 194.64 272.835C194.64 278.573 189.949 283.223 184.211 283.223C178.472 283.223 173.823 278.573 173.823 272.835Z" fill="#306778"/>
<path d="M173.702 176.428C173.831 176.44 173.962 176.446 174.089 176.446C176.23 176.446 178.057 174.814 178.255 172.64C179.991 153.741 196.674 139.797 215.665 141.523C217.972 141.75 220.009 140.041 220.218 137.736C220.43 135.433 218.735 133.394 216.43 133.183C192.889 131.018 172.077 148.326 169.914 171.875C169.702 174.178 171.397 176.217 173.702 176.428Z" fill="black"/>
<path d="M218.389 154.683C218.602 152.38 216.904 150.341 214.601 150.131C200.663 148.826 188.197 159.179 186.913 173.162C186.7 175.465 188.395 177.504 190.7 177.715C192.984 177.932 195.042 176.243 195.253 173.927C196.114 164.545 204.477 157.633 213.836 158.471C216.18 158.688 218.18 156.986 218.389 154.683Z" fill="black"/>
<path d="M202.563 179.591C202.337 182.042 204.266 184.162 206.737 184.162C208.879 184.162 210.705 182.53 210.904 180.356C211.204 177.11 214.067 174.736 217.303 175.032C219.618 175.261 221.647 173.547 221.856 171.244C222.069 168.941 220.373 166.902 218.068 166.692C210.321 165.964 203.285 171.662 202.563 179.591Z" fill="black"/>
</svg>
