<svg width="487" height="466" viewBox="0 0 487 466" fill="none" xmlns="http://www.w3.org/2000/svg">
<circle cx="253.797" cy="232.797" r="232.797" fill="#F0F0F0"/>
<path d="M198.169 41.277L201.135 49.9355L201.21 50.1526L201.423 50.2378L209.556 53.4883L201.423 56.7388L201.21 56.8239L201.135 57.041L198.169 65.6995L195.202 57.041L195.128 56.8239L194.915 56.7388L186.781 53.4883L194.915 50.2378L195.128 50.1526L195.202 49.9355L198.169 41.277Z" stroke="#306778"/>
<path d="M1.0293 123.297C5.30259 127.238 15.584 134.169 22.5233 130.367C31.1974 125.614 36.557 126.387 38.4917 134.122C40.4264 141.857 47.4994 148.542 53.3004 143.569C59.1014 138.595 74.9037 139.809 73.8549 148.76C72.8061 157.711 70.431 165.115 82.4754 158.815" stroke="black" stroke-width="2"/>
<path d="M306.943 444.468C311.022 440.56 322.646 433.916 336.514 438.606C353.848 444.468 360.476 446.911 370.162 430.789C379.849 414.667 337.023 432.743 356.907 438.606C376.79 444.468 399.223 437.629 404.321 430.789" stroke="black" stroke-width="2"/>
<path d="M372.894 54.4957C376.462 52.3922 385.751 49.6798 394.362 55.6588C405.127 63.1325 409.204 66.1371 419.016 56.1455C428.828 46.154 395.86 51.4707 408.377 59.4139C420.893 67.357 437.648 66.4921 442.49 62.4353" stroke="black" stroke-width="2"/>
<path d="M188.024 404.951L180.634 427.599L164.716 409.875L188.024 404.951Z" fill="#306778"/>
<circle cx="441.985" cy="259.809" r="16.5359" fill="#306778" fill-opacity="0.22"/>
<path d="M278.267 248.802V216.202C278.267 212.076 274.926 208.734 270.8 208.734H238.2C234.074 208.734 230.732 212.076 230.732 216.202V248.802C230.732 252.928 234.074 256.269 238.2 256.269H270.8C274.926 256.269 278.267 252.928 278.267 248.802Z" fill="#306778"/>
<path d="M278.267 191.067V158.467C278.267 154.341 274.926 151 270.8 151H238.2C234.074 151 230.732 154.341 230.732 158.467V191.067C230.732 195.193 234.074 198.535 238.2 198.535H270.8C274.926 198.545 278.267 195.193 278.267 191.067Z" fill="#D3D3D3"/>
<path d="M213.067 151H180.467C176.341 151 173 154.341 173 158.467V191.067C173 195.193 176.341 198.535 180.467 198.535H213.067C217.193 198.535 220.535 195.193 220.535 191.067V158.467C220.545 154.341 217.193 151 213.067 151Z" fill="#306778"/>
<path d="M328.532 151H295.932C291.806 151 288.465 154.341 288.465 158.467V191.067C288.465 195.193 291.806 198.535 295.932 198.535H328.532C332.658 198.535 336 195.193 336 191.067V158.467C336 154.341 332.658 151 328.532 151Z" fill="#306778"/>
<path d="M295.932 256.269H328.532C332.658 256.269 336 252.928 336 248.802V216.202C336 212.076 332.658 208.734 328.532 208.734H295.932C291.806 208.734 288.465 212.076 288.465 216.202V248.802C288.455 252.928 291.806 256.269 295.932 256.269Z" fill="#D3D3D3"/>
<path d="M213.067 208.73H180.467C176.341 208.73 173 212.072 173 216.198V248.798C173 252.924 176.341 256.265 180.467 256.265H213.067C217.193 256.265 220.535 252.924 220.535 248.798V216.198C220.545 212.072 217.193 208.73 213.067 208.73Z" fill="#D3D3D3"/>
<path d="M278.267 266.453H230.722H220.535H180.467C176.341 266.453 173 269.805 173 273.931V306.531C173 310.657 176.341 313.998 180.467 313.998H328.522C332.658 313.998 336 310.657 336 306.531V273.931C336 269.805 332.658 266.463 328.532 266.463H288.465H278.267V266.453Z" fill="#306778"/>
</svg>
