<svg width="488" height="466" viewBox="0 0 488 466" fill="none" xmlns="http://www.w3.org/2000/svg">
<ellipse cx="254.328" cy="232.797" rx="233.177" ry="232.797" fill="#F0F0F0"/>
<path d="M198.203 41.2747L201.176 49.9358L201.25 50.1528L201.463 50.2379L209.61 53.4883L201.463 56.7387L201.25 56.8237L201.176 57.0408L198.203 65.7018L195.231 57.0408L195.157 56.8237L194.943 56.7387L186.797 53.4883L194.943 50.2379L195.157 50.1528L195.231 49.9358L198.203 41.2747Z" stroke="#306778"/>
<path d="M1.15063 123.297C5.4309 127.238 15.7291 134.169 22.6797 130.367C31.368 125.614 36.7363 126.387 38.6741 134.122C40.612 141.857 47.6966 148.542 53.507 143.569C59.3174 138.595 75.1456 139.809 74.095 148.76C73.0445 157.711 70.6656 165.115 82.7296 158.815" stroke="black" stroke-width="2"/>
<path d="M307.563 444.468C311.648 440.56 323.291 433.916 337.181 438.606C354.544 444.468 361.182 446.911 370.885 430.789C380.588 414.667 337.692 432.743 357.608 438.606C377.524 444.468 399.993 437.629 405.099 430.789" stroke="black" stroke-width="2"/>
<path d="M373.619 54.4957C377.192 52.3922 386.496 49.6798 395.122 55.6588C405.904 63.1325 409.987 66.1371 419.815 56.1455C429.643 46.154 396.622 51.4707 409.159 59.4139C421.696 67.357 438.477 66.4921 443.327 62.4353" stroke="black" stroke-width="2"/>
<path d="M188.448 404.951L181.045 427.599L165.102 409.875L188.448 404.951Z" fill="#306778"/>
<ellipse cx="442.825" cy="259.809" rx="16.5628" ry="16.5359" fill="#306778" fill-opacity="0.22"/>
<path d="M328.215 181.089C323.25 176.14 316.401 173.069 308.868 173.069H279.249V163.684C279.249 159.759 277.708 156.176 275.14 153.616L274.969 153.446C272.229 150.715 268.634 149.18 264.696 149.18H223.092C218.983 149.18 215.388 150.886 212.82 153.446C210.08 156.176 208.54 159.759 208.54 163.684V173.069H178.749C171.216 173.069 164.368 176.14 159.403 181.089C154.437 186.037 151.356 192.863 151.356 200.371V288.59C151.356 296.098 154.437 302.923 159.403 307.872C164.368 312.82 171.216 315.892 178.749 315.892H308.868C316.401 315.892 323.25 312.82 328.215 307.872C333.18 302.923 336.262 296.098 336.262 288.59V200.371C336.262 192.863 333.18 186.037 328.215 181.089ZM215.217 163.684C215.217 161.466 216.073 159.589 217.442 158.223C218.812 156.858 220.867 156.005 222.921 156.005H264.354C266.579 156.005 268.463 156.858 269.832 158.223L270.004 158.394C271.373 159.759 272.229 161.636 272.229 163.684V173.069H265.381V169.997C265.381 167.608 264.354 165.39 262.47 163.684L262.299 163.513C260.587 161.977 258.19 160.954 255.451 160.954H231.824C229.256 160.954 226.859 161.977 224.976 163.513C223.092 165.22 221.894 167.438 221.894 169.997V173.069H215.046V163.684H215.217ZM258.875 173.069H228.742V169.997C228.742 169.485 229.085 168.974 229.427 168.632C229.941 168.12 230.797 167.779 231.824 167.779H255.793C256.649 167.779 257.505 168.12 258.19 168.632L258.361 168.803C258.704 169.144 259.046 169.656 259.046 170.168V173.069H258.875ZM329.584 288.59C329.584 294.221 327.187 299.34 323.592 303.094C319.825 306.848 314.689 309.066 309.039 309.066H178.749C173.099 309.066 167.963 306.677 164.196 303.094C160.43 299.34 158.204 294.221 158.204 288.59V200.371C158.204 194.74 160.601 189.621 164.196 185.867C167.963 182.113 173.099 179.894 178.749 179.894H211.964H225.489H262.299H275.825H308.868C314.518 179.894 319.654 182.283 323.421 185.867C327.187 189.621 329.413 194.74 329.413 200.371V288.59H329.584Z" fill="#111828"/>
<path d="M284.212 249.857C283.356 249.004 281.986 248.663 280.788 249.004L267.947 252.929L252.709 236.889L286.095 218.46C286.438 218.289 286.78 218.119 287.122 217.778C288.492 216.412 288.492 214.365 287.122 213L278.048 203.444C277.192 202.591 275.823 202.25 274.624 202.591L232.678 215.389L218.468 200.373L218.296 200.031C215.728 197.472 212.304 196.277 208.88 196.277C205.456 196.277 202.203 197.472 199.463 200.031L199.121 200.373L198.779 200.714C196.382 203.273 195.012 206.686 195.012 210.099C195.012 213.512 196.21 216.924 198.779 219.484C198.95 219.655 198.95 219.655 199.121 219.825L214.187 233.988L201.518 275.794C201.175 276.989 201.347 278.354 202.374 279.207L211.619 288.421C211.79 288.592 212.133 288.763 212.304 288.933C214.016 289.786 216.071 289.274 216.927 287.568L235.589 253.953L251.682 269.139L247.916 281.766C247.573 282.961 247.744 284.326 248.772 285.179L255.962 292.346C256.134 292.517 256.476 292.687 256.647 292.858C258.359 293.711 260.414 293.199 261.27 291.493L270.344 275.282V275.112L271.542 272.552L273.939 271.358C274.111 271.358 274.111 271.187 274.282 271.187L290.204 262.314C290.547 262.143 290.889 261.973 291.231 261.631C292.601 260.266 292.601 258.219 291.231 256.853L284.212 249.857ZM271.2 265.385L267.776 267.092C267.091 267.433 266.577 267.945 266.235 268.627L264.523 272.04L257.674 284.326L255.106 281.766L259.044 268.969C259.387 267.604 259.044 266.238 258.017 265.385L237.301 245.933C235.931 244.568 233.705 244.738 232.507 246.103C232.336 246.274 232.164 246.615 231.993 246.956L213.331 280.06L208.709 275.453L221.549 233.647C221.892 232.282 221.549 230.917 220.522 230.063L204.086 214.535L203.915 214.365C202.716 213.17 202.032 211.464 202.032 209.928C202.032 208.222 202.716 206.516 203.915 205.15C203.915 205.15 203.915 205.15 204.086 204.98C204.257 204.809 204.086 204.98 204.257 204.809C205.627 203.615 207.339 202.932 209.051 202.932C210.763 202.932 212.304 203.444 213.503 204.639L213.674 204.809L229.425 221.361C230.281 222.385 231.651 222.726 232.849 222.214L274.967 209.587L279.589 214.194L245.861 232.964C244.149 233.817 243.635 235.865 244.491 237.571C244.663 237.742 244.834 238.083 245.005 238.254L264.694 259.072C265.55 260.096 266.92 260.437 268.118 259.925L280.959 256L283.527 258.56L271.2 265.385Z" fill="#111828"/>
<path d="M202.554 278.868C201.698 278.015 201.355 276.65 201.698 275.455L214.367 233.649L199.301 219.486L198.958 219.145C196.39 216.585 195.192 213.173 195.192 209.76C195.192 206.347 196.39 203.105 198.958 200.375L199.301 200.034L199.643 199.692C202.211 197.303 205.635 195.938 209.06 195.938C212.484 195.938 215.908 197.133 218.476 199.692L218.647 199.863L232.858 214.879L274.804 202.252C276.002 201.911 277.372 202.252 278.228 203.105L287.473 212.319C288.843 213.685 288.843 215.732 287.473 217.097C287.131 217.439 286.789 217.609 286.446 217.78L252.889 236.721L268.127 252.76L280.967 248.836C282.166 248.494 283.536 248.836 284.392 249.689L291.582 256.856C292.952 258.221 292.952 260.268 291.582 261.633C291.24 261.975 290.898 262.145 290.555 262.316L274.633 271.189L274.29 271.36L271.893 272.554L270.524 275.114V275.284L261.45 291.495C260.594 293.201 258.539 293.713 256.827 292.86C256.485 292.689 256.313 292.519 256.142 292.348L248.951 285.011C248.095 284.158 247.753 282.792 248.095 281.598L251.862 268.971L235.768 253.784L217.106 287.4C216.25 289.106 214.196 289.618 212.484 288.765C212.141 288.594 211.97 288.423 211.799 288.253L202.554 278.868ZM158.039 200.375V288.594C158.039 294.225 160.436 299.344 164.032 303.098C167.798 306.852 172.934 309.07 178.584 309.07H308.875C314.524 309.07 319.661 306.682 323.427 303.098C327.194 299.344 329.42 294.225 329.42 288.594V200.375C329.42 194.744 327.023 189.625 323.427 185.871C319.661 182.117 314.524 179.898 308.875 179.898H275.831H262.306H225.496H211.97H178.756C173.106 179.898 167.969 182.287 164.203 185.871C160.436 189.625 158.039 194.744 158.039 200.375Z" fill="#306778"/>
<path d="M220.358 230.062C221.385 230.915 221.899 232.28 221.385 233.646L208.716 275.622L213.338 280.229L231.829 246.955C232 246.614 232.171 246.443 232.343 246.102C233.712 244.737 235.767 244.737 237.137 245.931L257.853 265.384C258.88 266.237 259.394 267.602 258.88 268.967L254.942 281.765L257.51 284.325L264.359 272.039L266.071 268.626C266.413 267.944 266.927 267.432 267.612 267.09L271.036 265.384L283.363 258.559L280.795 255.999L267.954 259.924C266.756 260.265 265.386 259.924 264.53 259.07L245.012 238.253C244.841 238.082 244.67 237.911 244.498 237.57C243.642 235.864 244.156 233.816 245.868 232.963L279.425 214.364L274.802 209.756L232.685 222.384C231.487 222.725 230.117 222.384 229.261 221.53L213.51 204.979L213.338 204.808C212.14 203.613 210.428 203.102 208.887 203.102C207.175 203.102 205.463 203.784 204.093 204.979C204.093 204.979 204.093 204.979 203.922 205.149C203.751 205.32 203.922 205.149 203.751 205.32C202.552 206.685 201.867 208.391 201.867 210.098C201.867 211.804 202.381 213.34 203.751 214.534L203.922 214.705L220.358 230.062Z" fill="#D3D3D3"/>
<path d="M262.82 163.685C264.532 165.392 265.73 167.61 265.73 169.999V173.07H272.579V163.685C272.579 159.419 268.983 155.836 264.703 155.836H223.099C220.873 155.836 218.99 156.689 217.62 158.054C216.251 159.59 215.395 161.296 215.395 163.515V172.9H222.243V169.828C222.243 167.269 223.442 164.88 225.325 163.344C227.037 161.808 229.434 160.784 232.173 160.784H255.8C258.368 160.784 260.765 161.808 262.648 163.344L262.82 163.685Z" fill="#E9F6FB"/>
</svg>
