<svg width="487" height="466" viewBox="0 0 487 466" fill="none" xmlns="http://www.w3.org/2000/svg">
<circle cx="253.797" cy="232.797" r="232.797" fill="#F0F0F0"/>
<path d="M197.762 41.277L200.729 49.9355L200.803 50.1526L201.016 50.2378L209.15 53.4883L201.016 56.7388L200.803 56.8239L200.729 57.041L197.762 65.6995L194.796 57.041L194.721 56.8239L194.508 56.7388L186.375 53.4883L194.508 50.2378L194.721 50.1526L194.796 49.9355L197.762 41.277Z" stroke="#306778"/>
<path d="M1.0293 123.297C5.30259 127.238 15.584 134.169 22.5233 130.367C31.1974 125.614 36.557 126.387 38.4917 134.122C40.4264 141.857 47.4994 148.542 53.3004 143.569C59.1014 138.595 74.9037 139.809 73.8549 148.76C72.8061 157.711 70.431 165.115 82.4754 158.815" stroke="black" stroke-width="2"/>
<path d="M306.943 444.468C311.022 440.56 322.646 433.916 336.514 438.606C353.848 444.468 360.476 446.911 370.162 430.789C379.849 414.667 337.023 432.743 356.907 438.606C376.79 444.468 399.223 437.629 404.321 430.789" stroke="black" stroke-width="2"/>
<path d="M372.893 54.4957C376.461 52.3922 385.75 49.6798 394.361 55.6588C405.126 63.1325 409.203 66.1371 419.015 56.1455C428.827 46.154 395.859 51.4707 408.376 59.4139C420.892 67.357 437.647 66.4921 442.489 62.4353" stroke="black" stroke-width="2"/>
<path d="M188.025 404.951L180.635 427.599L164.717 409.875L188.025 404.951Z" fill="#306778"/>
<circle cx="441.986" cy="259.809" r="16.5359" fill="#306778" fill-opacity="0.22"/>
<g clip-path="url(#clip0_790_2324)">
<path d="M332.945 240.316C340.751 240.316 348.172 241.961 354.885 244.917C354.975 244.685 355.053 244.449 355.107 244.206C370.248 176.1 318.461 111.523 248.722 111.523C188.494 111.523 139.746 160.263 139.746 220.499C139.746 280.726 188.486 329.474 248.721 329.474C261.352 329.474 273.725 327.333 285.499 323.111C285.734 323.026 285.958 322.919 286.176 322.801C281.27 314.62 278.448 305.047 278.448 294.814C278.448 264.716 302.847 240.316 332.945 240.316ZM350.295 243.135H350.291H350.295Z" fill="#D3D3D3"/>
<path d="M332.945 329.494C352.099 329.494 367.626 313.967 367.626 294.813C367.626 275.66 352.099 260.133 332.945 260.133C313.792 260.133 298.265 275.66 298.265 294.813C298.265 313.967 313.792 329.494 332.945 329.494Z" fill="#D3D3D3"/>
<path d="M253.655 206.501V185.817C253.655 183.092 251.446 180.883 248.721 180.883C245.997 180.883 243.787 183.092 243.787 185.817V206.501C239.566 207.994 236.217 211.343 234.725 215.563H214.041C211.315 215.563 209.106 217.773 209.106 220.498C209.106 223.222 211.315 225.432 214.041 225.432H234.725C236.764 231.197 242.266 235.34 248.721 235.34C256.906 235.34 263.564 228.682 263.564 220.498C263.564 214.043 259.421 208.54 253.655 206.501ZM248.721 225.472C245.978 225.472 243.747 223.24 243.747 220.498C243.747 217.755 245.978 215.523 248.721 215.523C251.464 215.523 253.695 217.755 253.695 220.498C253.696 223.24 251.464 225.472 248.721 225.472Z" fill="#005971"/>
<path d="M248.721 146.163C251.446 146.163 253.656 143.953 253.656 141.228V136.274C253.656 133.549 251.446 131.34 248.721 131.34C245.997 131.34 243.787 133.549 243.787 136.274V141.228C243.787 143.954 245.997 146.163 248.721 146.163Z" fill="#005971"/>
<path d="M192.655 157.453C190.728 155.526 187.604 155.526 185.677 157.453C183.75 159.379 183.75 162.504 185.677 164.431L189.18 167.934C191.108 169.862 194.23 169.861 196.158 167.934C198.085 166.007 198.085 162.883 196.158 160.956L192.655 157.453Z" fill="#005971"/>
<path d="M169.452 215.562H164.498C161.773 215.562 159.563 217.772 159.563 220.497C159.563 223.221 161.773 225.431 164.498 225.431H169.452C172.177 225.431 174.386 223.221 174.386 220.497C174.386 217.772 172.177 215.562 169.452 215.562Z" fill="#005971"/>
<path d="M189.181 273.062L185.678 276.565C182.559 279.684 184.811 284.988 189.167 284.988C190.43 284.988 191.692 284.506 192.656 283.543L196.159 280.04C198.086 278.113 198.086 274.989 196.159 273.061C194.232 271.136 191.108 271.136 189.181 273.062Z" fill="#005971"/>
<path d="M248.721 294.836C245.997 294.836 243.787 297.045 243.787 299.77V304.725C243.787 307.449 245.997 309.659 248.721 309.659C251.446 309.659 253.656 307.449 253.656 304.725V299.77C253.656 297.045 251.446 294.836 248.721 294.836Z" fill="#005971"/>
<path d="M327.991 225.431H332.945C335.67 225.431 337.879 223.221 337.879 220.497C337.879 217.772 335.67 215.562 332.945 215.562H327.991C325.266 215.562 323.057 217.772 323.057 220.497C323.057 223.222 325.266 225.431 327.991 225.431Z" fill="#005971"/>
<path d="M308.262 167.934L311.766 164.431C313.693 162.504 313.693 159.38 311.766 157.453C309.838 155.526 306.715 155.526 304.787 157.453L301.284 160.956C299.357 162.883 299.357 166.007 301.284 167.934C303.212 169.862 306.335 169.861 308.262 167.934Z" fill="#005971"/>
<path d="M332.946 235.383C300.175 235.383 273.514 262.044 273.514 294.814C273.514 327.585 300.175 354.246 332.946 354.246C365.717 354.246 392.378 327.586 392.378 294.815C392.378 262.044 365.717 235.383 332.946 235.383ZM332.946 344.378C305.616 344.378 283.382 322.144 283.382 294.815C283.382 267.486 305.616 245.252 332.946 245.252C360.275 245.252 382.509 267.485 382.509 294.815C382.509 322.144 360.275 344.378 332.946 344.378Z" fill="#005971"/>
<path d="M347.809 289.878H337.88V279.95C337.88 277.225 335.67 275.016 332.945 275.016C330.22 275.016 328.011 277.225 328.011 279.95V289.878H318.083C315.358 289.878 313.148 292.088 313.148 294.813C313.148 297.537 315.358 299.747 318.083 299.747H328.011V309.676C328.011 312.401 330.22 314.61 332.945 314.61C335.67 314.61 337.88 312.401 337.88 309.676V299.747H347.809C350.533 299.747 352.743 297.537 352.743 294.813C352.743 292.087 350.533 289.878 347.809 289.878Z" fill="#005971"/>
</g>
<defs>
<clipPath id="clip0_790_2324">
<rect width="252.631" height="252.631" fill="white" transform="translate(139.746 106.566)"/>
</clipPath>
</defs>
</svg>
