<svg width="487" height="467" viewBox="0 0 487 467" fill="none" xmlns="http://www.w3.org/2000/svg">
<circle cx="254.203" cy="233.586" r="232.797" fill="#F0F0F0"/>
<path d="M198.169 42.066L201.135 50.7246L201.21 50.9417L201.423 51.0268L209.556 54.2773L201.423 57.5278L201.21 57.613L201.135 57.8301L198.169 66.4886L195.202 57.8301L195.128 57.613L194.915 57.5278L186.781 54.2773L194.915 51.0268L195.128 50.9417L195.202 50.7246L198.169 42.066Z" stroke="#306778"/>
<path d="M1.0293 124.086C5.30259 128.027 15.584 134.958 22.5233 131.156C31.1974 126.403 36.557 127.176 38.4917 134.911C40.4264 142.646 47.4994 149.331 53.3004 144.358C59.1014 139.385 74.9037 140.598 73.8549 149.549C72.8061 158.5 70.431 165.905 82.4754 159.604" stroke="black" stroke-width="2"/>
<path d="M306.943 445.257C311.022 441.349 322.646 434.705 336.514 439.395C353.848 445.257 360.476 447.7 370.162 431.578C379.849 415.456 337.023 433.532 356.907 439.395C376.79 445.257 399.223 438.418 404.321 431.578" stroke="black" stroke-width="2"/>
<path d="M372.894 55.2848C376.462 53.1812 385.751 50.4688 394.362 56.4478C405.127 63.9216 409.204 66.9261 419.016 56.9346C428.828 46.943 395.86 52.2598 408.377 60.2029C420.893 68.1461 437.648 67.2812 442.49 63.2244" stroke="black" stroke-width="2"/>
<path d="M188.024 405.741L180.634 428.388L164.716 410.664L188.024 405.741Z" fill="#306778"/>
<circle cx="441.985" cy="260.598" r="16.5359" fill="#306778" fill-opacity="0.22"/>
<path d="M253.716 289.704C270.878 289.704 284.84 275.51 284.84 258.062C284.84 240.616 270.878 226.422 253.716 226.422C236.552 226.422 222.59 240.616 222.59 258.062C222.59 275.51 236.552 289.704 253.716 289.704ZM235.38 253.083C237.426 251.001 240.745 251.001 242.793 253.083L249.634 260.037L264.639 244.784C266.687 242.703 270.005 242.703 272.052 244.784C274.098 246.864 274.098 250.237 272.052 252.319L253.34 271.341C252.357 272.34 251.024 272.901 249.634 272.901C248.243 272.901 246.911 272.34 245.927 271.341L235.38 260.617C233.333 258.537 233.333 255.163 235.38 253.083Z" fill="#306778"/>
<path d="M167 308.557C167 318.057 174.605 325.788 183.951 325.788H323.476C332.822 325.788 340.427 318.057 340.427 308.557V200.988H167V308.557ZM253.715 215.763C276.658 215.763 295.322 234.737 295.322 258.06C295.322 281.383 276.658 300.358 253.715 300.358C230.772 300.358 212.106 281.383 212.106 258.06C212.106 234.737 230.772 215.763 253.715 215.763Z" fill="#306778"/>
<path d="M340.426 190.334V173.919C340.426 164.417 332.823 156.688 323.475 156.688H313.919V166.257C313.919 169.202 311.571 171.585 308.677 171.585C305.782 171.585 303.437 169.202 303.437 166.257V156.688H293.135V166.257C293.135 169.202 290.792 171.585 287.895 171.585C285.002 171.585 282.653 169.202 282.653 166.257V156.688H224.778V166.257C224.778 169.202 222.431 171.585 219.538 171.585C216.641 171.585 214.296 169.202 214.296 166.257V156.688H203.995V166.257C203.995 169.202 201.646 171.585 198.753 171.585C195.86 171.585 193.513 169.202 193.513 166.257V156.688H183.953C174.605 156.688 167.002 164.417 167.002 173.919V190.334H340.426Z" fill="#D3D3D3"/>
<path d="M313.918 147.117C313.918 144.176 311.569 141.789 308.676 141.789C305.78 141.789 303.436 144.176 303.436 147.117V156.686H313.918V147.117Z" fill="#306778"/>
<path d="M293.135 147.117C293.135 144.176 290.791 141.789 287.894 141.789C285.001 141.789 282.652 144.176 282.652 147.117V156.686H293.135V147.117Z" fill="#306778"/>
<path d="M224.777 147.117C224.777 144.176 222.43 141.789 219.537 141.789C216.64 141.789 214.295 144.176 214.295 147.117V156.686H224.777V147.117Z" fill="#306778"/>
<path d="M203.994 147.117C203.994 144.176 201.645 141.789 198.752 141.789C195.859 141.789 193.512 144.176 193.512 147.117V156.686H203.994V147.117Z" fill="#306778"/>
</svg>
