<svg width="80" height="80" viewBox="0 0 80 80" fill="none" xmlns="http://www.w3.org/2000/svg">
<rect width="80" height="80" rx="40" fill="#D8E9EE"/>
<path d="M50.2856 41.2863H29.7142C29.3739 41.284 29.0482 41.1478 28.8075 40.9072C28.5669 40.6666 28.4307 40.3409 28.4285 40.0006C28.4307 39.6603 28.5669 39.3345 28.8075 39.0939C29.0482 38.8533 29.3739 38.7171 29.7142 38.7148H50.2856C50.6259 38.7171 50.9516 38.8533 51.1923 39.0939C51.4329 39.3345 51.5691 39.6603 51.5713 40.0006C51.5691 40.3409 51.4329 40.6666 51.1923 40.9072C50.9516 41.1478 50.6259 41.284 50.2856 41.2863Z" fill="#306778"/>
<path d="M40.0001 51.5706C39.6598 51.5683 39.334 51.4322 39.0934 51.1915C38.8528 50.9509 38.7166 50.6252 38.7144 50.2849V29.7134C38.7166 29.3731 38.8528 29.0474 39.0934 28.8068C39.334 28.5662 39.6598 28.43 40.0001 28.4277C40.3404 28.43 40.6661 28.5662 40.9067 28.8068C41.1474 29.0474 41.2835 29.3731 41.2858 29.7134V50.2849C41.2835 50.6252 41.1474 50.9509 40.9067 51.1915C40.6661 51.4322 40.3404 51.5683 40.0001 51.5706Z" fill="#306778"/>
</svg>
