<svg width="36" height="36" viewBox="0 0 36 36" fill="none" xmlns="http://www.w3.org/2000/svg">
<path d="M32.5925 31.481H2.96292C2.66883 31.4829 2.38734 31.6006 2.17939 31.8085C1.97143 32.0165 1.85375 32.298 1.85181 32.5921C1.85375 32.8862 1.97143 33.1676 2.17939 33.3756C2.38734 33.5836 2.66883 33.7012 2.96292 33.7032H32.5925C32.8866 33.7012 33.1681 33.5836 33.3761 33.3756C33.584 33.1676 33.7017 32.8862 33.7037 32.5921C33.7017 32.298 33.584 32.0165 33.3761 31.8085C33.1681 31.6006 32.8866 31.4829 32.5925 31.481V31.481Z" fill="#306778"/>
<path d="M25.1852 2.9624H10.3704C5.92594 2.9624 4.44446 5.61425 4.44446 8.88833V32.592H31.1111V8.88833C31.1111 5.61425 29.6296 2.9624 25.1852 2.9624ZM14.8148 25.555H10.3704C10.0757 25.555 9.79308 25.4379 9.58471 25.2296C9.37634 25.0212 9.25927 24.7386 9.25927 24.4439C9.25927 24.1492 9.37634 23.8666 9.58471 23.6582C9.79308 23.4498 10.0757 23.3328 10.3704 23.3328H14.8148C15.1095 23.3328 15.3921 23.4498 15.6005 23.6582C15.8089 23.8666 15.9259 24.1492 15.9259 24.4439C15.9259 24.7386 15.8089 25.0212 15.6005 25.2296C15.3921 25.4379 15.1095 25.555 14.8148 25.555ZM14.8148 18.8883H10.3704C10.0757 18.8883 9.79308 18.7713 9.58471 18.5629C9.37634 18.3545 9.25927 18.0719 9.25927 17.7772C9.25927 17.4825 9.37634 17.1999 9.58471 16.9915C9.79308 16.7832 10.0757 16.6661 10.3704 16.6661H14.8148C15.1095 16.6661 15.3921 16.7832 15.6005 16.9915C15.8089 17.1999 15.9259 17.4825 15.9259 17.7772C15.9259 18.0719 15.8089 18.3545 15.6005 18.5629C15.3921 18.7713 15.1095 18.8883 14.8148 18.8883ZM14.8148 12.2217H10.3704C10.0757 12.2217 9.79308 12.1046 9.58471 11.8962C9.37634 11.6879 9.25927 11.4052 9.25927 11.1106C9.25927 10.8159 9.37634 10.5333 9.58471 10.3249C9.79308 10.1165 10.0757 9.99944 10.3704 9.99944H14.8148C15.1095 9.99944 15.3921 10.1165 15.6005 10.3249C15.8089 10.5333 15.9259 10.8159 15.9259 11.1106C15.9259 11.4052 15.8089 11.6879 15.6005 11.8962C15.3921 12.1046 15.1095 12.2217 14.8148 12.2217ZM25.1852 25.555H20.7408C20.4461 25.555 20.1635 25.4379 19.9551 25.2296C19.7467 25.0212 19.6296 24.7386 19.6296 24.4439C19.6296 24.1492 19.7467 23.8666 19.9551 23.6582C20.1635 23.4498 20.4461 23.3328 20.7408 23.3328H25.1852C25.4799 23.3328 25.7625 23.4498 25.9709 23.6582C26.1793 23.8666 26.2963 24.1492 26.2963 24.4439C26.2963 24.7386 26.1793 25.0212 25.9709 25.2296C25.7625 25.4379 25.4799 25.555 25.1852 25.555ZM25.1852 18.8883H20.7408C20.4461 18.8883 20.1635 18.7713 19.9551 18.5629C19.7467 18.3545 19.6296 18.0719 19.6296 17.7772C19.6296 17.4825 19.7467 17.1999 19.9551 16.9915C20.1635 16.7832 20.4461 16.6661 20.7408 16.6661H25.1852C25.4799 16.6661 25.7625 16.7832 25.9709 16.9915C26.1793 17.1999 26.2963 17.4825 26.2963 17.7772C26.2963 18.0719 26.1793 18.3545 25.9709 18.5629C25.7625 18.7713 25.4799 18.8883 25.1852 18.8883ZM25.1852 12.2217H20.7408C20.4461 12.2217 20.1635 12.1046 19.9551 11.8962C19.7467 11.6879 19.6296 11.4052 19.6296 11.1106C19.6296 10.8159 19.7467 10.5333 19.9551 10.3249C20.1635 10.1165 20.4461 9.99944 20.7408 9.99944H25.1852C25.4799 9.99944 25.7625 10.1165 25.9709 10.3249C26.1793 10.5333 26.2963 10.8159 26.2963 11.1106C26.2963 11.4052 26.1793 11.6879 25.9709 11.8962C25.7625 12.1046 25.4799 12.2217 25.1852 12.2217Z" fill="#306778"/>
</svg>
