<svg width="36" height="36" viewBox="0 0 36 36" fill="none" xmlns="http://www.w3.org/2000/svg">
<path d="M34 34.125H4C3.70224 34.123 3.41723 34.0039 3.20668 33.7933C2.99612 33.5828 2.87697 33.2978 2.875 33C2.87697 32.7022 2.99612 32.4172 3.20668 32.2067C3.41723 31.9961 3.70224 31.877 4 31.875H34C34.2978 31.877 34.5828 31.9961 34.7933 32.2067C35.0039 32.4172 35.123 32.7022 35.125 33C35.123 33.2978 35.0039 33.5828 34.7933 33.7933C34.5828 34.0039 34.2978 34.123 34 34.125Z" fill="#848588"/>
<path d="M32.5 34.125H5.5C5.20224 34.123 4.91723 34.0039 4.70668 33.7933C4.49612 33.5828 4.37697 33.2978 4.375 33V9C4.375 4.47 6.97 1.875 11.5 1.875H26.5C31.03 1.875 33.625 4.47 33.625 9V33C33.623 33.2978 33.5039 33.5828 33.2933 33.7933C33.0828 34.0039 32.7978 34.123 32.5 34.125ZM6.625 31.875H31.375V9C31.375 5.67 29.83 4.125 26.5 4.125H11.5C8.17 4.125 6.625 5.67 6.625 9V31.875Z" fill="#848588"/>
<path d="M16 25.875H11.5C11.2022 25.873 10.9172 25.7539 10.7067 25.5433C10.4961 25.3328 10.377 25.0478 10.375 24.75C10.377 24.4522 10.4961 24.1672 10.7067 23.9567C10.9172 23.7461 11.2022 23.627 11.5 23.625H16C16.2978 23.627 16.5828 23.7461 16.7933 23.9567C17.0039 24.1672 17.123 24.4522 17.125 24.75C17.123 25.0478 17.0039 25.3328 16.7933 25.5433C16.5828 25.7539 16.2978 25.873 16 25.875Z" fill="#848588"/>
<path d="M26.5 25.875H22C21.7022 25.873 21.4172 25.7539 21.2067 25.5433C20.9961 25.3328 20.877 25.0478 20.875 24.75C20.877 24.4522 20.9961 24.1672 21.2067 23.9567C21.4172 23.7461 21.7022 23.627 22 23.625H26.5C26.7978 23.627 27.0828 23.7461 27.2933 23.9567C27.5039 24.1672 27.623 24.4522 27.625 24.75C27.623 25.0478 27.5039 25.3328 27.2933 25.5433C27.0828 25.7539 26.7978 25.873 26.5 25.875Z" fill="#848588"/>
<path d="M16 19.125H11.5C11.2022 19.123 10.9172 19.0039 10.7067 18.7933C10.4961 18.5828 10.377 18.2978 10.375 18C10.377 17.7022 10.4961 17.4172 10.7067 17.2067C10.9172 16.9961 11.2022 16.877 11.5 16.875H16C16.2978 16.877 16.5828 16.9961 16.7933 17.2067C17.0039 17.4172 17.123 17.7022 17.125 18C17.123 18.2978 17.0039 18.5828 16.7933 18.7933C16.5828 19.0039 16.2978 19.123 16 19.125Z" fill="#848588"/>
<path d="M26.5 19.125H22C21.7022 19.123 21.4172 19.0039 21.2067 18.7933C20.9961 18.5828 20.877 18.2978 20.875 18C20.877 17.7022 20.9961 17.4172 21.2067 17.2067C21.4172 16.9961 21.7022 16.877 22 16.875H26.5C26.7978 16.877 27.0828 16.9961 27.2933 17.2067C27.5039 17.4172 27.623 17.7022 27.625 18C27.623 18.2978 27.5039 18.5828 27.2933 18.7933C27.0828 19.0039 26.7978 19.123 26.5 19.125Z" fill="#848588"/>
<path d="M16 12.375H11.5C11.2022 12.373 10.9172 12.2539 10.7067 12.0433C10.4961 11.8328 10.377 11.5478 10.375 11.25C10.377 10.9522 10.4961 10.6672 10.7067 10.4567C10.9172 10.2461 11.2022 10.127 11.5 10.125H16C16.2978 10.127 16.5828 10.2461 16.7933 10.4567C17.0039 10.6672 17.123 10.9522 17.125 11.25C17.123 11.5478 17.0039 11.8328 16.7933 12.0433C16.5828 12.2539 16.2978 12.373 16 12.375Z" fill="#848588"/>
<path d="M26.5 12.375H22C21.7022 12.373 21.4172 12.2539 21.2067 12.0433C20.9961 11.8328 20.877 11.5478 20.875 11.25C20.877 10.9522 20.9961 10.6672 21.2067 10.4567C21.4172 10.2461 21.7022 10.127 22 10.125H26.5C26.7978 10.127 27.0828 10.2461 27.2933 10.4567C27.5039 10.6672 27.623 10.9522 27.625 11.25C27.623 11.5478 27.5039 11.8328 27.2933 12.0433C27.0828 12.2539 26.7978 12.373 26.5 12.375Z" fill="#848588"/>
</svg>
