<svg width="25" height="25" viewBox="0 0 25 25" fill="none" xmlns="http://www.w3.org/2000/svg">
<path d="M8.1875 5.97874C7.98899 5.97742 7.79899 5.89753 7.65862 5.75636C7.51825 5.61519 7.43881 5.42411 7.4375 5.22447V2.20739C7.43881 2.00776 7.51825 1.81667 7.65862 1.6755C7.79899 1.53433 7.98899 1.45444 8.1875 1.45312C8.38601 1.45444 8.57601 1.53433 8.71638 1.6755C8.85675 1.81667 8.93619 2.00776 8.9375 2.20739V5.22447C8.93619 5.42411 8.85675 5.61519 8.71638 5.75636C8.57601 5.89753 8.38601 5.97742 8.1875 5.97874Z" fill="#BBB9B9"/>
<path d="M16.1875 5.97874C15.989 5.97742 15.799 5.89753 15.6586 5.75636C15.5182 5.61519 15.4388 5.42411 15.4375 5.22447V2.20739C15.4388 2.00776 15.5182 1.81667 15.6586 1.6755C15.799 1.53433 15.989 1.45444 16.1875 1.45312C16.386 1.45444 16.576 1.53433 16.7164 1.6755C16.8568 1.81667 16.9362 2.00776 16.9375 2.20739V5.22447C16.9362 5.42411 16.8568 5.61519 16.7164 5.75636C16.576 5.89753 16.386 5.97742 16.1875 5.97874Z" fill="#BBB9B9"/>
<path d="M20.6875 10.0906H3.6875C3.48899 10.0893 3.29899 10.0094 3.15862 9.86819C3.01825 9.72702 2.93881 9.53594 2.9375 9.3363C2.93881 9.13666 3.01825 8.94558 3.15862 8.80441C3.29899 8.66324 3.48899 8.58335 3.6875 8.58203H20.6875C20.886 8.58335 21.076 8.66324 21.2164 8.80441C21.3568 8.94558 21.4362 9.13666 21.4375 9.3363C21.4362 9.53594 21.3568 9.72702 21.2164 9.86819C21.076 10.0094 20.886 10.0893 20.6875 10.0906Z" fill="#BBB9B9"/>
<path d="M16.1875 23.0748H8.1875C4.5375 23.0748 2.4375 20.9628 2.4375 17.292V8.74366C2.4375 5.07289 4.5375 2.96094 8.1875 2.96094H16.1875C19.8375 2.96094 21.9375 5.07289 21.9375 8.74366V17.292C21.9375 20.9628 19.8375 23.0748 16.1875 23.0748ZM8.1875 4.46947C5.3275 4.46947 3.9375 5.86739 3.9375 8.74366V17.292C3.9375 20.1683 5.3275 21.5662 8.1875 21.5662H16.1875C19.0475 21.5662 20.4375 20.1683 20.4375 17.292V8.74366C20.4375 5.86739 19.0475 4.46947 16.1875 4.46947H8.1875Z" fill="#BBB9B9"/>
<path d="M8.6875 14.7774C8.55682 14.7758 8.42772 14.7485 8.3075 14.6969C8.18636 14.6459 8.07476 14.5745 7.9775 14.4857C7.88925 14.3879 7.81823 14.2757 7.7675 14.1539C7.71626 14.0329 7.68908 13.9031 7.6875 13.7717C7.69138 13.5055 7.79493 13.2505 7.9775 13.0577C8.07476 12.9689 8.18636 12.8975 8.3075 12.8465C8.48987 12.7661 8.69264 12.745 8.8875 12.7861C8.95016 12.7971 9.01084 12.8174 9.0675 12.8465C9.13124 12.8684 9.19177 12.8989 9.2475 12.937L9.3975 13.0577C9.44051 13.1054 9.48059 13.1558 9.5175 13.2085C9.55538 13.2645 9.58564 13.3254 9.6075 13.3895C9.63639 13.4465 9.65661 13.5075 9.6675 13.5706C9.67911 13.637 9.68579 13.7042 9.6875 13.7717C9.68362 14.0379 9.58007 14.2929 9.3975 14.4857C9.20576 14.6693 8.95223 14.7735 8.6875 14.7774Z" fill="#BBB9B9"/>
<path d="M12.1875 14.7762C11.9228 14.7723 11.6692 14.6681 11.4775 14.4845L11.3575 14.3337C11.3196 14.2776 11.2894 14.2168 11.2675 14.1527C11.2386 14.0957 11.2184 14.0347 11.2075 13.9716C11.1959 13.9052 11.1892 13.8379 11.1875 13.7705C11.1889 13.6387 11.2161 13.5085 11.2675 13.3873C11.3182 13.2655 11.3892 13.1533 11.4775 13.0555C11.6181 12.9159 11.7967 12.8214 11.9907 12.7838C12.1847 12.7462 12.3854 12.7672 12.5675 12.8443C12.6899 12.8929 12.8019 12.9645 12.8975 13.0555C13.0803 13.2485 13.1839 13.5039 13.1875 13.7705C13.1858 13.8379 13.1791 13.9052 13.1675 13.9716C13.1566 14.0347 13.1364 14.0957 13.1075 14.1527C13.0856 14.2168 13.0554 14.2776 13.0175 14.3337L12.8975 14.4845C12.8019 14.5755 12.6899 14.6471 12.5675 14.6957C12.4473 14.7473 12.3182 14.7746 12.1875 14.7762Z" fill="#BBB9B9"/>
<path d="M8.6875 18.2996C8.55682 18.298 8.42772 18.2707 8.3075 18.2192C8.18636 18.1682 8.07476 18.0967 7.9775 18.008C7.8871 17.9118 7.81582 17.7992 7.7675 17.6761C7.71626 17.5552 7.68908 17.4254 7.6875 17.2939C7.69113 17.0274 7.7947 16.772 7.9775 16.5789C8.07476 16.4901 8.18636 16.4187 8.3075 16.3677C8.48961 16.2907 8.69032 16.2696 8.88431 16.3072C9.0783 16.3448 9.25688 16.4393 9.3975 16.5789C9.44051 16.6267 9.48059 16.6771 9.5175 16.7297C9.55538 16.7858 9.58564 16.8467 9.6075 16.9108C9.63795 16.9707 9.65823 17.0352 9.6675 17.1018C9.67915 17.1653 9.68584 17.2295 9.6875 17.2939C9.68362 17.5602 9.58007 17.8151 9.3975 18.008C9.20576 18.1916 8.95223 18.2957 8.6875 18.2996Z" fill="#BBB9B9"/>
</svg>
