<svg width="25" height="21" viewBox="0 0 25 21" fill="none" xmlns="http://www.w3.org/2000/svg">
<path d="M12.0566 8.48077C13.0483 8.48077 13.8962 8.83624 14.6004 9.54718C15.3046 10.2581 15.6566 11.1142 15.6566 12.1154C15.6566 13.1166 15.3046 13.9727 14.6004 14.6836C13.8962 15.3945 13.0483 15.75 12.0566 15.75C11.065 15.75 10.2171 15.3945 9.51289 14.6836C8.80872 13.9727 8.45664 13.1166 8.45664 12.1154C8.45664 11.1142 8.80872 10.2581 9.51289 9.54718C10.2171 8.83624 11.065 8.48077 12.0566 8.48077ZM20.8566 3.23077C21.74 3.23077 22.4941 3.54627 23.1191 4.17728C23.7441 4.80829 24.0566 5.56971 24.0566 6.46154V17.7692C24.0566 18.6611 23.7441 19.4225 23.1191 20.0535C22.4941 20.6845 21.74 21 20.8566 21H3.25664C2.37331 21 1.61914 20.6845 0.99414 20.0535C0.369141 19.4225 0.0566406 18.6611 0.0566406 17.7692V6.46154C0.0566406 5.56971 0.369141 4.80829 0.99414 4.17728C1.61914 3.54627 2.37331 3.23077 3.25664 3.23077H6.05664L6.69414 1.51442C6.85247 1.10216 7.14206 0.746695 7.56289 0.448017C7.98372 0.149339 8.41497 0 8.85664 0H15.2566C15.6983 0 16.1296 0.149339 16.5504 0.448017C16.9712 0.746695 17.2608 1.10216 17.4191 1.51442L18.0566 3.23077H20.8566ZM12.0566 17.7692C13.5983 17.7692 14.9171 17.216 16.0129 16.1097C17.1087 15.0033 17.6566 13.6719 17.6566 12.1154C17.6566 10.5589 17.1087 9.22746 16.0129 8.12109C14.9171 7.01472 13.5983 6.46154 12.0566 6.46154C10.515 6.46154 9.19622 7.01472 8.10039 8.12109C7.00455 9.22746 6.45664 10.5589 6.45664 12.1154C6.45664 13.6719 7.00455 15.0033 8.10039 16.1097C9.19622 17.216 10.515 17.7692 12.0566 17.7692Z" fill="#848588"/>
</svg>
