<svg width="64" height="64" viewBox="0 0 64 64" fill="none" xmlns="http://www.w3.org/2000/svg">
<rect width="64" height="64" rx="32" fill="#D8E9EE"/>
<path d="M42.3871 35.9067C41.0851 37.2055 39.4532 38.1241 37.6674 38.5635C35.8816 39.0029 34.0098 38.9464 32.2538 38.4L25.9738 44.6667C25.7066 44.9082 25.3918 45.0912 25.0496 45.2037C24.7074 45.3162 24.3455 45.3558 23.9871 45.32L21.0804 44.92C20.5851 44.8253 20.1296 44.5841 19.773 44.2275C19.4164 43.8709 19.1751 43.4154 19.0804 42.92L18.6804 40.0094C18.651 39.6513 18.6936 39.2911 18.8059 38.9498C18.9181 38.6086 19.0976 38.2933 19.3338 38.0227L25.6004 31.756C25.0716 30.0479 25.0059 28.23 25.4101 26.4882C25.8144 24.7464 26.674 23.1432 27.9012 21.8426C29.1283 20.542 30.6789 19.5908 32.3943 19.0861C34.1097 18.5814 35.9284 18.5414 37.6643 18.9702C39.4002 19.399 40.9911 20.2813 42.2742 21.5266C43.5573 22.772 44.4866 24.3359 44.967 26.0582C45.4474 27.7806 45.4617 29.5997 45.0084 31.3294C44.5551 33.0591 43.6505 34.6373 42.3871 35.9027V35.9067Z" stroke="#306778" stroke-width="1.5" stroke-linecap="round" stroke-linejoin="round"/>
<path d="M25.187 39.3201L28.2537 42.3867" stroke="#306778" stroke-width="1.5" stroke-linecap="round" stroke-linejoin="round"/>
<path d="M37.332 28.667C37.332 29.0625 37.2147 29.4492 36.995 29.7781C36.7752 30.107 36.4629 30.3633 36.0974 30.5147C35.7319 30.6661 35.3298 30.7057 34.9419 30.6285C34.5539 30.5514 34.1975 30.3609 33.9178 30.0812C33.6381 29.8015 33.4476 29.4451 33.3705 29.0571C33.2933 28.6692 33.3329 28.267 33.4843 27.9016C33.6356 27.5361 33.892 27.2238 34.2209 27.004C34.5498 26.7843 34.9365 26.667 35.332 26.667C35.8625 26.667 36.3712 26.8777 36.7462 27.2527C37.1213 27.6278 37.332 28.1365 37.332 28.667Z" stroke="#306778" stroke-width="1.5" stroke-linecap="round" stroke-linejoin="round"/>
</svg>
