<svg width="24" height="25" viewBox="0 0 24 25" fill="none" xmlns="http://www.w3.org/2000/svg">
<path d="M12 22.991C9.87386 22.991 7.79545 22.3601 6.02762 21.1781C4.2598 19.9961 2.88194 18.316 2.0683 16.3504C1.25466 14.3848 1.04177 12.2218 1.45656 10.1351C1.87135 8.04845 2.89519 6.1317 4.39861 4.62728C5.90202 3.12286 7.81749 2.09833 9.90278 1.68326C11.9881 1.26819 14.1495 1.48122 16.1139 2.29541C18.0782 3.1096 19.7571 4.48838 20.9383 6.25739C22.1195 8.02641 22.75 10.1062 22.75 12.2338C22.7476 15.086 21.6143 17.8208 19.5988 19.8376C17.5833 21.8545 14.8504 22.9886 12 22.991ZM12 2.97757C10.1705 2.97757 8.38213 3.52044 6.86098 4.53752C5.33983 5.55461 4.15423 7.00023 3.45412 8.69158C2.75401 10.3829 2.57083 12.244 2.92774 14.0396C3.28465 15.8351 4.16563 17.4844 5.45927 18.7789C6.7529 20.0734 8.40109 20.955 10.1954 21.3121C11.9897 21.6693 13.8496 21.486 15.5398 20.7854C17.23 20.0848 18.6747 18.8984 19.6911 17.3762C20.7075 15.8541 21.25 14.0645 21.25 12.2338C21.2471 9.77977 20.2716 7.42711 18.5375 5.69187C16.8034 3.95663 14.4524 2.98049 12 2.97757Z" fill="#757575"/>
<path d="M15.7101 16.1683C15.5753 16.1708 15.4428 16.1324 15.3301 16.0583L12.2301 14.207C11.8341 13.9495 11.5057 13.6006 11.2725 13.1896C11.0393 12.7787 10.9082 12.3177 10.8901 11.8454V7.74269C10.8914 7.54405 10.9709 7.35392 11.1113 7.21345C11.2516 7.07299 11.4416 6.9935 11.6401 6.99219C11.8386 6.9935 12.0286 7.07299 12.169 7.21345C12.3094 7.35392 12.3888 7.54405 12.3901 7.74269V11.8454C12.4089 12.0573 12.4731 12.2626 12.5784 12.4474C12.6836 12.6322 12.8275 12.7921 13.0001 12.9162L16.1001 14.7674C16.1851 14.8178 16.2592 14.8845 16.3182 14.9636C16.3773 15.0428 16.4202 15.1329 16.4443 15.2286C16.4685 15.3244 16.4735 15.424 16.459 15.5218C16.4446 15.6195 16.411 15.7134 16.3601 15.7981C16.2922 15.91 16.1968 16.0027 16.0831 16.0675C15.9693 16.1323 15.841 16.167 15.7101 16.1683Z" fill="#757575"/>
</svg>
