<svg width="64" height="64" viewBox="0 0 64 64" fill="none" xmlns="http://www.w3.org/2000/svg">
<rect width="64" height="64" rx="32" fill="#D8E9EE"/>
<path d="M32 17.1191C23.1568 17.1191 16 24.2884 16 33.1488C16 42.0083 23.156 49.1785 32 49.1785C40.8432 49.1785 48 42.0092 48 33.1488C48 24.2892 40.844 17.1191 32 17.1191ZM32 46.9418C24.4086 46.9418 18.2326 40.7543 18.2326 33.1488C18.2326 25.5433 24.4086 19.3558 32 19.3558C39.5914 19.3558 45.7674 25.5433 45.7674 33.1488C45.7674 40.7543 39.5914 46.9418 32 46.9418Z" fill="#306778"/>
<path d="M31.5254 37.4023C30.6409 37.4023 29.9248 38.1408 29.9248 39.027C29.9248 39.8921 30.6198 40.6517 31.5254 40.6517C32.4311 40.6517 33.1471 39.8921 33.1471 39.027C33.1471 38.1408 32.4099 37.4023 31.5254 37.4023Z" fill="#306778"/>
<path d="M31.7994 25.0996C28.9561 25.0996 27.6504 26.7877 27.6504 27.927C27.6504 28.7499 28.3454 29.1298 28.914 29.1298C30.0513 29.1298 29.588 27.505 31.7362 27.505C32.7892 27.505 33.6317 27.9692 33.6317 28.9398C33.6317 30.0792 32.4523 30.7333 31.7573 31.3241C31.1465 31.8515 30.3462 32.7167 30.3462 34.5313C30.3462 35.6284 30.6411 35.9449 31.5045 35.9449C32.5365 35.9449 32.7471 35.4808 32.7471 35.0798C32.7471 33.9826 32.7681 33.3496 33.9265 32.4423C34.4951 31.9993 36.2853 30.5644 36.2853 28.5811C36.2853 26.5977 34.4951 25.0996 31.7994 25.0996Z" fill="#306778"/>
</svg>
