<svg width="24" height="28" viewBox="0 0 24 28" fill="none" xmlns="http://www.w3.org/2000/svg">
<path d="M15.502 21.7594C16.0542 21.7594 16.502 21.3119 16.502 20.76V10.7651C16.502 10.2132 16.0542 9.76562 15.502 9.76562C14.9498 9.76562 14.502 10.2132 14.502 10.7651V20.76C14.502 21.3119 14.9498 21.7594 15.502 21.7594Z" fill="#E24338"/>
<path d="M8.5 21.7594C9.0522 21.7594 9.5 21.3119 9.5 20.76V10.7651C9.5 10.2132 9.0522 9.76562 8.5 9.76562C7.9478 9.76562 7.5 10.2132 7.5 10.7651V20.76C7.5 21.3119 7.9478 21.7594 8.5 21.7594Z" fill="#E24338"/>
<path d="M16 2.25678C16.5522 2.25678 17 1.80921 17 1.2573C17 0.705382 16.5522 0.257812 16 0.257812H8C7.4478 0.257812 7 0.705382 7 1.2573C7 1.80921 7.4478 2.25678 8 2.25678H16Z" fill="#E24338"/>
<path d="M1 3.25781C0.4478 3.25781 0 3.70538 0 4.2573C0 4.80921 0.4478 5.25678 1 5.25678H2V23.6473C2 25.906 3.84 27.7452 6.1 27.7452H17.9C20.1599 27.7452 22 25.9061 22 23.6473V5.25678H23C23.5522 5.25678 24 4.80921 24 4.2573C24 3.70538 23.5522 3.25781 23 3.25781H21H3H1ZM20 5.25678V23.6473C20 24.8067 19.06 25.7462 17.9 25.7462H6.1C4.94 25.7462 4 24.8067 4 23.6473V5.25678H20Z" fill="#E24338"/>
</svg>
