<svg width="180" height="180" viewBox="0 0 180 180" fill="none" xmlns="http://www.w3.org/2000/svg">
<rect width="180" height="180" rx="90" fill="#D8E9EE"/>
<path d="M90.0427 134.79C81.1837 134.79 72.5237 132.163 65.1577 127.242C57.7918 122.32 52.0507 115.324 48.6606 107.14C45.2704 98.9552 44.3834 89.9491 46.1117 81.2603C47.84 72.5716 52.1059 64.5905 58.3702 58.3262C64.6344 52.062 72.6155 47.796 81.3042 46.0677C89.993 44.3394 98.9991 45.2264 107.184 48.6166C115.368 52.0068 122.364 57.7479 127.286 65.1138C132.207 72.4798 134.834 81.1398 134.834 89.9987C134.824 101.875 130.102 113.262 121.704 121.66C113.306 130.058 101.919 134.781 90.0427 134.79ZM90.0427 51.4571C82.4198 51.4571 74.9682 53.7175 68.6301 57.9525C62.2919 62.1875 57.3519 68.2069 54.4348 75.2495C51.5177 82.292 50.7544 90.0415 52.2416 97.5179C53.7287 104.994 57.3994 111.862 62.7896 117.252C68.1797 122.642 75.0472 126.313 82.5236 127.8C89.9999 129.287 97.7494 128.524 104.792 125.607C111.834 122.689 117.854 117.75 122.089 111.411C126.324 105.073 128.584 97.6216 128.584 89.9987C128.572 79.7806 124.508 69.9844 117.282 62.7591C110.057 55.5337 100.261 51.4692 90.0427 51.4571Z" fill="#306778"/>
<path d="M90.0439 97.2904C89.2168 97.2849 88.4251 96.9539 87.8403 96.3691C87.2554 95.7842 86.9244 94.9925 86.9189 94.1654V73.332C86.9244 72.5049 87.2554 71.7132 87.8403 71.1284C88.4251 70.5435 89.2168 70.2125 90.0439 70.207C90.8711 70.2125 91.6627 70.5435 92.2476 71.1284C92.8325 71.7132 93.1635 72.5049 93.1689 73.332V94.1654C93.1635 94.9925 92.8325 95.7842 92.2476 96.3691C91.6627 96.9539 90.8711 97.2849 90.0439 97.2904Z" fill="#306778"/>
<path d="M90.0426 110.854C89.4982 110.848 88.9602 110.735 88.4593 110.521C87.9516 110.297 87.4864 109.987 87.0843 109.604C86.7077 109.206 86.4107 108.739 86.2093 108.229C86.0011 107.741 85.8879 107.218 85.876 106.688C85.8798 106.136 85.9931 105.591 86.2093 105.084C86.4207 104.579 86.7166 104.114 87.0843 103.709C87.4896 103.341 87.9546 103.045 88.4593 102.834C89.4737 102.417 90.6116 102.417 91.626 102.834C92.1307 103.045 92.5957 103.341 93.001 103.709C93.3687 104.114 93.6646 104.579 93.876 105.084C94.0922 105.591 94.2055 106.136 94.2093 106.688C94.2027 107.232 94.0895 107.77 93.876 108.271C93.6746 108.781 93.3776 109.248 93.001 109.646C92.5957 110.014 92.1307 110.31 91.626 110.521C91.1251 110.735 90.5871 110.848 90.0426 110.854Z" fill="#306778"/>
</svg>
