<svg width="32" height="30" viewBox="0 0 32 30" fill="none" xmlns="http://www.w3.org/2000/svg">
<path d="M30.7398 29.4552H11.6596C11.0745 29.4552 10.5996 28.9779 10.5996 28.3897C10.5996 27.8016 11.0745 27.3242 11.6596 27.3242H30.7398C31.325 27.3242 31.7998 27.8016 31.7998 28.3897C31.7998 28.9779 31.325 29.4552 30.7398 29.4552Z" fill="white"/>
<path d="M1.05972 29.4544C0.781258 29.4544 0.511338 29.3451 0.310516 29.142C0.05043 28.8805 -0.0554159 28.5041 0.0279151 28.1446L1.5685 21.574C1.61379 21.381 1.7111 21.2046 1.8511 21.0654L21.3397 1.47605C22.5384 0.26983 24.6356 0.266968 25.837 1.47605L27.8356 3.48478C28.4363 4.08854 28.767 4.89131 28.767 5.74506C28.767 6.59906 28.4363 7.40313 27.8356 8.00533L8.34678 27.5934C8.20703 27.7341 8.03157 27.8322 7.84084 27.8775L1.30402 29.426C1.22224 29.4461 1.1402 29.4544 1.05972 29.4544ZM3.56275 22.357L2.48437 26.9569L7.06084 25.8729L26.3359 6.49813C26.5367 6.29627 26.647 6.02938 26.647 5.74506C26.647 5.46099 26.5367 5.19254 26.3359 4.99224L24.3375 2.98195C23.9374 2.57979 23.2379 2.57979 22.8394 2.98195L3.56275 22.357ZM7.59628 26.8406H7.61051H7.59628Z" fill="white"/>
<path d="M22.8092 12.6165C22.538 12.6165 22.2665 12.5127 22.0603 12.3039L17.0625 7.28048C16.6484 6.86428 16.6484 6.1895 17.0625 5.77329C17.4768 5.35682 18.1481 5.35682 18.5622 5.77329L23.5597 10.7967C23.9738 11.2129 23.9738 11.8877 23.5597 12.3039C23.3519 12.5127 23.0807 12.6165 22.8092 12.6165Z" fill="white"/>
</svg>
