<svg width="32" height="29" viewBox="0 0 32 29" fill="none" xmlns="http://www.w3.org/2000/svg">
<path d="M30.7516 28.9161H11.6713C11.0862 28.9161 10.6113 28.4382 10.6113 27.8494C10.6113 27.2606 11.0862 26.7827 11.6713 26.7827H30.7516C31.3367 26.7827 31.8116 27.2606 31.8116 27.8494C31.8116 28.4382 31.3367 28.9161 30.7516 28.9161Z" fill="#306778"/>
<path d="M1.07144 28.9162C0.792977 28.9162 0.523057 28.8068 0.322235 28.6034C0.0621488 28.3417 -0.0436971 27.9649 0.0396339 27.605L1.58022 21.027C1.62551 20.8338 1.72282 20.6572 1.86282 20.5179L21.3514 0.906748C22.5501 -0.300817 24.6474 -0.303681 25.8487 0.906748L27.8473 2.91771C28.448 3.52214 28.7787 4.3258 28.7787 5.18049C28.7787 6.03545 28.448 6.84041 27.8473 7.44328L8.3585 27.0531C8.21875 27.194 8.04329 27.2922 7.85256 27.3375L1.31574 28.8878C1.23396 28.9078 1.15192 28.9162 1.07144 28.9162ZM3.57447 21.8109L2.49609 26.4159L7.07256 25.3307L26.3476 5.93441C26.5485 5.73232 26.6587 5.46513 26.6587 5.18049C26.6587 4.89611 26.5485 4.62736 26.3476 4.42684L24.3492 2.41432C23.9491 2.01171 23.2496 2.01171 22.8511 2.41432L3.57447 21.8109ZM7.608 26.2995H7.62223H7.608Z" fill="#306778"/>
<path d="M22.821 12.0571C22.5497 12.0571 22.2783 11.9532 22.072 11.7441L17.0742 6.71512C16.6602 6.29845 16.6602 5.62292 17.0742 5.20625C17.4885 4.78932 18.1599 4.78932 18.5739 5.20625L23.5715 10.2352C23.9855 10.6519 23.9855 11.3274 23.5715 11.7441C23.3636 11.9532 23.0924 12.0571 22.821 12.0571Z" fill="#306778"/>
</svg>
