<svg width="30" height="26" viewBox="0 0 30 26" fill="none" xmlns="http://www.w3.org/2000/svg">
<path d="M21.666 25.3337H8.33268C3.46602 25.3337 0.666016 22.5337 0.666016 17.667V8.33366C0.666016 3.46699 3.46602 0.666992 8.33268 0.666992H21.666C26.5327 0.666992 29.3327 3.46699 29.3327 8.33366V17.667C29.3327 22.5337 26.5327 25.3337 21.666 25.3337ZM8.33268 2.66699C4.51935 2.66699 2.66602 4.52033 2.66602 8.33366V17.667C2.66602 21.4803 4.51935 23.3337 8.33268 23.3337H21.666C25.4794 23.3337 27.3327 21.4803 27.3327 17.667V8.33366C27.3327 4.52033 25.4794 2.66699 21.666 2.66699H8.33268Z" fill="#757575"/>
<path d="M14.9998 14.1601C13.8702 14.1749 12.7694 13.8033 11.8798 13.1068L7.70648 9.77347C7.49961 9.60903 7.36653 9.36916 7.33653 9.10661C7.30652 8.84405 7.38204 8.58034 7.54648 8.37347C7.71091 8.1666 7.95079 8.03352 8.21334 8.00352C8.47589 7.97351 8.73961 8.04903 8.94648 8.21347L13.1198 11.5468C13.664 11.9433 14.3199 12.1568 14.9931 12.1568C15.6664 12.1568 16.3223 11.9433 16.8665 11.5468L21.0398 8.21347C21.1416 8.13046 21.2589 8.06866 21.3849 8.0317C21.5109 7.99475 21.6431 7.9834 21.7735 7.99831C21.904 8.01322 22.0302 8.05409 22.1446 8.11853C22.259 8.18296 22.3594 8.26964 22.4398 8.37347C22.5228 8.47522 22.5846 8.59257 22.6216 8.71858C22.6585 8.84459 22.6699 8.97673 22.655 9.1072C22.6401 9.23767 22.5992 9.36384 22.5348 9.47826C22.4703 9.59269 22.3836 9.69306 22.2798 9.77347L18.1065 13.1068C17.223 13.8049 16.1257 14.1769 14.9998 14.1601Z" fill="#757575"/>
</svg>
