<svg width="150" height="150" viewBox="0 0 150 150" fill="none" xmlns="http://www.w3.org/2000/svg">
<path d="M55.8 112.426L74.9997 126.873L94.1994 112.426L144.137 150L5.86321 150L55.8 112.426Z" fill="#1187AB"/>
<path d="M101.509 106.927L135.645 81.2417L135.645 59.9611L150 59.9611L150 143.413L101.509 106.927Z" fill="#1187AB"/>
<path d="M14.3565 81.2429L48.4912 106.927L0.000190401 143.413L0.000183105 59.9611L14.3565 59.9611L14.3565 81.2429Z" fill="#1187AB"/>
<path d="M53.3481 48.2431C53.3481 45.034 54.0093 41.9768 55.1996 39.1983L75.2015 60.6832L90.9635 44.7896L84.723 38.6007L75.4016 47.9997L60.2958 31.7736C64.453 27.7099 70.1343 25.1979 76.3933 25.1979C89.1005 25.1979 99.4385 35.5359 99.4385 48.2431C99.4385 60.9504 89.1005 71.2884 76.3933 71.2884C63.686 71.2886 53.3481 60.9504 53.3481 48.2431Z" fill="#1187AB"/>
<path d="M74.9998 115.873L23.1455 76.8568L23.1455 9.0667e-06L126.856 0L126.856 76.8556L74.9998 115.873ZM108.228 48.2431C108.228 30.6896 93.9473 16.4089 76.3938 16.4089C67.8241 16.4089 60.0356 19.8138 54.3068 25.3403L49.3835 20.0519L42.9505 26.0405L48.8207 32.3461C46.1116 37.0268 44.5592 42.457 44.5592 48.2431C44.5592 65.7966 58.8399 80.0774 76.3935 80.0774C93.947 80.0777 108.228 65.7966 108.228 48.2431Z" fill="#1187AB"/>
</svg>
