<svg width="25" height="25" viewBox="0 0 25 25" fill="none" xmlns="http://www.w3.org/2000/svg">
<path d="M22.6245 5.53213C20.9918 3.06267 18.5254 1.26276 15.6757 0.460999C12.8259 -0.340759 9.78288 -0.0908819 7.10209 1.16501C4.42131 2.4209 2.28161 4.59903 1.07363 7.30175C-0.134344 10.0045 -0.330016 13.0515 0.52234 15.8865C1.3747 18.7215 3.21822 21.1555 5.71635 22.7439C8.21448 24.3324 11.2006 24.9694 14.1295 24.5388C17.0584 24.1081 19.7347 22.6384 21.6698 20.3981C23.6049 18.1578 24.6698 15.2962 24.67 12.3358C24.671 9.91625 23.9596 7.54996 22.6245 5.53213ZM7.09485 7.08561C8.67951 7.2658 10.2724 7.36369 11.8672 7.37889V11.8738H6.42699C6.45543 10.2567 6.67968 8.64886 7.09485 7.08561ZM12.7912 7.37599C14.3877 7.36346 15.9825 7.26812 17.5691 7.09037C17.982 8.65233 18.2046 10.2585 18.2322 11.8738H12.7912V7.37599ZM12.7912 6.45208V0.958505C14.6107 1.24096 16.2819 3.17589 17.2919 6.1852C15.8277 6.34622 14.3193 6.43545 12.7912 6.44917V6.45208ZM7.09669 17.5889C6.83265 16.6168 6.64649 15.6251 6.53997 14.6234C6.47583 14.0258 6.43834 13.4139 6.42514 12.7991H11.8672V17.2961C11.2218 17.3025 10.5759 17.3181 9.94023 17.3489C8.97962 17.398 8.02668 17.4812 7.09669 17.5889ZM9.98695 18.2726C10.6068 18.2417 11.2374 18.223 11.8672 18.2166V23.7168C10.62 23.5222 9.42363 22.545 8.45669 20.9155C8.00744 20.145 7.64077 19.3292 7.36278 18.4817C8.22202 18.3872 9.10237 18.3169 9.98695 18.2726ZM12.7912 12.7978H18.2346C18.2054 14.4152 17.9803 16.0232 17.5643 17.5865C15.9793 17.4081 14.3861 17.312 12.7912 17.2985V12.7978ZM19.1556 11.8738C19.1272 10.2188 18.9038 8.57279 18.4901 6.96999C19.68 6.81111 20.8611 6.59244 22.0289 6.31481C23.0689 7.98874 23.6553 9.90457 23.7303 11.8738H19.1556ZM21.4659 5.49411C20.4456 5.72826 19.3604 5.92228 18.2253 6.07327C17.5654 4.03275 16.6058 2.41432 15.4734 1.36397C17.8686 2.0487 19.9735 3.49942 21.4659 5.49411ZM11.8672 0.958505V6.44917C10.3394 6.43439 8.83153 6.34517 7.36674 6.18388C8.37671 3.17589 10.0477 1.24096 11.8672 0.958505ZM9.1908 1.35684C8.05571 2.40693 7.0959 4.02958 6.43438 6.07354C5.29929 5.92254 4.21436 5.72852 3.19383 5.49438C4.68637 3.49629 6.79301 2.04284 9.1908 1.35684ZM2.62972 6.31481C3.79635 6.59364 4.97633 6.81337 6.16513 6.97316C5.75193 8.57498 5.52866 10.2198 5.49991 11.8738H0.921805C0.998991 9.90401 1.58759 7.98819 2.62972 6.31481ZM5.49991 12.7978C5.51311 13.4455 5.55271 14.0912 5.62108 14.7205C5.72693 15.7255 5.90871 16.721 6.16487 17.6984C5.8217 17.7454 5.48328 17.7961 5.15305 17.8502C4.27798 17.993 3.43115 18.163 2.62972 18.3568C1.58759 16.6834 0.998991 14.7676 0.921805 12.7978H5.49991ZM3.19014 19.1741C3.86644 19.0191 4.57415 18.8808 5.30193 18.762C5.66991 18.7018 6.05056 18.6474 6.43438 18.5962C6.73935 19.569 7.1511 20.5051 7.66213 21.3872C8.07171 22.0945 8.57995 22.7398 9.17153 23.3037C6.78042 22.6169 4.67973 21.1666 3.19014 19.1741ZM12.7912 23.7131V18.2224C14.3193 18.2372 15.8269 18.3264 17.2919 18.4864C16.2819 21.4957 14.6107 23.4306 12.7912 23.7131ZM15.4679 23.3148C16.6043 22.2631 17.5694 20.6428 18.2309 18.5952C19.366 18.7464 20.4504 18.9404 21.4701 19.1743C19.9764 21.1742 17.8678 22.6287 15.4679 23.3148ZM22.0202 18.3586C20.8553 18.0807 19.6771 17.8616 18.4901 17.7021C18.9038 16.0992 19.1271 14.453 19.1556 12.7978H23.7369C23.6575 14.769 23.0658 16.6856 22.0202 18.3586Z" fill="#757575"/>
</svg>
