<svg width="30" height="30" viewBox="0 0 30 30" fill="none" xmlns="http://www.w3.org/2000/svg">
<path d="M27.5 15C27.5 12.5277 26.7669 10.111 25.3934 8.05538C24.0199 5.99976 22.0676 4.39761 19.7836 3.45151C17.4995 2.50542 14.9861 2.25787 12.5614 2.74019C10.1366 3.2225 7.90933 4.41301 6.16117 6.16117C4.41301 7.90933 3.2225 10.1366 2.74019 12.5614C2.25787 14.9861 2.50542 17.4995 3.45151 19.7836C4.39761 22.0676 5.99976 24.0199 8.05538 25.3934C10.111 26.7669 12.5277 27.5 15 27.5" stroke="#757575" stroke-width="1.5" stroke-linecap="round" stroke-linejoin="round"/>
<path d="M10.0012 3.75H11.2512C8.81373 11.052 8.81373 18.948 11.2512 26.25H10.0012" stroke="#757575" stroke-width="1.5" stroke-linecap="round" stroke-linejoin="round"/>
<path d="M18.75 3.75C19.957 7.37805 20.5731 11.1765 20.575 15" stroke="#757575" stroke-width="1.5" stroke-linecap="round" stroke-linejoin="round"/>
<path d="M3.75 20V18.75C7.37805 19.957 11.1765 20.5731 15 20.575" stroke="#757575" stroke-width="1.5" stroke-linecap="round" stroke-linejoin="round"/>
<path d="M3.75 11.25C11.052 8.81251 18.948 8.81251 26.25 11.25" stroke="#757575" stroke-width="1.5" stroke-linecap="round" stroke-linejoin="round"/>
<path d="M26.75 22.75C26.75 23.5411 26.5154 24.3145 26.0759 24.9723C25.6364 25.6301 25.0116 26.1428 24.2807 26.4455C23.5498 26.7483 22.7456 26.8275 21.9696 26.6731C21.1937 26.5188 20.481 26.1378 19.9216 25.5784C19.3622 25.019 18.9812 24.3063 18.8269 23.5304C18.6725 22.7544 18.7517 21.9502 19.0545 21.2193C19.3572 20.4884 19.8699 19.8636 20.5277 19.4241C21.1855 18.9846 21.9589 18.75 22.75 18.75C23.8109 18.75 24.8283 19.1714 25.5784 19.9216C26.3286 20.6717 26.75 21.6891 26.75 22.75Z" stroke="#757575" stroke-width="1.5" stroke-linecap="round" stroke-linejoin="round"/>
<path d="M27.5 27.5L26.25 26.25" stroke="#757575" stroke-width="1.5" stroke-linecap="round" stroke-linejoin="round"/>
</svg>
