<svg width="41" height="30" viewBox="0 0 41 30" fill="none" xmlns="http://www.w3.org/2000/svg">
<path d="M39.4852 13.73L26.7578 1.00258C26.4149 0.671379 25.9556 0.488114 25.4789 0.492256C25.0022 0.496399 24.5462 0.687617 24.2091 1.02473C23.8719 1.36184 23.6807 1.81786 23.6766 2.29459C23.6724 2.77131 23.8557 3.23059 24.1869 3.57351L33.8106 13.1972H1.83578C1.35356 13.1972 0.891095 13.3888 0.550116 13.7298C0.209138 14.0708 0.0175781 14.5332 0.0175781 15.0154C0.0175781 15.4977 0.209138 15.9601 0.550116 16.3011C0.891095 16.6421 1.35356 16.8336 1.83578 16.8336H33.8106L24.1869 26.4574C24.0132 26.6251 23.8747 26.8257 23.7794 27.0475C23.6842 27.2694 23.634 27.508 23.6319 27.7494C23.6298 27.9908 23.6758 28.2302 23.7672 28.4537C23.8586 28.6771 23.9937 28.8801 24.1644 29.0508C24.3351 29.2215 24.5381 29.3566 24.7615 29.448C24.985 29.5394 25.2244 29.5854 25.4658 29.5833C25.7072 29.5812 25.9458 29.531 26.1677 29.4358C26.3895 29.3405 26.5901 29.202 26.7578 29.0283L39.4852 16.3009C39.8261 15.9599 40.0176 15.4976 40.0176 15.0154C40.0176 14.5333 39.8261 14.0709 39.4852 13.73Z" fill="#2CAE9F"/>
</svg>
