<svg width="121" height="121" viewBox="0 0 121 121" fill="none" xmlns="http://www.w3.org/2000/svg">
<ellipse cx="60.6641" cy="60.1528" rx="60" ry="60.1176" fill="#EFF9FC"/>
<path d="M50.998 44.2303C50.5183 44.2271 50.0591 44.0351 49.7199 43.6957C49.3807 43.3564 49.1887 42.8971 49.1855 42.4172V35.1647C49.1887 34.6848 49.3807 34.2255 49.7199 33.8861C50.0591 33.5468 50.5183 33.3547 50.998 33.3516C51.4778 33.3547 51.937 33.5468 52.2762 33.8861C52.6154 34.2255 52.8074 34.6848 52.8105 35.1647V42.4172C52.8074 42.8971 52.6154 43.3564 52.2762 43.6957C51.937 44.0351 51.4778 44.2271 50.998 44.2303Z" fill="#306778"/>
<path d="M70.3301 44.2303C69.8504 44.2271 69.3912 44.0351 69.0519 43.6957C68.7127 43.3564 68.5207 42.8971 68.5176 42.4172V35.1647C68.5207 34.6848 68.7127 34.2255 69.0519 33.8861C69.3912 33.5468 69.8504 33.3547 70.3301 33.3516C70.8098 33.3547 71.269 33.5468 71.6082 33.8861C71.9474 34.2255 72.1394 34.6848 72.1426 35.1647V42.4172C72.1394 42.8971 71.9474 43.3564 71.6082 43.6957C71.269 44.0351 70.8098 44.2271 70.3301 44.2303Z" fill="#306778"/>
<path d="M52.2057 65.3805C51.567 65.3731 50.9544 65.1254 50.4899 64.6867C50.043 64.2239 49.792 63.6064 49.7891 62.963C49.7929 62.6471 49.8586 62.335 49.9824 62.0444C50.1052 61.7524 50.2768 61.4834 50.4899 61.249C50.9572 60.8176 51.5698 60.5781 52.2057 60.5781C52.8416 60.5781 53.4542 60.8176 53.9216 61.249C54.3622 61.7119 54.6124 62.3239 54.6224 62.963C54.6171 63.1251 54.601 63.2866 54.5741 63.4465C54.5478 63.598 54.4989 63.7447 54.4291 63.8817C54.3762 64.0358 54.3031 64.1821 54.2116 64.3168L53.9216 64.6794C53.4582 65.1208 52.8455 65.3711 52.2057 65.3805Z" fill="#306778"/>
<path d="M60.6647 65.3859C60.3489 65.382 60.0369 65.3163 59.7464 65.1925C59.4499 65.0728 59.1791 64.8971 58.9489 64.6751C58.506 64.2166 58.2553 63.6059 58.248 62.9684C58.2519 62.6525 58.3175 62.3404 58.4414 62.0497C58.564 61.7569 58.7356 61.4871 58.9489 61.252C59.1799 61.0334 59.4506 60.8611 59.7464 60.7443C60.1874 60.5645 60.6712 60.5168 61.1388 60.6069C61.6065 60.697 62.0379 60.9211 62.3805 61.252C62.8217 61.7155 63.072 62.3284 63.0814 62.9684C63.0761 63.1304 63.0599 63.292 63.033 63.4519C63.0067 63.6034 62.9579 63.75 62.888 63.887C62.8352 64.0411 62.7621 64.1874 62.6705 64.3222C62.5813 64.4488 62.4845 64.5699 62.3805 64.6848C61.9172 65.1261 61.3045 65.3765 60.6647 65.3859Z" fill="#306778"/>
<path d="M52.2057 73.8461C51.8899 73.8423 51.5779 73.7766 51.2874 73.6527C50.9887 73.5418 50.7169 73.3688 50.4899 73.1451C50.2663 72.918 50.0933 72.6461 49.9824 72.3473C49.8586 72.0567 49.7929 71.7446 49.7891 71.4287C49.7926 71.1119 49.8583 70.799 49.9824 70.5076C50.0933 70.2088 50.2663 69.9369 50.4899 69.7098C50.7169 69.4861 50.9887 69.3131 51.2874 69.2021C51.5773 69.0765 51.8898 69.0117 52.2057 69.0117C52.5216 69.0117 52.8342 69.0765 53.1241 69.2021C53.4228 69.3131 53.6946 69.4861 53.9216 69.7098C54.1452 69.9369 54.3181 70.2088 54.4291 70.5076C54.5532 70.799 54.6189 71.1119 54.6224 71.4287C54.6186 71.7446 54.5529 72.0567 54.4291 72.3473C54.3205 72.6473 54.1474 72.9198 53.9218 73.1454C53.6963 73.3709 53.424 73.5442 53.1241 73.6527C52.8335 73.7766 52.5215 73.8423 52.2057 73.8461Z" fill="#306778"/>
<path d="M81.2064 54.1184H40.123C39.6433 54.1153 39.1841 53.9232 38.8449 53.5839C38.5057 53.2445 38.3137 52.7852 38.3105 52.3053C38.3137 51.8254 38.5057 51.3661 38.8449 51.0267C39.1841 50.6874 39.6433 50.4954 40.123 50.4922H81.2064C81.6861 50.4954 82.1453 50.6874 82.4845 51.0267C82.8237 51.3661 83.0157 51.8254 83.0189 52.3053C83.0157 52.7852 82.8237 53.2445 82.4845 53.5839C82.1453 53.9232 81.6861 54.1153 81.2064 54.1184Z" fill="#306778"/>
<path d="M75.1647 87.7435C72.3733 87.7597 69.6762 86.7339 67.6006 84.8667C66.6946 84.1003 65.9263 83.1846 65.3289 82.1591C64.2518 80.3804 63.6834 78.3401 63.6856 76.2604C63.6856 73.2149 64.895 70.2942 67.0477 68.1407C69.2005 65.9872 72.1203 64.7773 75.1647 64.7773C78.2092 64.7773 81.129 65.9872 83.2817 68.1407C85.4345 70.2942 86.6439 73.2149 86.6439 76.2604C86.6467 78.3511 86.0695 80.4014 84.9764 82.1833C83.9603 83.8789 82.5225 85.2823 80.803 86.2567C79.0835 87.2312 77.141 87.7434 75.1647 87.7435ZM75.1647 68.4036C73.0828 68.4074 71.0873 69.2364 69.6152 70.709C68.1431 72.1817 67.3144 74.1779 67.3106 76.2604C67.3064 77.6857 67.6997 79.0838 68.4464 80.2977C68.8467 80.9916 69.3614 81.6128 69.9689 82.135C71.3919 83.4228 73.2458 84.1301 75.1647 84.1173C77.2468 84.1141 79.2427 83.2853 80.7149 81.8126C82.1872 80.3398 83.0157 78.3432 83.0189 76.2604C83.0051 74.3502 82.3111 72.5073 81.0614 71.0628C80.3223 70.2278 79.4146 69.559 78.3982 69.1006C77.3817 68.6422 76.2797 68.4046 75.1647 68.4036Z" fill="#306778"/>
<path d="M73.7838 80.4661C73.5457 80.4669 73.3098 80.4203 73.0899 80.329C72.87 80.2377 72.6705 80.1035 72.503 79.9342L70.1105 77.5409C69.8021 77.1952 69.6378 76.7445 69.6511 76.2814C69.6645 75.8183 69.8547 75.3778 70.1825 75.0505C70.5103 74.7232 70.9509 74.5339 71.4139 74.5213C71.8769 74.5088 72.3271 74.6741 72.6721 74.9832L73.8321 76.1436L77.6988 72.5657C78.0513 72.2387 78.5192 72.0652 78.9996 72.0833C79.2375 72.0923 79.4713 72.1481 79.6876 72.2474C79.904 72.3468 80.0986 72.4878 80.2605 72.6624C80.4223 72.837 80.5482 73.0418 80.6309 73.2651C80.7137 73.4883 80.7516 73.7257 80.7427 73.9637C80.7337 74.2016 80.6779 74.4355 80.5786 74.6519C80.4793 74.8683 80.3383 75.063 80.1638 75.2249L75.0163 79.9874C74.6765 80.2902 74.2388 80.4602 73.7838 80.4661Z" fill="#306778"/>
<path d="M68.8082 85.3265H50.9974C42.1766 85.3265 37.1016 80.2497 37.1016 71.4259V50.8772C37.1016 42.0533 42.1766 36.9766 50.9974 36.9766H70.3307C79.1516 36.9766 84.2266 42.0533 84.2266 50.8772V69.8787C84.2239 70.248 84.109 70.6078 83.897 70.9102C83.6851 71.2127 83.3863 71.4435 83.0401 71.572C82.694 71.7005 82.317 71.7207 81.9591 71.6298C81.6013 71.539 81.2795 71.3414 81.0366 71.0632C79.9806 69.8666 78.5856 69.0199 77.037 68.6356C75.4883 68.2513 73.8594 68.3476 72.3669 68.9118C70.8743 69.476 69.5887 70.4812 68.6811 71.794C67.7735 73.1067 67.2868 74.6647 67.2857 76.2608C67.2816 77.6861 67.6749 79.0842 68.4216 80.2981C68.8218 80.992 69.3366 81.6132 69.9441 82.1354C70.2291 82.3739 70.4333 82.6948 70.5285 83.0542C70.6237 83.4135 70.6053 83.7935 70.4757 84.1419C70.36 84.4912 70.1359 84.7944 69.836 85.0075C69.5361 85.2205 69.176 85.3323 68.8082 85.3265ZM50.9974 40.6028C44.0857 40.6028 40.7266 43.9631 40.7266 50.8772V71.4259C40.7266 78.3399 44.0857 81.7002 50.9974 81.7002H65.0624C64.1559 80.0308 63.6823 78.1607 63.6849 76.2608C63.6828 74.2738 64.1967 72.3203 65.1762 70.5917C66.1558 68.863 67.5675 67.4186 69.2729 66.3999C70.9783 65.3811 72.9191 64.823 74.905 64.7802C76.8909 64.7374 78.8538 65.2114 80.6016 66.1557V50.8772C80.6016 43.9631 77.2424 40.6028 70.3307 40.6028H50.9974Z" fill="#306778"/>
</svg>
