<svg width="40" height="39" viewBox="0 0 40 39" fill="none" xmlns="http://www.w3.org/2000/svg">
<path d="M39.4989 18.8939C40.224 18.0965 40.154 16.8742 39.3426 16.1646L21.4661 0.522575C20.6546 -0.187005 19.3538 -0.172141 18.5594 0.556085L0.622114 16.9986C-0.172219 17.7268 -0.211205 18.9475 0.535797 19.724L0.98551 20.1924C1.7316 20.9688 2.93757 21.0614 3.6774 20.3985L5.01794 19.198V36.7735C5.01794 37.8518 5.89168 38.7248 6.96922 38.7248H13.9612C15.0388 38.7248 15.9125 37.8518 15.9125 36.7735V24.4778H24.8309V36.7735C24.8154 37.851 25.5864 38.724 26.6639 38.724H34.0737C35.1512 38.724 36.025 37.851 36.025 36.7727V19.4455C36.025 19.4455 36.3953 19.7699 36.852 20.1714C37.308 20.5721 38.2657 20.2508 38.9908 19.4525L39.4989 18.8939Z" fill="#306778"/>
</svg>
