<svg width="40" height="36" viewBox="0 0 40 36" fill="none" xmlns="http://www.w3.org/2000/svg">
<path d="M39.5747 14.0834L20.614 0.200864C20.2484 -0.066792 19.7517 -0.066792 19.3862 0.200864L0.425436 14.0834C-0.0376892 14.4226 -0.138314 15.0729 0.200826 15.536C0.539967 15.9991 1.19036 16.0996 1.6534 15.7606L20 2.3275L38.3467 15.7606C38.5317 15.8961 38.7467 15.9613 38.9598 15.9613C39.2798 15.9613 39.5956 15.8141 39.7992 15.5359C40.1384 15.0729 40.0378 14.4226 39.5747 14.0834Z" fill="#848588"/>
<path d="M34.5503 15.9957C33.9764 15.9957 33.511 16.461 33.511 17.035V33.5779H25.1968V24.5478C25.1968 21.6821 22.8654 19.3509 19.9999 19.3509C17.1345 19.3509 14.803 21.6823 14.803 24.5478V33.578H6.48875V17.0351C6.48875 16.4611 6.02336 15.9958 5.44945 15.9958C4.87555 15.9958 4.41016 16.4611 4.41016 17.0351V34.6174C4.41016 35.1914 4.87555 35.6567 5.44945 35.6567H15.8423C16.3889 35.6567 16.8362 35.2344 16.8776 34.6983C16.8801 34.674 16.8816 34.6474 16.8816 34.6174V24.5478C16.8816 22.8284 18.2805 21.4296 19.9999 21.4296C21.7194 21.4296 23.1182 22.8285 23.1182 24.5478V34.6174C23.1182 34.6473 23.1198 34.6734 23.1223 34.6974C23.1632 35.2339 23.6106 35.6567 24.1575 35.6567H34.5504C35.1244 35.6567 35.5897 35.1914 35.5897 34.6174V17.0351C35.5896 16.461 35.1243 15.9957 34.5503 15.9957Z" fill="#848588"/>
</svg>
