<svg width="40" height="40" viewBox="0 0 40 40" fill="none" xmlns="http://www.w3.org/2000/svg">
<path d="M35 12.9167H5C4.66915 12.9145 4.35248 12.7821 4.11853 12.5481C3.88458 12.3142 3.75218 11.9975 3.75 11.6667C3.75218 11.3358 3.88458 11.0191 4.11853 10.7852C4.35248 10.5512 4.66915 10.4188 5 10.4167H35C35.3308 10.4188 35.6475 10.5512 35.8815 10.7852C36.1154 11.0191 36.2478 11.3358 36.25 11.6667C36.2478 11.9975 36.1154 12.3142 35.8815 12.5481C35.6475 12.7821 35.3308 12.9145 35 12.9167Z" fill="#292D32"/>
<path d="M21.3077 21H4.69231C4.50907 20.9983 4.33368 20.8923 4.20411 20.7052C4.07454 20.518 4.00121 20.2647 4 20C4.00121 19.7353 4.07454 19.482 4.20411 19.2948C4.33368 19.1077 4.50907 19.0017 4.69231 19H21.3077C21.4909 19.0017 21.6663 19.1077 21.7959 19.2948C21.9255 19.482 21.9988 19.7353 22 20C21.9988 20.2647 21.9255 20.518 21.7959 20.7052C21.6663 20.8923 21.4909 20.9983 21.3077 21Z" fill="#292D32"/>
<path d="M15.5385 29H4.46154C4.33938 28.9983 4.22245 28.8923 4.13607 28.7052C4.04969 28.518 4.00081 28.2647 4 28C4.00081 27.7353 4.04969 27.482 4.13607 27.2948C4.22245 27.1077 4.33938 27.0017 4.46154 27H15.5385C15.6606 27.0017 15.7775 27.1077 15.8639 27.2948C15.9503 27.482 15.9992 27.7353 16 28C15.9992 28.2647 15.9503 28.518 15.8639 28.7052C15.7775 28.8923 15.6606 28.9983 15.5385 29Z" fill="#292D32"/>
</svg>
