<svg width="24" height="24" viewBox="0 0 24 24" fill="none" xmlns="http://www.w3.org/2000/svg">
<path d="M12 22.7495C9.87386 22.7495 7.79546 22.1191 6.02763 20.9378C4.2598 19.7566 2.88194 18.0777 2.0683 16.1134C1.25466 14.1491 1.04177 11.9876 1.45656 9.9023C1.87135 7.817 2.89519 5.90154 4.39861 4.39812C5.90202 2.8947 7.81749 1.87087 9.90279 1.45607C11.9881 1.04128 14.1496 1.25417 16.1139 2.06781C18.0782 2.88145 19.7571 4.25931 20.9383 6.02714C22.1195 7.79497 22.75 9.87337 22.75 11.9995C22.7476 14.8499 21.6143 17.5828 19.5988 19.5983C17.5833 21.6138 14.8504 22.7471 12 22.7495ZM12 2.74952C10.1705 2.74952 8.38214 3.29202 6.86098 4.30842C5.33983 5.32483 4.15423 6.76948 3.45412 8.4597C2.75401 10.1499 2.57083 12.0098 2.92774 13.8041C3.28466 15.5984 4.16563 17.2466 5.45927 18.5403C6.7529 19.8339 8.4011 20.7149 10.1954 21.0718C11.9897 21.4287 13.8496 21.2455 15.5398 20.5454C17.23 19.8453 18.6747 18.6597 19.6911 17.1385C20.7075 15.6174 21.25 13.829 21.25 11.9995C21.2471 9.54716 20.2716 7.19608 18.5375 5.462C16.8035 3.72791 14.4524 2.75243 12 2.74952Z" fill="#306778"/>
<path d="M12 13.7495C11.8015 13.7482 11.6115 13.6688 11.4711 13.5284C11.3307 13.388 11.2513 13.198 11.25 12.9995V7.99951C11.2513 7.801 11.3307 7.611 11.4711 7.47063C11.6115 7.33026 11.8015 7.25082 12 7.24951C12.1985 7.25082 12.3885 7.33026 12.5289 7.47063C12.6693 7.611 12.7487 7.801 12.75 7.99951V12.9995C12.7487 13.198 12.6693 13.388 12.5289 13.5284C12.3885 13.6688 12.1985 13.7482 12 13.7495Z" fill="#306778"/>
<path d="M12 17.0049C11.8693 17.0033 11.7402 16.9761 11.62 16.9249C11.4981 16.8711 11.3865 16.7967 11.29 16.7049C11.1996 16.6093 11.1283 16.4973 11.08 16.3749C11.03 16.2578 11.0029 16.1322 11 16.0049C11.0009 15.8725 11.0281 15.7417 11.08 15.6199C11.1307 15.4988 11.2017 15.3872 11.29 15.2899C11.3873 15.2016 11.4989 15.1306 11.62 15.0799C11.8635 14.9799 12.1365 14.9799 12.38 15.0799C12.5011 15.1306 12.6127 15.2016 12.71 15.2899C12.7983 15.3872 12.8693 15.4988 12.92 15.6199C12.9719 15.7417 12.9991 15.8725 13 16.0049C12.9984 16.1356 12.9712 16.2647 12.92 16.3849C12.8717 16.5073 12.8004 16.6193 12.71 16.7149C12.6127 16.8031 12.5011 16.8742 12.38 16.9249C12.2598 16.9761 12.1307 17.0033 12 17.0049Z" fill="#306778"/>
</svg>
