<svg width="35" height="36" viewBox="0 0 35 36" fill="none" xmlns="http://www.w3.org/2000/svg">
<path d="M17.0425 35.0107C13.6722 35.0107 10.3776 34.0113 7.57527 32.1389C4.77297 30.2665 2.58885 27.6051 1.29909 24.4913C0.00933641 21.3776 -0.328122 17.9513 0.329389 14.6458C0.986901 11.3402 2.60985 8.30391 4.99301 5.92075C7.37617 3.53759 10.4125 1.91464 13.718 1.25712C17.0236 0.599612 20.4498 0.937071 23.5636 2.22683C26.6773 3.51658 29.3387 5.70071 31.2111 8.50301C33.0836 11.3053 34.083 14.5999 34.083 17.9702C34.0792 22.4885 32.2827 26.8206 29.0878 30.0155C25.8929 33.2104 21.5607 35.007 17.0425 35.0107ZM17.0425 3.30744C14.1425 3.30744 11.3076 4.1674 8.89628 5.77856C6.485 7.38973 4.60563 9.67974 3.49584 12.359C2.38605 15.0383 2.09568 17.9865 2.66145 20.8308C3.22721 23.6751 4.62371 26.2877 6.67433 28.3384C8.72496 30.389 11.3376 31.7855 14.1819 32.3512C17.0262 32.917 19.9744 32.6266 22.6537 31.5168C25.3329 30.4071 27.623 28.5277 29.2341 26.1164C30.8453 23.7051 31.7052 20.8702 31.7052 17.9702C31.7006 14.0828 30.1543 10.356 27.4055 7.60716C24.6567 4.85836 20.9299 3.31206 17.0425 3.30744Z" fill="#306778"/>
<path d="M17.0434 20.745C16.7287 20.7429 16.4275 20.617 16.205 20.3945C15.9825 20.172 15.8566 19.8708 15.8545 19.5561V11.6303C15.8566 11.3156 15.9825 11.0144 16.205 10.7919C16.4275 10.5694 16.7287 10.4435 17.0434 10.4414C17.358 10.4435 17.6592 10.5694 17.8817 10.7919C18.1042 11.0144 18.2302 11.3156 18.2322 11.6303V19.5561C18.2302 19.8708 18.1042 20.172 17.8817 20.3945C17.6592 20.617 17.358 20.7429 17.0434 20.745Z" fill="#306778"/>
<path d="M17.0427 25.9047C16.8355 25.9022 16.6309 25.8591 16.4403 25.7779C16.2471 25.6927 16.0702 25.5747 15.9172 25.4292C15.7739 25.2776 15.6609 25.1001 15.5843 24.9061C15.5051 24.7204 15.4621 24.5214 15.4575 24.3196C15.459 24.1097 15.5021 23.9023 15.5843 23.7093C15.6647 23.5172 15.7773 23.3403 15.9172 23.1862C16.0714 23.0463 16.2483 22.9337 16.4403 22.8533C16.8262 22.6947 17.2591 22.6947 17.645 22.8533C17.8371 22.9337 18.014 23.0463 18.1681 23.1862C18.308 23.3403 18.4206 23.5172 18.501 23.7093C18.5833 23.9023 18.6264 24.1097 18.6278 24.3196C18.6253 24.5267 18.5823 24.7314 18.501 24.9219C18.4244 25.1159 18.3114 25.2935 18.1681 25.445C18.014 25.5849 17.8371 25.6975 17.645 25.7779C17.4545 25.8591 17.2498 25.9022 17.0427 25.9047Z" fill="#306778"/>
</svg>
