<svg width="150" height="151" viewBox="0 0 150 151" fill="none" xmlns="http://www.w3.org/2000/svg">
<path d="M150 75.0016C150 60.5582 149.268 47.4918 147.1 39.9332C144.551 31.0855 141.768 22.9996 134.004 15.8512C124.746 7.35505 116.338 4.48395 104.15 2.1109C95.0977 0.353091 84.5508 -0.0277689 77.959 0.001528C75.9961 0.001528 74.0332 0.001528 72.0703 0.001528C65.4785 -0.0277689 54.9316 0.353091 45.8789 2.1109C33.6914 4.48395 25.2832 7.35505 16.0254 15.8804C8.26172 23.0289 5.47852 31.1148 2.92969 39.9625C0.732422 47.5211 0 60.5875 0 75.0016V75.0309V75.0602C0 89.4743 0.732422 102.541 2.90039 110.099C5.44922 118.947 8.23242 127.033 15.9961 134.181C25.2539 142.707 33.6621 145.578 45.8496 147.951C56.3965 150.002 68.9355 150.177 74.9121 150.002L74.9707 150.06L75.0293 150.002C81.0352 150.177 93.5742 149.972 104.092 147.951C116.279 145.578 124.688 142.707 133.945 134.181C141.709 127.033 144.492 118.947 147.041 110.099C149.268 102.541 150 89.445 150 75.0016Z" fill="#1187AB"/>
<path d="M93.7794 28.1851C78.3399 28.1851 66.2989 40.2261 66.2989 55.0504C66.2989 57.9801 66.2989 60.8219 67.2364 63.4879C57.5098 74.8844 31.875 105.031 29.502 107.316C28.5352 108.166 27.9785 109.425 27.9785 110.685C27.9785 112.589 29.1504 114.435 30.1465 115.49C31.6406 117.043 37.9981 122.931 39.1699 121.789C42.627 118.42 43.3301 117.511 44.7656 116.105C46.9043 113.996 44.5313 109.718 45.293 107.99C46.0254 106.261 46.8164 105.91 48.1055 105.646C49.3946 105.382 51.6797 106.291 53.4375 106.32C55.3125 106.349 56.3086 105.558 57.7149 104.24C58.8282 103.214 59.6485 102.248 59.6778 100.724C59.7364 98.7028 56.8067 96.0074 58.9746 93.8688C61.1719 91.7301 64.3067 95.275 66.6504 94.982C68.9649 94.7184 71.7774 91.4957 72.0704 90.1188C72.3633 88.7418 69.4336 85.1969 69.8731 83.2047C70.0196 82.5309 71.3965 80.9488 72.4512 80.7145C73.4766 80.4801 78.0762 82.2672 79.1309 82.0328C80.3907 81.7691 81.8555 80.4215 83.0567 79.6891C86.543 81.2125 89.7364 81.7984 93.8087 81.7984C109.248 81.7984 121.758 69.7574 121.758 54.9332C121.729 40.1676 109.219 28.1851 93.7794 28.1851ZM100.107 57.0133C96.1231 57.0133 92.9005 53.7906 92.9005 49.8062C92.9005 45.8219 96.1231 42.5992 100.107 42.5992C104.092 42.5992 107.315 45.8219 107.315 49.8062C107.315 53.7906 104.092 57.0133 100.107 57.0133Z" fill="white"/>
</svg>
