<svg width="30" height="30" viewBox="0 0 30 30" fill="none" xmlns="http://www.w3.org/2000/svg">
<path d="M24.7374 18.6624C23.5167 19.88 21.9868 20.7412 20.3127 21.1531C18.6385 21.5651 16.8836 21.5121 15.2374 20.9999L9.34988 26.8749C9.09939 27.1013 8.80425 27.2728 8.48347 27.3783C8.1627 27.4838 7.82339 27.521 7.48738 27.4874L4.76238 27.1124C4.29799 27.0236 3.87097 26.7974 3.53665 26.4631C3.20233 26.1288 2.97614 25.7018 2.88738 25.2374L2.51238 22.5086C2.48478 22.173 2.52476 21.8353 2.62997 21.5154C2.73517 21.1954 2.90346 20.8999 3.12488 20.6461L8.99988 14.7711C8.50407 13.1698 8.4425 11.4655 8.82148 9.83254C9.20046 8.19959 10.0064 6.69661 11.1568 5.47732C12.3073 4.25804 13.7609 3.36622 15.3691 2.89308C16.9773 2.41993 18.6823 2.38245 20.3097 2.78446C21.9372 3.18647 23.4286 4.01355 24.6315 5.18109C25.8344 6.34864 26.7056 7.81475 27.156 9.42947C27.6064 11.0442 27.6198 12.7496 27.1948 14.3711C26.7699 15.9927 25.9218 17.4724 24.7374 18.6586V18.6624Z" stroke="#757575" stroke-width="1.5" stroke-linecap="round" stroke-linejoin="round"/>
<path d="M8.61255 21.8624L11.4875 24.7374" stroke="#757575" stroke-width="1.5" stroke-linecap="round" stroke-linejoin="round"/>
<path d="M20 11.8749C20 12.2458 19.89 12.6083 19.684 12.9166C19.478 13.225 19.1851 13.4653 18.8425 13.6072C18.4999 13.7491 18.1229 13.7863 17.7592 13.7139C17.3955 13.6416 17.0614 13.463 16.7992 13.2008C16.537 12.9385 16.3584 12.6044 16.286 12.2407C16.2137 11.877 16.2508 11.5 16.3927 11.1574C16.5346 10.8148 16.775 10.522 17.0833 10.3159C17.3916 10.1099 17.7542 9.99994 18.125 9.99994C18.6223 9.99994 19.0992 10.1975 19.4508 10.5491C19.8025 10.9007 20 11.3777 20 11.8749Z" stroke="#757575" stroke-width="1.5" stroke-linecap="round" stroke-linejoin="round"/>
</svg>
