<svg width="51" height="51" viewBox="0 0 51 51" fill="none" xmlns="http://www.w3.org/2000/svg">
<circle cx="25.1084" cy="25.8516" r="25" fill="white"/>
<path d="M28.8835 30.3142L29.9622 28.5638L31.9089 27.8999L32.1246 25.8553L33.5892 24.4134L32.8928 22.4781L33.5892 20.5427L32.1246 19.1009L31.909 17.0563L29.9623 16.3924L28.8836 14.642L26.8432 14.8883L25.11 13.7822L23.3768 14.8884L21.3365 14.6421L20.2578 16.3925L18.3111 17.0564L18.0955 19.1009L16.6309 20.5428L17.3272 22.4782L16.6309 24.4135L18.0954 25.8553L18.3111 27.8999L20.2578 28.5638L21.3365 30.3142L23.3768 30.0679L25.11 31.1741L26.8432 30.0679L28.8835 30.3142ZM19.1469 22.4782C19.1469 19.1901 21.8219 16.515 25.11 16.515C28.3981 16.515 31.0732 19.1901 31.0732 22.4782C31.0732 25.7662 28.3981 28.4413 25.11 28.4413C21.8219 28.4413 19.1469 25.7662 19.1469 22.4782Z" fill="#F3B10E"/>
<path d="M25.1084 17.8945C22.5829 17.8945 20.5283 19.9492 20.5283 22.4746C20.5283 25.0001 22.5829 27.0548 25.1084 27.0548C27.6339 27.0548 29.6885 25.0001 29.6885 22.4746C29.6885 19.9492 27.6339 17.8945 25.1084 17.8945Z" fill="#F3B10E"/>
<path d="M23.0424 31.4991L20.6153 31.7921L19.3329 29.7111L18.897 29.5625L17.0166 35.4398L20.4018 35.2537L23.0503 37.3702L24.6089 32.4989L23.0424 31.4991Z" fill="#F3B10E"/>
<path d="M30.8707 29.7112L29.5883 31.7921L27.1612 31.4991L25.5947 32.4989L27.1533 37.3702L29.8018 35.2537L33.187 35.4398L31.3066 29.5625L30.8707 29.7112Z" fill="#F3B10E"/>
</svg>
