<svg width="26" height="32" viewBox="0 0 26 32" fill="none" xmlns="http://www.w3.org/2000/svg">
<path d="M25.282 28.0595L21.2339 21.048C21.9053 20.4826 22.3693 19.6785 22.4933 18.7673C22.5775 18.1477 22.8962 17.5956 23.3906 17.2129C24.6724 16.2207 25.1388 14.48 24.5249 12.9798C24.2881 12.4011 24.2881 11.7637 24.5249 11.185C25.1388 9.6848 24.6724 7.94416 23.3906 6.95195C22.8962 6.56921 22.5774 6.01718 22.4933 5.39759C22.2748 3.79147 21.0005 2.51715 19.3944 2.29881C18.7749 2.21454 18.2228 1.89587 17.8402 1.40142C16.8479 0.119598 15.1074 -0.346785 13.607 0.267121C13.0283 0.503969 12.3909 0.503969 11.8122 0.267121C10.3121 -0.346848 8.57137 0.119598 7.57915 1.40142C7.19641 1.89587 6.64439 2.21454 6.02479 2.29881C4.41861 2.51721 3.14435 3.79147 2.92601 5.39765C2.84174 6.01725 2.52307 6.56927 2.02862 6.95201C0.746798 7.94423 0.280414 9.68493 0.894321 11.1851C1.13117 11.7637 1.13117 12.4012 0.894321 12.9799C0.280352 14.48 0.746798 16.2207 2.02862 17.213C2.52307 17.5957 2.84174 18.1477 2.92601 18.7673C3.05153 19.6905 3.52635 20.5035 4.21201 21.0699L0.176524 28.0595C0.0501295 28.2785 0.0680073 28.5521 0.221968 28.7526C0.375867 28.9531 0.635344 29.0413 0.879694 28.9759L4.39717 28.0334L5.33562 31.5357C5.40107 31.7799 5.60717 31.9606 5.85783 31.9936C5.88521 31.9973 5.91252 31.999 5.93959 31.999C6.16075 31.999 6.36816 31.8815 6.48074 31.6865L10.8353 24.1443C11.1655 24.1087 11.4943 24.0279 11.8122 23.8977C12.3909 23.6609 13.0284 23.6609 13.6069 23.8977C13.9384 24.0334 14.2817 24.1161 14.6261 24.1491L18.9778 31.6865C19.0904 31.8816 19.2978 31.999 19.5189 31.999C19.546 31.999 19.5733 31.9973 19.6007 31.9936C19.8514 31.9606 20.0575 31.7799 20.1229 31.5357L21.0615 28.0334L24.5789 28.9759C24.823 29.0413 25.0827 28.9532 25.2366 28.7526C25.3905 28.5521 25.4084 28.2785 25.282 28.0595ZM6.15256 29.7545L5.44289 27.106C5.39995 26.9459 5.29524 26.8094 5.15166 26.7265C5.00807 26.6436 4.83755 26.6211 4.67734 26.664L2.01374 27.3777L5.29818 21.6889C5.5304 21.772 5.7735 21.8319 6.02473 21.8661C6.64432 21.9504 7.19634 22.269 7.57909 22.7635C8.06485 23.391 8.73014 23.8226 9.45869 24.0282L6.15256 29.7545ZM11.3386 22.7407C10.3566 23.1427 9.21722 22.8373 8.56768 21.9983C7.98296 21.2429 7.13965 20.756 6.19313 20.6273C5.14178 20.4844 4.30759 19.6503 4.16469 18.5989C4.03599 17.6523 3.5491 16.8091 2.79374 16.2243C1.95467 15.5748 1.64937 14.4353 2.05125 13.4534C2.41312 12.5693 2.41312 11.5956 2.05125 10.7115C1.64937 9.72956 1.95467 8.59008 2.79374 7.9406C3.5491 7.35589 4.03599 6.51263 4.16469 5.56605C4.30765 4.51471 5.14178 3.68052 6.19313 3.53756C7.13965 3.40891 7.98296 2.92203 8.56768 2.16666C9.02575 1.57488 9.72729 1.24865 10.4457 1.24865C10.7459 1.24865 11.0491 1.30572 11.3385 1.42417C12.2227 1.78598 13.1964 1.78598 14.0805 1.42417C15.0624 1.02224 16.2019 1.32759 16.8514 2.16666C17.4361 2.92203 18.2793 3.40891 19.2258 3.53756C20.2772 3.68052 21.1113 4.51464 21.2543 5.56605C21.383 6.51263 21.8699 7.35589 22.6253 7.9406C23.4643 8.59008 23.7696 9.7295 23.3678 10.7115C23.0059 11.5956 23.0059 12.5693 23.3678 13.4534C23.7696 14.4353 23.4643 15.5748 22.6253 16.2243C21.8699 16.809 21.383 17.6523 21.2543 18.5988C21.1113 19.6502 20.2772 20.4844 19.2259 20.6273C18.2793 20.7559 17.436 21.2428 16.8513 21.9982C16.2018 22.8374 15.0624 23.1426 14.0805 22.7407C13.1964 22.3789 12.2227 22.3789 11.3386 22.7407ZM20.7812 26.664C20.4476 26.5746 20.105 26.7726 20.0156 27.106L19.3059 29.7545L15.9941 24.0183C16.7094 23.809 17.3618 23.3813 17.8401 22.7635C18.2228 22.269 18.7748 21.9503 19.3943 21.8661C19.6573 21.8303 19.9112 21.7658 20.1532 21.6766L23.4447 27.3777L20.7812 26.664Z" fill="#306778"/>
<path d="M9.86916 9.77062L7.9243 11.7154C7.8071 11.8326 7.74121 11.9916 7.74121 12.1574C7.74121 12.3232 7.8071 12.4822 7.9243 12.5994L11.5719 16.2471C11.6891 16.3643 11.8481 16.4302 12.0139 16.4302C12.1797 16.4302 12.3387 16.3643 12.4559 16.2471L17.5348 11.1682C17.7789 10.9241 17.7789 10.5283 17.5348 10.2842L15.59 8.33934C15.4728 8.22214 15.3138 8.15625 15.148 8.15625C14.9822 8.15625 14.8232 8.22214 14.706 8.33934L12.014 11.0314L10.7533 9.77068C10.6361 9.65348 10.4771 9.58759 10.3113 9.58759C10.1454 9.58753 9.98636 9.65341 9.86916 9.77062ZM11.5719 12.3575C11.6891 12.4747 11.8481 12.5405 12.0139 12.5405C12.1796 12.5405 12.3387 12.4747 12.4559 12.3575L15.1479 9.66535L16.2087 10.7262L12.0139 14.9211L9.25032 12.1575L10.3112 11.0967L11.5719 12.3575Z" fill="#306778"/>
<path d="M20.8559 12.2933C20.8559 10.6328 20.3583 9.03579 19.4169 7.67496C18.4976 6.34619 17.2206 5.3301 15.724 4.73663C15.4029 4.60943 15.0397 4.76639 14.9125 5.08731C14.7852 5.40823 14.9422 5.77154 15.2631 5.89881C17.9012 6.94491 19.6058 9.45491 19.6058 12.2933C19.6058 16.0847 16.5212 19.1693 12.7298 19.1693C8.9383 19.1693 5.85371 16.0847 5.85371 12.2933C5.85371 9.45485 7.55834 6.94484 10.1964 5.89875C10.5174 5.77148 10.6744 5.40817 10.5471 5.08725C10.4198 4.76632 10.0565 4.6093 9.73561 4.73657C8.23894 5.3301 6.96194 6.34613 6.04261 7.67489C5.10115 9.03573 4.60352 10.6327 4.60352 12.2932C4.60352 16.774 8.24895 20.4195 12.7298 20.4195C17.2106 20.4195 20.8559 16.7741 20.8559 12.2933Z" fill="#306778"/>
<path d="M12.7335 5.41718C12.899 5.41718 13.0612 5.35092 13.1782 5.23403C13.2952 5.11776 13.3625 4.95711 13.3625 4.79209C13.3625 4.62769 13.2952 4.46641 13.1782 4.35015C13.0612 4.23388 12.899 4.16699 12.7335 4.16699C12.5681 4.16699 12.4058 4.23388 12.2888 4.35015C12.1718 4.46641 12.1045 4.62769 12.1045 4.79209C12.1045 4.95711 12.1718 5.11776 12.2888 5.23403C12.4058 5.35092 12.5681 5.41718 12.7335 5.41718Z" fill="#306778"/>
</svg>
