<svg width="18" height="25" viewBox="0 0 18 25" fill="none" xmlns="http://www.w3.org/2000/svg">
<path d="M12.8093 17.3308L13.888 15.5804L15.8347 14.9165L16.0504 12.8719L17.515 11.43L16.8186 9.49471L17.515 7.55933L16.0504 6.11748L15.8347 4.07295L13.8881 3.40904L12.8094 1.65859L10.769 1.90495L9.03581 0.798828L7.30259 1.90504L5.2623 1.65869L4.18359 3.40909L2.23692 4.073L2.02125 6.11753L0.556641 7.55938L1.25299 9.49476L0.556641 11.4301L2.02121 12.8719L2.23687 14.9165L4.18355 15.5804L5.26225 17.3308L7.30259 17.0845L9.03581 18.1907L10.769 17.0845L12.8093 17.3308ZM3.07264 9.49476C3.07264 6.20668 5.74772 3.53159 9.03581 3.53159C12.3239 3.53159 14.999 6.20668 14.999 9.49476C14.999 12.7828 12.3239 15.4579 9.03581 15.4579C5.74772 15.4579 3.07264 12.7828 3.07264 9.49476Z" fill="#757575"/>
<path d="M9.03421 4.91113C6.50872 4.91113 4.4541 6.96575 4.4541 9.49124C4.4541 12.0167 6.50872 14.0714 9.03421 14.0714C11.5597 14.0714 13.6143 12.0167 13.6143 9.49124C13.6143 6.96575 11.5597 4.91113 9.03421 4.91113Z" fill="#757575"/>
<path d="M6.96816 18.5157L4.54104 18.8087L3.2587 16.7277L2.82275 16.5791L0.942383 22.4564L4.32759 22.2703L6.97609 24.3868L8.53464 19.5155L6.96816 18.5157Z" fill="#757575"/>
<path d="M14.7964 16.7278L13.5141 18.8087L11.087 18.5157L9.52051 19.5155L11.0791 24.3868L13.7276 22.2703L17.1128 22.4564L15.2324 16.5791L14.7964 16.7278Z" fill="#757575"/>
</svg>
