<svg width="80" height="80" viewBox="0 0 80 80" fill="none" xmlns="http://www.w3.org/2000/svg">
<circle cx="40" cy="40" r="40" fill="#FEF9EA"/>
<path d="M46.7766 48.033L48.6058 45.0648L51.9067 43.9391L52.2724 40.4721L54.7559 38.0272L53.5752 34.7455L54.7559 31.4637L52.2725 29.0188L51.9068 25.5519L48.6059 24.4261L46.7767 21.4579L43.317 21.8756L40.378 20L37.439 21.8758L33.9793 21.458L32.1502 24.4262L28.8492 25.552L28.4835 29.0188L26 31.4638L27.1808 34.7455L26 38.0273L28.4834 40.4722L28.8491 43.9391L32.1501 45.0649L33.9792 48.033L37.439 47.6154L40.378 49.4911L43.317 47.6154L46.7766 48.033ZM30.2663 34.7455C30.2663 29.17 34.8024 24.6339 40.378 24.6339C45.9535 24.6339 50.4896 29.17 50.4896 34.7455C50.4896 40.3211 45.9535 44.8572 40.378 44.8572C34.8024 44.8572 30.2663 40.3211 30.2663 34.7455Z" fill="#F3B10E"/>
<path d="M40.3777 26.9805C36.0953 26.9805 32.6113 30.4645 32.6113 34.7469C32.6113 39.0293 36.0953 42.5133 40.3777 42.5133C44.6602 42.5133 48.1441 39.0293 48.1441 34.7469C48.1441 30.4645 44.6602 26.9805 40.3777 26.9805Z" fill="#F3B10E"/>
<path d="M36.8858 50.0436L32.7702 50.5405L30.5957 47.0118L29.8565 46.7598L26.668 56.7259L32.4082 56.4102L36.8992 59.9992L39.542 51.7389L36.8858 50.0436Z" fill="#F3B10E"/>
<path d="M50.1602 47.0119L47.9857 50.5405L43.8701 50.0436L41.2139 51.7389L43.8567 59.9992L48.3477 56.4102L54.0879 56.7259L50.8994 46.7598L50.1602 47.0119Z" fill="#F3B10E"/>
</svg>
