<svg width="33" height="33" viewBox="0 0 33 33" fill="none" xmlns="http://www.w3.org/2000/svg">
<path d="M16.9563 30.9105C14.983 30.9105 12.9963 30.1638 11.4496 28.6838C7.51629 24.8971 3.16962 18.8571 4.80962 11.6705C6.28962 5.15047 11.983 2.23047 16.9563 2.23047C16.9563 2.23047 16.9563 2.23047 16.9696 2.23047C21.943 2.23047 27.6363 5.15047 29.1163 11.6838C30.743 18.8705 26.3963 24.8971 22.463 28.6838C20.9163 30.1638 18.9296 30.9105 16.9563 30.9105ZM16.9563 4.23047C13.0763 4.23047 8.08962 6.29714 6.76962 12.1105C5.32962 18.3905 9.27629 23.8038 12.8496 27.2305C15.1563 29.4571 18.7696 29.4571 21.0763 27.2305C24.6363 23.8038 28.583 18.3905 27.1696 12.1105C25.8363 6.29714 20.8363 4.23047 16.9563 4.23047Z" fill="#F6F6F6"/>
<path d="M15.2891 18.8964C15.0358 18.8964 14.7825 18.8031 14.5825 18.6031L12.5825 16.6031C12.1958 16.2164 12.1958 15.5764 12.5825 15.1897C12.9691 14.8031 13.6091 14.8031 13.9958 15.1897L15.2891 16.4831L19.9158 11.8564C20.3025 11.4697 20.9425 11.4697 21.3291 11.8564C21.7158 12.2431 21.7158 12.8831 21.3291 13.2697L15.9958 18.6031C15.7958 18.8031 15.5425 18.8964 15.2891 18.8964Z" fill="#F6F6F6"/>
</svg>
