<svg width="33" height="33" viewBox="0 0 33 33" fill="none" xmlns="http://www.w3.org/2000/svg">
<path d="M16.4006 19.5585C15.3813 19.5572 14.3854 19.2541 13.5387 18.6875C12.6919 18.1209 12.0325 17.3163 11.6436 16.3754C11.2548 15.4345 11.1541 14.3996 11.3542 13.4015C11.5544 12.4035 12.0464 11.4871 12.768 10.7683C13.4896 10.0495 14.4085 9.56051 15.4084 9.36322C16.4083 9.16593 17.4443 9.26919 18.3855 9.65993C19.3266 10.0507 20.1306 10.7113 20.6958 11.5584C21.2609 12.4055 21.5619 13.4009 21.5606 14.4187C21.556 15.7828 21.0104 17.0895 20.0434 18.0528C19.0763 19.0161 17.7665 19.5575 16.4006 19.5585ZM16.4006 11.263C15.7756 11.263 15.1646 11.448 14.645 11.7948C14.1253 12.1416 13.7203 12.6344 13.4811 13.2111C13.2419 13.7877 13.1794 14.4222 13.3013 15.0344C13.4232 15.6466 13.7242 16.2089 14.1661 16.6502C14.608 17.0916 15.1711 17.3921 15.7841 17.5139C16.3971 17.6357 17.0324 17.5732 17.6099 17.3343C18.1873 17.0955 18.6808 16.691 19.028 16.172C19.3752 15.653 19.5606 15.0429 19.5606 14.4187C19.5588 13.5823 19.2253 12.7806 18.6331 12.1892C18.0408 11.5978 17.2381 11.2647 16.4006 11.263V11.263Z" fill="white"/>
<path d="M16.4004 30.997C14.3463 30.993 12.3733 30.1962 10.8937 28.7733C6.9644 24.9917 2.61373 18.9598 4.25373 11.7827C4.87905 9.05335 6.42993 6.62383 8.64361 4.90572C10.8573 3.18762 13.5976 2.28658 16.4004 2.35527H16.4137C19.2191 2.28604 21.9619 3.18845 24.1767 4.9093C26.3916 6.63015 27.9418 9.06339 28.5644 11.796C30.1911 18.9731 25.8444 24.9917 21.9111 28.7733C20.4305 30.1972 18.4559 30.994 16.4004 30.997V30.997ZM16.4004 4.3526C14.0494 4.26935 11.7433 5.01081 9.88256 6.44831C8.0218 7.8858 6.72376 9.92858 6.21373 12.2221C4.77373 18.4937 8.7204 23.8998 12.2937 27.3219C13.3953 28.3912 14.8709 28.9894 16.4071 28.9894C17.9432 28.9894 19.4189 28.3912 20.5204 27.3219C24.0804 23.8998 28.0271 18.4937 26.6137 12.2221C26.0963 9.9274 24.7925 7.88527 22.9278 6.44843C21.063 5.0116 18.7543 4.2703 16.4004 4.3526V4.3526Z" fill="white"/>
</svg>
