<svg width="33" height="33" viewBox="0 0 33 33" fill="none" xmlns="http://www.w3.org/2000/svg">
<path d="M16.4006 18.9903C15.3813 18.9889 14.3854 18.6854 13.5387 18.1181C12.6919 17.5507 12.0325 16.745 11.6436 15.8029C11.2548 14.8607 11.1541 13.8244 11.3542 12.825C11.5544 11.8256 12.0464 10.908 12.768 10.1883C13.4896 9.46849 14.4085 8.97887 15.4084 8.78132C16.4083 8.58377 17.4443 8.68716 18.3855 9.07842C19.3266 9.46969 20.1306 10.1312 20.6958 10.9794C21.2609 11.8276 21.5619 12.8244 21.5606 13.8436C21.556 15.2095 21.0104 16.5179 20.0434 17.4825C19.0763 18.4471 17.7665 18.9892 16.4006 18.9903ZM16.4006 10.6836C15.7756 10.6836 15.1646 10.8689 14.645 11.2161C14.1253 11.5634 13.7203 12.0569 13.4811 12.6343C13.2419 13.2117 13.1794 13.8471 13.3013 14.4601C13.4232 15.0731 13.7242 15.6361 14.1661 16.0781C14.608 16.52 15.1711 16.8209 15.7841 16.9429C16.3971 17.0648 17.0324 17.0022 17.6099 16.7631C18.1873 16.5239 18.6808 16.1189 19.028 15.5992C19.3752 15.0795 19.5606 14.4686 19.5606 13.8436C19.5588 13.006 19.2253 12.2033 18.6331 11.6111C18.0408 11.0188 17.2381 10.6854 16.4006 10.6836Z" fill="#757575"/>
<path d="M16.4004 30.4454C14.3463 30.4414 12.3733 29.6436 10.8937 28.2188C6.9644 24.4321 2.61373 18.3921 4.25373 11.2054C4.87905 8.47246 6.42993 6.03969 8.64361 4.31929C10.8573 2.59889 13.5976 1.69665 16.4004 1.76543H16.4137C19.2191 1.69611 21.9619 2.59972 24.1768 4.32287C26.3916 6.04602 27.9418 8.48252 28.5644 11.2188C30.1911 18.4054 25.8444 24.4321 21.9111 28.2188C20.4305 29.6445 18.4559 30.4424 16.4004 30.4454ZM16.4004 3.76543C14.0494 3.68207 11.7433 4.42452 9.88256 5.86394C8.0218 7.30335 6.72376 9.34886 6.21373 11.6454C4.77373 17.9254 8.7204 23.3388 12.2937 26.7654C13.3953 27.8362 14.8709 28.4352 16.4071 28.4352C17.9432 28.4352 19.4189 27.8362 20.5204 26.7654C24.0804 23.3388 28.0271 17.9254 26.6137 11.6454C26.0963 9.34768 24.7925 7.30282 22.9278 5.86406C21.063 4.42531 18.7543 3.68302 16.4004 3.76543Z" fill="#757575"/>
</svg>
