<svg width="64" height="64" viewBox="0 0 64 64" fill="none" xmlns="http://www.w3.org/2000/svg">
<rect width="64" height="64" rx="32" fill="#D8E9EE"/>
<path d="M44.0313 21.4743C44.0009 21.4275 43.9628 21.3861 43.9188 21.3518C42.4205 19.6687 40.5831 18.3216 38.5272 17.3993C36.4712 16.4769 34.2434 16 31.99 16C29.7366 16 27.5088 16.4769 25.4529 17.3993C23.3969 18.3216 21.5595 19.6687 20.0613 21.3518C20.0194 21.385 19.9831 21.4247 19.9538 21.4693V21.4818C17.9311 23.7956 16.6177 26.6429 16.1704 29.6834C15.7231 32.7239 16.1609 35.8288 17.4315 38.6271C18.702 41.4253 20.7516 43.7985 23.3351 45.4628C25.9186 47.1271 28.9268 48.0121 32 48.0121C35.0732 48.0121 38.0814 47.1271 40.6649 45.4628C43.2484 43.7985 45.298 41.4253 46.5686 38.6271C47.8391 35.8288 48.2769 32.7239 47.8296 29.6834C47.3823 26.6429 46.0689 23.7956 44.0463 21.4818L44.0313 21.4743ZM43.5313 41.5768C42.3953 40.9138 41.1897 40.378 39.9363 39.9793C40.7136 37.5625 41.124 35.0428 41.1538 32.5043H46.9813C46.8746 35.8292 45.6603 39.0232 43.5313 41.5793V41.5768ZM17.0063 32.5043H22.8338C22.8633 35.0437 23.2737 37.5642 24.0513 39.9818C22.7978 40.3805 21.5922 40.9163 20.4563 41.5793C18.3272 39.0232 17.1129 35.8292 17.0063 32.5043ZM20.4938 22.3918C21.6241 23.0488 22.8229 23.5803 24.0688 23.9768C23.2799 26.4094 22.8635 28.9472 22.8338 31.5043H17.0063C17.1152 28.1619 18.3434 24.9529 20.4938 22.3918ZM32.4938 25.1643C34.6899 25.1332 36.8735 24.8275 38.9938 24.2543C39.7421 26.5994 40.1365 29.0429 40.1638 31.5043H32.4938V25.1643ZM32.4938 24.1643V17.0343C35.0288 17.3168 37.2438 19.7318 38.6438 23.3118C36.6364 23.8468 34.5709 24.1331 32.4938 24.1643ZM31.4938 24.1643C29.4166 24.1331 27.3511 23.8468 25.3438 23.3118C26.7438 19.7318 28.9588 17.3168 31.4938 17.0343V24.1643ZM31.4938 25.1643V31.5043H23.8338C23.8578 29.0434 24.2488 26.5999 24.9938 24.2543C27.114 24.8275 29.2976 25.1332 31.4938 25.1643ZM23.8338 32.5043H31.4938V38.7893C29.2974 38.822 27.1138 39.1294 24.9938 39.7043C24.2543 37.3746 23.8634 34.9484 23.8338 32.5043ZM31.4938 39.7893V46.9743C28.9488 46.6893 26.7138 44.2543 25.3238 40.6468C27.3374 40.1084 29.4097 39.8204 31.4938 39.7893ZM32.4938 39.7893C34.5779 39.8205 36.6502 40.1085 38.6638 40.6468C37.2738 44.2543 35.0388 46.6893 32.4938 46.9743V39.7893ZM32.4938 38.7893V32.5043H40.1538C40.1239 34.9475 39.733 37.3729 38.9938 39.7018C36.8736 39.1277 34.69 38.8212 32.4938 38.7893ZM41.1538 31.5043C41.124 28.9472 40.7076 26.4094 39.9188 23.9768C41.1646 23.5803 42.3634 23.0488 43.4938 22.3918C45.6442 24.9529 46.8723 28.1619 46.9813 31.5043H41.1538ZM42.8163 21.6343C41.7888 22.2107 40.7047 22.6798 39.5813 23.0343C38.6588 20.6643 37.3788 18.7543 35.8788 17.5168C38.5239 18.23 40.9232 19.654 42.8163 21.6343ZM28.1088 17.5168C26.6088 18.7468 25.3313 20.6618 24.4088 23.0343C23.2853 22.6798 22.2012 22.2107 21.1738 21.6343C23.0662 19.6544 25.4645 18.2305 28.1088 17.5168ZM21.1363 42.3393C22.1677 41.7564 23.2569 41.2822 24.3863 40.9243C25.3113 43.3193 26.5963 45.2543 28.1063 46.4918C25.4456 45.7742 23.034 44.3375 21.1363 42.3393ZM35.8863 46.4918C37.3863 45.2418 38.6813 43.3193 39.6063 40.9243C40.7356 41.2822 41.8248 41.7564 42.8563 42.3393C40.9564 44.3386 38.5421 45.7754 35.8788 46.4918H35.8863Z" fill="#306778"/>
</svg>
