<svg width="64" height="64" viewBox="0 0 64 64" fill="none" xmlns="http://www.w3.org/2000/svg">
<rect width="64" height="64" rx="32" fill="#D8E9EE"/>
<path d="M34.3198 45.6933H34.1465C28.2265 45.6933 25.3731 43.36 24.8798 38.1333C24.8671 38.0019 24.8806 37.8693 24.9193 37.7432C24.9581 37.617 25.0215 37.4997 25.1057 37.3981C25.19 37.2965 25.2935 37.2125 25.4103 37.1511C25.5272 37.0896 25.655 37.0519 25.7865 37.04C26.0508 37.0194 26.3128 37.1025 26.5169 37.2718C26.721 37.441 26.8511 37.6831 26.8798 37.9467C27.2665 42.1333 29.2398 43.6933 34.1598 43.6933H34.3305C39.7571 43.6933 41.6771 41.7733 41.6771 36.3467V27.6533C41.6771 22.2267 39.7571 20.3067 34.3305 20.3067H34.1571C29.2105 20.3067 27.2371 21.8933 26.8771 26.16C26.8483 26.4224 26.7181 26.6631 26.5141 26.8307C26.3102 26.9982 26.0488 27.0794 25.7858 27.0567C25.5228 27.0341 25.2791 26.9095 25.1068 26.7095C24.9345 26.5095 24.8473 26.2501 24.8638 25.9867C25.3198 20.68 28.1865 18.3067 34.1465 18.3067H34.3198C40.8638 18.3067 43.6638 21.1067 43.6638 27.6533V36.3467C43.6638 42.8933 40.8638 45.6933 34.3198 45.6933Z" fill="#306778"/>
<path d="M34 33H18.8267C18.562 32.9983 18.3086 32.8923 18.1215 32.7052C17.9343 32.518 17.8284 32.2647 17.8267 32C17.8284 31.7353 17.9343 31.482 18.1215 31.2948C18.3086 31.1077 18.562 31.0017 18.8267 31H34C34.2647 31.0017 34.518 31.1077 34.7052 31.2948C34.8923 31.482 34.9982 31.7353 35 32C34.9982 32.2647 34.8923 32.518 34.7052 32.7052C34.518 32.8923 34.2647 32.9983 34 33Z" fill="#306778"/>
<path d="M21.8042 37.4693C21.6728 37.4698 21.5426 37.4441 21.4213 37.3938C21.3 37.3434 21.1899 37.2694 21.0975 37.176L16.6282 32.7067C16.4422 32.5185 16.3379 32.2646 16.3379 32C16.3379 31.7354 16.4422 31.4815 16.6282 31.2933L21.0948 26.8267C21.2844 26.65 21.5351 26.5539 21.7942 26.5584C22.0533 26.563 22.3004 26.668 22.4837 26.8512C22.6669 27.0344 22.7718 27.2816 22.7764 27.5406C22.781 27.7997 22.6848 28.0504 22.5082 28.24L18.7468 32.0027L22.5068 35.7627C22.6928 35.9509 22.7971 36.2048 22.7971 36.4693C22.7971 36.7339 22.6928 36.9878 22.5068 37.176C22.4157 37.2699 22.3064 37.3443 22.1856 37.3948C22.0648 37.4452 21.935 37.4706 21.8042 37.4693Z" fill="#306778"/>
</svg>
