<svg width="91" height="71" viewBox="0 0 91 71" fill="none" xmlns="http://www.w3.org/2000/svg">
<path d="M88.5277 57.2683L87.3274 56.3431C87.9276 54.1842 87.9276 51.717 87.3274 49.2498L88.5277 48.3246C90.028 47.3994 90.3281 45.549 89.7279 44.3153C88.8277 42.7733 87.0274 42.4649 85.8271 43.0817L84.3268 44.3153C82.8265 42.4649 80.726 41.2313 78.3255 40.9229V39.3809C78.3255 37.8389 77.1252 36.2969 75.3248 36.2969C73.5244 36.2969 72.3242 37.5305 72.3242 39.3809V40.9229C69.9237 41.5397 68.1233 42.7733 66.3229 44.3153L65.1226 43.6985C63.6223 42.7733 61.8219 43.3901 61.2218 44.9322C60.3216 46.4742 60.9217 48.3246 62.422 48.9414L63.6223 49.8666C63.0222 52.0254 63.0222 54.4926 63.6223 56.9599L62.422 57.8851C60.9217 58.8103 60.6217 60.6607 61.2218 61.8943C62.122 63.4363 63.9224 63.7447 65.1226 63.1279L66.3229 62.5111C67.8232 64.3615 69.9237 65.5951 72.3242 65.9035V67.4455C72.3242 68.9876 73.5244 70.5296 75.3248 70.5296C77.1252 70.5296 78.3255 69.296 78.3255 67.4455V65.9035C80.726 65.2867 82.5264 64.0531 84.3268 62.5111L85.527 63.1279C87.0274 64.0531 88.8277 63.4363 89.4279 61.8943C90.3281 59.7355 90.028 57.8851 88.5277 57.2683ZM81.9263 52.9506C81.9263 56.6515 78.9256 59.4271 75.6249 59.4271C72.0241 59.4271 69.3235 56.3431 69.3235 52.9506C69.3235 49.2498 72.3242 46.4742 75.6249 46.4742C78.9256 46.4742 81.9263 49.2498 81.9263 52.9506Z" fill="#B75BFF"/>
<path d="M58.8303 40.8929C60.6307 38.7341 63.6313 38.1173 66.3319 38.7341C67.2321 38.1173 67.8322 37.8089 68.7324 37.1921C69.6326 33.1829 73.5335 30.7157 77.4343 31.6409C78.9346 31.9493 80.4349 32.8745 81.6352 34.4165C82.2353 35.3417 82.8355 36.2669 82.8355 37.1921C84.6359 38.1173 85.236 38.7341 87.3364 38.4257V12.5199C87.3364 5.73503 81.9353 0.492188 75.6339 0.492188H11.7201C5.41875 0.492188 0.0175781 6.04344 0.0175781 12.5199V49.2198C0.0175781 56.0047 5.41875 61.2475 11.7201 61.2475H57.0299C56.4298 58.7803 57.33 56.0047 59.1303 54.1543C59.1303 53.2291 59.1303 52.3038 59.1303 51.3786C56.1297 48.603 56.1297 43.977 58.8303 40.8929ZM35.4252 33.4913L16.2211 20.5384C15.0208 19.6132 14.7208 17.7627 15.6209 16.5291C16.5211 14.9871 18.0215 14.6787 19.5218 15.6039L38.7259 28.5568C41.7266 30.7157 45.6274 30.7157 48.6281 28.5568L67.8322 15.6039C69.3326 14.6787 71.1329 15.2955 71.7331 16.5291C72.6333 17.7627 72.3332 19.6132 70.8329 20.5384L51.6287 33.4913C46.8277 36.8837 40.2263 36.8837 35.4252 33.4913Z" fill="#B75BFF"/>
</svg>
