<svg width="64" height="65" viewBox="0 0 64 65" fill="none" xmlns="http://www.w3.org/2000/svg">
<g clip-path="url(#clip0_990_645)">
<path d="M32.0004 38.3243C29.9619 38.3216 27.97 37.7146 26.2765 36.5799C24.5831 35.4452 23.2641 33.8338 22.4865 31.9495C21.7088 30.0652 21.5074 27.9926 21.9077 25.9938C22.308 23.995 23.2919 22.1598 24.7352 20.7203C26.1785 19.2807 28.0162 18.3015 30.016 17.9064C32.0159 17.5113 34.0879 17.7181 35.9702 18.5006C37.8525 19.2831 39.4605 20.6062 40.5908 22.3026C41.7211 23.999 42.323 25.9925 42.3204 28.0309C42.3112 30.7627 41.2201 33.3796 39.286 35.3087C37.3518 37.2379 34.7321 38.3222 32.0004 38.3243ZM32.0004 21.7109C30.7504 21.7109 29.5285 22.0816 28.4892 22.776C27.4498 23.4705 26.6398 24.4575 26.1614 25.6124C25.6831 26.7672 25.5579 28.0379 25.8018 29.2639C26.0457 30.4899 26.6476 31.616 27.5314 32.4999C28.4153 33.3837 29.5414 33.9856 30.7674 34.2295C31.9934 34.4734 33.2641 34.3482 34.4189 33.8699C35.5737 33.3915 36.5608 32.5815 37.2552 31.5421C37.9497 30.5028 38.3204 29.2809 38.3204 28.0309C38.3168 26.3558 37.6499 24.7504 36.4654 23.5659C35.2809 22.3814 33.6754 21.7145 32.0004 21.7109Z" fill="#306778"/>
<path d="M32 61.2346C27.8919 61.2265 23.9458 59.6309 20.9867 56.7813C13.128 49.2079 4.42668 37.1279 7.70668 22.7546C8.95733 17.2887 12.0591 12.4231 16.4864 8.98233C20.9138 5.54153 26.3945 3.73705 32 3.87461H32.0267C37.6373 3.73598 43.1231 5.5432 47.5527 8.98949C51.9823 12.4358 55.0829 17.3088 56.328 22.7813C59.5814 37.1546 50.888 49.2079 43.0214 56.7813C40.0602 59.6328 36.1109 61.2286 32 61.2346ZM32 7.87461C27.2979 7.70788 22.6859 9.19279 18.9643 12.0716C15.2428 14.9505 12.6467 19.0415 11.6267 23.6346C8.74668 36.1946 16.64 47.0213 23.7867 53.8746C25.9897 56.0161 28.941 57.2141 32.0134 57.2141C35.0857 57.2141 38.037 56.0161 40.24 53.8746C47.36 47.0213 55.2534 36.1946 52.4267 23.6346C51.3918 19.0391 48.7843 14.9494 45.0547 12.0719C41.3252 9.19437 36.7077 7.7098 32 7.87461Z" fill="#306778"/>
</g>
<defs>
<clipPath id="clip0_990_645">
<rect y="0.539062" width="64" height="64" rx="5" fill="white"/>
</clipPath>
</defs>
</svg>
