<svg width="32" height="32" viewBox="0 0 32 32" fill="none" xmlns="http://www.w3.org/2000/svg">
<path d="M24 14.3334C23.7353 14.3317 23.482 14.2257 23.2948 14.0386C23.1077 13.8514 23.0017 13.5981 23 13.3334V10.6667C23 6.46675 21.8133 3.66675 16 3.66675C10.1867 3.66675 9 6.46675 9 10.6667V13.3334C8.99825 13.5981 8.89234 13.8514 8.70518 14.0386C8.51802 14.2257 8.26468 14.3317 8 14.3334C7.73532 14.3317 7.48198 14.2257 7.29482 14.0386C7.10766 13.8514 7.00175 13.5981 7 13.3334V10.6667C7 6.80008 7.93333 1.66675 16 1.66675C24.0667 1.66675 25 6.80008 25 10.6667V13.3334C24.9983 13.5981 24.8923 13.8514 24.7052 14.0386C24.518 14.2257 24.2647 14.3317 24 14.3334Z" fill="#757575"/>
<path d="M22.6665 30.3333H9.33317C3.45317 30.3333 1.6665 28.5466 1.6665 22.6666V19.9999C1.6665 14.1199 3.45317 12.3333 9.33317 12.3333H22.6665C28.5465 12.3333 30.3332 14.1199 30.3332 19.9999V22.6666C30.3332 28.5466 28.5465 30.3333 22.6665 30.3333ZM9.33317 14.3333C4.55984 14.3333 3.6665 15.2399 3.6665 19.9999V22.6666C3.6665 27.4266 4.55984 28.3333 9.33317 28.3333H22.6665C27.4398 28.3333 28.3332 27.4266 28.3332 22.6666V19.9999C28.3332 15.2399 27.4398 14.3333 22.6665 14.3333H9.33317Z" fill="#757575"/>
<path d="M10.6668 22.668C10.4926 22.6659 10.3205 22.6297 10.1602 22.5614C9.99699 22.4969 9.84764 22.4019 9.72016 22.2814C9.47457 22.0271 9.33613 21.6882 9.3335 21.3347C9.33543 21.16 9.37167 20.9874 9.44016 20.8267C9.50459 20.6635 9.59963 20.5142 9.72016 20.3867C9.84764 20.2662 9.99699 20.1711 10.1602 20.1067C10.403 20.0046 10.6706 19.9767 10.9292 20.0265C11.1879 20.0764 11.426 20.2017 11.6135 20.3867C11.7312 20.5164 11.8259 20.6652 11.8935 20.8267C11.962 20.9874 11.9982 21.16 12.0002 21.3347C11.995 21.6877 11.8569 22.0257 11.6135 22.2814C11.3578 22.5248 11.0198 22.6628 10.6668 22.668Z" fill="#757575"/>
<path d="M16.0002 22.6654C15.6472 22.6602 15.3092 22.5221 15.0535 22.2787C14.8079 22.0244 14.6695 21.6855 14.6669 21.332C14.6625 21.1576 14.699 20.9845 14.7735 20.8267C14.8412 20.6652 14.9358 20.5164 15.0535 20.3867C15.2087 20.233 15.3994 20.1197 15.6086 20.057C15.8178 19.9942 16.0393 19.9838 16.2535 20.0267C16.3418 20.039 16.4275 20.0661 16.5069 20.1067C16.5918 20.1358 16.6725 20.1762 16.7469 20.2267C16.8167 20.2759 16.8835 20.3293 16.9469 20.3867C17.0645 20.5164 17.1592 20.6652 17.2269 20.8267C17.295 20.9866 17.3312 21.1582 17.3335 21.332C17.3309 21.6855 17.1924 22.0244 16.9469 22.2787L16.7469 22.4387C16.6725 22.4892 16.5918 22.5295 16.5069 22.5587C16.4275 22.5993 16.3418 22.6263 16.2535 22.6387C16.1699 22.6542 16.0852 22.6631 16.0002 22.6654Z" fill="#757575"/>
<path d="M21.3333 22.6653C20.9799 22.6627 20.6409 22.5242 20.3867 22.2786C20.269 22.1489 20.1743 22.0001 20.1067 21.8386C20.0383 21.6783 20.0021 21.5062 20 21.332C20.0055 20.9795 20.1436 20.642 20.3867 20.3866L20.5867 20.2266C20.661 20.1761 20.7417 20.1358 20.8267 20.1066C20.9022 20.0681 20.9831 20.0411 21.0667 20.0266C21.2829 19.9836 21.5064 19.9938 21.7179 20.0566C21.9293 20.1193 22.1222 20.2326 22.28 20.3866C22.5253 20.6405 22.6637 20.9789 22.6667 21.332C22.6646 21.5062 22.6283 21.6783 22.56 21.8386C22.4956 22.0018 22.4005 22.1512 22.28 22.2786C22.0243 22.522 21.6863 22.6601 21.3333 22.6653Z" fill="#757575"/>
</svg>
