<svg width="150" height="183" viewBox="0 0 150 183" fill="none" xmlns="http://www.w3.org/2000/svg">
<path d="M147.029 41.8562L78.1085 0.854376C76.1931 -0.284792 73.8076 -0.284792 71.8922 0.854376L2.97117 41.8562C1.12919 42.9523 0 44.9378 0 47.0811V70.4868C0 119.784 28.4827 164.81 72.8052 181.971C74.2161 182.517 75.7828 182.518 77.1951 181.971C121.41 164.853 150 119.925 150 70.4868V47.0811C150 44.9375 148.872 42.9523 147.029 41.8562ZM105.035 77.5295L66.9327 115.632C64.5585 118.006 60.7093 118.006 58.3351 115.632L44.9629 102.26C42.5888 99.8864 42.5888 96.0369 44.9629 93.6627C47.3371 91.2889 51.1867 91.2889 53.5605 93.6627L62.6335 102.736L96.4374 68.9319C98.8112 66.5581 102.661 66.5581 105.035 68.9319C107.409 71.3064 107.409 75.1557 105.035 77.5295Z" fill="#1187AB"/>
</svg>
