<svg width="180" height="180" viewBox="0 0 180 180" fill="none" xmlns="http://www.w3.org/2000/svg">
<rect width="180" height="180" rx="90" fill="#D8E9EE"/>
<path d="M103.707 80.2482C102.638 79.179 100.904 79.179 99.835 80.2482L84.6099 95.4733L80.5233 91.3869C79.4542 90.3177 77.7203 90.3177 76.651 91.3869C75.5818 92.4561 75.5818 94.1899 76.651 95.2592L82.6738 101.282C83.7432 102.351 85.4769 102.351 86.5462 101.282L103.707 84.1203C104.777 83.0512 104.777 81.3175 103.707 80.2482Z" fill="#306778"/>
<path d="M122.626 68.0515L91.5844 49.5843C90.7217 49.0712 89.6472 49.0712 88.7845 49.5843L57.7425 68.0515C56.9129 68.5452 56.4043 69.4395 56.4043 70.4048V80.9467C56.4043 103.15 69.2329 123.43 89.1958 131.159C89.8312 131.405 90.5368 131.406 91.173 131.159C111.087 123.449 123.964 103.214 123.964 80.9467V70.4048C123.964 69.4393 123.456 68.5452 122.626 68.0515ZM118.488 80.9467C118.488 101.378 106.707 118.78 90.1844 125.655C73.6524 118.776 61.8808 101.366 61.8808 80.9467V71.962L90.1845 55.1237L118.488 71.962V80.9467H118.488Z" fill="#306778"/>
</svg>
