<svg width="24" height="25" viewBox="0 0 24 25" fill="none" xmlns="http://www.w3.org/2000/svg">
<path d="M12.0201 20.6304C9.68523 20.6328 7.36533 20.2573 5.15007 19.5183C4.75167 19.3928 4.38659 19.179 4.08191 18.8929C3.77723 18.6067 3.54077 18.2555 3.39007 17.8653C3.24893 17.4738 3.19987 17.055 3.2467 16.6414C3.29353 16.2279 3.43499 15.8307 3.66007 15.4809L4.81007 13.5673C5.0821 13.0494 5.23903 12.4786 5.27007 11.8942V8.99885C5.27007 7.20532 5.98122 5.48524 7.24709 4.21703C8.51296 2.94881 10.2299 2.23633 12.0201 2.23633C13.8103 2.23633 15.5272 2.94881 16.793 4.21703C18.0589 5.48524 18.7701 7.20532 18.7701 8.99885V11.8942C18.8028 12.4812 18.9585 13.0547 19.2271 13.5773L20.3671 15.4809C20.5792 15.8366 20.7091 16.2354 20.7472 16.648C20.7853 17.0607 20.7305 17.4766 20.5871 17.8653C20.4455 18.2525 20.218 18.6024 19.9218 18.8888C19.6256 19.1751 19.2684 19.3904 18.8771 19.5183C16.6664 20.2578 14.3507 20.6333 12.0201 20.6304V20.6304ZM12.0201 3.73911C10.6282 3.7407 9.29373 4.29536 8.30951 5.28141C7.32529 6.26746 6.77165 7.60437 6.77007 8.99885V11.8942C6.73442 12.7494 6.50532 13.5853 6.10007 14.3387L4.95007 16.2523C4.84308 16.4106 4.77391 16.5914 4.74789 16.7808C4.72188 16.9701 4.73973 17.163 4.80007 17.3443C4.87291 17.5231 4.98555 17.6828 5.1294 17.8113C5.27324 17.9397 5.44449 18.0336 5.63007 18.0857C9.77847 19.4882 14.2717 19.4882 18.4201 18.0857C18.5971 18.0276 18.7586 17.9297 18.892 17.7994C19.0255 17.6692 19.1274 17.5101 19.1901 17.3343C19.2559 17.158 19.2811 16.9692 19.2637 16.7818C19.2464 16.5944 19.1871 16.4134 19.0901 16.2523L17.9401 14.3387C17.5327 13.5825 17.3035 12.7429 17.2701 11.8842V8.99885C17.2702 8.3081 17.1345 7.62408 16.8707 6.98588C16.6069 6.34768 16.2202 5.7678 15.7327 5.27936C15.2451 4.79092 14.6663 4.4035 14.0293 4.13922C13.3923 3.87494 12.7095 3.73898 12.0201 3.73911V3.73911Z" fill="#292D32"/>
<path d="M13.8802 4.00933C13.8092 4.00918 13.7385 3.99907 13.6702 3.97928C13.3942 3.90211 13.1136 3.84188 12.8302 3.79894C12.0133 3.68599 11.1818 3.74745 10.3902 3.97928C10.2557 4.02109 10.1121 4.02379 9.97613 3.98706C9.84014 3.95033 9.71734 3.87568 9.62203 3.7718C9.52671 3.66791 9.46279 3.53905 9.43769 3.4002C9.41259 3.26135 9.42735 3.11822 9.48024 2.98744C9.67904 2.47332 10.0286 2.03159 10.4829 1.72041C10.9372 1.40923 11.4749 1.24321 12.0252 1.24421C12.5769 1.24023 13.1166 1.405 13.5722 1.7165C14.0279 2.028 14.3778 2.47139 14.5752 2.98744C14.6256 3.11805 14.6391 3.26 14.6144 3.3978C14.5898 3.5356 14.5278 3.66397 14.4352 3.76889C14.3636 3.84427 14.2775 3.90442 14.1822 3.94573C14.0868 3.98705 13.9841 4.00868 13.8802 4.00933V4.00933Z" fill="#292D32"/>
<path d="M12.0195 22.9152C11.0256 22.9128 10.073 22.5166 9.36953 21.8131C8.66737 21.1084 8.27194 20.154 8.26953 19.1582H9.76953C9.77169 19.7555 10.0088 20.3279 10.4295 20.7512C10.852 21.1726 11.4233 21.4102 12.0195 21.4124C12.616 21.4116 13.1879 21.1738 13.6096 20.7513C14.0314 20.3287 14.2687 19.7558 14.2695 19.1582H15.7695C15.7693 20.1545 15.3741 21.11 14.6709 21.8145C13.9677 22.519 13.014 22.9149 12.0195 22.9152V22.9152Z" fill="#292D32"/>
</svg>
