<svg width="60" height="60" viewBox="0 0 60 60" fill="none" xmlns="http://www.w3.org/2000/svg">
<rect width="60" height="60" rx="11" fill="white"/>
<path d="M30.0003 47.4684C28.1969 47.4891 26.4338 46.9351 24.967 45.8868L17.8003 40.5428C16.7995 39.7184 15.9818 38.6946 15.3992 37.5368C14.8167 36.3791 14.4822 35.1127 14.417 33.8186V21.4307C14.4685 20.0964 14.9006 18.8047 15.6624 17.7075C16.4242 16.6103 17.484 15.7533 18.717 15.2376L27.0337 12.126C28.952 11.5101 31.0153 11.5101 32.9337 12.126L41.2503 15.2392C42.4833 15.755 43.5431 16.6119 44.3049 17.7091C45.0667 18.8063 45.4988 20.0981 45.5503 21.4323V33.8053C45.4869 35.1 45.1532 36.3672 44.5705 37.5255C43.9878 38.6838 43.1692 39.7076 42.167 40.5311L35.0003 45.8752C33.5528 46.938 31.7965 47.4976 30.0003 47.4684ZM27.917 14.4734L19.6003 17.585C18.8473 17.9271 18.2014 18.4672 17.7318 19.1474C17.2621 19.8277 16.9862 20.6226 16.9337 21.4473V33.8169C16.9967 34.7219 17.2383 35.6056 17.6444 36.417C18.0506 37.2284 18.6133 37.9516 19.3003 38.545L26.467 43.8891C27.5152 44.5892 28.7477 44.9629 30.0087 44.9629C31.2696 44.9629 32.5021 44.5892 33.5503 43.8891L40.717 38.545C41.4054 37.9528 41.9691 37.2299 42.3754 36.4182C42.7817 35.6066 43.0224 34.7223 43.0837 33.8169V21.4307C43.0265 20.6072 42.7488 19.8143 42.2797 19.1348C41.8106 18.4553 41.1672 17.9143 40.417 17.5683L32.1003 14.4551C30.734 14.0531 29.2797 14.0595 27.917 14.4734Z" fill="#306778"/>
<path d="M29.9987 36.6283C28.4329 36.6283 26.9023 36.1645 25.6004 35.2955C24.2985 34.4266 23.2838 33.1916 22.6847 31.7466C22.0855 30.3016 21.9287 28.7116 22.2342 27.1776C22.5396 25.6437 23.2936 24.2346 24.4008 23.1287C25.5079 22.0227 26.9186 21.2696 28.4542 20.9645C29.9899 20.6593 31.5817 20.8159 33.0283 21.4145C34.4749 22.013 35.7113 23.0266 36.5812 24.327C37.4511 25.6274 37.9154 27.1564 37.9154 28.7204C37.9136 30.8171 37.079 32.8275 35.5947 34.3101C34.1104 35.7928 32.0978 36.6265 29.9987 36.6283ZM29.9987 23.3097C28.9274 23.3097 27.8801 23.6271 26.9894 24.2216C26.0986 24.8161 25.4043 25.6611 24.9944 26.6498C24.5844 27.6385 24.4771 28.7264 24.6861 29.7759C24.8951 30.8255 25.411 31.7896 26.1685 32.5463C26.9261 33.303 27.8912 33.8183 28.942 34.0271C29.9927 34.2358 31.0818 34.1287 32.0716 33.7192C33.0613 33.3097 33.9073 32.6162 34.5025 31.7264C35.0977 30.8366 35.4154 29.7905 35.4154 28.7204C35.4127 27.2862 34.8412 25.9115 33.8259 24.8974C32.8107 23.8833 31.4345 23.3124 29.9987 23.3097Z" fill="#306778"/>
<path d="M28.3325 31.6327C28.0596 31.6326 27.7943 31.5429 27.5773 31.3775C27.3604 31.212 27.2039 30.98 27.132 30.717C27.06 30.454 27.0765 30.1747 27.179 29.922C27.2815 29.6694 27.4643 29.4573 27.6992 29.3186L28.9659 28.5528C29.0264 28.5165 29.0766 28.4653 29.1116 28.4041C29.1467 28.3429 29.1653 28.2737 29.1659 28.2032V26.6549C29.1681 26.3232 29.3014 26.0059 29.5368 25.772C29.7722 25.5382 30.0905 25.4067 30.4225 25.4063C30.7516 25.4049 31.0678 25.5338 31.302 25.7646C31.5362 25.9955 31.6695 26.3096 31.6725 26.6382V28.1865C31.6702 28.6891 31.5387 29.1826 31.2907 29.6199C31.0426 30.0572 30.6863 30.4235 30.2559 30.6837L28.9725 31.4495C28.7838 31.5764 28.5599 31.6405 28.3325 31.6327Z" fill="#306778"/>
</svg>
