<svg width="91" height="84" viewBox="0 0 91 84" fill="none" xmlns="http://www.w3.org/2000/svg">
<path fill-rule="evenodd" clip-rule="evenodd" d="M43.4832 31.4603C44.451 32.1811 45.0143 33.2707 45.0143 34.4225V79.9921C45.0143 82.0894 43.1829 83.7896 40.9237 83.7896H4.10819C1.84901 83.7896 0.0175781 82.0894 0.0175781 79.9921V42.0174C0.0175781 40.2375 1.3492 38.6965 3.22081 38.3103L40.0363 30.7155C41.2477 30.4656 42.5154 30.7396 43.4832 31.4603ZM8.1988 45.0637V76.1946H36.8331V39.1564L8.1988 45.0637Z" fill="#605BFF"/>
<path fill-rule="evenodd" clip-rule="evenodd" d="M12.2852 55.3642V49.668H20.4664V55.3642H12.2852Z" fill="#605BFF"/>
<path fill-rule="evenodd" clip-rule="evenodd" d="M12.2852 70.5595V64.8633H20.4664V70.5595H12.2852Z" fill="#605BFF"/>
<path fill-rule="evenodd" clip-rule="evenodd" d="M90.0178 4.07094C90.0178 2.9449 89.4795 1.87693 88.548 1.15542C87.617 0.433918 86.389 0.13329 85.1954 0.334722L40.1987 7.92967C38.2536 8.25796 36.8398 9.8306 36.8398 11.6659V80.0203C36.8398 82.1176 38.6713 83.8178 40.9305 83.8178H85.9272C88.1864 83.8178 90.0178 82.1176 90.0178 80.0203V4.07094ZM51.157 24.957V19.2608H59.3382V24.957H51.157ZM51.157 36.3494V42.0456H59.3382V36.3494H51.157ZM51.157 59.1342V53.438H59.3382V59.1342H51.157ZM67.5194 19.2608V24.957H75.7007V19.2608H67.5194ZM67.5194 42.0456V36.3494H75.7007V42.0456H67.5194ZM67.5194 53.438V59.1342H75.7007V53.438H67.5194Z" fill="#605BFF"/>
<path fill-rule="evenodd" clip-rule="evenodd" d="M24.5625 55.3642V49.668H32.7437V55.3642H24.5625Z" fill="#605BFF"/>
<path fill-rule="evenodd" clip-rule="evenodd" d="M24.5625 70.5595V64.8633H32.7437V70.5595H24.5625Z" fill="#605BFF"/>
</svg>
