<svg width="22" height="22" viewBox="0 0 22 22" fill="none" xmlns="http://www.w3.org/2000/svg">
<path d="M16.2001 21.75C14.9758 21.7269 13.7686 21.4582 12.6501 20.96C11.3811 20.4077 10.1771 19.7169 9.06005 18.9C7.87022 18.0243 6.74405 17.0652 5.69005 16.03C4.65176 14.9824 3.69247 13.8593 2.82005 12.67C2.01127 11.5619 1.32714 10.368 0.780052 9.11C0.285476 7.98363 0.0203124 6.77 5.22603e-05 5.54C-0.0030956 4.78414 0.13599 4.03443 0.410052 3.33C0.706623 2.59159 1.16444 1.92877 1.75005 1.39C2.08351 1.03634 2.48457 0.753205 2.92946 0.557384C3.37435 0.361564 3.85402 0.257038 4.34005 0.25C4.73036 0.250678 5.11588 0.33597 5.47005 0.5C5.85935 0.675156 6.19188 0.95573 6.43005 1.31L8.75005 4.58C8.94525 4.84196 9.10653 5.12756 9.23005 5.43C9.3569 5.70986 9.42497 6.01278 9.43005 6.32C9.42625 6.70907 9.31555 7.08961 9.11005 7.42C8.92626 7.73238 8.70086 8.01833 8.44005 8.27L7.76005 8.98C7.76821 9.00408 7.77824 9.02748 7.79005 9.05C8.02957 9.44383 8.304 9.81532 8.61005 10.16C9.10005 10.72 9.56005 11.23 10.0201 11.7C10.6101 12.28 11.1001 12.74 11.5601 13.12C11.9152 13.4383 12.3042 13.7166 12.7201 13.95L12.7001 14L13.4301 13.28C13.6932 13.0055 13.9967 12.7728 14.3301 12.59C14.6222 12.416 14.9521 12.3151 15.2916 12.2959C15.6311 12.2768 15.9702 12.3399 16.2801 12.48C16.5759 12.6065 16.8574 12.7641 17.1201 12.95L20.4401 15.31C20.7944 15.541 21.0727 15.8715 21.2401 16.26C21.3819 16.6026 21.4566 16.9692 21.4601 17.34C21.4578 17.8277 21.3485 18.3091 21.1401 18.75C20.9373 19.1891 20.6674 19.594 20.3401 19.95C19.818 20.5484 19.1642 21.0173 18.4301 21.32C17.7216 21.6064 16.9642 21.7524 16.2001 21.75ZM4.34005 1.75C4.04664 1.7601 3.75825 1.82903 3.49199 1.95271C3.22573 2.0764 2.98703 2.2523 2.79005 2.47C2.36104 2.85991 2.02598 3.34199 1.81005 3.88C1.5999 4.40795 1.4946 4.97179 1.50005 5.54C1.51927 6.56739 1.74367 7.58057 2.16005 8.52C2.66184 9.67406 3.29251 10.7677 4.04005 11.78C4.86194 12.9068 5.76786 13.9698 6.75005 14.96C7.74432 15.9447 8.81061 16.8539 9.94005 17.68C10.9591 18.4363 12.0633 19.0706 13.2301 19.57C13.9392 19.9349 14.7143 20.154 15.5096 20.2141C16.3049 20.2742 17.1041 20.1742 17.8601 19.92C18.3871 19.7004 18.8561 19.3615 19.2301 18.93C19.4594 18.681 19.6484 18.3975 19.7901 18.09C19.9073 17.8502 19.9688 17.5869 19.9701 17.32C19.97 17.1473 19.9324 16.9768 19.8601 16.82C19.7961 16.6961 19.6992 16.5923 19.5801 16.52L16.2601 14.16C16.0887 14.0367 15.9042 13.9328 15.7101 13.85C15.614 13.7814 15.4978 13.747 15.3799 13.7524C15.262 13.7579 15.1493 13.8028 15.0601 13.88C14.8437 13.9977 14.6478 14.1497 14.4801 14.33L13.7201 15.08C13.529 15.2581 13.2928 15.3802 13.0371 15.4331C12.7814 15.486 12.516 15.4676 12.2701 15.38L12.0001 15.26C11.4935 14.9727 11.0176 14.6343 10.5801 14.25C10.1001 13.84 9.58005 13.36 8.95005 12.74C8.46005 12.24 7.97005 11.71 7.46005 11.12C7.07288 10.686 6.73111 10.2135 6.44005 9.71L6.32005 9.41C6.2708 9.24774 6.24389 9.07953 6.24005 8.91C6.23757 8.73739 6.26995 8.56606 6.33524 8.40626C6.40053 8.24646 6.49741 8.10148 6.62005 7.98L7.37005 7.2C7.54268 7.03271 7.69384 6.8446 7.82005 6.64C7.88821 6.53939 7.92636 6.42147 7.93005 6.3C7.92267 6.18942 7.89557 6.08105 7.85005 5.98C7.76282 5.79231 7.65552 5.61461 7.53005 5.45L5.21005 2.17C5.11644 2.03564 4.98873 1.92864 4.84005 1.86C4.68274 1.78929 4.51252 1.75184 4.34005 1.75ZM12.7001 14.01L12.5401 14.69L12.8101 13.99C12.7914 13.9844 12.7718 13.9833 12.7526 13.9868C12.7335 13.9903 12.7155 13.9982 12.7001 14.01Z" fill="#757575"/>
</svg>
