<svg width="27" height="31" viewBox="0 0 27 31" fill="none" xmlns="http://www.w3.org/2000/svg">
<path d="M25.5 17.5295H1.5C1.10298 17.5266 0.722974 17.3484 0.442236 17.0334C0.161497 16.7185 0.00262065 16.2922 0 15.8468C0.00262065 15.4014 0.161497 14.9751 0.442236 14.6602C0.722974 14.3452 1.10298 14.167 1.5 14.1641H25.5C25.897 14.167 26.277 14.3452 26.5578 14.6602C26.8385 14.9751 26.9974 15.4014 27 15.8468C26.9974 16.2922 26.8385 16.7185 26.5578 17.0334C26.277 17.3484 25.897 17.5266 25.5 17.5295Z" fill="white"/>
<path d="M13.5 30.9923C13.103 30.9894 12.723 30.8111 12.4422 30.4962C12.1615 30.1813 12.0026 29.7549 12 29.3096V2.38586C12.0026 1.94048 12.1615 1.51417 12.4422 1.19923C12.723 0.884296 13.103 0.706065 13.5 0.703125C13.897 0.706065 14.277 0.884296 14.5578 1.19923C14.8385 1.51417 14.9974 1.94048 15 2.38586V29.3096C14.9974 29.7549 14.8385 30.1813 14.5578 30.4962C14.277 30.8111 13.897 30.9894 13.5 30.9923Z" fill="white"/>
</svg>
