<svg width="24" height="24" viewBox="0 0 24 24" fill="none" xmlns="http://www.w3.org/2000/svg">
<path d="M14.5495 22.42C14.3832 22.42 14.2215 22.3651 14.0895 22.2638C13.9575 22.1626 13.8626 22.0206 13.8195 21.86C13.7938 21.7641 13.7875 21.6641 13.8008 21.5657C13.8141 21.4674 13.8468 21.3726 13.897 21.287C13.9473 21.2014 14.0141 21.1267 14.0934 21.0671C14.1728 21.0075 14.2633 20.9643 14.3595 20.94C16.5331 20.3667 18.4237 19.0217 19.6781 17.1562C20.9325 15.2907 21.4648 13.0324 21.1758 10.8031C20.8867 8.57381 19.7959 6.52598 18.1073 5.04215C16.4186 3.55832 14.2475 2.73998 11.9995 2.74C10.374 2.76548 8.77321 3.14139 7.30628 3.84206C5.83936 4.54273 4.54089 5.55167 3.49951 6.8H6.43951C6.63975 6.8 6.83179 6.87954 6.97338 7.02113C7.11497 7.16272 7.19451 7.35476 7.19451 7.555C7.19451 7.75524 7.11497 7.94728 6.97338 8.08887C6.83179 8.23046 6.63975 8.31 6.43951 8.31H2.00951C1.93856 8.30849 1.86805 8.29842 1.79951 8.28C1.71396 8.25222 1.63307 8.21177 1.55951 8.16C1.47214 8.10121 1.40013 8.02234 1.34951 7.93C1.29548 7.83453 1.26146 7.72905 1.24951 7.62V3C1.25082 2.80149 1.33026 2.61149 1.47063 2.47112C1.611 2.33075 1.801 2.25131 1.99951 2.25C2.19802 2.25131 2.38802 2.33075 2.52839 2.47112C2.66876 2.61149 2.7482 2.80149 2.74951 3V5.39C3.91912 4.09518 5.34573 3.0583 6.93835 2.34549C8.53098 1.63268 10.2547 1.25959 11.9995 1.25C14.6114 1.25096 17.1337 2.20257 19.0953 3.92711C21.057 5.65165 22.3239 8.03122 22.6594 10.6215C22.995 13.2117 22.3763 15.8356 20.9189 18.0031C19.4615 20.1706 17.2649 21.7335 14.7395 22.4C14.6768 22.4116 14.6133 22.4183 14.5495 22.42Z" fill="#292D32"/>
<path d="M11.2895 22.73C11.2727 22.7277 11.256 22.7243 11.2395 22.72C10.1632 22.649 9.10412 22.4129 8.09952 22.02C7.91399 21.9482 7.76452 21.8058 7.6839 21.6239C7.60328 21.4421 7.59811 21.2357 7.66952 21.05C7.74542 20.8678 7.88832 20.7216 8.06879 20.6416C8.24925 20.5616 8.45352 20.5539 8.63952 20.62C9.50431 20.956 10.4143 21.1616 11.3395 21.23C11.5309 21.2442 11.7096 21.3306 11.8396 21.4718C11.9696 21.6129 12.0411 21.7981 12.0395 21.99L12.0295 22.03C12.0183 22.2189 11.9356 22.3965 11.7981 22.5265C11.6606 22.6565 11.4788 22.7293 11.2895 22.73ZM5.77952 20.58C5.60993 20.5774 5.44548 20.5214 5.30952 20.42C4.47237 19.7469 3.73795 18.9552 3.12952 18.07C3.04044 17.9479 2.99152 17.8011 2.98952 17.65C2.98868 17.5274 3.01842 17.4065 3.07603 17.2982C3.13365 17.19 3.21733 17.0978 3.31952 17.03C3.48311 16.9217 3.68193 16.8799 3.87527 16.9134C4.06861 16.9469 4.24185 17.053 4.35952 17.21V17.22C4.36952 17.23 4.37952 17.25 4.38952 17.26C4.90824 18.0083 5.53505 18.6756 6.24952 19.24C6.33607 19.31 6.40606 19.3984 6.45446 19.4986C6.50287 19.5989 6.5285 19.7087 6.52952 19.82C6.5317 19.9934 6.47533 20.1626 6.36952 20.3C6.29821 20.3876 6.20824 20.4583 6.10617 20.5067C6.0041 20.5551 5.8925 20.5802 5.77952 20.58ZM2.43952 15.7C2.28079 15.702 2.12571 15.6524 1.99765 15.5586C1.86958 15.4648 1.77548 15.3319 1.72952 15.18C1.4103 14.1502 1.24847 13.0781 1.24952 12V11.99C1.25292 11.7931 1.33334 11.6053 1.47354 11.467C1.61374 11.3286 1.80256 11.2508 1.99952 11.25C2.19802 11.2513 2.38803 11.3307 2.5284 11.4711C2.66877 11.6115 2.74821 11.8015 2.74952 12C2.74824 12.9254 2.88645 13.8458 3.15952 14.73C3.17931 14.8051 3.18939 14.8824 3.18952 14.96C3.18849 15.1194 3.1365 15.2743 3.04114 15.4021C2.94578 15.5298 2.81206 15.6237 2.65952 15.67C2.58799 15.6904 2.51391 15.7005 2.43952 15.7Z" fill="#292D32"/>
</svg>
