<svg width="125" height="145" viewBox="0 0 125 145" fill="none" xmlns="http://www.w3.org/2000/svg">
<path d="M69.6001 120.994V115.594C69.6001 113.194 68.4001 111.394 66.6001 110.194C64.8001 108.994 62.4001 109.594 60.6001 110.794L45.0001 122.194C43.2001 123.394 42.6001 125.194 42.6001 126.994C42.6001 128.794 43.8001 130.594 45.0001 131.794L60.6001 143.194C64.8001 146.194 70.2001 143.194 70.2001 138.394V133.594C100.2 129.394 124.2 103.594 124.2 72.3941C124.2 54.9941 117 38.1941 104.4 26.7941C100.8 23.7941 97.2001 24.3941 94.8001 26.7941C92.4001 29.1941 93.0001 32.7941 95.4001 35.1941C105.6 44.7941 111.6 57.9941 111.6 71.7941C111.6 96.3941 93.6001 116.794 69.6001 120.994Z" fill="#1187AB"/>
<path d="M64.2 0.994112C62.4 -0.205888 60 -0.205887 57.6 0.394113C55.8 1.59411 54.6 3.39411 54.6 5.79411V10.5941C24 14.1941 0 39.9941 0 71.7941C0 87.9941 6.6 103.594 18 114.994C20.4 117.394 24 117.394 26.4 114.994C28.8 112.594 28.8 108.994 26.4 106.594C16.8 96.9941 12 84.9941 12 71.7941C12 46.5941 30.6 26.1941 54.6 22.5941V27.9941C54.6 30.3941 55.8 32.1941 57.6 33.3941C58.8 33.9941 59.4 33.9941 60.6 33.9941C61.8 33.9941 63 33.3941 64.2 32.7941L79.2 21.3941C81 20.1941 81.6 18.3941 81.6 16.5941C81.6 14.7941 81 12.9941 79.2 11.7941L64.2 0.994112Z" fill="#1187AB"/>
<path d="M61.7999 98.1941C65.3999 98.1941 67.7999 95.7941 67.7999 92.1941V78.3941C74.3999 75.9941 79.1999 69.3941 79.1999 62.1941C79.1999 52.5941 71.3999 44.7941 61.7999 44.7941C52.1999 44.7941 44.3999 52.5941 44.3999 62.1941C44.3999 69.3941 49.1999 75.9941 55.7999 78.3941V92.1941C55.7999 95.7941 58.1999 98.1941 61.7999 98.1941Z" fill="#1187AB"/>
</svg>
