<svg width="22" height="22" viewBox="0 0 22 22" fill="none" xmlns="http://www.w3.org/2000/svg">
<path d="M10.2498 20.5C8.2225 20.5 6.24077 19.8989 4.55517 18.7726C2.86956 17.6463 1.55579 16.0455 0.779995 14.1725C0.004197 12.2996 -0.198787 10.2386 0.196711 8.25033C0.59221 6.26202 1.56843 4.43565 3.00192 3.00216C4.4354 1.56867 6.26178 0.592454 8.25008 0.196955C10.2384 -0.198543 12.2993 0.00444114 14.1723 0.780239C16.0452 1.55604 17.646 2.86981 18.7723 4.55541C19.8986 6.24101 20.4998 8.22275 20.4998 10.25C20.4961 12.9673 19.415 15.5723 17.4935 17.4938C15.5721 19.4152 12.9671 20.4963 10.2498 20.5ZM10.2498 1.5C8.51917 1.5 6.82745 2.01318 5.38852 2.97465C3.94959 3.93611 2.82808 5.30267 2.16581 6.90152C1.50355 8.50038 1.33027 10.2597 1.66789 11.957C2.00551 13.6544 2.83887 15.2135 4.06258 16.4372C5.28629 17.6609 6.84539 18.4943 8.54272 18.8319C10.2401 19.1695 11.9994 18.9962 13.5982 18.334C15.1971 17.6717 16.5637 16.5502 17.5251 15.1112C18.4866 13.6723 18.9998 11.9806 18.9998 10.25C18.9971 7.93017 18.0744 5.70611 16.434 4.06574C14.7937 2.42537 12.5696 1.50265 10.2498 1.5Z" fill="#757575"/>
<path d="M20.7498 21.502C20.6512 21.5023 20.5536 21.4831 20.4626 21.4453C20.3716 21.4075 20.2891 21.352 20.2198 21.282L18.2198 19.282C18.0789 19.1414 17.9997 18.9507 17.9995 18.7517C17.9993 18.5527 18.0782 18.3618 18.2188 18.221C18.3593 18.0801 18.5501 18.0009 18.749 18.0007C18.948 18.0005 19.1389 18.0794 19.2798 18.22L21.2798 20.22C21.4192 20.3611 21.4975 20.5515 21.4975 20.75C21.4975 20.9484 21.4192 21.1388 21.2798 21.28C21.2106 21.3504 21.1281 21.4062 21.0371 21.4444C20.9461 21.4825 20.8484 21.5021 20.7498 21.502Z" fill="#757575"/>
</svg>
