<svg width="20" height="25" viewBox="0 0 20 25" fill="none" xmlns="http://www.w3.org/2000/svg">
<path d="M19.349 5.50828L10.2791 0.112436C10.027 -0.0374786 9.71308 -0.0374786 9.46102 0.112436L0.391006 5.50828C0.148602 5.65252 0 5.91381 0 6.19588V9.27606C0 15.7636 3.74833 21.6891 9.58116 23.9473C9.76685 24.0192 9.97301 24.0193 10.1589 23.9473C15.9776 21.6947 19.74 15.7821 19.74 9.27606V6.19588C19.74 5.91377 19.5915 5.65252 19.349 5.50828ZM18.1399 9.27606C18.1399 15.2457 14.6976 20.3303 9.87002 22.3392C5.03962 20.3291 1.60017 15.2422 1.60017 9.27606V6.65087L9.87007 1.73098L18.14 6.65087V9.27606H18.1399Z" fill="#306778"/>
<path d="M13.8223 9.07145C13.51 8.75906 13.0033 8.75906 12.6909 9.07145L8.24237 13.52L7.04835 12.326C6.73596 12.0136 6.22935 12.0136 5.91691 12.326C5.60452 12.6384 5.60452 13.145 5.91691 13.4575L7.6767 15.2172C7.98913 15.5296 8.49569 15.5296 8.80813 15.2172L13.8223 10.2028C14.1348 9.89045 14.1348 9.38389 13.8223 9.07145Z" fill="#306778"/>
</svg>
