<svg width="22" height="22" viewBox="0 0 22 22" fill="none" xmlns="http://www.w3.org/2000/svg">
<path d="M11 0C4.93036 0 0 4.93036 0 11C0 17.0696 4.93036 22 11 22C17.0696 22 22 17.0696 22 11C22 4.93036 17.0696 0 11 0ZM11 1.57143C16.2054 1.57143 20.4286 5.79464 20.4286 11C20.4286 16.2054 16.2054 20.4286 11 20.4286C5.79464 20.4286 1.57143 16.2054 1.57143 11C1.57143 5.79464 5.79464 1.57143 11 1.57143Z" fill="#00DE97"/>
<path d="M9.45067 13.4028L6.84144 10.7936C6.53371 10.4858 6.03609 10.4858 5.72835 10.7936C5.42388 11.098 5.42388 11.5956 5.72835 11.9034L8.87121 15.0462C9.03162 15.2067 9.24115 15.282 9.45067 15.2754C9.65692 15.282 9.86972 15.2067 10.0269 15.0462L17.0557 8.02064C17.3602 7.71291 17.3602 7.21529 17.0557 6.90755C16.748 6.60308 16.2504 6.60308 15.9426 6.90755L9.45067 13.4028Z" fill="#00DE97"/>
</svg>
