<svg width="200" height="200" viewBox="0 0 200 200" fill="none" xmlns="http://www.w3.org/2000/svg">
<g clip-path="url(#clip0_255_66)">
<path d="M100 200C155.228 200 200 155.228 200 100C200 44.7715 155.228 0 100 0C44.7715 0 0 44.7715 0 100C0 155.228 44.7715 200 100 200Z" fill="#00DE97"/>
<path d="M74.4478 145.111L125.867 196.53C168.454 185.174 200 146.372 200 100C200 99.0538 200 98.1074 200 97.161L159.621 59.937L74.4478 145.111Z" fill="#3EB08A" fill-opacity="0.71"/>
<path d="M102.524 122.398C106.94 126.814 106.94 134.385 102.524 138.801L93.3754 147.95C88.959 152.366 81.388 152.366 76.9716 147.95L36.9085 107.571C32.4921 103.155 32.4921 95.5837 36.9085 91.1672L46.0568 82.019C50.4732 77.6026 58.0441 77.6026 62.4605 82.019L102.524 122.398Z" fill="white"/>
<path d="M137.54 52.6814C141.956 48.265 149.527 48.265 153.943 52.6814L163.092 61.8296C167.508 66.2461 167.508 73.817 163.092 78.2334L93.691 147.319C89.2746 151.735 81.7036 151.735 77.2872 147.319L68.139 138.17C63.7226 133.754 63.7226 126.183 68.139 121.767L137.54 52.6814Z" fill="white"/>
</g>
<defs>
<clipPath id="clip0_255_66">
<rect width="200" height="200" fill="white"/>
</clipPath>
</defs>
</svg>
