<svg width="49" height="47" viewBox="0 0 49 47" fill="none" xmlns="http://www.w3.org/2000/svg">
<path d="M48.6477 23.361L43.2139 17.3762L44.0647 9.3639L36.1189 7.69526L32.0659 0.710449L24.6477 3.9994L23.6465 23.361L24.6477 42.7225L32.066 46.0114L36.1189 39.0267L44.0647 37.358L43.2139 29.3457L48.6477 23.361Z" fill="#0ED678"/>
<path d="M17.2292 0.710449L13.1762 7.69526L5.23049 9.36399L6.08128 17.3762L0.647461 23.361L6.08128 29.3457L5.23049 37.358L13.1762 39.0267L17.2293 46.0114L24.6475 42.7225V3.9994L17.2292 0.710449Z" fill="#04EB84"/>
<path d="M34.7091 18.1483L32.6083 16.2881L24.6477 25.1356L23.6465 27.3343L24.6477 29.3306L34.7091 18.1483Z" fill="#F7F0EB"/>
<path d="M16.2821 21.2588L14.291 23.2341L22.6623 31.5387L24.648 29.3318V25.1367L22.5461 27.4728L16.2821 21.2588Z" fill="#FFFBF5"/>
</svg>
