<svg width="37" height="36" viewBox="0 0 37 36" fill="none" xmlns="http://www.w3.org/2000/svg">
<path d="M17.1655 18.4136C22.2516 18.4136 26.3747 14.2916 26.3747 9.20681C26.3747 4.12203 22.2516 0 17.1655 0C12.0794 0 7.9563 4.12203 7.9563 9.20681C7.9563 14.2916 12.0794 18.4136 17.1655 18.4136Z" fill="#306778"/>
<path d="M27.2113 21.2495C23.9194 21.2495 21.2471 23.9212 21.2471 27.2122C21.2471 30.5032 23.9194 33.1765 27.2113 33.1765C30.5032 33.1765 33.1772 30.5032 33.1772 27.2122C33.1772 23.9212 30.5032 21.2495 27.2113 21.2495ZM27.2113 23.7605C29.1168 23.7605 30.6656 25.3072 30.6656 27.2122C30.6656 29.1172 29.1168 30.6656 27.2113 30.6656C25.3058 30.6656 23.757 29.1172 23.757 27.2122C23.757 25.3072 25.3058 23.7605 27.2113 23.7605Z" fill="#306778"/>
<path d="M28.4667 22.5028V19.6788C28.4667 18.9858 27.9041 18.4233 27.2109 18.4233C26.5177 18.4233 25.9551 18.9858 25.9551 19.6788V22.5045C25.9551 23.1958 26.5177 23.7599 27.2109 23.7599C27.9041 23.7583 28.4667 23.1958 28.4667 22.5028Z" fill="#306778"/>
<path d="M31.4303 24.7718L33.4279 22.7731C33.9185 22.2843 33.9185 21.4875 33.4279 20.9987C32.939 20.5082 32.142 20.5082 31.653 20.9987L29.6538 22.9958C29.1649 23.4862 29.1649 24.2814 29.6538 24.7718C30.1444 25.2606 30.9397 25.2606 31.4303 24.7718Z" fill="#306778"/>
<path d="M31.9201 28.468H34.7465C35.4397 28.468 36.0023 27.9055 36.0023 27.2125C36.0023 26.5195 35.4397 25.957 34.7465 25.957H31.9201C31.2286 25.957 30.666 26.5195 30.666 27.2125C30.6643 27.9055 31.2286 28.468 31.9201 28.468Z" fill="#306778"/>
<path d="M29.6538 31.4283L31.653 33.4254C32.142 33.9158 32.939 33.9158 33.4279 33.4254C33.9185 32.9366 33.9185 32.1398 33.4279 31.651L31.4303 29.6522C30.9397 29.1634 30.1444 29.1634 29.6538 29.6522C29.1649 30.1427 29.1649 30.9378 29.6538 31.4283Z" fill="#306778"/>
<path d="M25.9551 31.9186V34.7442C25.9551 35.4372 26.5177 35.9997 27.2109 35.9997C27.9041 35.9997 28.4667 35.4372 28.4667 34.7442V31.9186C28.4667 31.2272 27.9041 30.6648 27.2109 30.6631C26.5177 30.6631 25.9551 31.2272 25.9551 31.9186Z" fill="#306778"/>
<path d="M22.9954 29.6522L20.9978 31.651C20.5072 32.1398 20.5072 32.9366 20.9978 33.4254C21.4868 33.9158 22.2838 33.9158 22.7727 33.4254L24.7719 31.4283C25.2609 30.9378 25.2609 30.1427 24.7719 29.6522C24.2813 29.1634 23.486 29.1634 22.9954 29.6522Z" fill="#306778"/>
<path d="M22.5024 25.957H19.6777C18.9845 25.957 18.4219 26.5195 18.4219 27.2125C18.4219 27.9055 18.9845 28.468 19.6777 28.468H22.5024C23.1956 28.468 23.7599 27.9055 23.7582 27.2125C23.7582 26.5195 23.1956 25.957 22.5024 25.957Z" fill="#306778"/>
<path d="M24.7719 22.9958L22.7727 20.9987C22.2838 20.5082 21.4868 20.5082 20.9978 20.9987C20.5072 21.4875 20.5072 22.2843 20.9978 22.7731L22.9954 24.7718C23.486 25.2606 24.2813 25.2606 24.7719 24.7718C25.2609 24.2814 25.2609 23.4862 24.7719 22.9958Z" fill="#306778"/>
<path d="M19.57 34.3367C18.6759 33.1884 18.7563 31.5228 19.8128 30.4682L20.1376 30.1418H19.6772C18.0597 30.1418 16.747 28.8294 16.747 27.2123C16.747 25.5953 18.0597 24.2829 19.6772 24.2829H20.1376L19.8128 23.9565C18.7144 22.86 18.6709 21.104 19.6822 19.954C18.8617 19.8904 18.0212 19.8569 17.1656 19.8569C11.6032 19.8569 6.67878 21.248 3.62132 23.3321C1.28887 24.9224 0.00292969 26.9428 0.00292969 29.0637V31.491C0.00292969 32.246 0.302648 32.9708 0.836783 33.5031C1.37092 34.0371 2.09426 34.3367 2.84942 34.3367H19.57Z" fill="#306778"/>
</svg>
