<svg width="36" height="38" viewBox="0 0 36 38" fill="none" xmlns="http://www.w3.org/2000/svg">
<path d="M30.2174 28.2821C28.0519 28.2821 26.2939 30.0422 26.2939 32.2103C26.2939 34.3784 28.0519 36.1396 30.2174 36.1396C32.383 36.1396 34.142 34.3784 34.142 32.2103C34.142 30.0422 32.383 28.2821 30.2174 28.2821ZM30.2174 29.9363C31.4709 29.9363 32.4898 30.9553 32.4898 32.2103C32.4898 33.4653 31.4709 34.4854 30.2174 34.4854C28.9639 34.4854 27.9451 33.4653 27.9451 32.2103C27.9451 30.9553 28.9639 29.9363 30.2174 29.9363Z" fill="#848588"/>
<path d="M31.0429 29.1081V27.2477C31.0429 26.7911 30.6728 26.4206 30.2167 26.4206C29.7607 26.4206 29.3906 26.7911 29.3906 27.2477V29.1092C29.3906 29.5647 29.7607 29.9363 30.2167 29.9363C30.6728 29.9352 31.0429 29.5647 31.0429 29.1081Z" fill="#848588"/>
<path d="M32.9919 30.6024L34.306 29.2856C34.6287 28.9636 34.6287 28.4387 34.306 28.1166C33.9844 27.7935 33.4601 27.7935 33.1384 28.1166L31.8233 29.4323C31.5016 29.7554 31.5016 30.2792 31.8233 30.6024C32.146 30.9244 32.6692 30.9244 32.9919 30.6024Z" fill="#848588"/>
<path d="M33.3143 33.0374H35.1736C35.6296 33.0374 35.9997 32.6668 35.9997 32.2103C35.9997 31.7537 35.6296 31.3832 35.1736 31.3832H33.3143C32.8594 31.3832 32.4893 31.7537 32.4893 32.2103C32.4882 32.6668 32.8594 33.0374 33.3143 33.0374Z" fill="#848588"/>
<path d="M31.8233 34.9882L33.1384 36.3039C33.4601 36.627 33.9844 36.627 34.306 36.3039C34.6287 35.9819 34.6287 35.4569 34.306 35.1349L32.9919 33.8182C32.6692 33.4961 32.146 33.4961 31.8233 33.8182C31.5016 34.1413 31.5016 34.6651 31.8233 34.9882Z" fill="#848588"/>
<path d="M29.3906 35.3113V37.1729C29.3906 37.6294 29.7607 38 30.2167 38C30.6728 38 31.0429 37.6294 31.0429 37.1729V35.3113C31.0429 34.8559 30.6728 34.4853 30.2167 34.4842C29.7607 34.4842 29.3906 34.8559 29.3906 35.3113Z" fill="#848588"/>
<path d="M27.4419 33.8182L26.1278 35.1349C25.8051 35.4569 25.8051 35.9819 26.1278 36.3039C26.4494 36.627 26.9737 36.627 27.2954 36.3039L28.6105 34.9882C28.9322 34.6651 28.9322 34.1413 28.6105 33.8182C28.2878 33.4961 27.7646 33.4961 27.4419 33.8182Z" fill="#848588"/>
<path d="M27.1189 31.3832H25.2607C24.8047 31.3832 24.4346 31.7537 24.4346 32.2103C24.4346 32.6668 24.8047 33.0374 25.2607 33.0374H27.1189C27.5749 33.0374 27.9461 32.6668 27.945 32.2103C27.945 31.7537 27.5749 31.3832 27.1189 31.3832Z" fill="#848588"/>
<path d="M28.6105 29.4323L27.2954 28.1166C26.9737 27.7935 26.4494 27.7935 26.1278 28.1166C25.8051 28.4387 25.8051 28.9636 26.1278 29.2856L27.4419 30.6024C27.7646 30.9244 28.2878 30.9244 28.6105 30.6024C28.9322 30.2792 28.9322 29.7554 28.6105 29.4323Z" fill="#848588"/>
<path d="M12.3144 16.7787H12.1841C12.0871 16.7623 11.988 16.7623 11.8909 16.7787C9.68945 16.7165 7.6009 15.7893 6.07689 14.1976C4.55288 12.6058 3.71589 10.4775 3.74693 8.27274C3.77796 6.06801 4.67453 3.96411 6.24274 2.416C7.81095 0.867895 9.92477 0 12.1271 0C14.3294 0 16.4432 0.867895 18.0114 2.416C19.5797 3.96411 20.4762 6.06801 20.5073 8.27274C20.5383 10.4775 19.7013 12.6058 18.1773 14.1976C16.6533 15.7893 14.5647 16.7165 12.3633 16.7787H12.3144ZM12.0538 2.31255C10.4754 2.30385 8.95704 2.91776 7.82734 4.02143C6.69763 5.12511 6.04744 6.62977 6.01746 8.20979C5.98748 9.78982 6.58013 11.3181 7.66716 12.4639C8.75418 13.6098 10.2481 14.281 11.8257 14.3323C11.9991 14.3154 12.1737 14.3154 12.347 14.3323C13.9152 14.2592 15.3925 13.5743 16.4625 12.4241C17.5325 11.274 18.1102 9.75015 18.0718 8.17886C18.0335 6.60756 17.3822 5.11375 16.2574 4.0173C15.1326 2.92085 13.6237 2.30892 12.0538 2.31255Z" fill="#848588"/>
<path d="M12.3312 34.6044C9.21365 34.6626 6.14634 33.8127 3.50226 32.158C2.47705 31.5683 1.618 30.7278 1.00549 29.7153C0.392976 28.7027 0.0470254 27.5512 0 26.3683C0.0483606 25.1814 0.39457 24.0259 1.00667 23.0083C1.61877 21.9907 2.47704 21.1439 3.50226 20.546C6.17242 18.953 9.22294 18.112 12.3312 18.112C15.4395 18.112 18.49 18.953 21.1602 20.546C22.1831 21.1384 23.0403 21.9795 23.6524 22.9915C24.2646 24.0035 24.612 25.1537 24.6624 26.3357C24.6141 27.5226 24.2679 28.6781 23.6558 29.6957C23.0437 30.7133 22.1854 31.5601 21.1602 32.158C18.5153 33.8108 15.4485 34.6605 12.3312 34.6044ZM4.8543 22.6009C4.16862 22.9796 3.58869 23.5244 3.16753 24.1853C2.74637 24.8463 2.49742 25.6025 2.44344 26.3846C2.50168 27.1614 2.75269 27.9113 3.17368 28.5663C3.59468 29.2213 4.17235 29.7608 4.8543 30.1357C7.11963 31.473 9.70142 32.1783 12.3312 32.1783C14.961 32.1783 17.5428 31.473 19.8081 30.1357C20.4938 29.757 21.0738 29.2123 21.4949 28.5513C21.9161 27.8903 22.165 27.1342 22.219 26.352C22.1608 25.5753 21.9098 24.8254 21.4888 24.1703C21.0678 23.5153 20.4901 22.9759 19.8081 22.6009C17.5401 21.2714 14.9594 20.5706 12.3312 20.5706C9.70305 20.5706 7.12229 21.2714 4.8543 22.6009Z" fill="#848588"/>
</svg>
