<svg width="25" height="24" viewBox="0 0 25 24" fill="none" xmlns="http://www.w3.org/2000/svg">
<path fill-rule="evenodd" clip-rule="evenodd" d="M7.00786 3.49498C7.00786 1.51537 8.69675 0 10.6664 0H13.4469C15.4165 0 17.1054 1.51537 17.1054 3.49498V3.92539H23.1786C23.6635 3.92539 24.0566 4.31851 24.0566 4.80344C24.0566 5.28838 23.6635 5.68149 23.1786 5.68149H21.2761V20.505C21.2761 22.4846 19.5873 24 17.6176 24H6.49566C4.52602 24 2.83713 22.4846 2.83713 20.505V5.68149H0.934689C0.449756 5.68149 0.0566406 5.28838 0.0566406 4.80344C0.0566406 4.31851 0.449756 3.92539 0.934689 3.92539H7.00786V3.49498ZM4.59322 5.68149V20.505C4.59322 21.416 5.39407 22.2439 6.49566 22.2439H17.6176C18.7192 22.2439 19.52 21.416 19.52 20.505V5.68149H4.59322ZM15.3493 3.92539H8.76395V3.49498C8.76395 2.58401 9.5648 1.7561 10.6664 1.7561H13.4469C14.5485 1.7561 15.3493 2.58401 15.3493 3.49498V3.92539ZM9.27615 9.15925C9.76108 9.15925 10.1542 9.55237 10.1542 10.0373V17.8881C10.1542 18.373 9.76108 18.7661 9.27615 18.7661C8.79122 18.7661 8.3981 18.373 8.3981 17.8881V10.0373C8.3981 9.55237 8.79122 9.15925 9.27615 9.15925ZM14.8371 9.15925C15.3221 9.15925 15.7152 9.55237 15.7152 10.0373V17.8881C15.7152 18.373 15.3221 18.7661 14.8371 18.7661C14.3522 18.7661 13.9591 18.373 13.9591 17.8881V10.0373C13.9591 9.55237 14.3522 9.15925 14.8371 9.15925Z" fill="#848588"/>
</svg>
