<svg width="25" height="29" viewBox="0 0 25 29" fill="none" xmlns="http://www.w3.org/2000/svg">
<path d="M15.7568 22.3216C16.309 22.3216 16.7568 21.8746 16.7568 21.3234V11.3419C16.7568 10.7907 16.309 10.3438 15.7568 10.3438C15.2046 10.3438 14.7568 10.7907 14.7568 11.3419V21.3234C14.7568 21.8746 15.2046 22.3216 15.7568 22.3216Z" fill="#E24338"/>
<path d="M8.75488 22.3216C9.30708 22.3216 9.75488 21.8746 9.75488 21.3234V11.3419C9.75488 10.7907 9.30708 10.3438 8.75488 10.3438C8.20268 10.3438 7.75488 10.7907 7.75488 11.3419V21.3234C7.75488 21.8746 8.20268 22.3216 8.75488 22.3216Z" fill="#E24338"/>
<path d="M16.2539 2.84396C16.8061 2.84396 17.2539 2.39699 17.2539 1.84581C17.2539 1.29463 16.8061 0.847656 16.2539 0.847656H8.25391C7.70171 0.847656 7.25391 1.29463 7.25391 1.84581C7.25391 2.39699 7.70171 2.84396 8.25391 2.84396H16.2539Z" fill="#E24338"/>
<path d="M1.25488 3.84375C0.702683 3.84375 0.254883 4.29072 0.254883 4.8419C0.254883 5.39308 0.702683 5.84005 1.25488 5.84005H2.25488V24.206C2.25488 26.4617 4.09488 28.2984 6.35488 28.2984H18.1549C20.4148 28.2984 22.2549 26.4618 22.2549 24.206V5.84005H23.2549C23.8071 5.84005 24.2549 5.39308 24.2549 4.8419C24.2549 4.29072 23.8071 3.84375 23.2549 3.84375H21.2549H3.25488H1.25488ZM20.2549 5.84005V24.206C20.2549 25.3639 19.3149 26.3021 18.1549 26.3021H6.35488C5.19488 26.3021 4.25488 25.3639 4.25488 24.206V5.84005H20.2549Z" fill="#E24338"/>
</svg>
