<svg width="12" height="21" viewBox="0 0 12 21" fill="none" xmlns="http://www.w3.org/2000/svg">
<path d="M6 20.407C5.7 20.407 5.5 20.307 5.3 20.1068L0.3 15.1035C-0.1 14.7032 -0.1 14.1028 0.3 13.7025C0.7 13.3023 1.3 13.3023 1.7 13.7025L6 18.0054L10.3 13.7025C10.7 13.3023 11.3 13.3023 11.7 13.7025C12.1 14.1028 12.1 14.7032 11.7 15.1035L6.7 20.1068C6.5 20.307 6.3 20.407 6 20.407Z" fill="black"/>
<path d="M1 7.39923C0.7 7.39923 0.5 7.29916 0.3 7.09903C-0.1 6.69876 -0.1 6.09835 0.3 5.69809L5.3 0.694732C5.7 0.294464 6.3 0.294464 6.7 0.694732L11.7 5.69809C12.1 6.09835 12.1 6.69876 11.7 7.09903C11.3 7.49929 10.7 7.49929 10.3 7.09903L6 2.79614L1.7 7.09903C1.5 7.29916 1.3 7.39923 1 7.39923Z" fill="black"/>
</svg>
