<svg width="30" height="30" viewBox="0 0 30 30" fill="none" xmlns="http://www.w3.org/2000/svg">
<path d="M21.25 8.75C21.25 9.98613 20.8834 11.1945 20.1967 12.2223C19.5099 13.2501 18.5338 14.0512 17.3918 14.5242C16.2497 14.9973 14.9931 15.1211 13.7807 14.8799C12.5683 14.6388 11.4547 14.0435 10.5806 13.1694C9.70651 12.2953 9.11125 11.1817 8.87009 9.96932C8.62894 8.75693 8.75271 7.50027 9.22576 6.35823C9.6988 5.21619 10.4999 4.24007 11.5277 3.55332C12.5555 2.86656 13.7639 2.5 15 2.5C16.6576 2.5 18.2473 3.15848 19.4194 4.33058C20.5915 5.50269 21.25 7.0924 21.25 8.75Z" stroke="#757575" stroke-width="1.5" stroke-linecap="round" stroke-linejoin="round"/>
<path d="M25.7375 27.5C25.7375 22.6625 20.925 18.75 15 18.75C9.07495 18.75 4.26245 22.6625 4.26245 27.5" stroke="#757575" stroke-width="1.5" stroke-linecap="round" stroke-linejoin="round"/>
</svg>
