<svg width="91" height="85" viewBox="0 0 91 85" fill="none" xmlns="http://www.w3.org/2000/svg">
<path d="M42.9219 43.7044C55.6375 43.7044 65.9454 34.1386 65.9454 22.3385C65.9454 10.5385 55.6375 0.972656 42.9219 0.972656C30.2064 0.972656 19.8984 10.5385 19.8984 22.3385C19.8984 34.1386 30.2064 43.7044 42.9219 43.7044Z" fill="#2CAE9F"/>
<path d="M41.8785 80.6652V72.6821C41.8785 70.8758 42.6487 69.1471 44.026 67.8729L52.3563 60.1423C52.1512 55.9313 53.4237 51.6659 56.1572 48.0764C52.0005 47.4199 47.5506 47.0625 42.925 47.0625C29.0188 47.0625 16.7075 50.2907 9.06372 55.1272C3.2325 58.8176 0.0175781 63.5065 0.0175781 68.4284V74.0612C0.0175781 75.8132 0.766888 77.4953 2.10225 78.7306C3.43761 79.9698 5.24601 80.6652 7.13393 80.6652H41.8785Z" fill="#2CAE9F"/>
<path d="M70.7727 74.6391C75.8463 75.3461 81.2086 73.8855 85.1143 70.2611C91.6529 64.1931 91.6529 54.3415 85.1143 48.2775C78.5798 42.2096 67.9638 42.2096 61.4252 48.2775C57.5195 51.9019 55.9456 56.8782 56.7074 61.5904C56.7074 61.5865 46.9873 70.6068 46.9873 70.6068C46.3971 71.1545 46.0664 71.8965 46.0664 72.6696V81.6005C46.0664 83.2088 47.4729 84.5141 49.206 84.5141H58.8298C59.6628 84.5141 60.4624 84.2072 61.0526 83.6594L70.7727 74.6391ZM70.0611 62.2469C68.2904 60.6037 68.2904 57.9349 70.0611 56.2916C71.8318 54.6484 74.7076 54.6484 76.4784 56.2916C78.2491 57.9349 78.2491 60.6037 76.4784 62.2469C74.7076 63.8901 71.8318 63.8901 70.0611 62.2469Z" fill="#2CAE9F"/>
</svg>
