<svg width="80" height="80" viewBox="0 0 80 80" fill="none" xmlns="http://www.w3.org/2000/svg">
<circle cx="40" cy="40" r="40" fill="#F7F8FC"/>
<path d="M40.2667 39.3653H40.1333C40.034 39.3487 39.9326 39.3487 39.8333 39.3653C37.5809 39.3018 35.444 38.3543 33.8847 36.7277C32.3255 35.101 31.4691 32.926 31.5009 30.6729C31.5326 28.4198 32.4499 26.2698 34.0544 24.6877C35.6589 23.1057 37.8217 22.2188 40.075 22.2188C42.3283 22.2187 44.4911 23.1057 46.0956 24.6877C47.7001 26.2698 48.6174 28.4198 48.6491 30.6729C48.6809 32.926 47.8245 35.101 46.2653 36.7277C44.706 38.3543 42.5691 39.3018 40.3167 39.3653H40.2667ZM40 24.582C38.3851 24.5731 36.8316 25.2005 35.6757 26.3284C34.5199 27.4562 33.8546 28.9939 33.8239 30.6086C33.7933 32.2232 34.3996 33.7851 35.5118 34.956C36.624 36.127 38.1526 36.8129 39.7667 36.8653C39.944 36.8481 40.1226 36.8481 40.3 36.8653C41.9045 36.7906 43.416 36.0907 44.5107 34.9153C45.6055 33.74 46.1966 32.1827 46.1574 30.577C46.1181 28.9712 45.4518 27.4446 44.3009 26.3241C43.1501 25.2036 41.6062 24.5783 40 24.582Z" fill="#306778"/>
<path d="M40.2832 57.5826C37.0934 57.6421 33.9551 56.7736 31.2498 55.0826C30.2009 54.4799 29.322 53.621 28.6953 52.5863C28.0686 51.5515 27.7146 50.3747 27.6665 49.1659C27.716 47.953 28.0702 46.7721 28.6965 45.7322C29.3227 44.6923 30.2009 43.8269 31.2498 43.2159C33.9818 41.5879 37.1029 40.7285 40.2832 40.7285C43.4634 40.7285 46.5845 41.5879 49.3165 43.2159C50.3631 43.8213 51.2401 44.6808 51.8664 45.715C52.4928 46.7492 52.8482 47.9246 52.8998 49.1326C52.8504 50.3455 52.4961 51.5264 51.8699 52.5663C51.2436 53.6062 50.3655 54.4716 49.3165 55.0826C46.6104 56.7716 43.4726 57.64 40.2832 57.5826ZM32.6332 45.3159C31.9316 45.7029 31.3383 46.2596 30.9074 46.9351C30.4764 47.6105 30.2217 48.3833 30.1665 49.1826C30.2261 49.9763 30.4829 50.7427 30.9137 51.4121C31.3444 52.0815 31.9354 52.6328 32.6332 53.0159C34.9509 54.3825 37.5925 55.1033 40.2832 55.1033C42.9738 55.1033 45.6154 54.3825 47.9332 53.0159C48.6347 52.6289 49.2281 52.0722 49.659 51.3967C50.0899 50.7213 50.3446 49.9485 50.3998 49.1492C50.3402 48.3555 50.0834 47.5891 49.6527 46.9197C49.2219 46.2503 48.6309 45.6991 47.9332 45.3159C45.6127 43.9572 42.9722 43.241 40.2832 43.241C37.5942 43.241 34.9537 43.9572 32.6332 45.3159Z" fill="#306778"/>
</svg>
