<svg width="51" height="51" viewBox="0 0 51 51" fill="none" xmlns="http://www.w3.org/2000/svg">
<circle cx="25.0664" cy="25.0986" r="25" fill="white"/>
<path d="M22.1086 24.6005H22.0286C21.9691 24.5904 21.9082 24.5904 21.8486 24.6005C20.4972 24.5624 19.2151 23.9938 18.2795 23.0178C17.3439 22.0419 16.8301 20.7368 16.8491 19.385C16.8682 18.0331 17.4186 16.7431 18.3813 15.7939C19.344 14.8447 20.6417 14.3125 21.9936 14.3125C23.3456 14.3125 24.6433 14.8447 25.606 15.7939C26.5687 16.7431 27.1191 18.0331 27.1381 19.385C27.1572 20.7368 26.6434 22.0419 25.7078 23.0178C24.7722 23.9938 23.4901 24.5624 22.1386 24.6005H22.1086ZM21.9486 15.7305C20.9797 15.7251 20.0476 16.1015 19.3541 16.7783C18.6605 17.455 18.2614 18.3776 18.243 19.3464C18.2246 20.3152 18.5884 21.2523 19.2557 21.9549C19.923 22.6574 20.8402 23.069 21.8086 23.1005C21.9151 23.0902 22.0222 23.0902 22.1286 23.1005C23.0913 23.0556 23.9982 22.6357 24.6551 21.9304C25.3119 21.2252 25.6666 20.2909 25.643 19.3274C25.6195 18.364 25.2197 17.448 24.5292 16.7757C23.8387 16.1034 22.9124 15.7282 21.9486 15.7305Z" fill="#306778"/>
<path d="M29.4876 24.7305C29.4572 24.7321 29.4268 24.7287 29.3976 24.7205C29.1949 24.7442 28.991 24.6888 28.8281 24.5659C28.6653 24.4429 28.5562 24.2619 28.5236 24.0605C28.5093 23.9649 28.5142 23.8675 28.538 23.7738C28.5617 23.6801 28.6039 23.5921 28.6619 23.5149C28.72 23.4377 28.7928 23.3728 28.8762 23.3239C28.9596 23.2751 29.0518 23.2433 29.1476 23.2305C29.2676 23.2205 29.3976 23.2205 29.5076 23.2205C30.2237 23.1818 30.8965 22.8651 31.3826 22.3379C31.8687 21.8106 32.1298 21.1144 32.1103 20.3974C32.0907 19.6805 31.7921 18.9996 31.2779 18.4996C30.7638 17.9996 30.0748 17.72 29.3576 17.7205C29.2596 17.7217 29.1624 17.7034 29.0715 17.6668C28.9806 17.6301 28.8979 17.5758 28.8282 17.507C28.7584 17.4382 28.703 17.3562 28.6651 17.2658C28.6273 17.1754 28.6077 17.0785 28.6076 16.9805C28.6089 16.782 28.6883 16.592 28.8287 16.4516C28.9691 16.3112 29.1591 16.2318 29.3576 16.2305C30.484 16.2328 31.5637 16.6814 32.3602 17.4779C33.1567 18.2744 33.6052 19.354 33.6076 20.4805C33.6106 21.5811 33.1856 22.6399 32.4224 23.4329C31.6592 24.226 30.6176 24.6913 29.5176 24.7305H29.4876Z" fill="#306778"/>
<path d="M22.1188 35.5304C20.205 35.5661 18.322 35.045 16.6988 34.0304C16.0695 33.6688 15.5421 33.1535 15.1661 32.5326C14.7901 31.9118 14.5777 31.2057 14.5488 30.4804C14.5785 29.7527 14.7911 29.0441 15.1668 28.4202C15.5426 27.7962 16.0695 27.277 16.6988 26.9104C18.338 25.9336 20.2107 25.418 22.1188 25.418C24.027 25.418 25.8996 25.9336 27.5388 26.9104C28.1668 27.2736 28.693 27.7894 29.0688 28.4099C29.4446 29.0304 29.6578 29.7356 29.6888 30.4604C29.6591 31.1882 29.4466 31.8967 29.0708 32.5206C28.6951 33.1446 28.1682 33.6638 27.5388 34.0304C25.9151 35.0438 24.0325 35.5648 22.1188 35.5304ZM17.5288 28.1704C17.1079 28.4026 16.7519 28.7366 16.4933 29.1419C16.2348 29.5472 16.082 30.0108 16.0488 30.4904C16.0846 30.9667 16.2387 31.4265 16.4971 31.8281C16.7556 32.2297 17.1102 32.5605 17.5288 32.7904C18.9195 33.6104 20.5044 34.0428 22.1188 34.0428C23.7332 34.0428 25.3182 33.6104 26.7088 32.7904C27.1298 32.5582 27.4858 32.2242 27.7443 31.8189C28.0029 31.4136 28.1557 30.95 28.1888 30.4704C28.1531 29.9941 27.999 29.5343 27.7405 29.1327C27.4821 28.7311 27.1275 28.4003 26.7088 28.1704C25.3165 27.3552 23.7322 26.9255 22.1188 26.9255C20.5054 26.9255 18.9211 27.3552 17.5288 28.1704Z" fill="#306778"/>
<path d="M31.2866 33.73C31.1139 33.7311 30.9463 33.6718 30.813 33.5621C30.6796 33.4525 30.5889 33.2996 30.5566 33.13C30.5179 32.9353 30.5569 32.7331 30.6653 32.5668C30.7737 32.4005 30.9428 32.2832 31.1366 32.24C31.738 32.1252 32.3055 31.8757 32.7966 31.51C33.0542 31.3408 33.2682 31.1131 33.4212 30.8455C33.5741 30.5778 33.6616 30.2778 33.6766 29.97C33.6625 29.6644 33.5763 29.3665 33.4251 29.1006C33.2739 28.8347 33.062 28.6084 32.8066 28.44C32.3191 28.0809 31.7596 27.8319 31.1666 27.71C31.0701 27.6883 30.9788 27.6478 30.8979 27.5909C30.817 27.5339 30.7481 27.4616 30.6952 27.378C30.5883 27.2092 30.5528 27.0049 30.5966 26.81C30.6403 26.615 30.7598 26.4455 30.9285 26.3386C31.0973 26.2317 31.3017 26.1962 31.4966 26.24C32.3012 26.4059 33.0592 26.7473 33.7166 27.24C34.1564 27.5492 34.5176 27.9573 34.7712 28.4314C35.0247 28.9055 35.1636 29.4325 35.1766 29.97C35.1606 30.5093 35.0194 31.0376 34.7643 31.5131C34.5092 31.9886 34.1471 32.3983 33.7066 32.71C33.0404 33.213 32.2669 33.5553 31.4466 33.71C31.3948 33.7258 31.3407 33.7326 31.2866 33.73Z" fill="#306778"/>
</svg>
