<svg width="80" height="80" viewBox="0 0 80 80" fill="none" xmlns="http://www.w3.org/2000/svg">
<circle cx="40" cy="40" r="40" fill="#F7F8FC"/>
<path d="M35.2667 39.3653H35.1333C35.034 39.3487 34.9326 39.3487 34.8333 39.3653C32.5809 39.3018 30.444 38.3543 28.8847 36.7277C27.3255 35.101 26.4691 32.926 26.5009 30.6729C26.5326 28.4198 27.4499 26.2698 29.0544 24.6877C30.6589 23.1057 32.8217 22.2188 35.075 22.2188C37.3283 22.2187 39.4911 23.1057 41.0956 24.6877C42.7001 26.2698 43.6174 28.4198 43.6491 30.6729C43.6809 32.926 42.8245 35.101 41.2653 36.7277C39.706 38.3543 37.5691 39.3018 35.3167 39.3653H35.2667ZM35 24.582C33.3851 24.5731 31.8316 25.2005 30.6757 26.3284C29.5199 27.4562 28.8546 28.9939 28.8239 30.6086C28.7933 32.2232 29.3996 33.7851 30.5118 34.956C31.624 36.127 33.1526 36.8129 34.7667 36.8653C34.944 36.8482 35.1226 36.8482 35.3 36.8653C36.9045 36.7906 38.416 36.0907 39.5107 34.9153C40.6055 33.74 41.1966 32.1827 41.1574 30.577C41.1181 28.9712 40.4518 27.4446 39.3009 26.3241C38.1501 25.2036 36.6062 24.5783 35 24.582Z" fill="#306778"/>
<path d="M47.5653 39.5846C47.5147 39.5873 47.464 39.5817 47.4153 39.568C47.0775 39.6075 46.7375 39.5153 46.4661 39.3103C46.1948 39.1054 46.013 38.8037 45.9586 38.468C45.9348 38.3087 45.943 38.1463 45.9826 37.9902C46.0222 37.8341 46.0924 37.6874 46.1892 37.5587C46.2859 37.43 46.4073 37.3218 46.5463 37.2404C46.6852 37.159 46.839 37.1061 46.9986 37.0846C47.1986 37.068 47.4153 37.068 47.5986 37.068C48.7921 37.0035 49.9134 36.4757 50.7236 35.5969C51.5338 34.7181 51.969 33.5578 51.9364 32.3629C51.9038 31.1681 51.406 30.0331 50.5491 29.1998C49.6922 28.3665 48.5439 27.9006 47.3486 27.9013C47.1853 27.9033 47.0232 27.8729 46.8718 27.8118C46.7203 27.7507 46.5824 27.6602 46.4662 27.5455C46.3499 27.4308 46.2576 27.2942 46.1945 27.1436C46.1314 26.9929 46.0988 26.8313 46.0986 26.668C46.1008 26.3371 46.2332 26.0204 46.4671 25.7865C46.7011 25.5525 47.0177 25.4202 47.3486 25.418C49.226 25.4219 51.0254 26.1695 52.3529 27.497C53.6804 28.8245 54.428 30.6239 54.4319 32.5013C54.437 34.3357 53.7287 36.1003 52.4566 37.4221C51.1846 38.7438 49.4485 39.5193 47.6153 39.5846H47.5653Z" fill="#306778"/>
<path d="M35.2832 57.5826C32.0934 57.6421 28.9551 56.7736 26.2498 55.0826C25.2009 54.4799 24.322 53.621 23.6953 52.5863C23.0686 51.5515 22.7146 50.3747 22.6665 49.1659C22.716 47.953 23.0702 46.7721 23.6965 45.7322C24.3227 44.6923 25.2009 43.8269 26.2498 43.2159C28.9818 41.5879 32.1029 40.7285 35.2832 40.7285C38.4634 40.7285 41.5845 41.5879 44.3165 43.2159C45.3631 43.8213 46.2401 44.6808 46.8664 45.715C47.4928 46.7492 47.8482 47.9246 47.8998 49.1326C47.8504 50.3455 47.4961 51.5264 46.8699 52.5663C46.2436 53.6062 45.3655 54.4716 44.3165 55.0826C41.6104 56.7716 38.4726 57.64 35.2832 57.5826ZM27.6332 45.3159C26.9316 45.7029 26.3383 46.2596 25.9074 46.9351C25.4764 47.6105 25.2217 48.3833 25.1665 49.1826C25.2261 49.9763 25.4829 50.7427 25.9137 51.4121C26.3444 52.0815 26.9354 52.6328 27.6332 53.0159C29.9509 54.3825 32.5925 55.1033 35.2832 55.1033C37.9738 55.1033 40.6154 54.3825 42.9332 53.0159C43.6347 52.6289 44.2281 52.0722 44.659 51.3967C45.0899 50.7213 45.3446 49.9485 45.3998 49.1492C45.3402 48.3555 45.0834 47.5891 44.6527 46.9197C44.2219 46.2503 43.6309 45.6991 42.9332 45.3159C40.6127 43.9572 37.9722 43.241 35.2832 43.241C32.5942 43.241 29.9537 43.9572 27.6332 45.3159Z" fill="#306778"/>
<path d="M50.5652 54.5841C50.2775 54.5861 49.9981 54.4871 49.7758 54.3044C49.5535 54.1217 49.4023 53.8668 49.3485 53.5841C49.284 53.2596 49.349 52.9227 49.5297 52.6455C49.7103 52.3683 49.9923 52.1728 50.3152 52.1008C51.3175 51.9096 52.2635 51.4936 53.0819 50.8841C53.5113 50.6021 53.868 50.2226 54.1229 49.7766C54.3777 49.3306 54.5236 48.8306 54.5485 48.3175C54.525 47.8082 54.3814 47.3117 54.1294 46.8686C53.8774 46.4254 53.5242 46.0481 53.0985 45.7675C52.2861 45.1691 51.3536 44.754 50.3652 44.5508C50.2043 44.5147 50.0522 44.4472 49.9174 44.3523C49.7826 44.2574 49.6678 44.1368 49.5796 43.9976C49.4014 43.7163 49.3423 43.3757 49.4152 43.0508C49.4881 42.7259 49.6872 42.4433 49.9685 42.2651C50.2498 42.087 50.5903 42.0279 50.9152 42.1008C52.2562 42.3773 53.5196 42.9464 54.6152 43.7675C55.3483 44.2829 55.9502 44.963 56.3728 45.7532C56.7954 46.5434 57.0269 47.4216 57.0485 48.3175C57.0218 49.2164 56.7866 50.0969 56.3614 50.8894C55.9363 51.6819 55.3328 52.3648 54.5985 52.8841C53.4882 53.7226 52.1991 54.293 50.8319 54.5508C50.7456 54.5773 50.6554 54.5885 50.5652 54.5841Z" fill="#306778"/>
</svg>
