<svg width="51" height="51" viewBox="0 0 51 51" fill="none" xmlns="http://www.w3.org/2000/svg">
<circle cx="25.0244" cy="25.4316" r="25" fill="white"/>
<path d="M25.1868 24.5506H25.1068C25.0472 24.5406 24.9863 24.5406 24.9268 24.5506C23.5753 24.5125 22.2932 23.944 21.3576 22.968C20.422 21.9921 19.9082 20.687 19.9273 19.3352C19.9463 17.9833 20.4967 16.6933 21.4594 15.7441C22.4221 14.7949 23.7198 14.2627 25.0718 14.2627C26.4237 14.2627 27.7214 14.7949 28.6841 15.7441C29.6468 16.6933 30.1972 17.9833 30.2162 19.3352C30.2353 20.687 29.7215 21.9921 28.7859 22.968C27.8503 23.944 26.5682 24.5125 25.2168 24.5506H25.1868ZM25.0268 15.6807C24.0578 15.6753 23.1257 16.0517 22.4322 16.7285C21.7387 17.4052 21.3395 18.3278 21.3211 19.2966C21.3027 20.2654 21.6665 21.2025 22.3339 21.9051C23.0012 22.6076 23.9183 23.0192 24.8868 23.0506C24.9932 23.0403 25.1003 23.0403 25.2068 23.0506C26.1695 23.0058 27.0763 22.5858 27.7332 21.8806C28.3901 21.1754 28.7447 20.2411 28.7212 19.2776C28.6976 18.3142 28.2978 17.3982 27.6073 16.7259C26.9168 16.0536 25.9905 15.6784 25.0268 15.6807Z" fill="#306778"/>
<path d="M25.1989 35.4796C23.2851 35.5153 21.4021 34.9942 19.7789 33.9796C19.1495 33.618 18.6222 33.1027 18.2462 32.4818C17.8702 31.861 17.6578 31.1549 17.6289 30.4296C17.6586 29.7019 17.8711 28.9933 18.2469 28.3694C18.6227 27.7454 19.1495 27.2262 19.7789 26.8596C21.4181 25.8828 23.2908 25.3672 25.1989 25.3672C27.1071 25.3672 28.9797 25.8828 30.6189 26.8596C31.2469 27.2229 31.7731 27.7386 32.1489 28.3591C32.5247 28.9796 32.7379 29.6848 32.7689 30.4096C32.7392 31.1374 32.5267 31.8459 32.1509 32.4699C31.7752 33.0938 31.2483 33.613 30.6189 33.9796C28.9952 34.993 27.1126 35.5141 25.1989 35.4796ZM20.6089 28.1196C20.188 28.3518 19.832 28.6858 19.5734 29.0911C19.3149 29.4964 19.162 29.96 19.1289 30.4396C19.1647 30.9159 19.3188 31.3757 19.5772 31.7773C19.8356 32.179 20.1903 32.5097 20.6089 32.7396C21.9996 33.5596 23.5845 33.9921 25.1989 33.9921C26.8133 33.9921 28.3982 33.5596 29.7889 32.7396C30.2098 32.5074 30.5659 32.1734 30.8244 31.7681C31.0829 31.3628 31.2358 30.8992 31.2689 30.4196C31.2332 29.9434 31.0791 29.4836 30.8206 29.0819C30.5622 28.6803 30.2076 28.3495 29.7889 28.1196C28.3966 27.3044 26.8123 26.8747 25.1989 26.8747C23.5855 26.8747 22.0012 27.3044 20.6089 28.1196Z" fill="#306778"/>
</svg>
