<svg width="25" height="22" viewBox="0 0 25 22" fill="none" xmlns="http://www.w3.org/2000/svg">
<path d="M10.7495 1.60519L0.738491 18.9005C0.557657 19.2128 0.462436 19.5671 0.462402 19.9278C0.462369 20.2885 0.557524 20.6428 0.738301 20.9552C0.919078 21.2675 1.17911 21.5269 1.49224 21.7072C1.80538 21.8876 2.16059 21.9825 2.52217 21.9825H22.5426C22.9042 21.9825 23.2594 21.8876 23.5726 21.7072C23.8857 21.5269 24.1457 21.2675 24.3265 20.9552C24.5073 20.6428 24.6024 20.2885 24.6024 19.9278C24.6024 19.5671 24.5072 19.2128 24.3263 18.9005L14.3163 1.60519C14.1356 1.29292 13.8756 1.03361 13.5626 0.853325C13.2495 0.673038 12.8944 0.578125 12.5329 0.578125C12.1715 0.578125 11.8164 0.673038 11.5033 0.853325C11.1902 1.03361 10.9303 1.29292 10.7495 1.60519Z" fill="#FFB400"/>
<path d="M12.8462 5.93945H12.585C11.9421 5.93945 11.4209 6.45936 11.4209 7.10069V12.6512C11.4209 13.2925 11.9421 13.8124 12.585 13.8124H12.8462C13.4891 13.8124 14.0103 13.2925 14.0103 12.6512V7.10069C14.0103 6.45936 13.4891 5.93945 12.8462 5.93945Z" fill="#FCF4D9"/>
<path d="M12.7156 18.2158C13.4306 18.2158 14.0103 17.6376 14.0103 16.9243C14.0103 16.211 13.4306 15.6328 12.7156 15.6328C12.0006 15.6328 11.4209 16.211 11.4209 16.9243C11.4209 17.6376 12.0006 18.2158 12.7156 18.2158Z" fill="#FCF4D9"/>
</svg>
