<svg width="181" height="181" viewBox="0 0 181 181" fill="none" xmlns="http://www.w3.org/2000/svg">
<rect x="0.261719" y="0.929688" width="180" height="180" rx="90" fill="#FEF9EA"/>
<path d="M131.891 110.921L99.0193 53.9859C97.1915 50.82 93.9176 48.9297 90.2616 48.9297C86.6058 48.9297 83.3318 50.82 81.5039 53.9859L48.6327 110.921C46.8047 114.087 46.8047 117.867 48.6327 121.033C50.4607 124.199 53.7344 126.089 57.3904 126.089H123.133C126.789 126.089 130.063 124.199 131.891 121.033C133.719 117.867 133.719 114.087 131.891 110.921ZM127.527 118.514C126.61 120.103 124.967 121.051 123.133 121.051H57.3904C55.5559 121.051 53.9131 120.103 52.996 118.514C52.0789 116.925 52.0789 115.029 52.996 113.44L85.8676 56.5052C86.7847 54.9166 88.4274 53.9682 90.2618 53.9682C92.096 53.9682 93.7389 54.9166 94.656 56.5052L127.527 113.44C128.444 115.029 128.444 116.925 127.527 118.514Z" fill="#F3B10E"/>
<path d="M92.7806 74.0508H87.7422V99.243H92.7806V74.0508Z" fill="#F3B10E"/>
<path d="M90.2614 104.281C88.4092 104.281 86.9023 105.788 86.9023 107.64C86.9023 109.492 88.4092 110.999 90.2614 110.999C92.1134 110.999 93.6204 109.492 93.6204 107.64C93.6204 105.788 92.1136 104.281 90.2614 104.281Z" fill="#F3B10E"/>
</svg>
