<svg width="24" height="21" viewBox="0 0 24 21" fill="none" xmlns="http://www.w3.org/2000/svg">
<path d="M10.34 1.63485L1.02449 17.7686C0.856214 18.0599 0.767609 18.3905 0.767578 18.7269C0.767547 19.0634 0.856091 19.3939 1.02431 19.6853C1.19252 19.9767 1.43449 20.2186 1.72587 20.3869C2.01725 20.5551 2.34778 20.6436 2.68424 20.6436H21.3137C21.6502 20.6436 21.9807 20.5551 22.2721 20.3869C22.5635 20.2186 22.8054 19.9767 22.9737 19.6853C23.1419 19.3939 23.2304 19.0634 23.2304 18.7269C23.2304 18.3905 23.1418 18.0599 22.9735 17.7686L13.659 1.63485C13.4908 1.34355 13.2489 1.10166 12.9576 0.933476C12.6663 0.765297 12.3358 0.676758 11.9995 0.676758C11.6631 0.676758 11.3327 0.765297 11.0414 0.933476C10.7501 1.10166 10.5082 1.34355 10.34 1.63485Z" fill="#CD3E3E"/>
<path d="M12.1212 6.61084H11.8782C11.2799 6.61084 10.7949 7.09583 10.7949 7.69409V12.8718C10.7949 13.4701 11.2799 13.9551 11.8782 13.9551H12.1212C12.7194 13.9551 13.2044 13.4701 13.2044 12.8718V7.69409C13.2044 7.09583 12.7194 6.61084 12.1212 6.61084Z" fill="#FFF7ED"/>
<path d="M11.9997 18.0614C12.665 18.0614 13.2044 17.522 13.2044 16.8566C13.2044 16.1912 12.665 15.6519 11.9997 15.6519C11.3343 15.6519 10.7949 16.1912 10.7949 16.8566C10.7949 17.522 11.3343 18.0614 11.9997 18.0614Z" fill="#FFF7ED"/>
</svg>
