<svg width="15" height="15" viewBox="0 0 15 15" fill="none" xmlns="http://www.w3.org/2000/svg">
<path fill-rule="evenodd" clip-rule="evenodd" d="M0.716151 0.716152C1.00435 0.427951 1.47162 0.42795 1.75982 0.716152L7.5 6.45633L13.2402 0.716151C13.5284 0.42795 13.9956 0.427949 14.2838 0.716151C14.5721 1.00435 14.5721 1.47162 14.2838 1.75982L8.54367 7.5L14.2838 13.2402C14.5721 13.5284 14.5721 13.9956 14.2838 14.2838C13.9956 14.5721 13.5284 14.5721 13.2402 14.2838L7.5 8.54367L1.75982 14.2838C1.47162 14.5721 1.00435 14.5721 0.716151 14.2838C0.427949 13.9956 0.42795 13.5284 0.716151 13.2402L6.45633 7.5L0.716151 1.75982C0.42795 1.47162 0.427949 1.00435 0.716151 0.716152Z" fill="#323338"/>
</svg>
