<svg xmlns="http://www.w3.org/2000/svg" width="20" height="20" viewBox="0 0 20 20">
  <g id="online_ic" transform="translate(-490 -498)">
    <rect id="container" width="20" height="20" transform="translate(490 498)" fill="none"/>
    <path id="globe" d="M18.507,7.654V7.612a8.5,8.5,0,0,0-15.965,0s0,0,0,.043a8.4,8.4,0,0,0,0,5.718s0,0,0,.043a8.5,8.5,0,0,0,15.965,0v-.043a8.4,8.4,0,0,0,0-5.718ZM3.927,12.215a6.66,6.66,0,0,1,0-3.4H5.508a14.249,14.249,0,0,0,0,3.4Zm.7,1.7h1.19a10.345,10.345,0,0,0,.85,2.187,6.8,6.8,0,0,1-2.04-2.187ZM5.815,7.11H4.624A6.8,6.8,0,0,1,6.639,4.923,10.345,10.345,0,0,0,5.815,7.11Zm3.843,9.956a5.4,5.4,0,0,1-2.066-3.148H9.657Zm0-4.85H7.226a12.23,12.23,0,0,1,0-3.4H9.657Zm0-5.106H7.591A5.4,5.4,0,0,1,9.657,3.961Zm6.733,0H15.2a10.344,10.344,0,0,0-.85-2.187A6.8,6.8,0,0,1,16.39,7.11ZM11.357,3.961A5.4,5.4,0,0,1,13.423,7.11H11.357Zm0,13.1V13.917h2.066a5.4,5.4,0,0,1-2.066,3.148Zm2.431-4.85H11.357v-3.4h2.431a12.23,12.23,0,0,1,0,3.4Zm.587,3.889a10.345,10.345,0,0,0,.85-2.187h1.19A6.8,6.8,0,0,1,14.375,16.1Zm2.712-3.889H15.506a13.764,13.764,0,0,0,.1-1.7,13.866,13.866,0,0,0-.1-1.7h1.581A6.66,6.66,0,0,1,17.087,12.215Z" transform="translate(489.657 497.668)" fill="#7c828b"/>
  </g>
</svg>
