<svg width="88" height="41" viewBox="0 0 88 41" fill="none" xmlns="http://www.w3.org/2000/svg">
<path d="M87.9742 20.5H76.9561V40.9992H87.9742V20.5Z" fill="#E93D45"/>
<path d="M47.0879 20.4993C47.0879 22.367 47.0879 23.8456 47.0879 24.9508C47.4815 35.6387 53.5423 40.9826 65.2704 40.9826H82.365V32.2041H65.6277C64.6502 32.2852 63.666 32.1716 62.7326 31.8695C61.799 31.5677 60.9343 31.0834 60.1884 30.4451C58.8978 28.8962 58.2326 26.9196 58.3237 24.9041C58.246 23.7679 58.1994 22.3047 58.1994 20.5147C58.1994 18.7247 58.1994 17.2772 58.3237 16.1876C58.2745 15.1758 58.4279 14.1642 58.7748 13.2126C59.1218 12.261 59.6554 11.3885 60.344 10.6465C61.8993 9.34364 63.9015 8.70128 65.923 8.85651H82.458V0H65.6277C59.8621 0 55.3711 1.36972 52.1852 4.12474C50.5425 5.62176 49.2421 7.45659 48.373 9.50369C47.5039 11.5508 47.0868 13.7618 47.1502 15.9854C47.1189 17.1215 47.0879 18.6781 47.0879 20.4993Z" fill="#E93D45"/>
<path d="M0 20.4991H11.0182V0H0V20.4991Z" fill="#E93D45"/>
<path d="M40.8247 15.9854C40.6537 10.8956 38.9907 6.87974 35.7428 4.12474C32.4949 1.36972 28.1125 0 22.3469 0H5.50098V8.77867H22.0517C24.0732 8.62347 26.0754 9.26583 27.6306 10.5687C28.3164 11.3126 28.848 12.1855 29.195 13.1366C29.5417 14.0877 29.6965 15.0983 29.6509 16.1099C29.7286 17.1993 29.7753 18.6314 29.7753 20.4369C29.7753 22.2425 29.7753 23.69 29.6509 24.8263C29.7638 26.8711 29.0908 28.8817 27.7705 30.4451C27.028 31.084 26.1661 31.5683 25.235 31.8704C24.304 32.1722 23.3222 32.2855 22.3469 32.2041H5.50098V40.9826H22.5956C34.313 40.9826 40.3738 35.6387 40.7781 24.9508C40.7781 23.8456 40.7781 22.367 40.7781 20.4993C40.7781 18.6314 40.8557 17.1215 40.8247 15.9854Z" fill="#E93D45"/>
</svg>
