<svg xmlns="http://www.w3.org/2000/svg" width="183" height="143.798" viewBox="0 0 183 143.798">
  <g id="Group_11055" data-name="Group 11055" transform="translate(-432 -3609.202)">
    <ellipse id="Ellipse_466" data-name="Ellipse 466" cx="91.5" cy="12" rx="91.5" ry="12" transform="translate(432 3729)" fill="#fadfe0"/>
    <g id="undraw_mobile_application_re_13u3" transform="translate(457.444 3593.616)">
      <path id="Path_27325" data-name="Path 27325" d="M0,455.129a.332.332,0,0,0,.333.333H113.075a.333.333,0,1,0,0-.665H.333A.332.332,0,0,0,0,455.129Z" transform="translate(4.852 -312.069)" fill="#ccc"/>
      <path id="Path_27326" data-name="Path 27326" d="M196.511,127.807H147.19A10.919,10.919,0,0,1,136.284,116.9V10.906A10.919,10.919,0,0,1,147.19,0h49.321a10.919,10.919,0,0,1,10.906,10.906V116.9a10.919,10.919,0,0,1-10.906,10.907Z" transform="translate(-93.333 15.586)" fill="#3f3d56"/>
      <path id="Path_27327" data-name="Path 27327" d="M389.546,139.464a.462.462,0,0,0-.461.461V154.69a.461.461,0,1,0,.923,0V139.925A.462.462,0,0,0,389.546,139.464Z" transform="translate(-275.461 -84.89)" fill="#3f3d56"/>
      <path id="Path_27328" data-name="Path 27328" d="M209.055,13.58V119.571a9.869,9.869,0,0,1-9.226,9.848h0c-.076,0-.152.009-.231.012-.136.007-.272.009-.411.009l-1.435-.106c-.937-.069-2.3-.173-4-.309q-.765-.059-1.615-.129c-1.13-.092-2.372-.194-3.7-.309-.531-.044-1.08-.092-1.64-.141-2.865-.247-6.074-.535-9.459-.863q-.858-.08-1.73-.166l-.461-.046c-2.413-.238-35.145-6.563-35.145-7.8V13.58a9.868,9.868,0,0,1,9.869-9.869h5.892a1.8,1.8,0,0,1,1.779,1.673c.007.062.014.125.025.187a2,2,0,0,0,2,1.6h29.936a2,2,0,0,0,2-1.6c.012-.062.018-.125.025-.187a1.8,1.8,0,0,1,1.779-1.673h5.892a9.868,9.868,0,0,1,9.869,9.869Z" transform="translate(-96.008 12.913)" fill="#fff"/>
      <path id="Path_27329" data-name="Path 27329" d="M134.27,99.853a.462.462,0,0,0-.461.461v3.691a.461.461,0,0,0,.923,0v-3.691A.462.462,0,0,0,134.27,99.853Z" transform="translate(-91.549 -56.352)" fill="#3f3d56"/>
      <path id="Path_27330" data-name="Path 27330" d="M134.27,139.464a.462.462,0,0,0-.461.461v7.152a.461.461,0,1,0,.923,0v-7.152A.462.462,0,0,0,134.27,139.464Z" transform="translate(-91.549 -84.89)" fill="#3f3d56"/>
      <path id="Path_27331" data-name="Path 27331" d="M134.27,175.773a.462.462,0,0,0-.461.461v7.152a.461.461,0,1,0,.923,0v-7.152A.462.462,0,0,0,134.27,175.773Z" transform="translate(-91.549 -111.049)" fill="#3f3d56"/>
      <rect id="Rectangle_6928" data-name="Rectangle 6928" width="8.997" height="1.153" rx="0.31" transform="translate(50.679 18.239)" fill="#e6e6e6"/>
      <ellipse id="Ellipse_444" data-name="Ellipse 444" cx="0.923" cy="0.923" rx="0.923" ry="0.923" transform="translate(97.821 17.547)" fill="#e6e6e6"/>
      <ellipse id="Ellipse_445" data-name="Ellipse 445" cx="0.923" cy="0.923" rx="0.923" ry="0.923" transform="translate(100.358 17.547)" fill="#e6e6e6"/>
      <ellipse id="Ellipse_446" data-name="Ellipse 446" cx="0.923" cy="0.923" rx="0.923" ry="0.923" transform="translate(102.896 17.547)" fill="#e6e6e6"/>
      <path id="Path_27332" data-name="Path 27332" d="M229.766,89.4H190.628a1.118,1.118,0,1,1,0-2.236h39.138a1.118,1.118,0,0,1,0,2.236Z" transform="translate(-131.679 -47.207)" fill="#e6e6e6"/>
      <path id="Path_27333" data-name="Path 27333" d="M316.705,405.9H302.168a1.118,1.118,0,1,1,0-2.236h14.537a1.118,1.118,0,1,1,0,2.236Z" transform="translate(-212.037 -275.228)" fill="#e6e6e6"/>
      <path id="Path_27334" data-name="Path 27334" d="M177.705,405.9H163.168a1.118,1.118,0,1,1,0-2.236h14.537a1.118,1.118,0,1,1,0,2.236Z" transform="translate(-111.896 -275.228)" fill="#e6e6e6"/>
      <rect id="Rectangle_6929" data-name="Rectangle 6929" width="54.536" height="0.28" transform="translate(51.25 45.193)" fill="#3f3d56"/>
      <path id="Path_27335" data-name="Path 27335" d="M229.766,150.4H190.628a1.118,1.118,0,1,1,0-2.236h39.138a1.118,1.118,0,1,1,0,2.236Z" transform="translate(-131.679 -91.154)" fill="#e6e6e6"/>
      <rect id="Rectangle_6930" data-name="Rectangle 6930" width="54.536" height="0.28" transform="translate(51.25 62.246)" fill="#3f3d56"/>
      <path id="Path_27336" data-name="Path 27336" d="M229.766,211.4H190.628a1.118,1.118,0,1,1,0-2.236h39.138a1.118,1.118,0,1,1,0,2.236Z" transform="translate(-131.679 -135.102)" fill="#e6e6e6"/>
      <rect id="Rectangle_6931" data-name="Rectangle 6931" width="54.536" height="0.28" transform="translate(51.25 79.299)" fill="#3f3d56"/>
      <rect id="Rectangle_6932" data-name="Rectangle 6932" width="54.536" height="0.28" transform="translate(51.25 93.836)" fill="#3f3d56"/>
      <rect id="Rectangle_6933" data-name="Rectangle 6933" width="54.536" height="0.28" transform="translate(51.25 108.372)" fill="#3f3d56"/>
      <g id="Group_11020" data-name="Group 11020" transform="translate(15.948 32.938)">
        <path id="Path_27426" data-name="Path 27426" d="M69.4,518.008h2.851l1.356-11H69.4Z" transform="translate(-62.305 -410.468)" fill="#ffb6b6"/>
        <path id="Path_27427" data-name="Path 27427" d="M206.124,716.728h5.615a3.578,3.578,0,0,1,3.578,3.578v.116h-9.193Z" transform="translate(-199.758 -610.119)" fill="#2f2e41"/>
        <path id="Path_27428" data-name="Path 27428" d="M111.4,518.008h2.851l1.356-11H111.4Z" transform="translate(-94.538 -410.468)" fill="#ffb6b6"/>
        <path id="Path_27429" data-name="Path 27429" d="M248.124,716.728h5.615a3.578,3.578,0,0,1,3.578,3.578v.116h-9.193Z" transform="translate(-231.991 -610.119)" fill="#2f2e41"/>
        <path id="Path_27430" data-name="Path 27430" d="M119.653,348.3l-6.965,43.018-4.651-.233.115-39.5Z" transform="translate(-91.96 -288.662)" fill="#2f2e41"/>
        <path id="Path_27431" data-name="Path 27431" d="M204.706,458.212l16.9.235,1.878,12.908-11.5,5.4-5,36.457-4.418-.233-1.614-45.143Z" transform="translate(-195.788 -411.72)" fill="#2f2e41"/>
        <circle id="Ellipse_461" data-name="Ellipse 461" cx="5.163" cy="5.163" r="5.163" transform="translate(13.847 2.838)" fill="#ffb9b9"/>
        <path id="Path_27432" data-name="Path 27432" d="M93.629,158.98l2.981,3.826L95.2,192.143l-11.031-.235-1.878-25.582,2.347-6.572.849-1.473Z" transform="translate(-72.202 -142.835)" fill="#e4e4e4"/>
        <path id="Path_27433" data-name="Path 27433" d="M292.792,356.746l2.582,9.857-2.582,9.857,4.225,5.633,3.755-17.837s-2.816-14.551-3.051-16.194-.7-1.878-.7-1.878l-1.878.235Z" transform="translate(-266.272 -325.744)" fill="#2f2e41"/>
        <path id="Path_27434" data-name="Path 27434" d="M46.642,194.069,45,197.121l-.47,5.163.939,5.867-3.286,5.4L38.9,198.763l3.52-19.01h1.408Z" transform="translate(-38.897 -159.312)" fill="#2f2e41"/>
        <path id="Path_27435" data-name="Path 27435" d="M235.086,267.625l-.122,2.087a23.626,23.626,0,0,1-1.749-6.945c-.235-3.52,3.755-4.225,6.1-4.459s6.337,1.408,6.337,3.286-4.225,1.408-5.867.939-2.347,3.52-2.347,3.52l-.939.235Z" transform="translate(-220.541 -258.285)" fill="#2f2e41"/>
        <path id="Path_27436" data-name="Path 27436" d="M214.16,343.38l-.939,8.918,1.878,5.4,1.173,5.163s0,4.929-4.694,5.163-18.306-.235-18.306-.235-1.878-.235-3.52-3.99,3.286-7.276,3.286-7.276l1.408-4.929-.469-6.1-3.286-15.959,9.74-5.046,2.464,24.056,5.281-23.352,1.76,1.291,7.51,3.051Z" transform="translate(-186.936 -309.092)" fill="#2f2e41"/>
      </g>
    </g>
  </g>
</svg>
