<svg id="Layer_1" data-name="Layer 1" xmlns="http://www.w3.org/2000/svg" viewBox="0 0 360 340"><defs><style>.cls-1{fill:#606060;opacity:0.18;}.cls-2,.cls-3{fill:#d1deff;}.cls-2{opacity:0.4;}.cls-3{opacity:0.5;}.cls-4{fill:#bacaff;opacity:0.3;}.cls-5{fill:#fff;}.cls-6{fill:#4393c4;}.cls-7{fill:#2d3554;}.cls-8{fill:#255466;}.cls-9{fill:#2f6c7f;}.cls-10{fill:#398299;}.cls-11{fill:#ffae73;}.cls-12{fill:#87bad6;}.cls-13{fill:#4b99cc;opacity:0.57;}.cls-14{fill:#f69457;}.cls-15{fill:#3b99cc;}.cls-16{fill:#449dcd;}.cls-17{fill:#439ccd;}</style></defs><title>steps_01</title><path class="cls-1" d="M43.36,296.74S4.51,250.93,29.23,197s57.92-26.79,56.31-89.52S161.89,39.4,186.7,57.59s24.67,40.09,75.9,32.84,61,53.18,47.68,84c-18.91,43.69,52.48,36.48,7.5,122.34Z"/><path class="cls-2" d="M327.3,188.65c-.71-12.51-21.45-13-21.45-13s-17.93,17.84-22,17.5,12.35-18.24,12.35-18.24c-7.48-2.36-28.93,2.9-28.93,2.9s-3.87,24.41-7.71,23.08,4.53-21.44,4.53-21.44c-7.86.66-16.58,7.83-16.58,7.83-11.6,12.22,4.7,26.48,4.7,26.48a40.14,40.14,0,0,1-8.73,17h0a29.7,29.7,0,0,0-3.37,4.29l2,.43c.28-.51.57-1,.88-1.45h0l0,0,.85-1.17h0c.87-1.08,1.47-1.88,1.87-2.47h0c2.65-3.39,6.35-7.76,8.34-8.42a3.88,3.88,0,0,1-.24-1c.08.32.16.66.24,1C256,230,273,234.85,283,234.91s6.41-3.54,2.16-9-15.33-6.63-18.17-9,2.21-3.14,8.51-1.29,8.15,8.93,18.3,12.1S316,213,316,213c-7.62.71-19.6-5.94-19.57-8.51s19,1.69,22.06,1.57S328,201.16,327.3,188.65Z"/><path class="cls-3" d="M258.36,160.49s12.11-24.92,30.81-35.81a3.07,3.07,0,0,1,4.41,3.74.69.69,0,0,1-.05.13C291.75,133.13,270.06,147.52,258.36,160.49Z"/><path class="cls-3" d="M254.16,167.37s24.53-27.89,52.18-34.4a3.27,3.27,0,0,1,3.91,2.24c.3,1.09.09,2.56-1.33,4.46C305.13,144.76,273.19,155.23,254.16,167.37Z"/><path class="cls-3" d="M116,162.21c2.37-12,22.5-9.71,22.5-9.71s14.93,19.67,18.89,19.88-9.48-19.3-9.48-19.3c7.55-1.27,27.58,6.7,27.58,6.7s.46,24.12,4.35,23.36-1.49-21.35-1.49-21.35c7.51,1.7,15,9.8,15,9.8,9.56,13.39-8.11,25-8.11,25a39.11,39.11,0,0,0,6.16,17.56h0a28.9,28.9,0,0,1,2.67,4.61l-2,.14a16.18,16.18,0,0,0-.66-1.52h0v0l-.67-1.25h0c-.7-1.16-1.18-2-1.48-2.64h0c-2.1-3.64-5.09-8.36-6.92-9.26a3.85,3.85,0,0,0,.36-.95c-.11.3-.24.61-.36.95-2.92,7.6-20,10-29.71,8.73s-5.73-4.28-.88-9,15.72-4.34,18.79-6.28-1.72-3.34-8.06-2.4-9.09,7.54-19.32,9.24-19.44-17.13-19.44-17.13c7.27,1.71,19.75-3.1,20.07-5.59s-18.56-.92-21.55-1.45S113.6,174.21,116,162.21Z"/><path class="cls-4" d="M78,258.22C71.8,243.29,95.61,231,95.61,231s30.9,10.6,35.41,7.92-24.65-14.22-24.65-14.22c7.37-7,35.25-13,35.25-13s18.29,26.18,22,22.47-17.37-22.36-17.37-22.36c9.5-3.68,23.69-.27,23.69-.27,20.37,7.65,9.49,33.42,9.49,33.42s6.53,8.94,19.71,14.77h0a37.38,37.38,0,0,1,6.34,3.08l-2.1,1.64c-.61-.43-1.22-.83-1.84-1.19h0c-.39-.22-1-.52-1.66-.88h0c-1.62-.76-2.78-1.35-3.57-1.81h0c-5-2.45-11.75-5.44-14.44-5.08a5.1,5.1,0,0,0-.3-1.32q.15.63.3,1.32c2.39,10.5-14.6,25.76-26.21,31.5s-9.45-.49-7.62-9.27,14.08-16.36,16-20.76-4.34-2.4-10.62,3.31-4.43,15-14.42,24.4-34-4.5-34-4.5c9.24-3.48,19.41-18,17.93-20.94s-21.07,12.66-24.75,14.29S84.29,273.15,78,258.22Z"/><rect class="cls-5" x="169.41" y="120.52" width="100.33" height="174.95" rx="9.3"/><path class="cls-6" d="M260.44,296.63H178.71a10.48,10.48,0,0,1-10.47-10.46V129.82a10.48,10.48,0,0,1,10.47-10.47h81.73a10.48,10.48,0,0,1,10.47,10.47V286.17A10.48,10.48,0,0,1,260.44,296.63ZM178.71,121.68a8.15,8.15,0,0,0-8.13,8.14V286.17a8.14,8.14,0,0,0,8.13,8.13h81.73a8.14,8.14,0,0,0,8.13-8.13V129.82a8.14,8.14,0,0,0-8.13-8.14Z"/><path class="cls-6" d="M169.75,282.88H269.92a0,0,0,0,1,0,0v2.23a9.78,9.78,0,0,1-9.78,9.78H179.53a9.78,9.78,0,0,1-9.78-9.78v-2.23A0,0,0,0,1,169.75,282.88Z"/><rect class="cls-7" x="41.67" y="296.43" width="276.1" height="1.26" rx="0.43"/><path class="cls-3" d="M69.16,191.47c.88-14.54,11.08-17,20.45-17s18.55,4.86,18.1,15.79c-.19,4.72-1.5,8.82-4.63,11.73l3.53,8.82-7.18-6.38a26.89,26.89,0,0,1-11.49,2.12C73.58,206.58,68.59,200.83,69.16,191.47Z"/><path class="cls-8" d="M135.35,290.81s-.36,5.85-1.49,5.93h-5.74l-7.14,0a2.31,2.31,0,0,1,2.13-2.08c2.09-.37,5.58-1.83,6.84-4.59S135.35,290.81,135.35,290.81Z"/><path class="cls-9" d="M151.65,264.89a15.84,15.84,0,0,1-.66,2.37c-.3.84-.66,1.73-1.09,2.65-1.59,3.46-13.73,23.4-13.73,23.4a9.56,9.56,0,0,1-4.51-1,6,6,0,0,1-2.89-2.42c.29-.71,3.09-7.39,7.23-17.66,1.68-4.18,3.46-8.62,5.19-12.9l.68-1.7c.53-1.31,1-2.6,1.55-3.86l7-17.33s16.59-6.17,17.14-2.07C168.61,242.48,152.36,261.2,151.65,264.89Z"/><path class="cls-8" d="M163.13,273.89s5,1.52,5,3.59c0,.15-2.12,5.33-2.12,5.33l-2.11,5.74a.41.41,0,0,1-.5.26,1.64,1.64,0,0,1-1.22-2.14c.43-2.07.37-5.86-1.72-8.05S163.13,273.89,163.13,273.89Z"/><path class="cls-10" d="M161.24,280.65s3.9-.86,4.1-6.16c0,0-11.22-11.62-15.05-13.75-4.45-2.46-6.65-3-5.81-3.85,2.16-2.28,18.31-8.34,21.32-13a14.31,14.31,0,0,0,2-4.5,10.65,10.65,0,0,0,.14-4.84l-20-2s-20.26,19.18-20.16,25.87C127.87,265.57,161.24,280.65,161.24,280.65Z"/><path class="cls-11" d="M151.14,193.82c4.67,1.21,12.41-3.12,12.41-3.12a11.43,11.43,0,0,1-4.12-6.45c-.06-.23-.11-.46-.16-.69l-2.39-.51-3.57,3.19a30.09,30.09,0,0,0,.53,3.61c.08.4.16.83.27,1.28A11,11,0,0,0,151.14,193.82Z"/><path class="cls-12" d="M168.49,213.17c-.67,9,.21,22.67-.55,25-.65,2-8.11.83-11.09.14-1.1-.25-2.44-.61-3.82-1-3.84-1.19-8-2.89-8.48-4.15a1,1,0,0,1,0-.14,1.18,1.18,0,0,1,0-.53,9.14,9.14,0,0,0,.79-2.93c.08-1.78.07-3.88.13-6.13,0-.25,0-.53,0-.78v-.24c.07-2.51.2-5.15.35-7.77.1-1.64.21-3.27.34-4.83a65.22,65.22,0,0,1,1.38-9.88,15.87,15.87,0,0,1,5.1-7.86l1.42-1.22a8.28,8.28,0,0,0,5.15-.69c1.83-.87,2.46-1.49,2.78-1.26C166.23,192.17,169.28,202.18,168.49,213.17Z"/><path class="cls-13" d="M153,237.31c-3.84-1.19-8-2.89-8.48-4.15a1,1,0,0,1,0-.14c0-.18,0-.36,0-.53a9.14,9.14,0,0,0,.79-2.93c.08-1.78.07-3.88.13-6.13,0-.25,0-.53,0-.78v-.24L161,202.61S171.48,224.37,153,237.31Z"/><path class="cls-14" d="M153.31,186.24a30.09,30.09,0,0,0,.53,3.61,9.47,9.47,0,0,0,5.59-5.6c-.06-.23-.11-.46-.16-.69l-2.39-.51Z"/><path class="cls-11" d="M152.84,188.25s7.6-1.26,6.73-6-.46-8.06-5.34-7.45-5.5,2.59-5.59,4.23S150.85,188.46,152.84,188.25Z"/><rect class="cls-8" x="119.42" y="210.73" width="0.7" height="18.44" transform="translate(-62.11 47.78) rotate(-18)"/><rect class="cls-8" x="122.27" y="227.46" width="19.35" height="1.16" transform="translate(-4.84 2.87) rotate(-1.22)"/><path class="cls-11" d="M141.24,229.34s-3.34.46-5.92.89a26.16,26.16,0,0,1-3.39.58c-5.61-.26-6.33-2.05-4.73-2.09l2.9-.06a5.67,5.67,0,0,0,2.53-.91c.1-.41-1.34-.17-1.66-.27-.55-.17-.32-.69.47-.62.52,0,2-.44,2.59-.16s1.15.73,1.56.68,5.13-1.56,5.13-1.56Z"/><path class="cls-12" d="M163.25,196.4s-.73,25.06-6.24,27.9c-2.71,1.41-15,5.27-18.65,5.93,0,0-1-.64-1.1-3.66,0,0,12.59-6.28,14.17-9.11,2.34-4.21-3.49-15.74-.42-19.8S159.78,191.39,163.25,196.4Z"/><path class="cls-8" d="M159.43,184.25a4.05,4.05,0,0,0-.37-1.79c-.28-.58-.61-.91-.28-1.46s.25-1.68-.35-1.72-.91,1.42-1.28,1.41c-1.4,0-1.6-1.23-2.16-2.72s-5.71.31-6.31.58a.68.68,0,0,1-.39,0,1.75,1.75,0,0,1-1.1-2.87l.15-.19c.48-.64,4.5-5.65,9.21-4.42s5.3,3.41,5.57,5.33C162.43,178.62,161.35,183.6,159.43,184.25Z"/><path class="cls-15" d="M200.66,263.47l-.19.12a2.35,2.35,0,0,1-.87,1.51,3.26,3.26,0,0,1-2.11.64,3.3,3.3,0,0,1-2.66-1.17,5.07,5.07,0,0,1-1-3.33,5,5,0,0,1,1-3.33,3.73,3.73,0,0,1,4.76-.54,2.25,2.25,0,0,1,.86,1.3.15.15,0,0,0,.19.11l1.12-.35a.18.18,0,0,0,.1-.2,3.51,3.51,0,0,0-1.27-1.76,4.88,4.88,0,0,0-3.09-1,4.82,4.82,0,0,0-3.77,1.55,7,7,0,0,0,0,8.41,4.85,4.85,0,0,0,3.77,1.55,4.91,4.91,0,0,0,3.13-1,3.58,3.58,0,0,0,1.29-2.07.19.19,0,0,0-.11-.19Z"/><path class="cls-15" d="M233.37,263.47l-.19.12a2.44,2.44,0,0,1-.87,1.51,3.69,3.69,0,0,1-4.77-.53,6.15,6.15,0,0,1,0-6.66,3.37,3.37,0,0,1,2.69-1.16,3.29,3.29,0,0,1,2.07.62,2.2,2.2,0,0,1,.86,1.3.15.15,0,0,0,.19.11l1.12-.35a.17.17,0,0,0,.1-.2,3.45,3.45,0,0,0-1.27-1.76,4.88,4.88,0,0,0-3.09-1,4.83,4.83,0,0,0-3.77,1.55,7,7,0,0,0,0,8.41,4.86,4.86,0,0,0,3.77,1.55,4.91,4.91,0,0,0,3.13-1,3.58,3.58,0,0,0,1.29-2.07.16.16,0,0,0-.11-.19Z"/><path class="cls-15" d="M213.91,266.81h-1.67L211,263.42h-4.66l-1.23,3.39H203.5l4.28-11.13h1.58Zm-3.39-4.56-2-5.16-1.87,5.16Z"/><path class="cls-15" d="M219.18,267a5.07,5.07,0,0,1-3.52-1.06,3.66,3.66,0,0,1-1.23-2.71h1.42a2.29,2.29,0,0,0,1,1.84,4,4,0,0,0,2.23.6,3.5,3.5,0,0,0,2-.51,1.58,1.58,0,0,0,.76-1.38,1.42,1.42,0,0,0-.78-1.34,11.29,11.29,0,0,0-2.7-.82,6.26,6.26,0,0,1-2.74-1.13,2.43,2.43,0,0,1-.83-1.92,2.73,2.73,0,0,1,1.08-2.22,4.45,4.45,0,0,1,2.88-.86,4.94,4.94,0,0,1,3,.87,3.09,3.09,0,0,1,1.22,2.47H221.6c-.14-1.35-1.07-2-2.76-2a3.35,3.35,0,0,0-1.91.46,1.42,1.42,0,0,0-.67,1.23,1.16,1.16,0,0,0,.54,1.05,6.78,6.78,0,0,0,2,.67,20.41,20.41,0,0,1,2.36.65,3.68,3.68,0,0,1,1.49,1,2.54,2.54,0,0,1,.62,1.81,3,3,0,0,1-1.14,2.38A4.51,4.51,0,0,1,219.18,267Z"/><path class="cls-15" d="M241.51,255.49a5,5,0,0,1,3.82,1.58,6.59,6.59,0,0,1,0,8.35,5,5,0,0,1-3.82,1.58,5.08,5.08,0,0,1-3.85-1.58,6.59,6.59,0,0,1,0-8.35A5,5,0,0,1,241.51,255.49Zm0,10.25a3.52,3.52,0,0,0,2.74-1.19,5.65,5.65,0,0,0,0-6.62,3.47,3.47,0,0,0-2.71-1.18,3.54,3.54,0,0,0-2.75,1.18,5.61,5.61,0,0,0,0,6.62A3.5,3.5,0,0,0,241.49,265.74Z"/><path class="cls-16" d="M226.87,172a9.35,9.35,0,0,1,6.07,16.57c-.78.59-1.68,1.75-2.63.22-.61-1-1.66-1.95-.07-3.22a5.32,5.32,0,0,0-3.09-9.52,5,5,0,0,0-5.25,3.8c-.53,1.84-1.84,1.47-3,1.23-1.68-.33-1.05-1.58-.77-2.55A9.37,9.37,0,0,1,226.87,172Z"/><path class="cls-16" d="M242.32,216.64a9.28,9.28,0,0,1-6.95-15.09,8.7,8.7,0,0,1,9.36-3.26c1,.23,2.46.17,1.92,1.82-.37,1.15-.5,2.78-2.68,2.06-2.41-.79-4.41.28-5.8,2.31a4.77,4.77,0,0,0,0,5.75c1.33,2,3.34,3,5.55,2.23s3.34.33,3.61,2c.31,1.91-1.77,1.58-2.9,2A7.16,7.16,0,0,1,242.32,216.64Z"/><path class="cls-16" d="M220.53,216.59a9.26,9.26,0,0,1-6.71-15.51,8.61,8.61,0,0,1,9.3-2.71c.95.28,2.72.18,2,2.06-.49,1.22-1,2.55-3,1.79-2.27-.85-4.24.1-5.67,2a4.84,4.84,0,0,0-.34,5.76c1.2,2,3,3.16,5.41,2.6,2.12-.5,3.47.35,3.57,2.19s-1.88,1.52-3.11,1.84A5.92,5.92,0,0,1,220.53,216.59Z"/><path class="cls-16" d="M248.15,226.9a9.37,9.37,0,0,1-18.31,2.69c-.26-1-.93-2.17.78-2.57,1.26-.29,2.53-.68,3,1.18a5.3,5.3,0,0,0,10,1,4.9,4.9,0,0,0-1.44-6.32c-1.54-1.28-.46-2.31.17-3.27,1-1.49,1.84-.29,2.61.35A9,9,0,0,1,248.15,226.9Z"/><path class="cls-17" d="M207.94,196.72a9.17,9.17,0,0,1-9.07-6.84c-.26-1-.65-2,.91-2.14,1-.09,2.32-1.08,2.83.84a5,5,0,0,0,3.58,3.89c2.46.64,4.69.2,6.12-2.16a5.18,5.18,0,0,0-.48-6.48c-.56-.68-1.74-.92-1.39-2.29.62-2.41,1.73-2.8,3.63-1.11a9.31,9.31,0,0,1-6.13,16.29Z"/><path class="cls-16" d="M217.31,227.78a9,9,0,0,1-3.4,7.13c-.63.53-1.45,1.47-2.18.35-.59-.9-2.08-1.89-.6-3.24a5.86,5.86,0,0,0,2-2.8,5.38,5.38,0,0,0-3.1-6.5,5.44,5.44,0,0,0-6.9,2.76c-.38.74-.2,2-1.23,2.14a3.25,3.25,0,0,1-2.8-.3c-.75-.63-.24-1.48-.06-2.19a9.31,9.31,0,0,1,18.27,2.65Z"/><path class="cls-16" d="M193.06,223.7a8.93,8.93,0,0,1-8.38-5.32,8.77,8.77,0,0,1,1.37-10.11,8.63,8.63,0,0,1,9.23-2.93c1,.26,2.41.31,1.8,1.94-.45,1.2-.71,2.6-2.83,1.9-2.4-.8-4.43.35-5.72,2.47a5,5,0,0,0,.22,5.78,4.7,4.7,0,0,0,5.63,2c2.21-.8,3.05.48,3.36,2,.38,1.81-1.54,1.63-2.6,2.06A8.06,8.06,0,0,1,193.06,223.7Z"/><path class="cls-16" d="M211.59,243.59a9.1,9.1,0,0,1-8.05-5.53,9.43,9.43,0,0,1,1.75-10.31c.7-.7,1.48-1.94,2.64-.79.94.94,1.91,2,.42,3.46a5.29,5.29,0,0,0,3.87,9.11,5,5,0,0,0,5-4.12c.47-2,2-1.76,3.21-1.51,1.57.32.89,1.71.68,2.63C220.19,240.54,216.31,243.54,211.59,243.59Z"/><path class="cls-16" d="M221.84,227.36a9.27,9.27,0,0,1,18.32-2.15c.19.95.94,2.31-.84,2.48-1.09.11-2.52.69-2.93-1.33a5.17,5.17,0,0,0-5.15-4.38,4.88,4.88,0,0,0-4.75,2.86,5.06,5.06,0,0,0,1,6.42c1.47,1.37.34,2.34-.37,3.23-1,1.28-1.9.15-2.64-.54A8.82,8.82,0,0,1,221.84,227.36Z"/><path class="cls-17" d="M195.58,198.33c4.8-.19,7.64,1.68,9.31,5.11a8.86,8.86,0,0,1-1.11,9.9c-2.53,3.21-6,3.84-9.76,3.14-.94-.18-2.44-.39-1.92-1.95.39-1.18.71-2.8,2.78-2,2.58,1,4.6-.07,6.1-2.16a4.63,4.63,0,0,0,0-5.74c-1.4-2-3.3-3.12-5.8-2.3-2.17.72-2.69-.92-3-2.21-.34-1.48,1.26-1.4,2.19-1.68A2.89,2.89,0,0,1,195.58,198.33Z"/><path class="cls-17" d="M230.72,197.28a9.31,9.31,0,0,1-6.63-15.7c.69-.78,1.61-2.18,2.86-1,1,1,1.89,2.14.2,3.65a4.66,4.66,0,0,0-1.18,5.85,5.1,5.1,0,0,0,5.13,3.17,4.9,4.9,0,0,0,4.89-3.87c.51-2,2-1.8,3.18-1.5,1.75.44.88,1.85.57,2.85A9.1,9.1,0,0,1,230.72,197.28Z"/><path class="cls-17" d="M245.72,191.24c4.35-.06,7.23,1.82,8.87,5.44A8.84,8.84,0,0,1,253,206.75c-2.56,2.89-5.93,3.59-9.59,2.6-.83-.22-2.47-.21-1.72-2,.5-1.17,1-2.48,2.71-1.87a5.33,5.33,0,0,0,6.24-7.85,5,5,0,0,0-6-2.3c-1.78.54-2.24-.75-2.66-1.94-.59-1.65.91-1.66,1.82-2A7.83,7.83,0,0,1,245.72,191.24Z"/><path class="cls-17" d="M190.83,188.29a9.3,9.3,0,0,1,8.16-9.46,9.09,9.09,0,0,1,10.08,6.51c.3,1,1.21,2.43-.58,2.89-1.36.36-2.66.5-3.22-1.67a5,5,0,0,0-6.33-3.72,5.38,5.38,0,0,0-4,6.24,4.45,4.45,0,0,0,1.49,2.78c1.75,1.41.69,2.74-.29,3.69-1.14,1.13-1.85-.36-2.55-1A8.81,8.81,0,0,1,190.83,188.29Z"/></svg>