<svg xmlns="http://www.w3.org/2000/svg" width="188.317" height="121.765" viewBox="0 0 188.317 121.765">
  <g id="Group_11133" data-name="Group 11133" transform="translate(-899 -5535.235)">
    <ellipse id="Ellipse_467" data-name="Ellipse 467" cx="91.5" cy="12" rx="91.5" ry="12" transform="translate(899 5633)" fill="#fadfe0"/>
    <g id="undraw_reviewed_docs_re_9lmr" transform="translate(899.684 5518.68)">
      <path id="Path_336" data-name="Path 336" d="M442.451,423.706a2.48,2.48,0,0,0-2.268-1.517H394.916a2.455,2.455,0,0,0-2.454,2.454v57.268a2.455,2.455,0,0,0,2.454,2.454h45.269a2.457,2.457,0,0,0,2.454-2.454V424.643a2.41,2.41,0,0,0-.186-.937Zm-.359,58.2a1.911,1.911,0,0,1-1.909,1.909H394.916a1.909,1.909,0,0,1-1.909-1.908V424.643a1.912,1.912,0,0,1,1.909-1.909h45.269a1.919,1.919,0,0,1,1.772,1.2,2.122,2.122,0,0,1,.072.215,1.892,1.892,0,0,1,.065.493Z" transform="translate(-323.785 -362.231)" fill="#3f3d56"/>
      <path id="Path_337" data-name="Path 337" d="M486.3,459.12H472.669a1.091,1.091,0,0,1,0-2.182H486.3a1.091,1.091,0,0,1,0,2.182Z" transform="translate(-377.085 -385.641)" fill="#3f3d56"/>
      <path id="Path_338" data-name="Path 338" d="M486.3,476.67H472.669a1.091,1.091,0,0,1,0-2.182H486.3a1.091,1.091,0,0,1,0,2.182Z" transform="translate(-377.085 -397.464)" fill="#3f3d56"/>
      <path id="Path_339" data-name="Path 339" d="M430.375,461.823H420.41a1.229,1.229,0,0,1-1.227-1.227V448.836a1.229,1.229,0,0,1,1.227-1.227h9.965a1.229,1.229,0,0,1,1.227,1.227V460.6A1.229,1.229,0,0,1,430.375,461.823Z" transform="translate(-341.787 -379.356)" fill="#e35156"/>
      <path id="Path_340" data-name="Path 340" d="M450.544,512.606H419.729a1.091,1.091,0,0,1,0-2.182h30.816a1.091,1.091,0,1,1,0,2.182Z" transform="translate(-341.42 -421.673)" fill="#ccc"/>
      <path id="Path_341" data-name="Path 341" d="M450.544,530.156H419.729a1.091,1.091,0,0,1,0-2.182h30.816a1.091,1.091,0,1,1,0,2.182Z" transform="translate(-341.42 -433.497)" fill="#ccc"/>
      <path id="Path_342" data-name="Path 342" d="M450.544,547.706H419.729a1.091,1.091,0,0,1,0-2.182h30.816a1.091,1.091,0,1,1,0,2.182Z" transform="translate(-341.42 -445.32)" fill="#ccc"/>
      <path id="Path_343" data-name="Path 343" d="M450.544,565.256H419.729a1.091,1.091,0,1,1,0-2.182h30.816a1.091,1.091,0,1,1,0,2.182Z" transform="translate(-341.42 -457.143)" fill="#ccc"/>
      <path id="Path_344" data-name="Path 344" d="M450.544,582.806H419.729a1.091,1.091,0,1,1,0-2.182h30.816a1.091,1.091,0,1,1,0,2.182Z" transform="translate(-341.42 -468.966)" fill="#ccc"/>
      <circle id="Ellipse_44" data-name="Ellipse 44" cx="10.527" cy="10.527" r="10.527" transform="translate(84.004 25.105)" fill="#e35156"/>
      <path id="Path_395" data-name="Path 395" d="M461.12,343.419a1.092,1.092,0,0,1-.657-.218l-.012-.009-2.474-1.893a1.1,1.1,0,1,1,1.338-1.745l1.6,1.229,3.787-4.94a1.1,1.1,0,0,1,1.541-.2h0l-.023.033.024-.033a1.1,1.1,0,0,1,.2,1.541L462,342.989a1.1,1.1,0,0,1-.875.429Z" transform="translate(-367.632 -303.77)" fill="#fff"/>
      <circle id="Ellipse_46" data-name="Ellipse 46" cx="7.134" cy="7.134" r="7.134" transform="translate(18.089 16.556)" fill="#ccc"/>
      <path id="Path_408" data-name="Path 408" d="M252.128,308.18a.74.74,0,0,1-.445-.148l-.008-.006L250,306.742a.745.745,0,1,1,.906-1.183l1.086.833,2.566-3.347a.745.745,0,0,1,1.044-.138h0l-.016.022.016-.021a.746.746,0,0,1,.138,1.044l-3.018,3.937a.745.745,0,0,1-.593.291Z" transform="translate(-227.612 -281.769)" fill="#fff"/>
      <path id="Path_410" data-name="Path 410" d="M239.519,359.837a1.952,1.952,0,0,0-1.784-1.194H202.114a1.932,1.932,0,0,0-1.931,1.931v45.061a1.932,1.932,0,0,0,1.931,1.931h35.621a1.933,1.933,0,0,0,1.931-1.931V360.574A1.9,1.9,0,0,0,239.519,359.837Zm-.282,45.8a1.5,1.5,0,0,1-1.5,1.5H202.114a1.5,1.5,0,0,1-1.5-1.5h0V360.574a1.5,1.5,0,0,1,1.5-1.5h35.621a1.509,1.509,0,0,1,1.394.946,1.664,1.664,0,0,1,.056.169,1.487,1.487,0,0,1,.052.388Z" transform="translate(-194.249 -319.42)" fill="#ccc"/>
      <path id="Path_411" data-name="Path 411" d="M274.023,387.7H263.294a.858.858,0,1,1,0-1.717h10.729a.858.858,0,1,1,0,1.717Z" transform="translate(-236.188 -337.841)" fill="#ccc"/>
      <path id="Path_412" data-name="Path 412" d="M274.023,401.513H263.294a.858.858,0,1,1,0-1.717h10.729a.858.858,0,1,1,0,1.717Z" transform="translate(-236.188 -347.145)" fill="#ccc"/>
      <path id="Path_413" data-name="Path 413" d="M230.014,389.831h-7.841a.967.967,0,0,1-.966-.966v-9.253a.967.967,0,0,1,.966-.966h7.841a.967.967,0,0,1,.966.966v9.253A.967.967,0,0,1,230.014,389.831Z" transform="translate(-208.413 -332.897)" fill="#ccc"/>
      <path id="Path_414" data-name="Path 414" d="M245.885,429.789H221.638a.858.858,0,0,1,0-1.717h24.247a.858.858,0,0,1,0,1.717Z" transform="translate(-208.125 -366.194)" fill="#ccc"/>
      <path id="Path_415" data-name="Path 415" d="M245.885,443.6H221.638a.858.858,0,1,1,0-1.717h24.247a.858.858,0,0,1,0,1.717Z" transform="translate(-208.125 -375.5)" fill="#ccc"/>
      <path id="Path_416" data-name="Path 416" d="M245.885,457.408H221.638a.858.858,0,0,1,0-1.717h24.247a.858.858,0,0,1,0,1.717Z" transform="translate(-208.125 -384.801)" fill="#ccc"/>
      <path id="Path_417" data-name="Path 417" d="M245.885,471.221H221.638a.858.858,0,0,1,0-1.717h24.247a.858.858,0,0,1,0,1.717Z" transform="translate(-208.125 -394.106)" fill="#ccc"/>
      <path id="Path_418" data-name="Path 418" d="M245.885,485.027H221.638a.858.858,0,1,1,0-1.717h24.247a.858.858,0,0,1,0,1.717Z" transform="translate(-208.125 -403.407)" fill="#ccc"/>
      <path id="Path_419" data-name="Path 419" d="M182.256,508.087h50.067a.257.257,0,0,0,0-.514H182.256a.257.257,0,0,0,0,.514Z" transform="translate(-181.998 -419.753)" fill="#ccc"/>
      <circle id="Ellipse_46-2" data-name="Ellipse 46" cx="7.134" cy="7.134" r="7.134" transform="translate(155.14 16.556)" fill="#ccc"/>
      <path id="Path_408-2" data-name="Path 408" d="M672.128,308.18a.74.74,0,0,1-.445-.148l-.008-.006L670,306.742a.745.745,0,1,1,.906-1.183l1.086.833,2.566-3.347a.745.745,0,0,1,1.044-.138h0l-.016.022.016-.021a.746.746,0,0,1,.138,1.044l-3.018,3.937a.745.745,0,0,1-.593.291Z" transform="translate(-510.561 -281.769)" fill="#fff"/>
      <path id="Path_410-2" data-name="Path 410" d="M659.519,359.837a1.952,1.952,0,0,0-1.784-1.194H622.114a1.932,1.932,0,0,0-1.931,1.931v45.061a1.932,1.932,0,0,0,1.931,1.931h35.621a1.933,1.933,0,0,0,1.931-1.931V360.574A1.9,1.9,0,0,0,659.519,359.837Zm-.282,45.8a1.5,1.5,0,0,1-1.5,1.5H622.114a1.5,1.5,0,0,1-1.5-1.5h0V360.574a1.5,1.5,0,0,1,1.5-1.5h35.621a1.509,1.509,0,0,1,1.394.946,1.649,1.649,0,0,1,.056.169,1.487,1.487,0,0,1,.052.388Z" transform="translate(-477.198 -319.42)" fill="#ccc"/>
      <path id="Path_411-2" data-name="Path 411" d="M694.023,387.7H683.294a.858.858,0,0,1,0-1.717h10.729a.858.858,0,1,1,0,1.717Z" transform="translate(-519.137 -337.841)" fill="#ccc"/>
      <path id="Path_412-2" data-name="Path 412" d="M694.023,401.513H683.294a.858.858,0,0,1,0-1.717h10.729a.858.858,0,1,1,0,1.717Z" transform="translate(-519.137 -347.145)" fill="#ccc"/>
      <path id="Path_413-2" data-name="Path 413" d="M650.014,389.831h-7.841a.966.966,0,0,1-.966-.966v-9.253a.966.966,0,0,1,.966-.966h7.841a.967.967,0,0,1,.966.966v9.253A.966.966,0,0,1,650.014,389.831Z" transform="translate(-491.362 -332.897)" fill="#ccc"/>
      <path id="Path_414-2" data-name="Path 414" d="M665.885,429.789H641.638a.858.858,0,0,1,0-1.717h24.247a.858.858,0,1,1,0,1.717Z" transform="translate(-491.074 -366.194)" fill="#ccc"/>
      <path id="Path_415-2" data-name="Path 415" d="M665.885,443.6H641.638a.858.858,0,0,1,0-1.717h24.247a.858.858,0,1,1,0,1.717Z" transform="translate(-491.074 -375.5)" fill="#ccc"/>
      <path id="Path_416-2" data-name="Path 416" d="M665.885,457.408H641.638a.858.858,0,0,1,0-1.717h24.247a.858.858,0,1,1,0,1.717Z" transform="translate(-491.074 -384.801)" fill="#ccc"/>
      <path id="Path_417-2" data-name="Path 417" d="M665.885,471.221H641.638a.858.858,0,0,1,0-1.717h24.247a.858.858,0,1,1,0,1.717Z" transform="translate(-491.074 -394.106)" fill="#ccc"/>
      <path id="Path_418-2" data-name="Path 418" d="M665.885,485.027H641.638a.858.858,0,0,1,0-1.717h24.247a.858.858,0,1,1,0,1.717Z" transform="translate(-491.074 -403.407)" fill="#ccc"/>
      <path id="Path_419-2" data-name="Path 419" d="M602.256,508.087h50.067a.257.257,0,0,0,0-.514H602.256a.257.257,0,0,0,0,.514Z" transform="translate(-464.947 -419.753)" fill="#ccc"/>
      <path id="Path_420" data-name="Path 420" d="M370.328,611.981h63.631a.326.326,0,1,0,0-.653H370.328a.326.326,0,1,0,0,.653Z" transform="translate(-308.654 -489.651)" fill="#3f3d56"/>
    </g>
  </g>
</svg>
