<svg id="Layer_1" data-name="Layer 1" xmlns="http://www.w3.org/2000/svg" viewBox="0 0 360 340"><defs><style>.cls-1{fill:#2f6c7f;}.cls-2{fill:#255466;}.cls-3{fill:#ffae73;}.cls-4{fill:#398299;}.cls-5{fill:#87bad6;}.cls-10,.cls-13,.cls-6{fill:#4b99cc;}.cls-6{opacity:0.57;}.cls-7{fill:#f69457;}.cls-8{fill:#4393c4;}.cls-9{fill:#fff;}.cls-10{opacity:0.14;}.cls-11{fill:#d0d6ec;}.cls-12{fill:#555ca5;}.cls-13{opacity:0.31;}.cls-14{fill:#333383;}.cls-15{fill:#357c8c;opacity:0.72;}.cls-16{fill:#e7b2b6;}.cls-17{fill:#2d3554;}</style></defs><title>steps_01</title><g id="man_1" data-name="man 1"><path class="cls-1" d="M277.92,210.59l17.46,3.16s-2.21,40.42-6.74,78.44l-12.25-.12Z"/><path class="cls-2" d="M311.17,291.73,309.85,296H296.73S300.09,290.25,311.17,291.73Z"/><path class="cls-2" d="M288.1,291.73,286.78,296H273.66S277,290.25,288.1,291.73Z"/><path class="cls-3" d="M261.75,211l-1.95,1.47a6,6,0,0,0-4.54,6.08s.16,2.09,1.52,1.33.76-.65,2.7-1.67,3.35-2.83,3.34-4.4l1.93-2.25Z"/><path class="cls-4" d="M312.36,292.26S307,224.46,300.43,212l-19.93-1.44.38,12.27a7.74,7.74,0,0,1,3.25,3.1l17,66.24Z"/><path class="cls-5" d="M282.66,165.45l-3.1,13.71-4.25,18.75-7.5,10.26-4,5.5-3.75-2,7.73-16.7c.71-7.28,4.6-25.4,6.13-26.48C276.6,166.55,282.66,165.45,282.66,165.45Z"/><path class="cls-6" d="M279.56,179.16l-4.25,18.75-7.5,10.26c.89-4.11,5.4-9.4,6.33-10.64s-1.48-19.88,1.36-22.95,4,4.32,4,4.32Z"/><path class="cls-7" d="M283.28,158.57a68.56,68.56,0,0,1,1.43,7.9s4.14,3.59,5.87,3.26c1.5-.28,3.24-5,3.24-5s-1.65-2.35-3.28-9Z"/><path class="cls-3" d="M282.24,161.18s8.27,1.74,9.27-3.43,2.75-8.43-2.49-9.76-6.65.45-7.41,2.09S280.11,160.59,282.24,161.18Z"/><path class="cls-2" d="M291.51,157.75a7.54,7.54,0,0,0-7-8c-7.46-.95-3.11-7.46,3.44-7.45,0,0-1.07,2.36,2.88,3.41C299.16,147.9,292.44,156.77,291.51,157.75Z"/><path class="cls-2" d="M300.17,220.74a9.73,9.73,0,0,1-8.28-4.22l.26-.15a16.66,16.66,0,0,0,3.87,3.24A10.12,10.12,0,0,0,300.17,220.74Z"/><path class="cls-2" d="M308.52,286.42c-.11-6.15-.56-13.39-1.41-20.88-.13-1.15-.27-2.33-.42-3.5s-.33-2.61-.51-3.91a5.92,5.92,0,0,0-.47-1.4,5.91,5.91,0,0,1-.44-1.28c-.71-4.91-1.56-9.37-2.32-13.3-.2-1-.4-2-.58-3-1.69-9-2.62-14-2.63-14.08h0c0,.05.64,5.15,2.34,14.11.18,1,.38,2,.58,3,.76,3.93,1.62,8.38,2.32,13.28a6.61,6.61,0,0,0,.46,1.36,5.73,5.73,0,0,1,.45,1.32c.18,1.29.35,2.6.51,3.9s.29,2.35.42,3.5c.84,7.48,1.51,14.75,1.62,20.89Z"/><path class="cls-5" d="M301.3,214.23c-.13.05-2.9,1.94-15.57.23-2.81-.38-7.68-.43-9-3.94-.39-12-3-42-2.87-42.08a39.18,39.18,0,0,1,10.6-3.35,3.64,3.64,0,0,0,3.08,1.91c1.91.05,4.73-1.43,6.23-2.31a42.88,42.88,0,0,1,6,.91c.19,0,.92,7.68,1.42,16.82.15,2.72.27,5.56.36,8.38C301.93,201.74,303.41,213.47,301.3,214.23Z"/><path class="cls-6" d="M301.6,190.8c-2,.93-6,2.37-6.15-.37-.23-3.69,2.78-9.66,4-9.89.7-.13,1.38,1,1.82,1.88C301.39,185.14,301.51,188,301.6,190.8Z"/><rect class="cls-2" x="287.86" y="189.27" width="18.47" height="24.59" transform="translate(-56.17 137.53) rotate(-23.88)"/><path class="cls-3" d="M294.38,202.07l-.61.75a6.06,6.06,0,0,0-7.42,1.77s-1.23,1.71.31,2,1,0,3.17.45,4.41,0,5.41-1.25l1.1-1.37Z"/><path class="cls-5" d="M293.9,164.69s8.61.07,9.76.92,12.67,19.94,12.87,27.27c0,0-7.15,7.55-20.2,12l-2.62-2.64s9.84-9.95,14.54-11.77c0,0-7.77-7.88-9.47-12.12S293.9,164.69,293.9,164.69Z"/></g><rect class="cls-8" x="116.57" y="111.87" width="127.69" height="171.07"/><rect class="cls-9" x="119.59" y="114.45" width="121.65" height="165.7"/><path class="cls-8" d="M151.53,150.28H129.6V128.34h21.93Zm-20-1.95h18v-18h-18Z"/><polygon class="cls-8" points="134.38 133.95 140.07 145.4 154.85 122.01 139.62 137.12 134.38 133.95"/><path class="cls-8" d="M151.53,188.54H129.6V166.6h21.93Zm-20-1.95h18v-18h-18Z"/><polygon class="cls-8" points="134.38 172.21 140.07 183.66 154.85 160.27 139.62 175.38 134.38 172.21"/><rect class="cls-8" x="162.25" y="169.85" width="33.41" height="2.33"/><rect class="cls-8" x="162.25" y="175.44" width="23.45" height="2.33"/><rect class="cls-8" x="162.25" y="204.63" width="33.41" height="2.33"/><rect class="cls-8" x="162.25" y="210.22" width="33.41" height="2.33"/><rect class="cls-8" x="162.25" y="215.81" width="22.76" height="2.33"/><rect class="cls-8" x="162.25" y="239.4" width="33.41" height="2.33"/><rect class="cls-8" x="162.25" y="244.99" width="33.41" height="2.33"/><rect class="cls-8" x="162.25" y="250.58" width="22.76" height="2.33"/><path class="cls-8" d="M151.53,222.53H129.6V200.6h21.93Zm-20-1.95h18v-18h-18Z"/><path class="cls-8" d="M151.53,256.52H129.6V234.59h21.93Zm-20-1.95h18v-18h-18Z"/><path class="cls-8" d="M141.73,109.82v6.36a3.64,3.64,0,0,0,3.64,3.64h70.44a3.28,3.28,0,0,0,3.28-3.29v-6.71Z"/><rect class="cls-8" x="162.25" y="132.49" width="33.41" height="2.33"/><rect class="cls-8" x="162.25" y="138.08" width="33.41" height="2.33"/><rect class="cls-8" x="162.25" y="143.67" width="22.76" height="2.33"/><g id="man_2" data-name="man 2"><path class="cls-7" d="M206.67,167.15a45.54,45.54,0,0,1,.89,7.12l9.71,3.36,1.48-5.14a33,33,0,0,1-6.3-6.93Z"/><path class="cls-3" d="M205.83,169.46s8.38-1.07,7.64-6.28-.17-8.85-5.55-8.39-6.14,2.6-6.31,4.4S203.63,169.6,205.83,169.46Z"/><path class="cls-2" d="M213.47,163.18a7.54,7.54,0,0,0-9.19-5.26c-7.37,1.54-5.38-6,.8-8.17,0,0-.23,2.59,3.84,2.28C217.46,151.38,214,162,213.47,163.18Z"/><path class="cls-2" d="M207.6,291.73,206.27,296H193.16S196.52,290.25,207.6,291.73Z"/><path class="cls-2" d="M230.88,291.83l-1.17,4.25H218.1S221.07,290.34,230.88,291.83Z"/><path class="cls-1" d="M200.93,219.57l20.18.16s-3.47,38.59-13.3,72.76l-11.87.32Z"/><path class="cls-4" d="M209.36,221.4l20.52-2s5.39,29,1.65,73.45H221.37Z"/><path class="cls-2" d="M229.14,290.74c-.92-6.07-1.68-13.28-2.1-20.81-.07-1.15-.13-2.33-.18-3.52s-.11-2.63-.15-3.93a6.13,6.13,0,0,1,.23-1.46,5.78,5.78,0,0,0,.21-1.33c-.12-5,0-9.49.07-13.49,0-1,.05-2.08.07-3.09.17-9.1.23-14.25.23-14.3h0c0,.05.23,5.18.06,14.29,0,1,0,2-.07,3.08-.09,4-.19,8.53-.07,13.48a5.34,5.34,0,0,1-.22,1.42,6.07,6.07,0,0,0-.22,1.37c0,1.3.09,2.62.15,3.93s.11,2.36.18,3.51c.41,7.52,1,14.79,1.89,20.86Z"/><path class="cls-2" d="M227,227.3a9.76,9.76,0,0,1-8.29-4.22l.27-.15a16.27,16.27,0,0,0,3.86,3.24A10.11,10.11,0,0,0,227,227.3Z"/><path class="cls-3" d="M166.53,184.72l-1.31-2.06a6,6,0,0,0-5.68-5s-2.09,0-1.45,1.4.59.81,1.44,2.83,2.54,3.57,4.11,3.69l2.08,2.11Z"/><path class="cls-5" d="M242.85,197.41a23.74,23.74,0,0,1-12,16s-.89-3.7-2.14-4.12c0,0,1.24-6.2,4.17-10.21,0,0-1.17-.82-2.69-2.06a33.25,33.25,0,0,1-2.7-2.43A112.52,112.52,0,0,0,227.6,208a41.18,41.18,0,0,0,2.16,10.36S231,221,226.12,221c-.87,0-2.06.08-3.46.14h0c-7.41.31-21.46,1-21.75-1.61-1-9.28-4-23.55-5-29-3.13,6-16.86,8.58-16.86,8.58-12.75-5.36-15.92-12.76-15.92-12.76.2-.3,3.46-4.32,3.46-4.32a68.19,68.19,0,0,0,12.09,6.28s11-7.22,16.76-13.17c.41-.43,3.57-1.44,7.3-2.15,1.46-.28,4.69-.67,4.69-.67a3.7,3.7,0,0,0,.27.94v0s0,0,0,0a3.09,3.09,0,0,0,1.24,1.14h0a4.29,4.29,0,0,0,1.13.42,6.08,6.08,0,0,0,1.48.17h0c3,0,6.63-1.21,7.1-2.5l.37.06c2.4.33,8.4.74,10.25,1.85C239,180.19,242.85,197.41,242.85,197.41Z"/><path class="cls-10" d="M226.12,221l-3.46.14h0c-7.41.31-21.46,1-21.75-1.61-.9-8.4-3.45-20.88-4.64-27.24a.76.76,0,0,0-1.32-.35c-4,4.57-14,6.76-15.64,7.09a.78.78,0,0,1-.45,0c-10.72-4.57-14.58-10.56-15.48-12.22a.78.78,0,0,1,.07-.83c.62-.79,2-2.53,2.74-3.41a.76.76,0,0,1,1-.17,66,66,0,0,0,11.17,5.79A.78.78,0,0,0,179,188c1.85-1.23,11.31-7.61,16.44-13,.38-.39,3.07-1.28,6.4-2a.76.76,0,0,1,.92.73c.78,42.29,19.27,36.22,23,34.56a.76.76,0,0,1,1,.35h0a.79.79,0,0,1,.08.3c.2,4,.89,7.75,2.58,9.54C229.45,218.59,231.55,220.79,226.12,221Z"/><path class="cls-3" d="M229.19,210.57l-.76.59a6.05,6.05,0,0,0-7.62,0s-1.59,1.38-.17,2,1,.22,3,1.17,4.29,1,5.55,0l1.39-1.07Z"/><polygon class="cls-11" points="228.83 208.85 227.97 210.11 229.97 215.15 232.42 212.51 228.83 208.85"/><polygon class="cls-11" points="166.62 181.97 165.13 181.24 161.28 187.03 164.4 188.32 166.62 181.97"/></g><g id="girl"><polygon class="cls-3" points="72.84 287.63 75.23 293.16 78.4 292.77 77.84 283.94 72.84 287.63"/><polygon class="cls-3" points="100.4 289.26 104.06 294.04 107.05 292.88 104.33 284.46 100.4 289.26"/><path class="cls-3" d="M108.51,195.35h0l-.1-.12a28,28,0,0,1-1.23-2.71s-2.78,5.42-2.52,5.58l.11.07.86,1.14,1-.36.19-.07h0a1.1,1.1,0,0,0,.46-.4l1.22-1.94A1.09,1.09,0,0,0,108.51,195.35Z"/><path class="cls-3" d="M81.81,162.47c-1-1.82-2.78-3.72-8.66-1.74s-3.59,5.55-2,11.38a4.64,4.64,0,0,0,3,3.2c-.35,2.86-2.52,7.58-2.52,7.58H79.3a34.35,34.35,0,0,0,1.27-7.34,14.6,14.6,0,0,0,1.51-.34C84.46,174.36,82.81,164.28,81.81,162.47Z"/><path class="cls-1" d="M65.68,222.06l12.7,2.57v62.58l-6.35.92S60.76,243.91,65.68,222.06Z"/><path class="cls-12" d="M64.86,198.28a18,18,0,0,1-1.86-7.6,18.1,18.1,0,0,0,1.86,7.26A92.65,92.65,0,0,1,65.7,210,92.82,92.82,0,0,0,64.86,198.28Z"/><polygon class="cls-11" points="94.03 191.72 97.87 183.11 110.14 185.03 104 200.56 91.65 198.17 94.03 191.72"/><polygon class="cls-9" points="94.68 191.73 98.16 183.93 109.27 185.68 103.7 199.74 92.52 197.58 94.68 191.73"/><path class="cls-2" d="M74.93,292.69l1,3.31h9.91S83.31,291.54,74.93,292.69Z"/><path class="cls-5" d="M105.94,199.79c-1.44,6.66-9,7.37-9,7.37a28.45,28.45,0,0,1-7.16-1.82l.09.47c1.33,7.74,1.44,14.43.44,15.32-2.66,2.35-19.38,4-23.57,3.51s-3.07-2.3-3.07-2.3c3.79-6.57,1.23-24.06,1.23-24.06s-8.4-14.88,5.84-18c3.16-.7,7.68-.52,10.52,1.3,0,0,7.82-1,15.82,16,4-1.68,7.91.61,7.91.61Z"/><path class="cls-2" d="M102.77,292.69l1,3.31h9.91S111.15,291.54,102.77,292.69Z"/><path class="cls-4" d="M66.7,224.63l22.1-2.71,18.12,65.75-7.84,2S69.36,260,66.7,224.63Z"/><path class="cls-13" d="M79.86,180.84s-15,10.45-5.23,33c0,0,2.21,7.24,14.17,8.06.15,0-8,1.75-7.8,1.76-1.59.06-13.48,1-14.31,1-4.18-.47-3.07-2.3-3.07-2.3,3.79-6.57,1.23-24.07,1.23-24.07s-8.4-14.87,5.84-18a17.84,17.84,0,0,1,5.24-.31A14,14,0,0,1,79.86,180.84Z"/><path class="cls-14" d="M103.48,288.71c-2.87-5.93-5.93-13.08-8.74-20.65-.43-1.16-.86-2.36-1.29-3.55s-.94-2.66-1.4-4a6.82,6.82,0,0,1-.23-1.57,6.1,6.1,0,0,0-.2-1.44c-1.69-5-3-9.71-4.2-13.84-.3-1.08-.61-2.14-.9-3.18-2.71-9.37-4.28-14.67-4.3-14.72h0c0,.05,1.88,5.23,4.59,14.62l.91,3.18c1.17,4.12,2.5,8.8,4.19,13.82a6.48,6.48,0,0,1,.22,1.53,5.93,5.93,0,0,0,.21,1.48c.45,1.32.92,2.65,1.39,4s.87,2.39,1.3,3.55c2.8,7.56,5.67,14.84,8.54,20.76Z"/><path class="cls-2" d="M74.58,183.58c11.78-17.34,6.26-23.43,6.26-23.43-.62-1.7-11.43-1.28-13.27,3.91a126.83,126.83,0,0,1-5.79,12.22c-17,23.6-13.93,35.6-13.93,35.6l3.16-.25a7.18,7.18,0,0,1,.37-2.49v2.46l12-.93c.1-2.41.42-6.7.42-6.7l1.08,6.45,3.26-.31c-.67-13.47,2.19-20.09,3-21.73-.73,7.49,2.9,19.71,2.9,19.71l.52-.12-1.18-6.11,1.51,6,1.46-.33C72.87,195.28,73.68,187.42,74.58,183.58Z"/><polygon class="cls-2" points="101.4 183.66 100.9 184.88 105.1 185.52 105.63 184.33 101.4 183.66"/><path class="cls-11" d="M106.59,189l-8.68-1.38a.28.28,0,0,1-.24-.33h0a.28.28,0,0,1,.33-.24l8.68,1.38a.28.28,0,0,1,.24.33h0A.28.28,0,0,1,106.59,189Z"/><path class="cls-11" d="M106.14,189.9l-8.69-1.38a.29.29,0,0,1-.24-.33h0a.29.29,0,0,1,.34-.24l8.68,1.38a.29.29,0,0,1,.24.33h0A.28.28,0,0,1,106.14,189.9Z"/><path class="cls-11" d="M100.14,189.84l-3-.48a.28.28,0,0,1-.24-.33h0a.28.28,0,0,1,.33-.24l3,.48a.28.28,0,0,1,.24.33h0A.29.29,0,0,1,100.14,189.84Z"/><path class="cls-11" d="M101.74,190.09l-.58-.09a.28.28,0,0,1-.24-.33h0a.28.28,0,0,1,.33-.24l.58.09a.28.28,0,0,1,.24.33h0A.28.28,0,0,1,101.74,190.09Z"/><path class="cls-11" d="M104.23,190.49l-1.59-.25a.29.29,0,0,1-.24-.34h0a.29.29,0,0,1,.33-.24l1.59.26a.29.29,0,0,1,.25.33h0A.29.29,0,0,1,104.23,190.49Z"/><path class="cls-11" d="M102.16,192.73l-.58-.1a.28.28,0,0,1-.24-.33h0a.29.29,0,0,1,.33-.24l.58.09a.31.31,0,0,1,.25.34h0A.31.31,0,0,1,102.16,192.73Z"/><path class="cls-11" d="M104.65,193.12l-1.59-.25a.28.28,0,0,1-.24-.33h0a.28.28,0,0,1,.33-.24l1.59.25a.3.3,0,0,1,.25.33h0A.29.29,0,0,1,104.65,193.12Z"/><path class="cls-15" d="M102.17,289l-3.09.79s-29.71-30-32.38-65.38l15.78-1.11s-3.33,2.12,2,16.87,6.4,20.6,6.4,20.6S93.47,270,102.17,289Z"/><path class="cls-16" d="M108.5,184.78h0l-3.28-.49-3.68-.6s0,0,0,0l3.66.58Z"/><path class="cls-13" d="M105.94,199.79c-1.44,6.66-9,7.37-9,7.37a28.45,28.45,0,0,1-7.16-1.82c0,.16-1.94-2.91-1.43-3.6.73-1,6.5,4.39,8.13,4.07S105.94,199.79,105.94,199.79Z"/></g><g id="_pencil" data-name="
pencil"><rect class="cls-2" x="163.5" y="170.57" width="2.78" height="28.32" transform="translate(396.93 271.17) rotate(152.18)"/><polygon class="cls-2" points="156.81 169.42 159.51 171.56 157.05 172.86 156.81 169.42"/></g><rect class="cls-17" x="28.18" y="295.99" width="306.82" height="2.72"/></svg>