<svg xmlns="http://www.w3.org/2000/svg" width="183" height="136.022" viewBox="0 0 183 136.022">
  <g id="Group_11134" data-name="Group 11134" transform="translate(-1340 -5520.978)">
    <ellipse id="Ellipse_468" data-name="Ellipse 468" cx="91.5" cy="12" rx="91.5" ry="12" transform="translate(1340 5633)" fill="#fadfe0"/>
    <g id="undraw_business_deal_re_up4u" transform="translate(1346.289 5505.678)">
      <path id="Path_26961" data-name="Path 26961" d="M260.989,384.616H258.44a.531.531,0,1,1,0-1.063h2.548a.531.531,0,0,1,0,1.063Z" transform="translate(-249.234 -327.369)" fill="#fff"/>
      <path id="Path_26962" data-name="Path 26962" d="M260.989,392.616H258.44a.531.531,0,1,1,0-1.063h2.548a.531.531,0,1,1,0,1.063Z" transform="translate(-249.234 -333.506)" fill="#fff"/>
      <path id="Path_26963" data-name="Path 26963" d="M260.989,400.616H258.44a.531.531,0,1,1,0-1.063h2.548a.531.531,0,1,1,0,1.063Z" transform="translate(-249.234 -339.642)" fill="#fff"/>
      <path id="Path_26965" data-name="Path 26965" d="M838.989,526.616H836.44a.531.531,0,0,1,0-1.063h2.548a.531.531,0,0,1,0,1.063Z" transform="translate(-692.605 -436.294)" fill="#fff"/>
      <path id="Path_26966" data-name="Path 26966" d="M838.989,534.616H836.44a.531.531,0,0,1,0-1.063h2.548a.531.531,0,0,1,0,1.063Z" transform="translate(-692.605 -442.431)" fill="#fff"/>
      <path id="Path_26967" data-name="Path 26967" d="M838.989,542.616H836.44a.531.531,0,0,1,0-1.063h2.548a.531.531,0,0,1,0,1.063Z" transform="translate(-692.605 -448.568)" fill="#fff"/>
      <path id="Path_26968" data-name="Path 26968" d="M326,755.56a.391.391,0,0,1-.048.2.142.142,0,0,1-.117.081H220.83c-.091,0-.165-.124-.165-.277s.074-.277.165-.277H325.837a.143.143,0,0,1,.117.081A.391.391,0,0,1,326,755.56Z" transform="translate(-184.978 -612.515)" fill="#ccc"/>
      <circle id="Ellipse_331" data-name="Ellipse 331" cx="4.426" cy="4.426" r="4.426" transform="translate(81.833 45.639)" fill="#e35156"/>
      <path id="Path_26971" data-name="Path 26971" d="M586.961,349.035a.358.358,0,0,0-.494,0,14.657,14.657,0,0,0-2.511,2.565l-.537-1.039c-.207-.4-.81-.047-.6.353l.785,1.519a.353.353,0,0,0,.6,0,14.151,14.151,0,0,1,2.757-2.9A.351.351,0,0,0,586.961,349.035Z" transform="translate(-498.43 -300.815)" fill="#fff"/>
      <path id="Path_26972" data-name="Path 26972" d="M484.007,363.012l-6.674-10.48,7.728-4.139,2.028,8,14.291,7.722a3.09,3.09,0,1,1-1.759,4.2Z" transform="translate(-417.55 -300.398)" fill="#a0616a"/>
      <path id="Path_26973" data-name="Path 26973" d="M455.175,302.94c-2.1,3.079,5.355,14.269,5.355,14.269.363-.782,3.833,8,4.414,7.486,1.652-1.475,4.238-5.585,5.675-5.768.822-.1-1.906-5.935-1.906-5.935s-1.247-3.442-2.939-7.84a7.9,7.9,0,0,0-5.736-5.016A5.627,5.627,0,0,0,455.175,302.94Z" transform="translate(-400.267 -263.377)" fill="#3f3d56"/>
      <path id="Path_26974" data-name="Path 26974" d="M236.173,560.23h3.169l1.508-12.225h-4.678Z" transform="translate(-181.162 -420.363)" fill="#a0616a"/>
      <path id="Path_26975" data-name="Path 26975" d="M453.368,733.72h.892l3.483-1.416,1.867,1.416h0a3.978,3.978,0,0,1,3.978,3.977v.129h-10.22Z" transform="translate(-399.166 -594.888)" fill="#2f2e41"/>
      <path id="Path_26976" data-name="Path 26976" d="M299.389,560.23h3.169l1.508-12.225h-4.678Z" transform="translate(-229.655 -420.363)" fill="#a0616a"/>
      <path id="Path_26977" data-name="Path 26977" d="M516.585,733.72h.892l3.483-1.416,1.867,1.416h0A3.978,3.978,0,0,1,526.8,737.7v.129h-10.22Z" transform="translate(-447.659 -594.888)" fill="#2f2e41"/>
      <path id="Path_26978" data-name="Path 26978" d="M446.731,455.889l-20.615.515c-3.915,2.127-3.975,6.729-2.692,12.194,0,0-.433,3.248.433,4.114s1.3.866.866,2.382,1.855,3.991,1.577,4.269a11.206,11.206,0,0,0-.927,1.794l2.165,12.343s1.516,21.437,1.949,21.87.866,0,.433,1.083-.866.65-.433,1.083a15.921,15.921,0,0,1,1.083,1.3H435.8s.395-2.165.395-2.382.433-1.516.433-1.732-.383-.6-.383-.6a7.121,7.121,0,0,1-.267-1.35c0-.433-1.3-17.106-1.3-17.106l2.6-21.654,6.28,21.221s0,18.622.433,19.055.433.217.217,1.083-1.083.65-.433,1.3.866-.433.65.65l-.217,1.083,6.5.093s.866-1.825.433-2.475-.407-.472.121-1.535.745-1.28.528-1.5-.216-1.368-.216-1.368L450.491,490.9s-.217-21.87-.217-22.52a2.159,2.159,0,0,1,.18-.974v-.882l-.829-3.124Z" transform="translate(-375.624 -382.856)" fill="#2f2e41"/>
      <circle id="Ellipse_332" data-name="Ellipse 332" cx="6.405" cy="6.405" r="6.405" transform="translate(52.317 17.356)" fill="#a0616a"/>
      <path id="Path_26979" data-name="Path 26979" d="M432.771,279.775a6.611,6.611,0,0,1,2.679,3.862,36.594,36.594,0,0,1,1.573,8.743l.5,8.884,6.2,18.916c-5.372,4.546-25.565,1.033-25.565,1.033s-.62-.207,0-.826,1.223-.071.6-.691-.193.071.014-.549,0-.207-.207-.413,1.6-2.066,1.6-2.066l-1.653-10.858-2.066-21.9c2.479-3.1,7.466-4.926,7.466-4.926l1.288-2.319,6.442.515Z" transform="translate(-370.846 -245.374)" fill="#3f3d56"/>
      <path id="Path_26980" data-name="Path 26980" d="M453.968,213.08a2.968,2.968,0,0,1,1.055,1.481,20.842,20.842,0,0,0,.014-2.907c-.075-.68-.554-.833-1.109-1.01-.5-.16-1.067-.341-1.219-1-2.013-1.959-5.518-1.86-7.917-1.177-1.32.376-2.079.859-2.147,1.142l-.014.058-.054.027c-1.017.509-1.215,2.115-1.2,3.373.025,2.37.843,5.062,1.3,5.281.024.012.031.007.041,0h0c.694-.555,1.541.042,1.913.367a6.662,6.662,0,0,1,5.965-5.651,10.452,10.452,0,0,0,1.438-.241,3.026,3.026,0,0,1,.734-.1A2.09,2.09,0,0,1,453.968,213.08Z" transform="translate(-389.965 -192.722)" fill="#2f2e41"/>
      <path id="Path_26981" data-name="Path 26981" d="M649.878,396.68,662.2,384.168l3.246-10.007-5.224-2.113c-2.588,2.61-5.252,10.6-5.252,10.6l-8.41,11.287c-.067.025-.134.051-.2.083a2.489,2.489,0,1,0,3.518,2.661Z" transform="translate(-546.112 -318.543)" fill="#ffb8b8"/>
      <path id="Path_26982" data-name="Path 26982" d="M704.453,337.467l6.606,1.911.025,0c2.428-.472,4.349-4.507,5.533-7.809a4.564,4.564,0,0,0-2.472-5.72h0a4.575,4.575,0,0,0-4.774.728l-3.294,2.836Z" transform="translate(-591.768 -282.818)" fill="#e35156"/>
      <path id="Path_26983" data-name="Path 26983" d="M442.254,553.763H438.7l-1.69-13.7h5.244Z" transform="translate(-335.222 -414.268)" fill="#ffb8b8"/>
      <path id="Path_26984" data-name="Path 26984" d="M646.348,731.022h-1l-3.9-1.588-2.093,1.588h0a4.459,4.459,0,0,0-4.459,4.459v.145h11.456Z" transform="translate(-538.41 -592.686)" fill="#2f2e41"/>
      <path id="Path_26985" data-name="Path 26985" d="M509.937,553.763h-3.553l-1.69-13.7h5.244Z" transform="translate(-387.14 -414.268)" fill="#ffb8b8"/>
      <path id="Path_26986" data-name="Path 26986" d="M714.031,731.022h-1l-3.9-1.588-2.093,1.588h0a4.459,4.459,0,0,0-4.459,4.459v.145h11.456Z" transform="translate(-590.328 -592.686)" fill="#2f2e41"/>
      <path id="Path_26987" data-name="Path 26987" d="M674.122,483.025a37.716,37.716,0,0,1-.622,9.749c-1.037,4.771-1.037,18.208-1.037,18.208l-2.282,26.183-6.845-.622-1.867-43.768L654.831,507.5l.622,2.074-.829.519s.622,4.045.207,4.045a4.956,4.956,0,0,0-1.452.622l.83,21.366-7.053-.207-2.489-30.077,2.7-17.217.207-3.319.933.038.475-1.387.873-2.385Z" transform="translate(-545.908 -402.557)" fill="#2f2e41"/>
      <path id="Path_26988" data-name="Path 26988" d="M686.778,335.147l.037-.052c1.974-2.764-1-9.407-1.443-10.37l1.886-.612-.425-3.611-.2-1.61,1.442-1.442,0-.036.83-7.26,1.206-4.822a10.587,10.587,0,0,0-3-10.26l-2.789-2.629-3.389-5.015h-5.465l-1.874,3.54a7.966,7.966,0,0,0-6.163,8.133l.425,9.283-1.663,11.558v2.092l-1.871,2.079.409,2.043-1.424.61-.629,2.934c-.26.343-1.978,2.633-1.978,3.26,0,.094.069.185.218.286,1.17.793,7.64,2.408,10.5,1.263,3.05-1.219,15.174.61,15.3.629Z" transform="translate(-558.205 -253.634)" fill="#e35156"/>
      <circle id="Ellipse_333" data-name="Ellipse 333" cx="7.238" cy="7.238" r="7.238" transform="translate(112.051 17.701)" fill="#ffb8b8"/>
      <path id="Path_26989" data-name="Path 26989" d="M699.66,226.1a19.683,19.683,0,0,0,3.341-.32,9.985,9.985,0,0,0,4.157-3.214h0a9.671,9.671,0,0,0,.94-3,8.8,8.8,0,0,0-1.719-6.944,2.781,2.781,0,0,0-1.147-.929c-.041-.015-.082-.028-.124-.038a3.43,3.43,0,0,1-1.733-1.011,2.834,2.834,0,0,0-.291-.284,4.226,4.226,0,0,0-1.785-.839c-1.055-.253-2.564.064-4.484.944a4.741,4.741,0,0,1-2.862.162.269.269,0,0,0-.251.093,1.9,1.9,0,0,1-1.276.547c-.293.02-.59.435-.949.974-.081.122-.176.265-.245.353l-.014-.164-.161.187a2.3,2.3,0,0,0,1.136,3.722,4.486,4.486,0,0,0,.906.121c.185.012.377.024.561.051A3.471,3.471,0,0,1,696.3,218.7a.908.908,0,0,0,1.381.405,1.5,1.5,0,0,1,1.36-.284,1,1,0,0,1,.453.488,1.3,1.3,0,0,0,.507.561c.754.364.849,2.061.618,3.484-.222,1.372-.706,2.372-1.176,2.433-.362.047-.4.074-.427.139l-.022.058.042.053A1.482,1.482,0,0,0,699.66,226.1Z" transform="translate(-581.065 -193.809)" fill="#2f2e41"/>
      <path id="Path_26990" data-name="Path 26990" d="M608.131,365.687l-3.479-4.433c-3.544.976-9.832,6.581-9.832,6.581l-12.914,5.6a2.488,2.488,0,1,0,1.511,4.031l16.916-4.719Z" transform="translate(-495.54 -310.263)" fill="#ffb8b8"/>
      <path id="Path_26991" data-name="Path 26991" d="M681.418,334.189l5.49-6.119.3-4.336a4.575,4.575,0,0,0-2.27-4.262h0a4.564,4.564,0,0,0-6.063,1.437c-1.94,2.923-4.026,6.876-2.953,9.1l.011.023Z" transform="translate(-569.661 -277.752)" fill="#e35156"/>
      <path id="Path_26992" data-name="Path 26992" d="M432.806,384.814l-14.267-7.307a2.251,2.251,0,0,1-.749-3.073l9.3-18.164a2.251,2.251,0,0,1,2.932-1.188l14.267,7.307a2.251,2.251,0,0,1,.749,3.073l-9.3,18.164A2.252,2.252,0,0,1,432.806,384.814Z" transform="translate(-371.646 -305.376)" fill="#e6e6e6"/>
      <path id="Path_26993" data-name="Path 26993" d="M437.622,389.162l-9.693-4.965a2.108,2.108,0,0,1-.7-2.878l7.729-15.09a2.108,2.108,0,0,1,2.746-1.112l11.708,6a2.108,2.108,0,0,1,.7,2.878l-4.2,8.2C443.4,387.089,441.856,391.33,437.622,389.162Z" transform="translate(-378.899 -313.083)" fill="#fff"/>
      <path id="Path_26994" data-name="Path 26994" d="M464.337,415.895l-8.586-4.4a.537.537,0,0,1,.484-.946l8.586,4.4a.537.537,0,0,1-.484.946Z" transform="translate(-400.822 -348.057)" fill="#e35156"/>
      <path id="Path_26995" data-name="Path 26995" d="M453.6,420.523l-1.959-1a.537.537,0,0,1,.484-.946l1.959,1a.537.537,0,0,1-.484.946Z" transform="translate(-397.67 -354.21)" fill="#e35156"/>
      <path id="Path_26996" data-name="Path 26996" d="M452.963,430.323l-5.43-2.781a.537.537,0,0,1,.484-.946l5.43,2.781a.537.537,0,0,1-.484.946Z" transform="translate(-394.518 -360.364)" fill="#e35156"/>
      <path id="Path_26997" data-name="Path 26997" d="M478.924,387.413l-8.586-4.4a.537.537,0,0,1,.484-.946l8.586,4.4a.537.537,0,0,1-.484.946Z" transform="translate(-412.011 -326.209)" fill="#e35156"/>
      <path id="Path_26998" data-name="Path 26998" d="M468.189,392.041l-1.959-1a.537.537,0,0,1,.484-.946l1.959,1a.537.537,0,0,1-.484.946Z" transform="translate(-408.859 -332.362)" fill="#e35156"/>
      <path id="Path_26999" data-name="Path 26999" d="M467.55,401.841l-5.43-2.781a.537.537,0,0,1,.484-.946l5.43,2.781a.537.537,0,0,1-.484.946Z" transform="translate(-405.708 -338.516)" fill="#e35156"/>
      <path id="Path_27000" data-name="Path 27000" d="M421.87,370.607l-3.223-12,8.613-1.631-.463,8.236,11.317,11.653a3.09,3.09,0,1,1-2.938,3.483Z" transform="translate(-372.533 -306.982)" fill="#a0616a"/>
      <path id="Path_27001" data-name="Path 27001" d="M411.192,301.361c-2.924,2.308.829,15.219.829,15.219.581-.638,1.256,8.786,1.966,8.465,2.018-.912,5.718-4.057,7.144-3.8.816.147-.039-6.233-.039-6.233s-.157-3.658-.453-8.36a7.9,7.9,0,0,0-3.968-6.505A5.626,5.626,0,0,0,411.192,301.361Z" transform="translate(-365.96 -263.19)" fill="#3f3d56"/>
      <path id="Path_27002" data-name="Path 27002" d="M595.768,476.041l-7.786-3.676a1.218,1.218,0,0,1-.668-.825,1.193,1.193,0,0,1,.222-1.017,23.426,23.426,0,0,0,4.522-9.842,1.21,1.21,0,0,1,1.186-.976c3.971.014,6.938,1.463,8.82,4.309a1.225,1.225,0,0,1,.16,1.019,38.321,38.321,0,0,1-4.916,10.576A1.216,1.216,0,0,1,595.768,476.041Z" transform="translate(-501.888 -385.782)" fill="#e6e6e6"/>
      <path id="Path_27003" data-name="Path 27003" d="M612.781,494.572l-5.953-2.811a.618.618,0,0,1,.527-1.117l5.953,2.811a.618.618,0,0,1-.527,1.117Z" transform="translate(-516.611 -409.47)" fill="#fff"/>
      <path id="Path_27004" data-name="Path 27004" d="M616.751,486.164l-5.953-2.811a.618.618,0,0,1,.527-1.117l5.953,2.811a.618.618,0,1,1-.527,1.117Z" transform="translate(-519.656 -403.021)" fill="#fff"/>
    </g>
  </g>
</svg>
