<svg xmlns="http://www.w3.org/2000/svg" xmlns:xlink="http://www.w3.org/1999/xlink" viewBox="0 0 360 340"><defs><style>.cls-1{isolation:isolate;}.cls-2{fill:#2d3554;}.cls-3{fill:url(#linear-gradient);}.cls-4{fill:#87bad6;}.cls-5{fill:#a9c2ff;}.cls-5,.cls-7{mix-blend-mode:soft-light;}.cls-6{fill:#93cce5;}.cls-7{fill:#b6cfff;}.cls-8{fill:#4393c4;}.cls-9{fill:#fcfcfc;}.cls-10{opacity:0.3;}.cls-11{fill:#91b3fa;}.cls-12{fill:#bdd0fb;}.cls-13{fill:#f69457;}.cls-14{fill:#255466;}.cls-15{fill:#398299;}.cls-16,.cls-18{fill:#fff;}.cls-17{fill:#2f6c7f;}.cls-18{opacity:0.58;}.cls-19{fill:#4b99cc;opacity:0.57;}.cls-20{fill:#ffae73;}</style><linearGradient id="linear-gradient" x1="308.68" y1="300.94" x2="145.09" y2="157.8" gradientUnits="userSpaceOnUse"><stop offset="0" stop-color="#dae3fe"/><stop offset="1" stop-color="#e9effd"/></linearGradient></defs><title>steps_01</title><g class="cls-1"><g id="Layer_1" data-name="Layer 1"><rect class="cls-2" x="28.18" y="295.99" width="306.82" height="2.72"/><path class="cls-3" d="M280.88,226.6c-21.15,49.78-77.46,77.67-126.3,70.15-8-1.23-29.73-4.87-49-22.07C68.42,241.56,60.48,176,90.44,129.78c21.8-33.63,60.88-52.7,98-51.75,8,.21,38.66,1.48,65.6,23.69A101.29,101.29,0,0,1,274.6,125C293.07,153.92,294.65,194.16,280.88,226.6Z"/><path class="cls-4" d="M80.05,84.39c-.2-.87,1-1.45,1.77-.84,7.59,6.15,25.82,24.58,21.28,56.79-5.7,40.41,4,55.16,16.18,64.15,0,0-16.67-4.23-27.15-19.19C66.39,148.56,83.68,99.81,80.05,84.39Z"/><path class="cls-5" d="M85.83,97c1,4.5,1.79,9,2.45,13.54s1.2,9.08,1.56,13.63.57,9.11.59,13.67-.15,9.11-.36,13.69A124.67,124.67,0,0,0,90,165.35,40.75,40.75,0,0,0,93.25,179c.48,1.09,1,2.18,1.57,3.23s1.16,2.1,1.79,3.13a49.09,49.09,0,0,0,4.31,5.92,54.09,54.09,0,0,0,11.33,9.93,1.15,1.15,0,0,0,1.44-.17.8.8,0,0,0-.17-1.22h0c-1-.72-2-1.44-3-2.19-.49-.38-1-.77-1.43-1.15s-.94-.78-1.38-1.19a49,49,0,0,1-12.37-17,40.56,40.56,0,0,1-2.15-6.44,44.25,44.25,0,0,1-1-6.67,121.64,121.64,0,0,1-.06-13.64c.13-4.57.23-9.17.11-13.76,0-2.3-.16-4.59-.3-6.89-.07-1.14-.16-2.29-.25-3.43s-.22-2.29-.34-3.44q-.74-6.85-2-13.65c-.85-4.53-1.83-9-3-13.51a.29.29,0,0,0-.33-.18A.24.24,0,0,0,85.83,97Z"/><path class="cls-6" d="M99.71,181.11a1.9,1.9,0,0,1-3.12-.53,58.26,58.26,0,0,1,1.46-50c9.75-19.53,13.18-31,14.38-36.38a1.19,1.19,0,0,1,2.26-.22C119.84,105.64,133.44,145.33,99.71,181.11Z"/><path class="cls-7" d="M98,180.39h-.1a.52.52,0,0,1-.52-.54c0-.33.65-33.48,13-61.24a.53.53,0,0,1,1,.43c-12.24,27.56-12.89,60.5-12.89,60.83A.53.53,0,0,1,98,180.39Z"/><path class="cls-8" d="M231.65,129.91c-3-5.18-5.22-12.16-.58-17.37,8.37-9.43,25.13-11.52,29.32,3.14a17.52,17.52,0,0,1-1.52,14.22,4.78,4.78,0,0,0,4.14,7.21h26.7v35.63a4,4,0,0,1-6.26,3.22c-17.91-12.43-27.25,2.23-27.27,8.83,0,7.33,3.16,24.61,14.68,24.09A28.49,28.49,0,0,0,283.73,205a4,4,0,0,1,6,3.4v33.21H262.07a4.12,4.12,0,0,0-3.45,6.38c2.05,3.16,3.77,7.75,3.86,14.28.24,16.61-25.13,13.61-31.41,8.37-4.49-3.74-4.68-15.73-1.18-23.14a4.19,4.19,0,0,0-3.86-5.89h-26.9V205.29a3.41,3.41,0,0,0-5.16-2.92c-4.63,2.75-11.78,6.2-18.93,6.51-12,.52-13.61-13.09-14.14-23.56-.46-9.25,17.17-24.22,31.09-15.1,2.28,1.5,7,3.69,7,1V137.11H227.5A4.8,4.8,0,0,0,231.65,129.91Z"/><path class="cls-9" d="M246.45,275.33a34.36,34.36,0,0,1-4.35-.28c-4.8-.6-9.15-2.13-11.37-4-4.85-4-4.78-16.45-1.32-23.78a3.48,3.48,0,0,0-.23-3.39,3.72,3.72,0,0,0-3.15-1.74h-26.9a.52.52,0,0,1-.53-.53V205.29a2.88,2.88,0,0,0-4.36-2.47c-4.76,2.83-12,6.27-19.18,6.59-5.55.24-9.56-2.45-11.9-8-2-4.7-2.52-10.77-2.79-16.09-.25-5.05,4.44-11.51,11.16-15.36,7.14-4.09,14.71-4.16,20.75-.2,2.1,1.38,4.94,2.55,5.86,2.06.08,0,.28-.16.28-.66V137.11a.53.53,0,0,1,.53-.53H227.5a4.22,4.22,0,0,0,3.68-2.11,4.29,4.29,0,0,0,0-4.3c-4.22-7.4-4.4-13.63-.52-18,5.12-5.76,13.26-8.74,19.78-7.25,5.12,1.16,8.83,4.93,10.45,10.6a18,18,0,0,1-1.58,14.64,4.26,4.26,0,0,0,3.69,6.41h26.7a.53.53,0,0,1,.53.53v35.63a4.42,4.42,0,0,1-2.39,4,4.55,4.55,0,0,1-4.7-.3c-8.89-6.17-15.1-5.2-18.74-3.31-5.24,2.73-7.69,8.6-7.7,11.7,0,5.68,1.8,15.89,6.9,20.77a9.47,9.47,0,0,0,7.23,2.79,27.62,27.62,0,0,0,12.62-3.79,4.49,4.49,0,0,1,4.55,0,4.43,4.43,0,0,1,2.23,3.87v33.21a.53.53,0,0,1-.53.53H262.07a3.59,3.59,0,0,0-3,5.56A27.1,27.1,0,0,1,263,262.28a11.36,11.36,0,0,1-6.76,11.12A23.08,23.08,0,0,1,246.45,275.33ZM199.66,241.1H226a4.78,4.78,0,0,1,4,2.24,4.57,4.57,0,0,1,.3,4.4c-3.56,7.56-3,19.13,1,22.52s16.75,5.83,24.39,2.18c4.16-2,6.23-5.39,6.16-10.15a26.08,26.08,0,0,0-3.77-14,4.66,4.66,0,0,1,3.89-7.2h27.11V208.42a3.38,3.38,0,0,0-1.7-2.95,3.44,3.44,0,0,0-3.49,0,28.77,28.77,0,0,1-13.11,3.93,10.54,10.54,0,0,1-8-3.08c-5.33-5.11-7.24-15.68-7.22-21.54,0-3.46,2.58-9.67,8.27-12.64,3.9-2,10.51-3.1,19.83,3.38a3.44,3.44,0,0,0,3.6.23,3.35,3.35,0,0,0,1.83-3v-35.1H263a5.31,5.31,0,0,1-4.64-2.69,5.25,5.25,0,0,1,0-5.32,17,17,0,0,0,1.47-13.81c-1.94-6.77-6.32-9.1-9.66-9.86-6.17-1.41-13.88,1.44-18.76,6.93-2.47,2.78-4.37,8,.65,16.76h0a5.33,5.33,0,0,1-4.61,8h-28v33.54a1.65,1.65,0,0,1-.84,1.59c-2,1.09-6.74-2-6.94-2.1-5.7-3.74-12.86-3.66-19.64.23-6.29,3.6-10.86,9.79-10.63,14.39.26,5.23.79,11.18,2.71,15.73,2.18,5.15,5.73,7.55,10.88,7.33,7-.3,14-3.67,18.68-6.44a3.94,3.94,0,0,1,6,3.38Z"/><path class="cls-8" d="M97.28,203.52a26.67,26.67,0,0,1-12,4.63c-10.35,1-14.49-10.35-15-20.18s8.28-19.14,16-18.11c3.66.49,7.66,2.81,10.86,5.13a3.92,3.92,0,0,0,6.22-3.16V136.52h35.72a4.07,4.07,0,0,0,3.7-5.78c-2.8-6.09-5.95-15.35-1.56-19.35,6.83-6.21,25.26-6.21,28.36,3.11,1.74,5.21-.62,11.49-3,16a4.07,4.07,0,0,0,3.59,6H200.7v32.7a4.35,4.35,0,0,1-6.79,3.64c-13.19-9.36-27.59.51-28.91,11.51-1.56,12.93,6.72,23.8,15.52,22.76,4.47-.52,9.6-3.05,13.57-5.41a4.37,4.37,0,0,1,6.61,3.74v36.12H165.58a5.47,5.47,0,0,1-5-7.81c2.07-4.32,10.58-9.61,10.07-13.7-1-8.28-19.47-10.33-29.4-8.79-7.57,1.18-3.81,13,.5,22.53a5.48,5.48,0,0,1-5,7.77H103.43V206.74A3.93,3.93,0,0,0,97.28,203.52Z"/><path class="cls-9" d="M200.7,242.09H165.58a6,6,0,0,1-5.11-2.82,5.92,5.92,0,0,1-.33-5.75c.89-1.86,2.9-3.87,4.85-5.81,2.67-2.68,5.44-5.45,5.17-7.6a6.39,6.39,0,0,0-2.77-4.26c-3.73-2.82-14.85-5.8-26-4.06a4,4,0,0,0-3.17,2.08c-1.73,3.2-.32,10,4.07,19.7a6,6,0,0,1-5.46,8.52H103.43a.53.53,0,0,1-.53-.53V206.74a3.31,3.31,0,0,0-1.78-3,3.39,3.39,0,0,0-3.55.19,26.79,26.79,0,0,1-12.2,4.72A11.14,11.14,0,0,1,76.69,206c-1.88-1.61-6.3-6.59-6.91-18A19.31,19.31,0,0,1,76,173.26c3.2-2.95,7-4.38,10.38-3.92,3.16.42,6.89,2.17,11.11,5.22a3.38,3.38,0,0,0,5.37-2.73V136.52a.52.52,0,0,1,.53-.53h35.72a3.55,3.55,0,0,0,3.22-5c-3.14-6.84-6-15.85-1.43-20,4.32-3.93,13.29-5.56,20.41-3.7,4.56,1.19,7.69,3.69,8.81,7,1.81,5.44-.68,11.93-3.08,16.42a3.54,3.54,0,0,0,3.13,5.22H200.7a.53.53,0,0,1,.53.53v32.7a4.94,4.94,0,0,1-2.69,4.4,4.71,4.71,0,0,1-4.94-.33c-5.59-4-11.87-4.73-17.69-2.15-5.64,2.5-9.72,7.72-10.39,13.29-.84,7.06,1.33,14.14,5.67,18.49,2.75,2.76,6,4.07,9.27,3.69,4.5-.53,9.75-3.2,13.36-5.34a4.9,4.9,0,0,1,7.41,4.19v36.12A.53.53,0,0,1,200.7,242.09Zm-52.61-31.82c6.94,0,15.33,1.26,19.94,4.73a7.38,7.38,0,0,1,3.18,5c.34,2.67-2.62,5.62-5.47,8.48-1.88,1.88-3.83,3.83-4.65,5.52a4.87,4.87,0,0,0,.28,4.72,5,5,0,0,0,4.21,2.33h34.59V205.44a3.84,3.84,0,0,0-5.81-3.28c-3.7,2.19-9.09,4.93-13.78,5.48-3.55.42-7.16-1-10.14-4-4.57-4.58-6.85-12-6-19.37.71-5.93,5-11.48,11-14.13,6.18-2.73,12.83-1.93,18.73,2.26a3.62,3.62,0,0,0,3.84.24,3.86,3.86,0,0,0,2.12-3.45V137h-30a4.61,4.61,0,0,1-4.06-6.78c2.3-4.31,4.69-10.51,3-15.58-1-3-3.86-5.25-8.07-6.35-6.81-1.77-15.34-.25-19.43,3.47-1.83,1.66-4,6.3,1.68,18.73a4.61,4.61,0,0,1-4.18,6.53H104v34.78a4.44,4.44,0,0,1-7,3.59c-4-2.9-7.68-4.64-10.62-5s-6.56.92-9.52,3.65a18.24,18.24,0,0,0-5.92,13.9c.4,7.67,2.85,14.13,6.54,17.3a10.09,10.09,0,0,0,7.88,2.38A25.71,25.71,0,0,0,97,203.08h0a4.5,4.5,0,0,1,4.64-.24,4.33,4.33,0,0,1,2.33,3.9V241h32.86a4.9,4.9,0,0,0,4.15-2.26,5,5,0,0,0,.35-4.76c-4.61-10.15-6-17.09-4.05-20.64a5.1,5.1,0,0,1,4-2.63A45.89,45.89,0,0,1,148.09,210.27Z"/><g class="cls-10"><path class="cls-11" d="M236.91,114.18a.67.67,0,0,1-.76-.46c-.21-.72-.4-1.45-.55-2.19a.66.66,0,0,1,.51-.78h0a.66.66,0,0,1,.77.51c.14.7.32,1.4.52,2.08a.68.68,0,0,1-.45.83Zm-1-5.67h-.08a.68.68,0,0,1-.71-.62c0-.75-.06-1.51,0-2.26a.67.67,0,0,1,.67-.65.66.66,0,0,1,.65.68c0,.71,0,1.43.06,2.14A.67.67,0,0,1,235.89,108.51Zm.25-5.76a.81.81,0,0,1-.22,0,.67.67,0,0,1-.55-.76c.12-.74.27-1.48.45-2.21a.66.66,0,0,1,.8-.48.66.66,0,0,1,.48.8c-.17.69-.31,1.4-.42,2.1A.68.68,0,0,1,236.14,102.75Zm1.54-5.56a.64.64,0,0,1-.36,0,.66.66,0,0,1-.37-.86c.28-.69.59-1.39.93-2.05a.67.67,0,0,1,.89-.3.66.66,0,0,1,.29.89c-.32.64-.62,1.3-.88,2A.68.68,0,0,1,237.68,97.19Zm2.74-5.08a.65.65,0,0,1-.66-1c.42-.62.88-1.22,1.36-1.8a.66.66,0,0,1,.93-.09.65.65,0,0,1,.09.93c-.45.55-.89,1.13-1.29,1.71A.67.67,0,0,1,240.42,92.11Zm3.8-4.34a.66.66,0,0,1-.57-1.14c.55-.5,1.13-1,1.73-1.45a.66.66,0,0,1,.8,1c-.56.44-1.11.9-1.64,1.38A.61.61,0,0,1,244.22,87.77Zm23.55-6a.88.88,0,0,1-.28,0c-.69-.17-1.4-.32-2.1-.43a.66.66,0,1,1,.2-1.3c.74.11,1.49.26,2.22.44a.67.67,0,0,1,0,1.3Zm-18.89,2.61a.66.66,0,0,1-.45-1.23c.65-.37,1.32-.71,2-1a.67.67,0,0,1,.56,1.21,20.23,20.23,0,0,0-1.91,1A.68.68,0,0,1,248.88,84.38ZM262.05,81h-.13c-.71,0-1.43,0-2.15,0a.65.65,0,0,1-.7-.61.66.66,0,0,1,.61-.71c.75,0,1.51-.07,2.26-.06a.67.67,0,0,1,.11,1.32Zm-7.87,1.09a.67.67,0,0,1-.76-.47.66.66,0,0,1,.44-.82c.72-.21,1.46-.4,2.19-.55h0a.67.67,0,0,1,.77.52.66.66,0,0,1-.52.78c-.7.15-1.39.32-2.08.53Z"/><path class="cls-11" d="M272.16,83.28a.59.59,0,0,1-.39,0l-.95-.4a.66.66,0,1,1,.49-1.23c.34.14.68.28,1,.43a.66.66,0,0,1,.34.87A.67.67,0,0,1,272.16,83.28Z"/></g><g class="cls-10"><path class="cls-11" d="M285.87,98.09a.66.66,0,0,1-.74-.43c-.12-.32-.24-.64-.37-1a.66.66,0,0,1,1.23-.5c.13.34.26.68.38,1a.65.65,0,0,1-.4.84A.29.29,0,0,1,285.87,98.09Z"/><path class="cls-11" d="M266.37,132.13l-.91.16a.66.66,0,1,1-.19-1.31c.7-.11,1.39-.24,2.07-.41a.66.66,0,0,1,.79.49.65.65,0,0,1-.49.8C267.23,132,266.8,132.05,266.37,132.13Zm-4.39.44-.11,0c-.74,0-1.49,0-2.22-.06a.66.66,0,1,1,.09-1.32c.7,0,1.41.06,2.11,0a.67.67,0,0,1,.67.65A.65.65,0,0,1,262,132.57Zm9-1.75a.66.66,0,0,1-.74-.41.67.67,0,0,1,.38-.86c.65-.25,1.3-.53,1.93-.84a.66.66,0,0,1,.58,1.19c-.66.32-1.35.62-2,.89ZM256.33,132a.77.77,0,0,1-.26,0c-.72-.15-1.44-.33-2.15-.54a.66.66,0,0,1,.38-1.27c.67.2,1.36.38,2.05.52a.66.66,0,0,1,.51.78A.67.67,0,0,1,256.33,132ZM276,128.19a.65.65,0,0,1-.67-.28.67.67,0,0,1,.18-.92c.58-.39,1.15-.81,1.7-1.25a.66.66,0,0,1,.83,1c-.58.47-1.18.91-1.79,1.32A.6.6,0,0,1,276,128.19Zm4.33-3.66a.7.7,0,0,1-.58-.17.67.67,0,0,1,0-.94c.48-.51.95-1,1.38-1.59a.67.67,0,0,1,.93-.11.68.68,0,0,1,.11.94c-.46.57-.95,1.13-1.46,1.67A.68.68,0,0,1,280.32,124.53Zm3.42-4.53a.64.64,0,0,1-.46-.08.66.66,0,0,1-.22-.91c.35-.6.69-1.22,1-1.85a.66.66,0,1,1,1.19.58c-.32.66-.68,1.32-1.06,2A.63.63,0,0,1,283.74,120Zm2.36-5.16a.75.75,0,0,1-.33,0,.68.68,0,0,1-.42-.84c.22-.66.41-1.35.58-2a.66.66,0,1,1,1.28.31c-.17.72-.37,1.43-.6,2.14A.67.67,0,0,1,286.1,114.84Zm1.17-5.56a.4.4,0,0,1-.19,0,.65.65,0,0,1-.59-.72c.06-.7.1-1.4.11-2.11a.66.66,0,1,1,1.32,0q0,1.11-.12,2.22A.64.64,0,0,1,287.27,109.28Zm-.09-5.67h0a.65.65,0,0,1-.73-.58q-.11-.77-.24-1.53c0-.18-.07-.37-.11-.55a.66.66,0,1,1,1.29-.27l.12.58c.1.53.18,1.07.25,1.61A.66.66,0,0,1,287.18,103.61Z"/><path class="cls-11" d="M250.92,130.26a.59.59,0,0,1-.39,0c-.33-.15-.66-.3-1-.47a.65.65,0,0,1-.29-.89.67.67,0,0,1,.89-.29q.47.24.93.45a.67.67,0,0,1,.33.88A.68.68,0,0,1,250.92,130.26Z"/></g><path class="cls-4" d="M250.39,122.55a.3.3,0,0,0,.36,0l3.23-1.93a16.35,16.35,0,0,0,5.07,1.62l1.52,3.44a.31.31,0,0,0,.31.19l4.5-.38a.31.31,0,0,0,.27-.23l.92-3.65a16.27,16.27,0,0,0,4.72-2.44l3.52,1.36a.29.29,0,0,0,.34-.09l2.92-3.45a.32.32,0,0,0,0-.36l-1.93-3.23a16.62,16.62,0,0,0,1.62-5.07l3.44-1.52a.3.3,0,0,0,.18-.3L281,102a.32.32,0,0,0-.24-.27l-3.64-.92a16.4,16.4,0,0,0-2.44-4.72l1.36-3.52a.31.31,0,0,0-.09-.34l-3.45-2.92a.32.32,0,0,0-.36,0l-3.24,1.93a16.47,16.47,0,0,0-5.06-1.62l-1.52-3.44a.31.31,0,0,0-.31-.18l-4.5.38a.3.3,0,0,0-.27.23l-.93,3.65a16.37,16.37,0,0,0-4.72,2.43l-3.51-1.36a.33.33,0,0,0-.35.09l-2.91,3.45a.3.3,0,0,0,0,.36l1.93,3.24a16.21,16.21,0,0,0-1.62,5.06l-3.44,1.52a.32.32,0,0,0-.19.31l.38,4.5a.31.31,0,0,0,.24.27l3.64.93a16.4,16.4,0,0,0,2.44,4.72l-1.36,3.51a.31.31,0,0,0,.09.35Z"/><path class="cls-12" d="M262.3,110.41a4.55,4.55,0,1,1,.64-.17A5,5,0,0,1,262.3,110.41Zm-1.47-7.89a4.6,4.6,0,0,0-.5.13,3.49,3.49,0,1,0,.5-.13Z"/><path class="cls-12" d="M263.59,116.84a10.58,10.58,0,0,1-1.13.15h0l-.37,0a11.73,11.73,0,0,1-1.78,0h-.1l-.13,0a.27.27,0,0,1-.23-.21v-.09a.28.28,0,0,1,.3-.23,10,10,0,0,0,2.26,0A10.64,10.64,0,0,0,272.12,105c0-.37-.08-.73-.15-1.09a10.66,10.66,0,0,0-11.34-8.62,10.65,10.65,0,0,0-9.71,11.49,9.5,9.5,0,0,0,.15,1.07,10.6,10.6,0,0,0,1.81,4.24.27.27,0,0,1,.05.11.25.25,0,0,1-.11.26.26.26,0,0,1-.37-.06,11.16,11.16,0,0,1-1.9-4.45,10.58,10.58,0,0,1-.15-1.13,11.16,11.16,0,1,1,13.19,10Z"/><g class="cls-10"><path class="cls-11" d="M217.91,135.48a.4.4,0,0,1-.44-.22c-.16-.31-.31-.63-.45-.94a.42.42,0,0,1,.21-.54.41.41,0,0,1,.54.21c.13.3.28.61.43.9a.41.41,0,0,1-.18.55Z"/><path class="cls-11" d="M216.75,132.56a.41.41,0,0,1-.47-.29,17.15,17.15,0,0,1-.42-1.75c0-.12-.05-.25-.07-.37a.43.43,0,0,1,.34-.47.41.41,0,0,1,.47.34l.06.35c.11.56.24,1.12.4,1.67a.41.41,0,0,1-.27.51Zm-.7-4.19H216a.41.41,0,0,1-.43-.4,17.47,17.47,0,0,1,0-2.17.42.42,0,0,1,.44-.38.41.41,0,0,1,.38.44,16,16,0,0,0,0,2.08A.41.41,0,0,1,216.05,128.37Zm.35-4.23a.43.43,0,0,1-.16,0,.43.43,0,0,1-.32-.49,19.21,19.21,0,0,1,.58-2.1.41.41,0,0,1,.52-.25.4.4,0,0,1,.25.52,19,19,0,0,0-.55,2A.39.39,0,0,1,216.4,124.14Zm1.37-4a.37.37,0,0,1-.25,0,.42.42,0,0,1-.19-.55,18.4,18.4,0,0,1,1.07-1.89.41.41,0,0,1,.57-.12.4.4,0,0,1,.12.56,16.12,16.12,0,0,0-1,1.81A.4.4,0,0,1,217.77,120.12Zm2.32-3.56a.39.39,0,0,1-.34-.09.4.4,0,0,1-.05-.57,16,16,0,0,1,1.5-1.58.42.42,0,0,1,.58,0,.41.41,0,0,1,0,.58,20.27,20.27,0,0,0-1.43,1.5A.33.33,0,0,1,220.09,116.56Zm3.1-2.89a.39.39,0,0,1-.4-.16.4.4,0,0,1,.09-.57,16.73,16.73,0,0,1,1.84-1.16.41.41,0,1,1,.39.71,19.87,19.87,0,0,0-1.75,1.11A.36.36,0,0,1,223.19,113.67Zm3.72-2a.39.39,0,0,1-.45-.25.4.4,0,0,1,.23-.53,18.39,18.39,0,0,1,2.06-.68.42.42,0,0,1,.5.3.4.4,0,0,1-.29.49,18.92,18.92,0,0,0-2,.65Zm6.23-1.22h-.07c-.6,0-1.2,0-1.8.11l-.27,0a.41.41,0,0,1-.46-.35.4.4,0,0,1,.35-.46l.29,0c.62-.07,1.26-.11,1.88-.12a.41.41,0,0,1,.41.41A.39.39,0,0,1,233.14,110.41Z"/></g><g class="cls-10"><path class="cls-11" d="M236.69,144.57a.41.41,0,0,1-.15-.8,19,19,0,0,0,2-.52.41.41,0,1,1,.26.77,16.62,16.62,0,0,1-2.07.55Zm-2.07.29h0a17,17,0,0,1-2.14,0,.41.41,0,1,1,0-.81,19.79,19.79,0,0,0,2,0,.4.4,0,0,1,.44.37A.41.41,0,0,1,234.62,144.86Zm6-1.6a.41.41,0,0,1-.25-.77,18.33,18.33,0,0,0,1.79-1,.4.4,0,0,1,.56.12.42.42,0,0,1-.13.57,18.86,18.86,0,0,1-1.87,1Zm-10.21,1.42h-.14a18.12,18.12,0,0,1-2.09-.48.41.41,0,1,1,.23-.78,16.85,16.85,0,0,0,2,.45.42.42,0,0,1,.34.47A.42.42,0,0,1,230.45,144.68ZM244.19,141a.41.41,0,0,1-.4-.14.42.42,0,0,1,.06-.58,15,15,0,0,0,1.5-1.38.41.41,0,0,1,.59.57,18,18,0,0,1-1.57,1.45A.48.48,0,0,1,244.19,141Zm2.89-3a.4.4,0,0,1-.4-.64,19.33,19.33,0,0,0,1.12-1.71.42.42,0,0,1,.56-.15.41.41,0,0,1,.15.56,17.84,17.84,0,0,1-1.18,1.79A.44.44,0,0,1,247.08,138Zm2.09-3.61a.5.5,0,0,1-.24,0,.42.42,0,0,1-.22-.54,16.26,16.26,0,0,0,.69-1.92.41.41,0,1,1,.78.23,16,16,0,0,1-.71,2A.44.44,0,0,1,249.17,134.41Z"/><path class="cls-11" d="M226.43,143.49a.4.4,0,0,1-.24,0l-.95-.44a.41.41,0,1,1,.37-.73c.29.15.6.29.9.42a.41.41,0,0,1,.22.54A.4.4,0,0,1,226.43,143.49Z"/></g><path class="cls-4" d="M225.79,138.24a.23.23,0,0,0,.24,0l2.16-1.29a11.2,11.2,0,0,0,3.39,1.08l1,2.3a.2.2,0,0,0,.21.12l3-.25a.22.22,0,0,0,.18-.15l.62-2.45a11,11,0,0,0,3.16-1.63l2.35.91a.2.2,0,0,0,.23-.06l1.95-2.31a.19.19,0,0,0,0-.24L243,132.13a10.67,10.67,0,0,0,1.08-3.39l2.31-1a.21.21,0,0,0,.12-.21l-.25-3a.22.22,0,0,0-.16-.19l-2.44-.61a10.77,10.77,0,0,0-1.63-3.16l.91-2.35a.23.23,0,0,0-.06-.24L240.61,116a.23.23,0,0,0-.24,0l-2.17,1.29a11.05,11.05,0,0,0-3.38-1.08l-1-2.3a.21.21,0,0,0-.21-.12l-3,.25a.2.2,0,0,0-.18.15l-.62,2.44a11,11,0,0,0-3.16,1.64l-2.35-.91a.2.2,0,0,0-.23.06l-1.95,2.3a.2.2,0,0,0,0,.24l1.29,2.17a10.67,10.67,0,0,0-1.08,3.39l-2.31,1a.21.21,0,0,0-.12.21l.25,3a.22.22,0,0,0,.16.19l2.44.61a10.77,10.77,0,0,0,1.63,3.16l-.91,2.35a.22.22,0,0,0,.06.24Z"/><path class="cls-12" d="M233.76,130.17a3.12,3.12,0,0,1-3.49-2,3.09,3.09,0,0,1,5.85-2,3.08,3.08,0,0,1-1.92,3.93A3.17,3.17,0,0,1,233.76,130.17Zm-1-5.28-.32.08a2.28,2.28,0,0,0,1.48,4.31h0a2.29,2.29,0,0,0,1.41-2.9A2.28,2.28,0,0,0,232.78,124.89Z"/><path class="cls-12" d="M234.66,134.64c-.26.05-.52.08-.78.11a8.24,8.24,0,0,1-1.57,0h-.07a.41.41,0,0,1-.35-.33.56.56,0,0,1,0-.13.41.41,0,0,1,.46-.35,7.11,7.11,0,0,0,1.46,0h.08a6.81,6.81,0,0,0,4.56-2.36h0l0,0a6.82,6.82,0,0,0,1.61-5c0-.24-.06-.48-.1-.71a6.88,6.88,0,0,0-12-3.16,6.8,6.8,0,0,0-1.6,5q0,.34.09.69a7,7,0,0,0,1.18,2.75,1.11,1.11,0,0,1,.07.16.42.42,0,0,1-.17.41.41.41,0,0,1-.57-.09,7.6,7.6,0,0,1-1.31-3.08,6.49,6.49,0,0,1-.11-.77,7.7,7.7,0,0,1,15.24-2.08,6.83,6.83,0,0,1,.11.79A7.71,7.71,0,0,1,234.66,134.64Z"/><path class="cls-13" d="M166.89,189.32s-1.23-3.24-2.67-2.95a10,10,0,0,0-3,1.4l-2.3,3.13s6.48,2.55,8.76,1.09a50,50,0,0,0,15-.23,32.56,32.56,0,0,1-2.35-7.1A34.91,34.91,0,0,1,166.89,189.32Z"/><path class="cls-4" d="M202,165.82s-9.48,11.94-21.67,18.84a32.56,32.56,0,0,0,2.35,7.1,39.07,39.07,0,0,0,19.85-9Z"/><path class="cls-4" d="M213.79,218.74c-1.85-8.8-3.71-13.9-9.92-30.6-2-5.25-3.72-10.56-2.87-16.1l1-6.22a46.57,46.57,0,0,1,25.43-.17s18.25,7.92,5.86,47.07C227.67,219,221.13,220.75,213.79,218.74Z"/><path class="cls-13" d="M204,157.88l3.13,7.51a1.47,1.47,0,0,0,1.13.9c1.8.31,6.17.8,9-1.09a.73.73,0,0,0,.2-1l-5.78-8.3Z"/><path class="cls-13" d="M207.26,146.38c-.13.12-5.55,10.75-5.55,10.75l6.14,3,6.62-9.32S209.46,144.31,207.26,146.38Z"/><path class="cls-14" d="M211.69,151.9l-3.06,5.1a1.2,1.2,0,0,1-.17.21c-.37.34-1.61,1.33-2.58,0a8.72,8.72,0,0,0-2.41-2.61,1,1,0,0,0-1.32.43,36.7,36.7,0,0,0-2.1,5,1,1,0,0,0,.57,1.2,27.29,27.29,0,0,0,5.88,1.71,1,1,0,0,0,.92-.39c.94-1.29,3.58-4.88,4.48-5.77s2.39-.52,3.08-.32a1,1,0,0,0,.79-.11,2.15,2.15,0,0,0,.81-3.28,1,1,0,0,1,.3-1.33,2.16,2.16,0,0,0,.83-3.07A3.06,3.06,0,0,0,214.4,147a1,1,0,0,1-1.06-.59.66.66,0,0,0-.51-.4,1,1,0,0,1-.77-1.11,2.51,2.51,0,0,0-1.4-2.88c-2.64-1.45-5,.92-5.55,2.92s2.37,3.42,4.23,3.65c1.37.18,2.12,1.67,2.42,2.45A1,1,0,0,1,211.69,151.9Z"/><path class="cls-13" d="M210.61,158.25s1.32-3.1,2.83-3,2.69,1.63.82,3.32C211.94,160.7,210.61,158.25,210.61,158.25Z"/><path class="cls-15" d="M258.21,283.19c-1.47,1.29-6.22,1.47-6.22,1.47-17.15-41.15-24.29-52.48-24.29-52.48,2.47,15.53.53,55.4.53,55.4-2.83,1.24-6.48,0-6.48,0-.23-25.43-3.81-52.75-8.42-70.23,11.58-.26,17.88-2.78,19.89-4.38C242.88,228.54,258.21,283.19,258.21,283.19Z"/><path class="cls-14" d="M210.41,228.85l2.13,13.26a4.36,4.36,0,0,0,4.85,3.63l31.91-3.89a3.16,3.16,0,0,0,2.78-3.06,59.29,59.29,0,0,0-1.51-15.08Z"/><path class="cls-16" d="M218.28,244.86a.09.09,0,0,1-.09-.08.09.09,0,0,1,.08-.1l.72-.09a.09.09,0,0,1,.11.08.09.09,0,0,1-.08.1l-.73.09Zm-1.69,0h0a5.73,5.73,0,0,1-.7-.23.09.09,0,0,1,.07-.17,3.86,3.86,0,0,0,.68.22.09.09,0,0,1,.06.11A.09.09,0,0,1,216.59,244.82Zm4.1-.25a.11.11,0,0,1-.09-.08.1.1,0,0,1,.08-.11l.72-.08a.08.08,0,0,1,.1.08.09.09,0,0,1-.08.1l-.72.09Zm2.41-.3a.08.08,0,0,1-.09-.08.09.09,0,0,1,.08-.1l.72-.09a.09.09,0,0,1,.1.08.08.08,0,0,1-.08.1l-.72.09Zm2.41-.29a.09.09,0,0,1-.09-.08.08.08,0,0,1,.08-.1l.72-.09a.09.09,0,0,1,0,.18l-.72.09Zm2.41-.29a.1.1,0,0,1,0-.19l.73-.08a.09.09,0,0,1,.1.07.11.11,0,0,1-.08.11l-.72.08Zm-13.41-.05-.06,0A4.41,4.41,0,0,1,214,243a.09.09,0,0,1,0-.12.08.08,0,0,1,.12,0,5,5,0,0,0,.45.56.1.1,0,0,1,0,.13Zm15.81-.25a.09.09,0,0,1-.09-.08.1.1,0,0,1,.08-.1l.72-.09a.1.1,0,0,1,.11.08.09.09,0,0,1-.08.1l-.73.09Zm2.41-.29a.11.11,0,0,1-.09-.08.08.08,0,0,1,.08-.1l.72-.09a.08.08,0,0,1,.1.08.09.09,0,0,1-.08.1l-.72.09Zm2.41-.3a.09.09,0,0,1-.09-.08.09.09,0,0,1,.08-.1l.72-.09a.09.09,0,0,1,.1.08.08.08,0,0,1-.08.1l-.72.09Zm2.41-.29a.08.08,0,0,1-.09-.08.08.08,0,0,1,.08-.1l.72-.09a.09.09,0,0,1,.1.08.08.08,0,0,1-.08.1l-.72.09Zm2.41-.29a.09.09,0,0,1-.09-.08.08.08,0,0,1,.08-.1l.72-.09a.09.09,0,0,1,0,.18l-.72.09Zm2.4-.3a.09.09,0,0,1-.09-.08.1.1,0,0,1,.08-.1l.73-.09a.1.1,0,0,1,.1.08.09.09,0,0,1-.08.1l-.72.09Zm2.41-.29a.11.11,0,0,1-.09-.08.09.09,0,0,1,.08-.1l.72-.09a.09.09,0,0,1,.11.08.1.1,0,0,1-.08.1l-.73.09Zm-31.34-.12a.09.09,0,0,1-.09-.08l-.12-.71a.1.1,0,0,1,.08-.11.09.09,0,0,1,.1.08l.12.71a.1.1,0,0,1-.08.11Zm33.75-.17a.11.11,0,0,1-.09-.08.1.1,0,0,1,.08-.11l.72-.08a.08.08,0,0,1,.1.07.1.1,0,0,1-.08.11l-.72.08Zm2.35-.53a.09.09,0,0,1-.08,0,.11.11,0,0,1,0-.13,2.62,2.62,0,0,0,.57-.42.11.11,0,0,1,.13,0,.09.09,0,0,1,0,.13,2.62,2.62,0,0,1-.6.45ZM213,239.12A.11.11,0,0,1,213,239l-.11-.72a.08.08,0,0,1,.07-.1.09.09,0,0,1,.11.07l.11.72a.08.08,0,0,1-.07.1Zm37.91-.19h0a.08.08,0,0,1-.06-.11,3.4,3.4,0,0,0,.08-.64v-.06A.09.09,0,0,1,251,238h0a.09.09,0,0,1,.09.09v.07a2.57,2.57,0,0,1-.09.67A.1.1,0,0,1,251,238.93Zm-38.29-2.21a.08.08,0,0,1-.09-.08l-.12-.72a.1.1,0,0,1,.08-.1.09.09,0,0,1,.1.08l.12.71a.11.11,0,0,1-.08.11Zm38.39-.21a.09.09,0,0,1-.09-.09c0-.23,0-.48,0-.73a.09.09,0,0,1,.09-.09c.05,0,.09,0,.09.09,0,.25,0,.49,0,.73a.09.09,0,0,1-.09.09Zm-38.78-2.19a.1.1,0,0,1-.09-.07l-.11-.72a.08.08,0,0,1,.07-.1.09.09,0,0,1,.11.07l.11.72a.08.08,0,0,1-.07.1Zm38.72-.23a.11.11,0,0,1-.09-.09l0-.73a.08.08,0,0,1,.08-.09.08.08,0,0,1,.1.08l0,.73a.08.08,0,0,1-.08.09Zm-39.1-2.16a.08.08,0,0,1-.09-.08l-.12-.72a.09.09,0,1,1,.18,0l.12.71a.11.11,0,0,1-.08.11Zm39-.27a.08.08,0,0,1-.09-.08c0-.24,0-.48-.07-.72a.09.09,0,0,1,.08-.1.08.08,0,0,1,.1.08c0,.24,0,.48.07.72a.1.1,0,0,1-.09.1Zm-39.35-2.13a.1.1,0,0,1-.09-.07l-.13-.81.38-.05a.09.09,0,0,1,.1.08.1.1,0,0,1-.08.1l-.19,0,.1.63a.08.08,0,0,1-.07.1Zm39.1-.28a.08.08,0,0,1-.09-.08c0-.24-.06-.48-.1-.72a.09.09,0,0,1,.08-.1.08.08,0,0,1,.1.07c0,.25.07.49.1.73a.09.09,0,0,1-.08.1Zm-37.25-.69a.09.09,0,0,1-.09-.08.1.1,0,0,1,.08-.1l.72-.09a.08.08,0,0,1,.1.08.08.08,0,0,1-.07.1l-.73.09Zm2.41-.3a.09.09,0,0,1-.09-.08.1.1,0,0,1,.08-.11l.72-.09a.09.09,0,0,1,.1.08.08.08,0,0,1-.08.1l-.72.1Zm2.41-.31a.11.11,0,0,1-.1-.08.09.09,0,0,1,.08-.1l.73-.1a.1.1,0,0,1,.1.08.09.09,0,0,1-.08.1l-.72.1Zm2.4-.31a.09.09,0,0,1-.09-.08.09.09,0,0,1,.08-.1l.72-.09a.08.08,0,0,1,.1.08.1.1,0,0,1-.07.1l-.73.09Zm2.41-.31a.08.08,0,0,1-.09-.08.09.09,0,0,1,.08-.1l.72-.09c.06,0,.09,0,.1.08a.09.09,0,0,1-.08.1l-.72.09Zm2.4-.31a.09.09,0,0,1-.09-.08.1.1,0,0,1,.08-.1l.72-.09a.1.1,0,0,1,.11.08.1.1,0,0,1-.08.1l-.72.09Zm24.86-.17a.09.09,0,0,1-.09-.08c0-.23-.09-.47-.13-.71a.09.09,0,0,1,.07-.11.1.1,0,0,1,.11.08c0,.23.09.47.13.71a.1.1,0,0,1-.07.11Zm-22.45-.13a.11.11,0,0,1-.09-.08.1.1,0,0,1,.08-.11l.72-.09a.08.08,0,0,1,.1.08.08.08,0,0,1-.08.1l-.72.1Zm2.41-.31a.09.09,0,0,1-.09-.08.08.08,0,0,1,.08-.1l.72-.1a.1.1,0,0,1,.1.08.1.1,0,0,1-.08.11l-.72.09Zm2.4-.31a.09.09,0,0,1-.09-.08.1.1,0,0,1,.08-.1l.72-.09a.09.09,0,0,1,.11.08.1.1,0,0,1-.08.1l-.72.09Zm2.41-.31a.09.09,0,0,1-.09-.08.09.09,0,0,1,.08-.1l.72-.09a.08.08,0,0,1,.1.08.09.09,0,0,1-.08.1l-.72.09Zm2.41-.31a.08.08,0,0,1-.09-.08.09.09,0,0,1,.08-.1l.72-.09a.1.1,0,0,1,.1.08.09.09,0,0,1-.08.1l-.72.09Zm2.4-.3a.11.11,0,0,1-.09-.08.09.09,0,0,1,.08-.1l.72-.1a.09.09,0,0,1,.11.08.09.09,0,0,1-.08.1l-.73.1Zm2.41-.31a.1.1,0,0,1-.09-.08.08.08,0,0,1,.08-.1l.72-.1c.06,0,.1,0,.1.08a.1.1,0,0,1-.08.11l-.72.09Zm2.41-.31a.09.09,0,0,1,0-.18l.73-.09a.09.09,0,0,1,.1.08.1.1,0,0,1-.08.1l-.72.09Zm5.11-.09a.08.08,0,0,1-.09-.07l-.12-.47h-.08a.08.08,0,0,1-.1-.07.1.1,0,0,1,.08-.11l.24,0,0,.08c0,.18.09.37.13.55a.08.08,0,0,1-.06.11Zm-2.71-.22a.09.09,0,0,1-.09-.08.1.1,0,0,1,.08-.1l.72-.09a.08.08,0,0,1,.1.08.08.08,0,0,1-.07.1l-.73.09Z"/><path class="cls-17" d="M218.52,218l0-1a.81.81,0,0,1,.54-.54c1-.28,3.4-.88,4.7-.14l.33,1.17Z"/><path class="cls-17" d="M221.49,216.6a1.33,1.33,0,0,1-.68.09.64.64,0,0,1-.56-.54l-.41-3.22,1.64-.21.41,3.22A.62.62,0,0,1,221.49,216.6Z"/><path class="cls-17" d="M234.37,216l0-1a.81.81,0,0,1,.54-.54c1-.28,3.4-.88,4.7-.14l.33,1.17Z"/><path class="cls-17" d="M237.34,214.57a1.35,1.35,0,0,1-.69.09.63.63,0,0,1-.55-.54l-.45-3.55,1.64-.21.45,3.55A.62.62,0,0,1,237.34,214.57Z"/><path class="cls-14" d="M219.78,213.74l17.52-2.83a.86.86,0,0,0,.72-.8,7,7,0,0,0-.23-2.24,2.05,2.05,0,0,0-2.19-1.47c-3.29.35-11.65,1.42-16,3.83a1.63,1.63,0,0,0-.83,1.24,4,4,0,0,0,.19,1.79A.76.76,0,0,0,219.78,213.74Z"/><path class="cls-18" d="M219.35,213a.24.24,0,0,1-.24-.19,4.32,4.32,0,0,1-.07-1.4,1.67,1.67,0,0,1,1-1.27,19.78,19.78,0,0,1,4.32-1.39.25.25,0,0,1,.28.2.24.24,0,0,1-.21.28,19.51,19.51,0,0,0-4.2,1.36,1.18,1.18,0,0,0-.68.89,4,4,0,0,0,.06,1.22.25.25,0,0,1-.18.3Z"/><path class="cls-14" d="M210.3,218.63c5.68-.8,30.24-4.2,37.49-4.26a1.48,1.48,0,0,1,1.4,1,48.84,48.84,0,0,1,2.54,10.59,1.29,1.29,0,0,1-.89,1.35l-15.91,5.17-5.79.74L211.32,232a1.38,1.38,0,0,1-1.26-1.12A57.55,57.55,0,0,1,209,220.06,1.51,1.51,0,0,1,210.3,218.63Z"/><path class="cls-16" d="M229.1,231.86h0l-.73-.05a.1.1,0,0,1-.08-.1.09.09,0,0,1,.1-.08l.72.05a.09.09,0,0,1,.09.09A.11.11,0,0,1,229.1,231.86Zm.66-.09a.09.09,0,0,1-.09-.08.09.09,0,0,1,.08-.1l.72-.09a.08.08,0,0,1,.1.08.09.09,0,0,1-.08.1l-.72.09Zm-3.08-.08h0l-.73-.05a.09.09,0,1,1,0-.18l.72,0a.09.09,0,0,1,.09.1A.11.11,0,0,1,226.68,231.69Zm-2.42-.17h0l-.73-.05a.08.08,0,0,1-.08-.09.1.1,0,0,1,.1-.09l.72.05a.1.1,0,0,1,.09.1A.09.09,0,0,1,224.26,231.52Zm7.91-.06a.09.09,0,0,1,0-.18l.73-.09a.09.09,0,0,1,.1.08.1.1,0,0,1-.08.1l-.72.09Zm-10.33-.1h0l-.73-.05a.1.1,0,0,1-.08-.1c0-.05,0-.08.1-.09l.72,0a.1.1,0,0,1,0,.19Zm-2.42-.17h0l-.73-.05a.1.1,0,0,1-.08-.1.09.09,0,0,1,.1-.08l.72,0a.09.09,0,0,1,.09.09A.11.11,0,0,1,219.42,231.19Zm15.15,0a.11.11,0,0,1-.09-.08.11.11,0,0,1,.08-.11h.05l.63-.21a.09.09,0,0,1,.11.06.09.09,0,0,1-.06.12l-.71.22ZM217,231h0l-.73-.05a.08.08,0,0,1-.08-.1.09.09,0,0,1,.1-.08l.72.05a.1.1,0,0,1,.09.1A.11.11,0,0,1,217,231Zm-2.43-.17h0l-.73,0a.08.08,0,0,1-.08-.09.1.1,0,0,1,.09-.09l.73,0a.11.11,0,0,1,.09.1A.1.1,0,0,1,214.57,230.85Zm-2.42-.16h0l-.78-.06v-.07a.09.09,0,0,1,.07-.11.08.08,0,0,1,.07,0l.66,0a.09.09,0,0,1,.09.09A.11.11,0,0,1,212.15,230.69Zm24.73-.28a.08.08,0,0,1-.08-.06.08.08,0,0,1,0-.11l.7-.23a.1.1,0,0,1,.11.06.09.09,0,0,1-.06.12l-.69.22Zm2.31-.75a.1.1,0,0,1-.09-.06.09.09,0,0,1,.06-.11l.69-.23a.09.09,0,1,1,.06.18l-.69.22Zm-28-.72a.09.09,0,0,1-.09-.08c0-.23-.07-.47-.11-.72a.09.09,0,0,1,.08-.1.1.1,0,0,1,.1.08c0,.25.07.49.11.72a.08.08,0,0,1-.07.1Zm30.34,0a.1.1,0,0,1-.09-.07.08.08,0,0,1,.06-.11l.69-.23a.09.09,0,0,1,.11.06.1.1,0,0,1-.05.12l-.7.22Zm2.3-.75a.09.09,0,0,1-.08-.07.08.08,0,0,1,.06-.11l.69-.23a.09.09,0,0,1,.11.06.09.09,0,0,1-.06.12l-.69.22Zm2.31-.75a.11.11,0,0,1-.09-.07.09.09,0,0,1,.06-.11l.69-.23a.1.1,0,0,1,.12.06.09.09,0,0,1-.06.12l-.69.22Zm2.31-.75a.1.1,0,0,1-.09-.07.09.09,0,0,1,.06-.11l.69-.23a.09.09,0,0,1,.06.18l-.69.22Zm-37.61-.13a.09.09,0,0,1-.09-.08l-.09-.72a.11.11,0,0,1,.08-.11.09.09,0,0,1,.1.08l.09.73a.09.09,0,0,1-.08.1Zm39.45-.92a.1.1,0,0,1-.09-.08c0-.24-.06-.48-.1-.72a.11.11,0,0,1,.08-.11.08.08,0,0,1,.1.08c0,.24.07.48.1.72a.1.1,0,0,1-.08.11Zm-39.72-1.49a.11.11,0,0,1-.09-.09l-.06-.72a.1.1,0,0,1,.09-.1.08.08,0,0,1,.09.08l.06.73a.09.09,0,0,1-.08.1Zm39.34-.91a.1.1,0,0,1-.09-.07l-.15-.71a.1.1,0,0,1,.07-.11.09.09,0,0,1,.11.07l.15.71a.1.1,0,0,1-.07.11ZM210.4,221.7a.09.09,0,0,1-.09-.09c0-.19,0-.39,0-.58v-.15a.09.09,0,0,1,.09-.09h0a.09.09,0,0,1,.09.09V221c0,.19,0,.38,0,.58a.09.09,0,0,1-.09.09Zm38.95-.85a.1.1,0,0,1-.09-.07l-.18-.7a.09.09,0,0,1,.07-.11.1.1,0,0,1,.11.06l.18.71a.09.09,0,0,1-.07.11Zm-38-.84a.08.08,0,0,1-.09-.07.09.09,0,0,1,.07-.11l.72-.1a.1.1,0,0,1,.11.08.09.09,0,0,1-.08.1l-.72.1Zm2.4-.33a.09.09,0,0,1-.09-.08.09.09,0,0,1,.08-.1l.72-.1a.09.09,0,1,1,0,.18l-.72.1Zm2.4-.33a.09.09,0,0,1-.09-.08.1.1,0,0,1,.08-.1l.72-.1a.1.1,0,0,1,.11.08.09.09,0,0,1-.08.1l-.72.1Zm2.41-.32a.1.1,0,0,1-.09-.08.1.1,0,0,1,.08-.11l.72-.09a.09.09,0,1,1,0,.18l-.72.1Zm2.41-.32a.09.09,0,0,1-.09-.08.08.08,0,0,1,.07-.1l.73-.1a.09.09,0,0,1,.1.08.1.1,0,0,1-.08.1l-.72.1Zm27.79-.2a.09.09,0,0,1-.09-.06c-.07-.25-.14-.48-.21-.7a.09.09,0,0,1,.17-.05l.21.69a.09.09,0,0,1-.06.12Zm-25.39-.12a.09.09,0,0,1-.09-.08.1.1,0,0,1,.08-.1l.72-.09a.08.08,0,0,1,.1.08.08.08,0,0,1-.07.1l-.73.09Zm2.41-.31a.08.08,0,0,1-.09-.08.09.09,0,0,1,.08-.1l.72-.09a.08.08,0,0,1,.1.08.09.09,0,0,1-.08.1l-.72.09Zm2.41-.3a.09.09,0,0,1,0-.18l.73-.09a.09.09,0,0,1,.1.08.1.1,0,0,1-.08.1l-.72.09Zm2.4-.29a.11.11,0,0,1-.09-.08.11.11,0,0,1,.08-.11l.73-.08a.09.09,0,0,1,.1.08.1.1,0,0,1-.08.1l-.73.08Zm2.41-.29a.11.11,0,0,1-.09-.08.09.09,0,0,1,.08-.1l.73-.09a.1.1,0,0,1,.1.08.09.09,0,0,1-.08.1l-.73.09Zm2.41-.28a.09.09,0,0,1-.09-.08.1.1,0,0,1,.08-.1l.73-.08a.1.1,0,0,1,.1.08.09.09,0,0,1-.08.1l-.73.08Zm2.42-.26a.11.11,0,0,1-.1-.08.1.1,0,0,1,.09-.1l.72-.08a.1.1,0,0,1,.1.08.09.09,0,0,1-.08.1l-.73.08Zm2.41-.25a.08.08,0,0,1-.09-.08.09.09,0,0,1,.08-.1l.73-.07a.08.08,0,0,1,.09.08.08.08,0,0,1-.08.1l-.72.07Zm7.77-.21a.1.1,0,0,1-.09-.06l-.09-.26h-.33a.09.09,0,0,1-.09-.09c0-.05,0-.09.09-.1h.35a.15.15,0,0,1,.14.09l.1.29a.09.09,0,0,1,0,.12Zm-5.36,0a.11.11,0,0,1-.09-.08.1.1,0,0,1,.09-.1l.72-.06a.08.08,0,0,1,.1.08.1.1,0,0,1-.08.1l-.73.06ZM245,216a.09.09,0,0,1-.09-.08.1.1,0,0,1,.09-.1l.73,0a.08.08,0,0,1,.09.08.1.1,0,0,1-.08.1l-.73,0Z"/><path class="cls-17" d="M234.7,235l-5.08.65a1.33,1.33,0,0,1-1.45-1l-1.21-4.8a1.32,1.32,0,0,1,1.12-1.63l6.09-.78a1.32,1.32,0,0,1,1.49,1.25l.19,4.94A1.32,1.32,0,0,1,234.7,235Z"/><path class="cls-4" d="M234,234.13l-3.86.5a1,1,0,0,1-1.11-.75l-.92-3.66a1,1,0,0,1,.85-1.24l4.64-.6a1,1,0,0,1,1.13,1l.15,3.76A1,1,0,0,1,234,234.13Z"/><path class="cls-13" d="M230.94,195.21A39.64,39.64,0,0,1,232,206.76a1.38,1.38,0,0,1-1.27,1.23l-2.71.18a5.12,5.12,0,0,1-2.89-1.12.45.45,0,0,0-.66.57,5.69,5.69,0,0,0,1.64,1.78c.39.29,1.66.8,1.57,1.37a1.06,1.06,0,0,1-.25.48,5.85,5.85,0,0,1-2.83,1.63.76.76,0,0,0-.37.18c0,.69,2.07,1.44,2.61,1.62a6.06,6.06,0,0,0,2.53.3,7.46,7.46,0,0,0,5.2-3.44,37.17,37.17,0,0,0,5.19-14.71C236.92,194,232.65,194.72,230.94,195.21Z"/><path class="cls-4" d="M239.75,197.27c2.25-17-10.88-30.14-10.88-30.14l-7.81,9.11a50.12,50.12,0,0,1,10,19.49C232.8,195.23,236.92,194.45,239.75,197.27Z"/><path class="cls-19" d="M230.91,195.65a.48.48,0,0,1-.47-.37A49.79,49.79,0,0,0,220.49,176a.48.48,0,1,1,.76-.6,50.77,50.77,0,0,1,10.13,19.68.48.48,0,0,1-.36.58Z"/><path class="cls-20" d="M114.1,284.85l1.05,5a.82.82,0,0,0,.7.68,6.88,6.88,0,0,0,1.62,0,1,1,0,0,0,.82-1.21l-.73-4.48Z"/><path class="cls-20" d="M131.63,284.4c.05.24.72,3.83,1,5.22a.71.71,0,0,0,.63.59,7.25,7.25,0,0,0,2.19-.18.93.93,0,0,0,.65-1l-.35-5.67Z"/><path class="cls-15" d="M129.21,218.2s4.4,30.21,7.57,66.15a1.37,1.37,0,0,1-1.13,1.39,16.5,16.5,0,0,1-3.58.42,1.33,1.33,0,0,1-1.26-1.11c-1.08-6.34-8.79-40.35-10.82-47.84,0,0-2.32,31.8-1.58,48.3a.77.77,0,0,1-.69.81,12.75,12.75,0,0,1-2.87,0,1.06,1.06,0,0,1-.93-.89c-.77-5.37-5.2-37.3-5-60.3,0-1.29,1.52-11.95,1.52-11.95Z"/><path class="cls-4" d="M109.77,219.94a1.25,1.25,0,0,1-.82-1.05c-.58-5.67-3.41-40.84,14.46-55.3,0,0,1-2.69,9.45,3.91s3.91,13.5,1.89,23c-2.44,11.53-6.72,21-4.82,28.06a1,1,0,0,1-.61,1.17A27.83,27.83,0,0,1,109.77,219.94Z"/><path class="cls-20" d="M130.38,153.05c0,.5-7.14,10.64-7.14,10.64s1.28,2.52,7.39,4.57l5.28-10.86Z"/><path class="cls-20" d="M136,147.24s2.54,5.83,2.71,8.9.83,5-2.71,5.66a7.53,7.53,0,0,1-8.14-4.2s-2.53-4.7-2-6.62S136,147.24,136,147.24Z"/><path class="cls-14" d="M129.07,155.41l.2-.09a.49.49,0,0,0,.24-.67c-.5-1-1.47-3.17-.22-3.69,1.62-.66,8-2,9.43-4.25a4.23,4.23,0,0,0-1.62-5.81.24.24,0,0,0-.32.1l-.15.28a.25.25,0,0,1-.45,0h0a.24.24,0,0,0-.43-.07c-.42.68-1.57,1.79-4.65,2.36-4.36.8-7.25,2.57-7.32,5.59a.24.24,0,0,1-.37.2c-.33-.2-.84-.29-1.53.29-1.2,1-.71,3.62,1.92,5.77a.25.25,0,0,1,0,.39c-.48.31-1.19,1,.65,2a6.19,6.19,0,0,0,3.88.84.23.23,0,0,0,.19-.28l-.58-2.66a.23.23,0,0,1,.23-.29Z"/><path class="cls-20" d="M129.18,156s-1-3.73-2.64-2.68.87,4.17,2.21,4.31Z"/><path class="cls-4" d="M135.57,170.55l.49,13.22a37.14,37.14,0,0,0,4,1.13,40.35,40.35,0,0,1,4-8A19.51,19.51,0,0,1,135.57,170.55Z"/><path class="cls-20" d="M161.78,170.33c-7.21,7.77-13,8.23-17.76,6.56a40.35,40.35,0,0,0-4,8c19.23,4.24,23.76-13.44,23.76-13.44Z"/><path class="cls-20" d="M163.24,169.5a2.63,2.63,0,0,1,2.36-.61c1.54.28,2.9.82,3.86,0s1.29.28,1.29.28l-2.86,2.18Z"/><path class="cls-20" d="M161.52,171s.57-2.38,2.28-2.05,5.61,2.44,6.61,2.05,2.28-1.33,2.94-1l-1.16,1.44s3-1.71,3.49-.66l-5,2.79S163.48,172.87,161.52,171Z"/><path class="cls-20" d="M127.57,187.85s13.54,11.34,28.16,6.39a3.47,3.47,0,0,1,2.75.21l4.2,2.22a3.75,3.75,0,0,0,5-1.4,7.91,7.91,0,0,0,1.18-3.16l-8.22-3.33.6-1s-4-.34-5.06,2.54c0,0-7.65,3.18-20.55-11C135.6,179.31,129.75,184.28,127.57,187.85Z"/><path class="cls-19" d="M126.84,187.73a.17.17,0,0,1-.12,0,25.9,25.9,0,0,1-8.41-10.13.23.23,0,0,1,.42-.18,25.69,25.69,0,0,0,8.24,9.93.23.23,0,0,1,.07.32A.26.26,0,0,1,126.84,187.73Z"/><path class="cls-19" d="M135.34,179.11a.22.22,0,0,1-.2-.1s-1.76-2.74-5.08-8.68a6.7,6.7,0,0,0-4-3.44,7.76,7.76,0,0,0-5.31.71.23.23,0,0,1-.31-.09.22.22,0,0,1,.09-.31,8,8,0,0,1,5.65-.75,7.08,7.08,0,0,1,4.27,3.65c3.31,5.93,5,8.63,5.06,8.66a.23.23,0,0,1-.07.32Z"/><path class="cls-14" d="M125.08,296.68a1.14,1.14,0,0,0,0-.26c-1.26-5-7.5-8.08-7.5-8.08l-2.47.19c-1.42,4.39-1.24,7.09-1,8.29l0,.09A57.69,57.69,0,0,0,125.08,296.68Z"/><path class="cls-14" d="M147,296.44l-.06-.11c-1.33-1.85-4.7-5.53-11.36-7.13l-3.19-.1a15.2,15.2,0,0,0-1.45,7,14.76,14.76,0,0,0,4.87.7A109.84,109.84,0,0,0,147,296.44Z"/><path class="cls-13" d="M227.56,286.28l-.24,4.75a1.1,1.1,0,0,1-.93,1,4.32,4.32,0,0,1-1.93-.16,1.3,1.3,0,0,1-.86-1l-.83-4.63Z"/><path class="cls-13" d="M256.81,281.83l1.17,4.68a1.26,1.26,0,0,1-.66,1.44,4.5,4.5,0,0,1-2.43.59,1.05,1.05,0,0,1-.87-.71l-1.73-4.92Z"/><path class="cls-14" d="M260.92,297.16a2.32,2.32,0,0,0,2.07-1.54v0a1.65,1.65,0,0,1-1.11,1.87,7.18,7.18,0,0,1-3.06.48,3,3,0,0,1-2.3-1.06h0C257.47,297.39,258.81,297.45,260.92,297.16Z"/><path class="cls-14" d="M255,286.25h2.12c3.22-.07,5.25,6.74,5.91,9.37a2.32,2.32,0,0,1-2.07,1.54c-2.11.29-3.45.23-4.4-.24a20.15,20.15,0,0,1-3-7.61A2.67,2.67,0,0,1,255,286.25Z"/><path class="cls-14" d="M224.56,297.19c-4-.17-9-.58-12-.84,2.87-3.51,12-5.88,12-5.88h2.57a10.81,10.81,0,0,1,2,6.27A11.35,11.35,0,0,1,224.56,297.19Z"/><path class="cls-14" d="M212.6,296.35c2.92.26,8,.67,12,.84a11.35,11.35,0,0,0,4.57-.45,2.17,2.17,0,0,1,0,.26.82.82,0,0,1-.78.78,139.71,139.71,0,0,1-15.66,0,.59.59,0,0,1-.48-.88A6.47,6.47,0,0,1,212.6,296.35Z"/><path class="cls-14" d="M114.11,296.91a1.06,1.06,0,0,0,.78.8c2.9.61,7.51.12,9.45-.14a.89.89,0,0,0,.74-.89A57.69,57.69,0,0,1,114.11,296.91Z"/><path class="cls-14" d="M135.79,296.85a14.76,14.76,0,0,1-4.87-.7c0,.28,0,.55,0,.84a.55.55,0,0,0,.52.55l15-.1a.68.68,0,0,0,.55-1A109.84,109.84,0,0,1,135.79,296.85Z"/></g></g></svg>