<svg id="Layer_1" data-name="Layer 1" xmlns="http://www.w3.org/2000/svg" viewBox="0 0 360 340"><defs><style>.cls-1{fill:#e8f2fa;}.cls-2{fill:#87bad6;}.cls-3{fill:#93cce5;}.cls-4{opacity:0.5;}.cls-5{fill:#cedfff;}.cls-6{fill:#4393c4;}.cls-7{fill:#f1f9ff;}.cls-8{fill:#a9c2ff;}.cls-9{fill:#a8ccff;}.cls-10{fill:#ffae73;}.cls-11,.cls-23{fill:#4b99cc;}.cls-11{opacity:0.9;}.cls-12{fill:#255466;}.cls-13{fill:#398299;}.cls-14{fill:#2f6c7f;}.cls-15{fill:#ffa05e;}.cls-16{fill:#accefc;}.cls-17{fill:#25468f;}.cls-18{fill:#1e3865;}.cls-19{fill:#899bfa;}.cls-20{fill:#667ee8;}.cls-21{fill:#9cafff;}.cls-22{fill:#122d4e;}.cls-23{opacity:0.31;}.cls-24{fill:#f8caa4;}.cls-25{fill:#fff;}.cls-26{fill:#f48f4e;}.cls-27{fill:#f9924f;}</style></defs><title>steps_01</title><path class="cls-1" d="M41.29,302.15s-50.9-43.46-12.2-84.66c41.19-43.85,4.7-100.15,60.62-122.87,60.46-24.56,76,18.7,101.32,12C241.52,93.43,305.55,100,294.9,164.3c-13.38,80.78,41.5,70.48,8.91,138.12Z"/><path class="cls-2" d="M191,171.25s8.45-35.81,36.95-39.74a7,7,0,0,1,7.4,5.42c1.84,6.11-9.18,6.15-16,8.61S196.68,158.41,191,171.25Z"/><path class="cls-2" d="M190.39,164.55s-3-29.66,17.83-40.19a5.71,5.71,0,0,1,7.1,2.21c3,4.19-5.42,7.13-10,10.81S191.33,153.22,190.39,164.55Z"/><path class="cls-3" d="M126.3,192.23s12.22-6.84,6.52-16.13c0,0-4.57-5.71-9.45-7.18,0,0,2.6,13.86,0,14.18s-1.8-15.64-1.8-15.64-12.87-6.2-17.93-5.71c0,0,8,13.53,5.38,13.21s-11.57-14-11.57-14-13.2-2.45-15.32,5.38,1.3,11.73,3.26,12.22,14.5.33,14.18,2-8.8,4.23-13.53,2.77c0,0,5.22,12.87,12.06,12.22s9-4.89,13.2-5.21,7.34.81,5.22,1.95-9.29.38-12.71,3.29-6.2,4.7.16,6,17.77.49,20-4.4Z"/><path class="cls-3" d="M88.16,168.76s34.23,11.08,38.14,23.47a26.06,26.06,0,0,0,3.26,11.9v2.44s-3.59-8.31-5.54-9.45C124,197.12,131.68,186.36,88.16,168.76Z"/><path class="cls-3" d="M129.56,204.13a22.57,22.57,0,0,1,2.27,17.77l-1.36-.36s1.32-10.75-1.44-16.15S129.56,204.13,129.56,204.13Z"/><g class="cls-4"><path class="cls-5" d="M133.09,247.5s8-24-10.9-29.47c0,0-13-2.07-21.33,1.91,0,0,20.31,15.33,17.22,18.94s-21.4-18.72-21.4-18.72S72,227.53,65.81,234.32c0,0,27.1,8.37,23.22,11.1s-32.48-4.66-32.48-4.66S36,253.53,42.63,266.55s16,14.09,19.2,12.37,19.76-17.19,21.31-14.62-6.61,16.35-14.7,20.14c0,0,22.61,10.85,31,1.67s6-17.42,11.29-23,10.78-7.82,9.34-3.72-12,11.79-13,19.83-2.55,13.8,7.52,7.82S138.88,266.1,136,256.8Z"/><path class="cls-5" d="M53.65,262.49s59.17-26.78,79.44-15c0,0,6.89,8.45,2.89,9.3C136,256.8,133.14,233.13,53.65,262.49Z"/></g><path class="cls-3" d="M220.59,250.06S223,235.72,234,238c0,0,7.18,2.44,10.34,6.69,0,0-14.45,2.35-13.84,5s15.9-3.78,15.9-3.78,10.6,10.37,11.9,15.48c0,0-16-3-14.78-.58s17.77,6.33,17.77,6.33,7.05,12,.17,16.86-11.92,2.87-13.09,1.14-5.44-14-6.92-13.15-1,10.09,2.08,14.18c0,0-14.41-.54-16.19-7.45s1.6-10.47.42-14.73-3.38-6.86-3.75-4.39,2.92,9.19,1.29,13.56-2.4,7.71-5.92,2S212.66,258,216.63,254Z"/><path class="cls-3" d="M257,279s-22.92-29.48-36.39-28.92a27,27,0,0,1-12.76,1l-2.38.86s9.38.56,11.18,2.07C216.63,254,224.42,242.74,257,279Z"/><path class="cls-3" d="M207.83,251.09a23.4,23.4,0,0,0-18.14,4.07l.83,1.19s10-5.08,16.27-4.3S207.83,251.09,207.83,251.09Z"/><path class="cls-2" d="M216.29,190.64s-14.95-8.37-8-19.72c0,0,5.58-7,11.55-8.77,0,0-3.18,16.93,0,17.33s2.2-19.12,2.2-19.12,15.73-7.57,21.91-7c0,0-9.76,16.54-6.57,16.14s14.14-17.13,14.14-17.13,16.14-3,18.73,6.57-1.59,14.35-4,14.94-17.73.4-17.33,2.4,10.76,5.18,16.54,3.38c0,0-6.38,15.74-14.75,14.94s-10.95-6-16.13-6.37-9,1-6.38,2.39,11.36.46,15.54,4,7.57,5.75-.2,7.35-21.71.59-24.5-5.38Z"/><path class="cls-2" d="M262.91,162s-41.84,13.55-46.62,28.69a31.73,31.73,0,0,1-4,14.54v3s4.39-10.16,6.78-11.55C219.08,196.62,209.71,183.47,262.91,162Z"/><path class="cls-2" d="M212.3,205.18s-6.45,9.8-2.77,21.73l1.66-.45s-1.61-13.13,1.76-19.74S212.3,205.18,212.3,205.18Z"/><rect class="cls-6" x="116.06" y="149.21" width="111.69" height="152.74"/><rect class="cls-7" x="120.82" y="153.33" width="102.17" height="144.41"/><path class="cls-6" d="M150.72,149.21v5.2a5.2,5.2,0,0,0,5.2,5.2h27.92a5.2,5.2,0,0,0,5.2-5.2v-5.2Z"/><rect class="cls-8" x="132.68" y="277.29" width="12.64" height="1.28"/><rect class="cls-8" x="148.25" y="277.29" width="12.64" height="1.28"/><rect class="cls-8" x="132.68" y="280.13" width="17.53" height="1.28"/><path class="cls-9" d="M212.77,207H194.29V188.51h18.48Zm-17.61-.87H211.9V189.38H195.16Z"/><path class="cls-6" d="M204,203.27a1.31,1.31,0,0,1-1-.47l-5.7-6.9a1.3,1.3,0,1,1,2-1.66l4.52,5.47L212,186a1.31,1.31,0,0,1,2.25,1.34l-9.13,15.32a1.31,1.31,0,0,1-1,.63Z"/><rect class="cls-8" x="138.98" y="191.24" width="41.05" height="1.8"/><rect class="cls-8" x="138.98" y="199.29" width="37.83" height="1.8"/><rect class="cls-8" x="168.84" y="195.26" width="11.19" height="1.8"/><rect class="cls-8" x="138.98" y="195.26" width="26.76" height="1.8"/><path class="cls-8" d="M129.79,192.85l-1.84.51-.38-1.46,2.74-.87h1.26V201.3h-1.78Z"/><path class="cls-8" d="M132.74,200.65a.65.65,0,1,1,.65.65A.66.66,0,0,1,132.74,200.65Z"/><path class="cls-9" d="M212.91,234.59H194.43V216.11h18.48Zm-17.61-.87H212V217H195.3Z"/><path class="cls-6" d="M204.13,230.88a1.29,1.29,0,0,1-1-.48l-5.7-6.89a1.31,1.31,0,0,1,2-1.67l4.52,5.47,8.18-13.73a1.31,1.31,0,1,1,2.24,1.34l-9.13,15.32a1.27,1.27,0,0,1-1,.63Z"/><path class="cls-8" d="M127.49,227.5l3.49-3c1.39-1.18,1.9-1.83,1.9-2.74a1.52,1.52,0,0,0-1.64-1.58c-.92,0-1.56.51-2.34,1.52l-1.26-1a4.15,4.15,0,0,1,3.73-2.13,3,3,0,0,1,3.35,3.05c0,1.6-.86,2.45-2.64,3.93L130,227.34h4.82v1.57h-7.33Z"/><path class="cls-8" d="M136,228.26a.65.65,0,1,1,.65.65A.65.65,0,0,1,136,228.26Z"/><rect class="cls-8" x="139.32" y="218.84" width="43.14" height="1.8"/><rect class="cls-8" x="139.32" y="226.89" width="39.76" height="1.8"/><rect class="cls-8" x="170.7" y="222.87" width="11.76" height="1.8"/><rect class="cls-8" x="139.32" y="222.87" width="28.12" height="1.8"/><path class="cls-9" d="M212.91,262.4H194.43V243.92h18.48Zm-17.61-.87H212V244.79H195.3Z"/><path class="cls-6" d="M204.13,258.69a1.32,1.32,0,0,1-1-.48l-5.7-6.9a1.29,1.29,0,0,1,.18-1.83,1.31,1.31,0,0,1,1.84.17l4.52,5.47,8.18-13.73a1.31,1.31,0,1,1,2.24,1.34l-9.13,15.32a1.3,1.3,0,0,1-1,.63Z"/><rect class="cls-8" x="139.32" y="246.65" width="43.14" height="1.8"/><rect class="cls-8" x="139.32" y="254.7" width="39.76" height="1.8"/><rect class="cls-8" x="170.7" y="250.68" width="11.76" height="1.8"/><rect class="cls-8" x="139.32" y="250.68" width="28.12" height="1.8"/><path class="cls-8" d="M127.37,254.88l1.21-1.14a3.23,3.23,0,0,0,2.61,1.31,1.55,1.55,0,0,0,1.71-1.53c0-1-.89-1.53-2.28-1.53h-.8l-.29-1.09,2.68-2.85h-4.29v-1.52h6.56v1.31l-2.77,2.83c1.58.23,2.92,1,2.92,2.82a3.17,3.17,0,0,1-3.47,3.13A4.68,4.68,0,0,1,127.37,254.88Z"/><path class="cls-8" d="M135.13,256a.63.63,0,1,1,.63.63A.63.63,0,0,1,135.13,256Z"/><path class="cls-8" d="M179.42,281.38a7.87,7.87,0,0,1-7.68-6.26.54.54,0,0,1,1.06-.21A6.77,6.77,0,0,0,186,275a.53.53,0,0,1,.63-.41.53.53,0,0,1,.42.63A7.88,7.88,0,0,1,179.42,281.38Z"/><path class="cls-8" d="M172.26,272.68h-.11a.53.53,0,0,1-.42-.63,7.83,7.83,0,0,1,15.29-.41.53.53,0,0,1-.39.65.54.54,0,0,1-.65-.39,6.77,6.77,0,0,0-13.2.36A.53.53,0,0,1,172.26,272.68Z"/><path class="cls-8" d="M179.42,284.68a11.14,11.14,0,1,1,11.14-11.14A11.16,11.16,0,0,1,179.42,284.68Zm0-20.75a9.62,9.62,0,1,0,9.62,9.61A9.62,9.62,0,0,0,179.42,263.93Z"/><rect class="cls-8" x="177.22" y="272.15" width="4.41" height="0.71"/><rect class="cls-8" x="177.22" y="275.04" width="4.41" height="0.71"/><rect class="cls-8" x="176.18" y="273.54" width="6.5" height="0.71"/><path class="cls-10" d="M107.14,225.63s.35-.78.57-1.15,1.19-1.45,1.35-1.21.82,1.9.47,2.36,0,1.27-1.7,1.75Z"/><path class="cls-11" d="M88,220.7s8.84,7.38,12.29,6.7a67.42,67.42,0,0,0,6.83-2l.83,2.11s-3.71,5-7.58,5.07A22.07,22.07,0,0,1,89.8,230Z"/><path class="cls-12" d="M72.44,298.56s.26,4.14,1.06,4.2h4.06l5,0a1.64,1.64,0,0,0-1.51-1.48C79.63,301,77.15,300,76.26,298S72.44,298.56,72.44,298.56Z"/><path class="cls-13" d="M72.15,298.84a10.36,10.36,0,0,0,2.73.52,9.84,9.84,0,0,0,2.55-.37A70.18,70.18,0,0,1,79.31,290c.84-3.23,2-7.38,3.72-12.54,4.69-14.25,6.11-22.59,6.24-23.38a.32.32,0,0,0,0-.07h0l-14.4-6.33s1.78,19.65-.5,27.19a33.09,33.09,0,0,0-.82,3.61C72.12,286.72,72.15,298.84,72.15,298.84Z"/><path class="cls-14" d="M79.31,290c.84-3.23,2-7.38,3.72-12.54,4.69-14.25,6.11-22.59,6.24-23.38v-.07l-14.4-6.33s1.78,19.65-.5,27.19C74.06,276,79.31,290,79.31,290Z"/><path class="cls-12" d="M83.69,298.56s.26,4.14,1.06,4.2h4.06l5,0a1.64,1.64,0,0,0-1.51-1.48C90.88,301,88.4,300,87.51,298S83.69,298.56,83.69,298.56Z"/><path class="cls-13" d="M91.86,248.19a206,206,0,0,1-2,28.36c-2.2,15.63-1.46,22.27-1.46,22.27a15,15,0,0,1-2.12.54,9.74,9.74,0,0,1-3.15-.37S80,283.36,80.86,275.53s-4.32-26.85-4.32-26.85Z"/><path class="cls-10" d="M81.64,218.39l2.81,1.85,2.56-.73a6,6,0,0,0,.6-3.07,18.25,18.25,0,0,0-.1-2l-3.79-1.68-1.42-.62s.11,1.16.13,1.33A9.71,9.71,0,0,1,81.64,218.39Z"/><path class="cls-2" d="M91.92,251.73c-3.5,3.38-16.74,2.81-17.56-.92s.89-31.69,6.87-33.44c1.24-.37,7.87,1.78,7.87,1.78a41.89,41.89,0,0,1,1.72,6.18c.14.68.52,7.83.81,14.51.14,3.13.25,6.16.31,8.37A24,24,0,0,1,91.92,251.73Z"/><path class="cls-15" d="M82.71,213.48c.77,1.3,3.47,2.44,4.9,3a18.25,18.25,0,0,0-.1-2l-3.79-1.68C82.88,212.71,82.37,212.9,82.71,213.48Z"/><path class="cls-10" d="M88.94,214.17s-6.11,1.9-7.24-1.92-2.67-6.15,1.18-7.53,5.05-.15,5.73,1S90.5,213.57,88.94,214.17Z"/><path class="cls-12" d="M88.37,205.39s-.39,4.45-1.31,4.26-1.93-.61-1.79.73S84.37,214,83,214c-2.84,0-5.94-7.32-5.16-8.7C80.13,201.32,91.62,200.51,88.37,205.39Z"/><path class="cls-11" d="M87.48,217.46c-.08,0-4.55-2-5.08-1.86s-1.17,1.77-1.17,1.77l7.87,1.78A4,4,0,0,0,87.48,217.46Z"/><path class="cls-12" d="M115.31,239.12l-25.06,23.6c-.49.46-1.11.61-1.38.33l-.85-.9c-.26-.28-.08-.89.41-1.36L113.5,237.2c.49-.46,1.11-.61,1.37-.33l.85.9C116,238.05,115.8,238.66,115.31,239.12Z"/><path class="cls-6" d="M101.25,252.37l-11,10.35c-.49.46-1.11.61-1.38.33l-.85-.9c-.26-.28-.08-.89.41-1.36l11-10.35Z"/><path class="cls-12" d="M109.55,230.21a19.64,19.64,0,1,0,32.56-19.74c-.1-.1-.2-.2-.31-.29a19.64,19.64,0,0,0-32.25,20Zm5.61-18.13a18.1,18.1,0,1,1,.78,25.58A18.08,18.08,0,0,1,115.16,212.08Z"/><g class="cls-4"><path class="cls-16" d="M141.52,236.88a18.08,18.08,0,1,1-.78-25.58A18,18,0,0,1,141.52,236.88Z"/></g><path class="cls-11" d="M91.94,248.21c-13.81-9.84-12.66-23-12.66-23,5,2.85,10,9.14,12.35,14.6C91.77,243,91.88,246,91.94,248.21Z"/><path class="cls-10" d="M105.57,243.73a3.69,3.69,0,0,0,1.76-1.09s.42,0-.07.92c0,.07-.13.26-.19.4a.08.08,0,0,0,.07.12,9.28,9.28,0,0,1,2.21,0c.15,0,.19.39.19.55a1.41,1.41,0,0,1-.3.94,4.69,4.69,0,0,1-1.74.91,5.24,5.24,0,0,1-2.7-.34l-.88-.41.27-1.64.22.05C104.76,244.25,105.2,243.82,105.57,243.73Z"/><path class="cls-2" d="M83.56,219.15s-12.4,2.36,3.65,20.33c2.57,2.87,16.45,6.61,16.45,6.61s1.41-1.19.7-2.16c0,0-9.56-6.94-11.66-8-1-.5-3.67-11.08-5.21-13.62A6.94,6.94,0,0,0,83.56,219.15Z"/><path class="cls-10" d="M107.48,225.85a6.55,6.55,0,0,0,.48-1.19,6.69,6.69,0,0,1,.8-1.81c.09-.08.37,0,.4.39a2.09,2.09,0,0,1-.2.78,8.4,8.4,0,0,0-.26,1.56C108.51,226.21,107.48,225.85,107.48,225.85Z"/><path class="cls-17" d="M148.46,296.9a4.35,4.35,0,0,0,0,.63,5.11,5.11,0,0,0,.58,1.82,4.85,4.85,0,0,0,.88,1.17,5.1,5.1,0,0,0,3.62,1.5h72a5.12,5.12,0,0,0,0-10.24h-72A5.12,5.12,0,0,0,148.46,296.9Z"/><path class="cls-17" d="M154,290.86h24.69a.79.79,0,0,0,.78-.79h0a.78.78,0,0,0-.78-.78H154a.78.78,0,0,0-.78.78h0A.79.79,0,0,0,154,290.86Z"/><rect class="cls-18" x="155.32" y="290.86" width="2.68" height="0.93" transform="translate(313.31 582.64) rotate(180)"/><path class="cls-18" d="M149.08,299.35a4.85,4.85,0,0,0,.88,1.17,5.1,5.1,0,0,0,3.62,1.5h15.25v-2.67Z"/><path class="cls-6" d="M240.23,295.4v3a3.69,3.69,0,0,1-.13,1,3.62,3.62,0,0,1-3.49,2.67h-75a3.61,3.61,0,0,1-3.49-2.67,3.69,3.69,0,0,1-.13-1v-3a3.62,3.62,0,0,1,3.62-3.62h75A3.62,3.62,0,0,1,240.23,295.4Z"/><path class="cls-14" d="M240.1,299.35a3.62,3.62,0,0,1-3.49,2.67h-75a3.61,3.61,0,0,1-3.49-2.67Z"/><path class="cls-19" d="M232.78,296.92a5.73,5.73,0,0,0,1.49,4l.06.06a3.62,3.62,0,0,0,2.57,1.12c1.51,0,5.28-2.29,7.61-3.81,1.16-.76,2-1.33,2-1.33s-.81-.56-2-1.32c-2.33-1.53-6.1-3.82-7.61-3.82a3.33,3.33,0,0,0-1.26.25,4.1,4.1,0,0,0-1.74,1.37,5.57,5.57,0,0,0-1,2.5s0,0,0,0A6.19,6.19,0,0,0,232.78,296.92Z"/><path class="cls-20" d="M232.78,296.92a5.73,5.73,0,0,0,1.49,4l11.54-4-13-1A6.19,6.19,0,0,0,232.78,296.92Z"/><path class="cls-21" d="M233.9,293.4l11.52,3.14L235.64,292A4.1,4.1,0,0,0,233.9,293.4Z"/><path class="cls-22" d="M243.76,296.92a1.42,1.42,0,0,0,.75,1.33c1.16-.76,2-1.33,2-1.33s-.81-.56-2-1.32A1.41,1.41,0,0,0,243.76,296.92Z"/><path class="cls-12" d="M264.18,203.33a4.36,4.36,0,0,0-3.44-.37c-5.83-.69-7.53,6.12-7.45,8.46s.34,4.86-2.26,7.9c-7.53,8.79,8.23,9.17,8.23,9.17.14-7,8.55-4.46,8.18-3.74C278.23,227.34,268.52,205.58,264.18,203.33Z"/><path class="cls-10" d="M241.67,231.19s-1-1.56-1.85-1.59-2.36-.46-2.24-.16,1.07.34,1.17.52-1.41.46-1.84.49-1.44,0-1.41.22a4.9,4.9,0,0,0,3.08,1,8.62,8.62,0,0,1,2.83.37Z"/><path class="cls-2" d="M256.51,231.7a15.71,15.71,0,0,1-1.57,2.37c-1.22,1.53-3.1,3.29-5.46,3.64a5.81,5.81,0,0,1-3.24-.53h0a14.82,14.82,0,0,1-5-4.2,2.37,2.37,0,0,1,.32-2.31s5.79,1.3,6.34,1,3.94-7.8,4.56-9a6.81,6.81,0,0,1,3.35-3.43Z"/><path class="cls-23" d="M254.94,234.07c-1.22,1.53-3.1,3.29-5.46,3.64a5.81,5.81,0,0,1-3.24-.53c.11,0,3,.37,4.11-1.67s2.43-5.39,4.16-4.29C255.25,231.7,255.22,232.88,254.94,234.07Z"/><path class="cls-12" d="M278.11,294.19s1.77,1.61,1.42,2.76-1.94,1.9-2.15,3.3-1.08,2.17-1.85,2.17h-3.7s-.57-1,.81-1.28,1.89-1.95,1.81-3.47a26.25,26.25,0,0,1,.13-3.57l2.93-.68Z"/><path class="cls-12" d="M263.16,294.87s.63,6.83-.14,7.21l-9.93,0s0-1.14,1.6-1.4,4.39-1.19,4.87-3.26S263.16,294.87,263.16,294.87Z"/><path class="cls-2" d="M270.79,227.09a39,39,0,0,1,0,4.59c-.09,1.66-1.77,3.88-2,4.43-.6,1.37-1.27,1.6-1.27,1.6L262.3,239l-1.84.44-5.77-1.72s-2.64-7.35-1.58-11.48a32,32,0,0,1,2.67-7s3.92-1.54,10.86-.39Z"/><path class="cls-24" d="M269.27,232.35a16.26,16.26,0,0,1-.49,3.76c-.6,1.37-1.27,1.6-1.27,1.6L262.3,239l-2.27-.67s7.56-1.14,6.72-7.64Z"/><path class="cls-14" d="M255.05,238.82s-2.86,8.91-3,11.94,5.47,43.08,5.7,44.48,1.85,2.16,1.85,2.16a2.48,2.48,0,0,0,1.82.14,4.45,4.45,0,0,0,2-.93s2.23-28.56.85-38.76a160.55,160.55,0,0,1-1.39-19Z"/><path class="cls-13" d="M267.18,238.56s4.36,5.86,4.77,9.81.64,17.87,1.5,21.73,4.06,11.29,4.06,23.32a2.41,2.41,0,0,1-1.36,1.06,10.42,10.42,0,0,1-1.19.33,1.88,1.88,0,0,1-2.09-1c-2.15-4.34-9-18.32-9.36-21.23-.25-2-2.42-15.65-7.14-23.62-1.14-1.92.69-9.54.69-9.54Z"/><path class="cls-18" d="M254.6,237.45a6,6,0,0,0,3.43,1c2.72.06,9.48-.69,9.48-.69a5.63,5.63,0,0,1,.29,1.72s-8.25,2.08-13,.31A3,3,0,0,1,254.6,237.45Z"/><path class="cls-25" d="M257.37,240.75a1.41,1.41,0,1,1,1.25-1.41A1.34,1.34,0,0,1,257.37,240.75Zm0-2.4a1,1,0,1,0,.84,1A.93.93,0,0,0,257.37,238.35Z"/><rect class="cls-12" x="261.52" y="229.29" width="11.21" height="15.34" rx="1.16" transform="translate(-89.94 233.67) rotate(-41.05)"/><path class="cls-10" d="M265.6,239.09c-.09,0-3.56.43-3.56,1.14a2.16,2.16,0,0,0,2,1.89,11.31,11.31,0,0,0,2.18-1.67Z"/><path class="cls-10" d="M263.82,218.45a11.57,11.57,0,0,1-.61-4.21l-.27,0-4.39.87s.1,1.39.1,2.69v0c0,1.13-.77,2.27,1.05,2.72C260.26,220.74,264.65,220.46,263.82,218.45Z"/><path class="cls-26" d="M258.55,215.16s.1,1.39.1,2.69c2.46-.07,3.76-2.32,4.29-3.56Z"/><path class="cls-10" d="M257.72,216.4s5.83.09,5.83-3.54.76-6.06-3-6.27-4.44,1.17-4.74,2.38S256.21,216.28,257.72,216.4Z"/><path class="cls-12" d="M257.94,206.5s1.59,4.26,4,4.89,3.51,0,3.51,0a6.92,6.92,0,0,1-2.27-4.09S259.14,204.48,257.94,206.5Z"/><path class="cls-12" d="M258.33,206.85a3.62,3.62,0,0,0-1.67,1.3,5.86,5.86,0,0,0-.78,3.33s-1.2-2.89.15-4.53S258.33,206.85,258.33,206.85Z"/><path class="cls-10" d="M265.6,239.09a3.88,3.88,0,0,0-1.38-.19c-.56.08-1,0-1,.14s.72.23.87.3A7.22,7.22,0,0,0,265.6,239.09Z"/><path class="cls-2" d="M266.64,218.83a7.06,7.06,0,0,1,5.72,4.14c1.58,3.85,4.59,10.32,4.59,11.41s-1.68,4.44-10.7,6.37c0,0-.94-1-.88-1.75,0,0,5.63-4.84,5.62-5.41,0-1.07-.93-2.48-5.87-7.42C263.78,224.82,266.64,218.83,266.64,218.83Z"/><path class="cls-12" d="M126.71,104.3s-3.32-.57-5.42,1-2.44,1.08-3.63,2.06,0,2.15-.62,2.8a1.34,1.34,0,0,0,.29,2.25c1,.32.31,2.1,2.42,2.33s1.16,1.21,3.15,1.36a17.63,17.63,0,0,1,4.7.66,1.66,1.66,0,0,0,2.3-.82c.3-.8,1.15.23,1.39-.86s-.63-1.53-.14-2.42S132.85,105.49,126.71,104.3Z"/><path class="cls-10" d="M132.45,168a.81.81,0,0,0-.14.88h0a5.5,5.5,0,0,0,1.73,1.88c.11.08.2.16.28.23l.06.05.05,0c.76.7.48.86,1.85,2.26,1.56,1.6,2.63,1.63,2.93,1.48s-.27-1-.86-1.94c0,0,0-.09-.08-.14s-.16-.25-.23-.38c-.69-1.15-.52-1.7-.37-3.42.12-1.4,2.12-7.83,2.12-7.83l-3-.49s-.86,5.11-1.84,5.91c-.53.42-1.12.43-1.62.74l-.11.07A3.85,3.85,0,0,0,132.45,168Z"/><path class="cls-12" d="M132.45,168a.81.81,0,0,0-.14.88h0a6.24,6.24,0,0,0,1.74,1.87l.27.24.06.05.05,0c.76.7.48.86,1.85,2.26,1.56,1.6,2.63,1.63,2.93,1.48s-.27-1-.86-1.94a6.68,6.68,0,0,1-2.77-2c-1-1.19-1.58-2.71-2.22-3.6l-.11.07A3.85,3.85,0,0,0,132.45,168Z"/><path class="cls-10" d="M156.38,165.94c.19.91,1.5.75,3,.38s1.12.06,3.19-.18,2.7-1,2.76-1.34-1-.36-2.07-.48l-.42,0c-1.24-.14-2.16-.94-3.29-1.59s-2.69-3.15-2.69-3.15l-2.85.25s1.51,2.26,2.1,3.24a3.47,3.47,0,0,1,.29,1.94A3.59,3.59,0,0,0,156.38,165.94Z"/><path class="cls-12" d="M159.33,166.32c1.46-.36,1.12.06,3.19-.18s2.7-1,2.76-1.34-1-.36-2.07-.48v0a5.91,5.91,0,0,1-3,.95c-1.41,0-2.9-.35-3.88-.33a3.59,3.59,0,0,0,0,1C156.57,166.85,157.88,166.69,159.33,166.32Z"/><path class="cls-14" d="M145.33,147.79,142.72,155l-3.41,9.38a5.66,5.66,0,0,1-1.85-.15,8.27,8.27,0,0,1-1.79-.86s.89-10.06,2.65-15.84a10.2,10.2,0,0,1,1.53-3.36C142.62,140.83,145.33,147.79,145.33,147.79Z"/><path class="cls-13" d="M142.54,136.43c-1.75-.55-6.72.21-11.71,1.22l-1.06-1.72L119,135.16s-3.38,7.49-1.52,13c.36,1.06,2.09,1.1,2.09,1.1s6.34.07,8.42.06c5.37,0,11.34-3.78,12.12-3.94,1.27-.26,1.79,2.28,3.08,4.93s12,11.72,12,11.72a9.21,9.21,0,0,0,2.31-.25,2.29,2.29,0,0,0,1-.63S146.49,137.67,142.54,136.43Z"/><path class="cls-10" d="M126.37,119.28a5.15,5.15,0,0,1-3.17.12,5.58,5.58,0,0,1-2.11-2.49c.54,0,1.14-.52,1.58-3.65l.23.08,3.92,1.38s-.27,1.26-.45,2.45C126.23,118.18,126.15,119.14,126.37,119.28Z"/><path class="cls-27" d="M126.82,114.72s-.16.88-.4,2.14a4.59,4.59,0,0,1-3.52-3.52Z"/><path class="cls-10" d="M127.42,116s-5.36-.68-4.89-4,.11-5.66,3.55-5.36,3.92,1.65,4,2.8S128.82,116.05,127.42,116Z"/><path class="cls-12" d="M129.9,107.57s-3.4,3-5.73,3.23-3.22-.48-3.22-.48a9,9,0,0,0,2.18-3,1.64,1.64,0,0,1,1.35-1C126.14,106.19,129.29,106.1,129.9,107.57Z"/><path class="cls-12" d="M127.76,107.32a8.53,8.53,0,0,1,1.52,1.92,6.53,6.53,0,0,1,.2,3.44s1.76-3.48.74-5.16A1.43,1.43,0,0,0,127.76,107.32Z"/><path class="cls-2" d="M130.93,127.13c-.09,10.83,0,8.57-1.16,9.6a4.51,4.51,0,0,1-2.15.48c-3.32.25-9.16-.26-9.38-.87-.79-2.12-.25-2.78-.91-6-.07-.34-.16-.72-.26-1.13-.54-2.22-1.07-3,.8-6.58,1.69-3.26,3.45-5.92,3.61-5.82,4.55,2.65,4.89.39,4.89.39S131,121.85,130.93,127.13Z"/><path class="cls-13" d="M142.72,155l-3.41,9.38a5.66,5.66,0,0,1-1.85-.15,8.27,8.27,0,0,1-1.79-.86s.89-10.06,2.65-15.84Z"/><path class="cls-2" d="M126.37,117.17s4.67.76,5.23,2.76l3.86,13.76s-2.37.44-3.47-.64-3.87-10.12-3.87-10.12Z"/><path class="cls-23" d="M127.62,137.21c-3.32.25-9.16-.26-9.38-.87-.79-2.12-.25-2.78-.91-6l1.57-4.52s-.23,5,1.26,6.33,6.08,2.51,6.81,3.61A3.94,3.94,0,0,1,127.62,137.21Z"/><path class="cls-10" d="M123.8,135.13s3.28-.75,3.81-.47a7.63,7.63,0,0,1,2,1.71c.17.36-1.18-.27-1.61-.39a3.8,3.8,0,0,0-1.39.32,4.67,4.67,0,0,1-2.5.26Z"/><path class="cls-2" d="M121.48,116.78s-4.4.3-5.91,2.43c-2.12,3-6.28,15.78-3.83,17.47,2.76,1.89,12.49.41,12.49.41a3.92,3.92,0,0,0-.14-2.25c-.45-.73-7.8-1.86-8.14-2.2s4.19-6.63,4.18-7.65S121.48,116.78,121.48,116.78Z"/><path class="cls-10" d="M127.77,135.57a6.41,6.41,0,0,0,.92,1,.76.76,0,0,0,.37.08l-.47-.83Z"/><path class="cls-10" d="M127.61,134.66l2,1a.35.35,0,0,1-.33.13,4.78,4.78,0,0,1-.87-.23Z"/><polygon class="cls-12" points="128.26 137.99 144.06 137.88 148.72 126.03 132.96 126.14 128.26 137.99"/><polygon class="cls-12" points="144.24 137.42 123.38 137.56 123.39 138.02 144.06 137.88 144.24 137.42"/><path class="cls-1" d="M140,132a.55.55,0,0,0-.54-.75,1.08,1.08,0,0,0-1,.76.55.55,0,0,0,.54.75A1.11,1.11,0,0,0,140,132Z"/><path class="cls-3" d="M47.94,302H59.47c.61-.53-.43-1.72-1.52-1.8a7.18,7.18,0,0,0-1.76.21c-.16-2.11-1.07-11.57-4.48-11.19-3.84.42,0,4.17,1.09,6.38a51.41,51.41,0,0,1,2,5.11l-1,.19c-.51-1.56-2.4-6.81-4.81-6.5-2.82.35-1.69,2.46.32,3.71,1.47.92,3.27,2.23,4.13,2.86a12,12,0,0,1-2.26.18A4.81,4.81,0,0,0,47.94,302Z"/><path class="cls-3" d="M297.35,302H284.6c-.68-.58.47-1.9,1.68-2a7.45,7.45,0,0,1,2,.23c.17-2.33,1.17-12.81,4.95-12.39,4.25.47,0,4.61-1.2,7.07a57.9,57.9,0,0,0-2.26,5.65l1.07.21c.56-1.73,2.66-7.54,5.32-7.2,3.13.4,1.87,2.73-.35,4.11-1.62,1-3.62,2.46-4.57,3.16a13.76,13.76,0,0,0,2.5.2A5.35,5.35,0,0,1,297.35,302Z"/><rect class="cls-18" x="28.25" y="301.94" width="287.69" height="0.95" rx="0.41"/></svg>