<svg xmlns="http://www.w3.org/2000/svg" width="209" height="160.246" viewBox="0 0 209 160.246">
  <g id="Group_11136" data-name="Group 11136" transform="translate(-1349.066 -5953.754)">
    <ellipse id="Ellipse_470" data-name="Ellipse 470" cx="104.5" cy="12" rx="104.5" ry="12" transform="translate(1349.066 6090)" fill="#fadfe0"/>
    <g id="undraw_active_options_re_8rj3" transform="translate(1383.182 5953.754)">
      <path id="Path_27281" data-name="Path 27281" d="M745.082,467.677a25.639,25.639,0,0,0-15.334,3.7,11.04,11.04,0,0,0-2.67,2.2,6.332,6.332,0,0,0-1.376,3.035,13.106,13.106,0,0,1-.7,3.095,3.877,3.877,0,0,1-2.4,2.074,10.074,10.074,0,0,1-4,.25,9.892,9.892,0,0,0-4.446.279c-.172.067-.266-.2-.094-.271,2.473-.961,5.126.124,7.666-.333a3.927,3.927,0,0,0,2.9-1.882,10.165,10.165,0,0,0,.768-3.128,6.758,6.758,0,0,1,1.235-3.018,10.208,10.208,0,0,1,2.575-2.295,24.877,24.877,0,0,1,7.108-3.149,26.1,26.1,0,0,1,8.823-.841c.184.014.127.3-.055.282Z" transform="translate(-607.705 -387.503)" fill="#fff"/>
      <path id="Path_27282" data-name="Path 27282" d="M783.983,464.967a3.847,3.847,0,0,1,1.422-4.774c.155-.1.318.136.163.236a3.562,3.562,0,0,0-1.313,4.443C784.329,465.041,784.058,465.134,783.983,464.967Z" transform="translate(-660.513 -382.083)" fill="#fff"/>
      <path id="Path_27283" data-name="Path 27283" d="M761.869,503.441a7.414,7.414,0,0,0,5.4.036c.172-.066.266.2.094.271a7.712,7.712,0,0,1-5.622-.049C761.573,503.63,761.7,503.372,761.869,503.441Z" transform="translate(-643.845 -414.867)" fill="#fff"/>
      <path id="Path_27284" data-name="Path 27284" d="M816.994,469.129a2.177,2.177,0,0,0,1.337,1.575c.172.067.046.325-.125.258a2.44,2.44,0,0,1-1.483-1.74.148.148,0,0,1,.089-.183A.144.144,0,0,1,816.994,469.129Z" transform="translate(-685.566 -388.8)" fill="#fff"/>
      <path id="Path_27286" data-name="Path 27286" d="M746.3,536.527a25.639,25.639,0,0,0-14.473-6.275,11.04,11.04,0,0,0-3.456.149A6.331,6.331,0,0,0,725.444,532a13.111,13.111,0,0,1-2.42,2.051,3.877,3.877,0,0,1-3.164.211,10.076,10.076,0,0,1-3.345-2.209,9.891,9.891,0,0,0-3.719-2.454c-.178-.05-.089-.323.088-.273,2.554.722,4.018,3.186,6.322,4.35a3.927,3.927,0,0,0,3.447.242,10.168,10.168,0,0,0,2.5-2.035,6.757,6.757,0,0,1,2.8-1.666,10.21,10.21,0,0,1,3.438-.281,24.874,24.874,0,0,1,7.571,1.765,26.093,26.093,0,0,1,7.551,4.64c.138.122-.077.312-.214.191Z" transform="translate(-606.739 -434.484)" fill="#fff"/>
      <path id="Path_27287" data-name="Path 27287" d="M798.841,524.174a3.847,3.847,0,0,1,4.009-2.956.144.144,0,0,1-.012.287,3.562,3.562,0,0,0-3.724,2.757c-.041.18-.314.091-.273-.088Z" transform="translate(-672.017 -428.341)" fill="#fff"/>
      <path id="Path_27288" data-name="Path 27288" d="M765.888,538.451a7.414,7.414,0,0,0,4.292,3.281c.178.051.089.324-.088.273a7.712,7.712,0,0,1-4.46-3.424C765.537,538.423,765.793,538.293,765.888,538.451Z" transform="translate(-646.838 -441.353)" fill="#fff"/>
      <path id="Path_27289" data-name="Path 27289" d="M829.9,544.228a2.178,2.178,0,0,0,.119,2.063c.1.157-.159.287-.255.131a2.44,2.44,0,0,1-.137-2.282.148.148,0,0,1,.181-.093A.144.144,0,0,1,829.9,544.228Z" transform="translate(-695.184 -445.644)" fill="#fff"/>
      <path id="Path_27294" data-name="Path 27294" d="M343.974,639.736a2.178,2.178,0,0,0,2.061-.151c.156-.1.289.154.135.253a2.44,2.44,0,0,1-2.279.172.148.148,0,0,1-.1-.179A.144.144,0,0,1,343.974,639.736Z" transform="translate(-327.17 -518.032)" fill="#fff"/>
      <g id="Group_1" data-name="Group 1" transform="translate(13.73 0)">
        <path id="Path_1" data-name="Path 1" d="M458.057,159.729l-57.125-5.619a4.687,4.687,0,0,1-1.876-.612,5.685,5.685,0,0,1-1.552-1.327,6.4,6.4,0,0,1-1.446-4.032,5.931,5.931,0,0,1,.1-1.068,5.344,5.344,0,0,1,.279-.988,4.863,4.863,0,0,1,.453-.883,4.526,4.526,0,0,1,.617-.756,4.21,4.21,0,0,1,.747-.586,3.958,3.958,0,0,1,1.737-.574,4.259,4.259,0,0,1,.944.024l57.125,7.727a2.64,2.64,0,0,1,1.2.5,3.97,3.97,0,0,1,.973,1.054,5.446,5.446,0,0,1,.652,1.45,6.146,6.146,0,0,1,.238,1.7,5.941,5.941,0,0,1-.058.836,5.261,5.261,0,0,1-.171.78,4.521,4.521,0,0,1-.279.707,3.821,3.821,0,0,1-.382.617,3.114,3.114,0,0,1-.466.493,2.523,2.523,0,0,1-.526.344,2.193,2.193,0,0,1-1.182.211Z" transform="translate(-380.511 -141.926)" fill="#e4e4e4"/>
        <path id="Path_2" data-name="Path 2" d="M432.667,157.231l-31.735-3.122a4.687,4.687,0,0,1-1.876-.612,5.685,5.685,0,0,1-1.552-1.327,6.4,6.4,0,0,1-1.446-4.032,5.931,5.931,0,0,1,.1-1.068,5.344,5.344,0,0,1,.279-.988,4.863,4.863,0,0,1,.453-.883,4.526,4.526,0,0,1,.617-.756,4.21,4.21,0,0,1,.747-.586,3.958,3.958,0,0,1,1.737-.574,4.259,4.259,0,0,1,.944.024l31.734,4.294Z" transform="translate(-380.511 -141.926)" fill="#e35156"/>
        <path id="Path_3" data-name="Path 3" d="M543.576,169.188a.936.936,0,0,1-.412-.145,1.255,1.255,0,0,1-.336-.318,1.583,1.583,0,0,1-.228-.447,1.709,1.709,0,0,1-.084-.528V159.31a1.532,1.532,0,0,1,.083-.509,1.184,1.184,0,0,1,.228-.394.894.894,0,0,1,.337-.242.8.8,0,0,1,.412-.048.97.97,0,0,1,.409.161,1.321,1.321,0,0,1,.333.332,1.647,1.647,0,0,1,.225.453,1.736,1.736,0,0,1,.082.527v8.371a1.557,1.557,0,0,1-.082.509,1.236,1.236,0,0,1-.225.4.939.939,0,0,1-.334.253A.815.815,0,0,1,543.576,169.188Z" transform="translate(-491.5 -153.173)" fill="#3f3d56"/>
        <g id="Group_11012" data-name="Group 11012">
          <circle id="Ellipse_44" data-name="Ellipse 44" cx="3.956" cy="3.956" r="3.956" fill="#e35156"/>
          <path id="Path_395" data-name="Path 395" d="M461.717,229.528a.41.41,0,0,1-.247-.082l0,0-.93-.711a.413.413,0,1,1,.5-.656l.6.462,1.423-1.856a.413.413,0,0,1,.579-.076h0l-.009.012.009-.012a.413.413,0,0,1,.076.579l-1.674,2.183a.413.413,0,0,1-.329.161Z" transform="translate(-458.153 -224.063)" fill="#fff"/>
        </g>
      </g>
      <g id="Group_2" data-name="Group 2" transform="translate(13.749 35.228)">
        <path id="Path_5" data-name="Path 5" d="M458.124,294.738,401,295.815a4.3,4.3,0,0,1-1.876-.393,4.8,4.8,0,0,1-1.552-1.145,5.487,5.487,0,0,1-1.056-1.729,6.035,6.035,0,0,1,0-4.265,5.492,5.492,0,0,1,1.056-1.73,4.806,4.806,0,0,1,1.552-1.147,4.3,4.3,0,0,1,1.876-.394l57.119,1.032a2.366,2.366,0,0,1,1.2.363,3.339,3.339,0,0,1,.973.938,4.77,4.77,0,0,1,.652,1.373,5.973,5.973,0,0,1,0,3.34,4.775,4.775,0,0,1-.652,1.374,3.343,3.343,0,0,1-.973.941A2.367,2.367,0,0,1,458.124,294.738Z" transform="translate(-380.586 -284.572)" fill="#e4e4e4"/>
        <path id="Path_6" data-name="Path 6" d="M423.33,295.394l-22.325.421a4.3,4.3,0,0,1-1.876-.393,4.8,4.8,0,0,1-1.552-1.145,5.487,5.487,0,0,1-1.056-1.729,5.962,5.962,0,0,1-.389-2.133,6.13,6.13,0,0,1,.1-1.079,5.858,5.858,0,0,1,.279-1.02,5.588,5.588,0,0,1,.453-.936,5.361,5.361,0,0,1,.617-.828,5,5,0,0,1,.747-.675,4.58,4.58,0,0,1,.835-.487,4.312,4.312,0,0,1,1.846-.378l22.325.4Z" transform="translate(-380.586 -284.571)" fill="#e35156"/>
        <path id="Path_7" data-name="Path 7" d="M505.971,294.65a.94.94,0,0,1-.44-.1,1.122,1.122,0,0,1-.36-.289,1.4,1.4,0,0,1-.244-.436,1.625,1.625,0,0,1-.09-.536v-8.733a1.625,1.625,0,0,1,.09-.537,1.4,1.4,0,0,1,.244-.436,1.123,1.123,0,0,1,.36-.288.939.939,0,0,1,.44-.1.962.962,0,0,1,.438.118,1.18,1.18,0,0,1,.357.3,1.463,1.463,0,0,1,.24.441,1.651,1.651,0,0,1,.088.535v8.66a1.649,1.649,0,0,1-.088.535,1.463,1.463,0,0,1-.24.441,1.18,1.18,0,0,1-.357.3A.962.962,0,0,1,505.971,294.65Z" transform="translate(-462.965 -283.196)" fill="#3f3d56"/>
        <g id="Group_11013" data-name="Group 11013" transform="translate(0 1.849)">
          <circle id="Ellipse_44-2" data-name="Ellipse 44" cx="3.956" cy="3.956" r="3.956" fill="#e35156"/>
          <path id="Path_395-2" data-name="Path 395" d="M461.717,229.528a.41.41,0,0,1-.247-.082l0,0-.93-.711a.413.413,0,1,1,.5-.656l.6.462,1.423-1.856a.413.413,0,0,1,.579-.076h0l-.009.012.009-.012a.413.413,0,0,1,.076.579l-1.674,2.183a.413.413,0,0,1-.329.161Z" transform="translate(-458.153 -224.063)" fill="#fff"/>
        </g>
      </g>
      <path id="Path_9" data-name="Path 9" d="M458.057,411.489l-57.125,7.751A4.036,4.036,0,0,1,397.5,418.1a4.691,4.691,0,0,1-1.056-1.606,5.6,5.6,0,0,1-.389-2.086,6.4,6.4,0,0,1,1.446-4.032,5.687,5.687,0,0,1,1.552-1.328,4.689,4.689,0,0,1,1.876-.613l57.125-5.641a2.189,2.189,0,0,1,1.2.222,2.812,2.812,0,0,1,.973.826,4.156,4.156,0,0,1,.652,1.3,5.572,5.572,0,0,1,.238,1.642,6.146,6.146,0,0,1-.238,1.7,5.448,5.448,0,0,1-.652,1.45,3.973,3.973,0,0,1-.973,1.054A2.64,2.64,0,0,1,458.057,411.489Z" transform="translate(-366.781 -338.596)" fill="#e4e4e4"/>
      <path id="Path_10" data-name="Path 10" d="M449.075,415.517l-48.143,6.532a4.037,4.037,0,0,1-3.428-1.138,4.691,4.691,0,0,1-1.056-1.606,5.6,5.6,0,0,1-.389-2.085,6.374,6.374,0,0,1,1.445-4.034,5.956,5.956,0,0,1,.747-.761,5.37,5.37,0,0,1,.835-.585,4.878,4.878,0,0,1,.9-.4,4.533,4.533,0,0,1,.944-.2l48.144-4.754Z" transform="translate(-366.781 -341.405)" fill="#e35156"/>
      <path id="Path_27300" data-name="Path 27300" d="M606.925,416.911a2.435,2.435,0,0,1,2.781,2.492l8.076,3.109-3.659,2.614-7.109-3.353a2.448,2.448,0,0,1-.09-4.862Z" transform="translate(-524.979 -349.282)" fill="#ffb6b6"/>
      <path id="Path_27301" data-name="Path 27301" d="M652.885,410.688l1.366,2.484a7.133,7.133,0,0,1-2.421,4.022c-2.092,1.764-13.03,8.335-13.03,8.335L624.992,418.6l2.416-3.21,10.841,3.633,6.116-5.775Z" transform="translate(-540.272 -344.585)" fill="#3f3d56"/>
      <rect id="Rectangle_6926" data-name="Rectangle 6926" width="1.453" height="46.497" transform="translate(112.44 105.326) rotate(-10.671)" fill="#cacaca"/>
      <rect id="Rectangle_6927" data-name="Rectangle 6927" width="1.453" height="46.497" transform="translate(101.083 151.018) rotate(-169.329)" fill="#cacaca"/>
      <ellipse id="Ellipse_441" data-name="Ellipse 441" cx="10.777" cy="3.512" rx="10.777" ry="3.512" transform="translate(99.296 100.186)" fill="#cacaca"/>
      <path id="Path_27302" data-name="Path 27302" d="M346.293,575.878h-2.969l-1.412-11.452h4.382Z" transform="translate(-259.11 -427.737)" fill="#ffb6b6"/>
      <path id="Path_27303" data-name="Path 27303" d="M608.336,749.288h-9.573v-.121a3.726,3.726,0,0,1,3.726-3.726h5.847Z" transform="translate(-520.395 -598.269)" fill="#2f2e41"/>
      <path id="Path_27304" data-name="Path 27304" d="M390.092,516.071l-2.593,1.446-6.81-9.315,3.828-2.134Z" transform="translate(-288.496 -383.512)" fill="#ffb6b6"/>
      <path id="Path_27305" data-name="Path 27305" d="M675.368,683.443l-8.362,4.661-.059-.106a3.726,3.726,0,0,1,1.44-5.069h0l5.107-2.847Z" transform="translate(-571.71 -548.739)" fill="#2f2e41"/>
      <path id="Path_27306" data-name="Path 27306" d="M646.636,506.983s1.44,4.46-7.393,10.1l-11.375,11.335-11.82,28.273-7.017-3.146,10.791-28.8,6.31-11.049.183-6,1.552-4.226,11.261-4Z" transform="translate(-528.177 -411.87)" fill="#2f2e41"/>
      <path id="Path_27307" data-name="Path 27307" d="M630.018,569.594l-11.74-17.7a4.2,4.2,0,0,1,.563-5.323l11.887-11.628,2.016-2.016h4.51l-2.115,7.8-7.337,8.317,8.482,15.009Z" transform="translate(-534.655 -437.221)" fill="#2f2e41"/>
      <path id="Path_27308" data-name="Path 27308" d="M691.115,412.455l3.538-5.063,8.083-.65s6.949,6.547,5.685,15.169-2.475,17.1-2.475,17.1-12.593-8.96-19.132-5.812Z" transform="translate(-587.123 -341.594)" fill="#3f3d56"/>
      <path id="Path_27309" data-name="Path 27309" d="M694.526,512.665a2.435,2.435,0,0,1,3.24-1.856l5.492-6.688,1.33,4.3-5.42,5.692a2.448,2.448,0,0,1-4.643-1.445Z" transform="translate(-592.936 -415.391)" fill="#ffb6b6"/>
      <path id="Path_27310" data-name="Path 27310" d="M715.637,444.368l-2.419-3.494,6.869-9.159-3.539-7.583.258-9.02,2.924-.54.036.018a7.187,7.187,0,0,1,3.114,3.627c.73,1.824,2.358,8.67,3.264,12.588a4.567,4.567,0,0,1-1.228,4.283Z" transform="translate(-607.133 -347.529)" fill="#3f3d56"/>
      <circle id="Ellipse_442" data-name="Ellipse 442" cx="5.578" cy="5.578" r="5.578" transform="matrix(0.511, -0.86, 0.86, 0.511, 102.231, 60.462)" fill="#ffb6b6"/>
      <path id="Path_27311" data-name="Path 27311" d="M718.04,348.478a23.72,23.72,0,0,0,.7,3.8c.557-.937-.318,2.176-.318,2.176,9.137-6.369,1.917-12.768-.907-12.2.059-.81-2.244-.489-2.244-.489-.878-1.367-2.8.448-2.8.448l.371-.624c-1.493.38-2.969,5-2.969,5C710.378,348.572,718.1,347.668,718.04,348.478Z" transform="translate(-604.597 -291.965)" fill="#2f2e41"/>
      <path id="Path_11" data-name="Path 11" d="M611.182,413.774a.669.669,0,0,1-.361-.048.8.8,0,0,1-.3-.228,1.139,1.139,0,0,1-.2-.371,1.529,1.529,0,0,1-.073-.478v-7.91a1.7,1.7,0,0,1,.073-.5,1.511,1.511,0,0,1,.2-.418,1.127,1.127,0,0,1,.3-.3.785.785,0,0,1,.361-.133.677.677,0,0,1,.36.064.84.84,0,0,1,.294.239,1.191,1.191,0,0,1,.2.377,1.555,1.555,0,0,1,.073.477v7.85a1.721,1.721,0,0,1-.073.494,1.571,1.571,0,0,1-.2.423,1.187,1.187,0,0,1-.294.308A.816.816,0,0,1,611.182,413.774Z" transform="translate(-529.102 -339.055)" fill="#3f3d56"/>
      <g id="Group_11014" data-name="Group 11014" transform="translate(13.749 73.53)">
        <circle id="Ellipse_44-3" data-name="Ellipse 44" cx="3.956" cy="3.956" r="3.956" transform="translate(0 0)" fill="#e35156"/>
        <path id="Path_395-3" data-name="Path 395" d="M461.717,229.528a.41.41,0,0,1-.247-.082l0,0-.93-.711a.413.413,0,1,1,.5-.656l.6.462,1.423-1.856a.413.413,0,0,1,.579-.076h0l-.009.012.009-.012a.413.413,0,0,1,.076.579l-1.674,2.183a.413.413,0,0,1-.329.161Z" transform="translate(-458.153 -224.063)" fill="#fff"/>
      </g>
    </g>
  </g>
</svg>
