<svg xmlns="http://www.w3.org/2000/svg" width="223" height="161.297" viewBox="0 0 223 161.297">
  <g id="Group_11132" data-name="Group 11132" transform="translate(-881.066 -5952.703)">
    <ellipse id="Ellipse_471" data-name="Ellipse 471" cx="111.5" cy="12" rx="111.5" ry="12" transform="translate(881.066 6090)" fill="#fadfe0"/>
    <g id="Group_11087" data-name="Group 11087" transform="translate(12.09 1241)">
      <g id="undraw_business_decisions_re_84ag" transform="translate(892.842 4711.703)">
        <g id="Group_11023" data-name="Group 11023" transform="translate(0 0)">
          <circle id="Ellipse_373" data-name="Ellipse 373" cx="2.008" cy="2.008" r="2.008" transform="translate(0)" fill="#e6e6e6"/>
          <circle id="Ellipse_374" data-name="Ellipse 374" cx="2.008" cy="2.008" r="2.008" transform="translate(10.165)" fill="#e6e6e6"/>
          <circle id="Ellipse_375" data-name="Ellipse 375" cx="2.008" cy="2.008" r="2.008" transform="translate(20.33)" fill="#e6e6e6"/>
          <circle id="Ellipse_376" data-name="Ellipse 376" cx="2.008" cy="2.008" r="2.008" transform="translate(30.494)" fill="#e6e6e6"/>
          <circle id="Ellipse_377" data-name="Ellipse 377" cx="2.008" cy="2.008" r="2.008" transform="translate(40.659)" fill="#e6e6e6"/>
          <circle id="Ellipse_378" data-name="Ellipse 378" cx="2.008" cy="2.008" r="2.008" transform="translate(0 10.292)" fill="#e6e6e6"/>
          <circle id="Ellipse_379" data-name="Ellipse 379" cx="2.008" cy="2.008" r="2.008" transform="translate(10.165 10.292)" fill="#e6e6e6"/>
          <circle id="Ellipse_380" data-name="Ellipse 380" cx="2.008" cy="2.008" r="2.008" transform="translate(20.33 10.292)" fill="#e6e6e6"/>
          <circle id="Ellipse_381" data-name="Ellipse 381" cx="2.008" cy="2.008" r="2.008" transform="translate(30.494 10.292)" fill="#e35156"/>
          <circle id="Ellipse_382" data-name="Ellipse 382" cx="2.008" cy="2.008" r="2.008" transform="translate(40.659 10.292)" fill="#e6e6e6"/>
          <circle id="Ellipse_384" data-name="Ellipse 384" cx="2.008" cy="2.008" r="2.008" transform="translate(0 20.585)" fill="#e6e6e6"/>
          <circle id="Ellipse_385" data-name="Ellipse 385" cx="2.008" cy="2.008" r="2.008" transform="translate(10.165 20.585)" fill="#e6e6e6"/>
          <circle id="Ellipse_386" data-name="Ellipse 386" cx="2.008" cy="2.008" r="2.008" transform="translate(20.33 20.585)" fill="#e6e6e6"/>
          <circle id="Ellipse_387" data-name="Ellipse 387" cx="2.008" cy="2.008" r="2.008" transform="translate(30.494 20.585)" fill="#e6e6e6"/>
          <circle id="Ellipse_388" data-name="Ellipse 388" cx="2.008" cy="2.008" r="2.008" transform="translate(40.659 20.585)" fill="#e6e6e6"/>
          <circle id="Ellipse_389" data-name="Ellipse 389" cx="2.008" cy="2.008" r="2.008" transform="translate(0 30.877)" fill="#e6e6e6"/>
          <circle id="Ellipse_390" data-name="Ellipse 390" cx="2.008" cy="2.008" r="2.008" transform="translate(10.165 30.877)" fill="#e6e6e6"/>
          <circle id="Ellipse_391" data-name="Ellipse 391" cx="2.008" cy="2.008" r="2.008" transform="translate(20.33 30.877)" fill="#e6e6e6"/>
          <circle id="Ellipse_392" data-name="Ellipse 392" cx="2.008" cy="2.008" r="2.008" transform="translate(30.494 30.877)" fill="#e6e6e6"/>
          <circle id="Ellipse_393" data-name="Ellipse 393" cx="2.008" cy="2.008" r="2.008" transform="translate(40.659 30.877)" fill="#e6e6e6"/>
          <circle id="Ellipse_394" data-name="Ellipse 394" cx="2.008" cy="2.008" r="2.008" transform="translate(50.824)" fill="#e6e6e6"/>
          <circle id="Ellipse_395" data-name="Ellipse 395" cx="2.008" cy="2.008" r="2.008" transform="translate(60.989)" fill="#e6e6e6"/>
          <circle id="Ellipse_396" data-name="Ellipse 396" cx="2.008" cy="2.008" r="2.008" transform="translate(71.153)" fill="#e6e6e6"/>
          <circle id="Ellipse_397" data-name="Ellipse 397" cx="2.008" cy="2.008" r="2.008" transform="translate(81.318)" fill="#e6e6e6"/>
          <circle id="Ellipse_398" data-name="Ellipse 398" cx="2.008" cy="2.008" r="2.008" transform="translate(91.483)" fill="#e6e6e6"/>
          <circle id="Ellipse_400" data-name="Ellipse 400" cx="2.008" cy="2.008" r="2.008" transform="translate(50.824 10.292)" fill="#e35156"/>
          <circle id="Ellipse_401" data-name="Ellipse 401" cx="2.008" cy="2.008" r="2.008" transform="translate(60.989 10.292)" fill="#e6e6e6"/>
          <circle id="Ellipse_402" data-name="Ellipse 402" cx="2.008" cy="2.008" r="2.008" transform="translate(71.153 10.292)" fill="#e6e6e6"/>
          <circle id="Ellipse_403" data-name="Ellipse 403" cx="2.008" cy="2.008" r="2.008" transform="translate(81.318 10.292)" fill="#e6e6e6"/>
          <circle id="Ellipse_404" data-name="Ellipse 404" cx="2.008" cy="2.008" r="2.008" transform="translate(91.483 10.292)" fill="#e6e6e6"/>
          <circle id="Ellipse_406" data-name="Ellipse 406" cx="2.008" cy="2.008" r="2.008" transform="translate(50.824 20.584)" fill="#e6e6e6"/>
          <circle id="Ellipse_407" data-name="Ellipse 407" cx="2.008" cy="2.008" r="2.008" transform="translate(60.989 20.584)" fill="#e6e6e6"/>
          <circle id="Ellipse_408" data-name="Ellipse 408" cx="2.008" cy="2.008" r="2.008" transform="translate(71.153 20.584)" fill="#e6e6e6"/>
          <circle id="Ellipse_409" data-name="Ellipse 409" cx="2.008" cy="2.008" r="2.008" transform="translate(81.318 20.584)" fill="#e35156"/>
          <circle id="Ellipse_410" data-name="Ellipse 410" cx="2.008" cy="2.008" r="2.008" transform="translate(91.483 20.584)" fill="#e6e6e6"/>
          <circle id="Ellipse_412" data-name="Ellipse 412" cx="2.008" cy="2.008" r="2.008" transform="translate(50.824 30.877)" fill="#e6e6e6"/>
          <circle id="Ellipse_413" data-name="Ellipse 413" cx="2.008" cy="2.008" r="2.008" transform="translate(60.989 30.877)" fill="#e6e6e6"/>
          <circle id="Ellipse_414" data-name="Ellipse 414" cx="2.008" cy="2.008" r="2.008" transform="translate(71.153 30.877)" fill="#e6e6e6"/>
          <circle id="Ellipse_415" data-name="Ellipse 415" cx="2.008" cy="2.008" r="2.008" transform="translate(81.318 30.877)" fill="#e6e6e6"/>
          <circle id="Ellipse_416" data-name="Ellipse 416" cx="2.008" cy="2.008" r="2.008" transform="translate(91.483 30.877)" fill="#e6e6e6"/>
          <circle id="Ellipse_417" data-name="Ellipse 417" cx="2.008" cy="2.008" r="2.008" transform="translate(0 41.169)" fill="#e6e6e6"/>
          <circle id="Ellipse_418" data-name="Ellipse 418" cx="2.008" cy="2.008" r="2.008" transform="translate(10.165 41.169)" fill="#e6e6e6"/>
          <circle id="Ellipse_419" data-name="Ellipse 419" cx="2.008" cy="2.008" r="2.008" transform="translate(20.33 41.169)" fill="#e6e6e6"/>
          <circle id="Ellipse_420" data-name="Ellipse 420" cx="2.008" cy="2.008" r="2.008" transform="translate(30.494 41.169)" fill="#e6e6e6"/>
          <circle id="Ellipse_421" data-name="Ellipse 421" cx="2.008" cy="2.008" r="2.008" transform="translate(40.659 41.169)" fill="#e6e6e6"/>
          <circle id="Ellipse_422" data-name="Ellipse 422" cx="2.008" cy="2.008" r="2.008" transform="translate(50.824 41.169)" fill="#e6e6e6"/>
          <circle id="Ellipse_423" data-name="Ellipse 423" cx="2.008" cy="2.008" r="2.008" transform="translate(60.989 41.169)" fill="#e6e6e6"/>
          <circle id="Ellipse_424" data-name="Ellipse 424" cx="2.008" cy="2.008" r="2.008" transform="translate(71.153 41.169)" fill="#e6e6e6"/>
          <circle id="Ellipse_425" data-name="Ellipse 425" cx="2.008" cy="2.008" r="2.008" transform="translate(81.318 41.169)" fill="#e6e6e6"/>
          <circle id="Ellipse_426" data-name="Ellipse 426" cx="2.008" cy="2.008" r="2.008" transform="translate(91.483 41.169)" fill="#e6e6e6"/>
        </g>
      </g>
      <g id="Group_11024" data-name="Group 11024" transform="translate(909.294 4733.181)">
        <path id="Path_27215" data-name="Path 27215" d="M480.508,257.32h-76.3c-5.387-.007-9.753-5-9.759-11.163V143.663c.006-6.162,4.372-11.156,9.759-11.163h70.983l15.074,13.743v99.914C490.261,252.319,485.9,257.313,480.508,257.32Z" transform="translate(-394.451 -132.5)" fill="#e6e6e6"/>
        <path id="Path_27216" data-name="Path 27216" d="M410.838,142c-3.8,0-6.883,3.561-6.887,7.949V252.444c0,4.388,3.085,7.944,6.887,7.949h75.614c3.8,0,6.883-3.561,6.887-7.949V154.078L480.211,142Z" transform="translate(-400.738 -138.787)" fill="#fff"/>
        <path id="Path_27217" data-name="Path 27217" d="M553.9,222.831H514.169a1.859,1.859,0,0,1,0-3.718H553.9a1.859,1.859,0,1,1,0,3.718Z" transform="translate(-480.75 -189.815)" fill="#ccc"/>
        <path id="Path_27218" data-name="Path 27218" d="M561.572,241.378h-47.4a1.859,1.859,0,0,1,0-3.718h47.4a1.859,1.859,0,0,1,0,3.718Z" transform="translate(-481.839 -202.088)" fill="#ccc"/>
        <path id="Path_27219" data-name="Path 27219" d="M553.9,305.949H514.169a1.859,1.859,0,0,1,0-3.718H553.9a1.859,1.859,0,1,1,0,3.718Z" transform="translate(-480.75 -244.817)" fill="#ccc"/>
        <path id="Path_27220" data-name="Path 27220" d="M561.572,324.5h-47.4a1.859,1.859,0,0,1,0-3.718h47.4a1.859,1.859,0,0,1,0,3.718Z" transform="translate(-481.839 -257.09)" fill="#ccc"/>
        <path id="Path_27221" data-name="Path 27221" d="M553.9,389.067H514.169a1.859,1.859,0,0,1,0-3.718H553.9a1.859,1.859,0,1,1,0,3.718Z" transform="translate(-480.75 -299.819)" fill="#ccc"/>
        <path id="Path_27222" data-name="Path 27222" d="M561.572,407.614h-47.4a1.859,1.859,0,0,1,0-3.718h47.4a1.859,1.859,0,0,1,0,3.718Z" transform="translate(-481.839 -312.092)" fill="#ccc"/>
        <g id="Group_11011" data-name="Group 11011" transform="translate(15.951 27.724)">
          <circle id="Ellipse_44" data-name="Ellipse 44" cx="6.57" cy="6.57" r="6.57" fill="#e35156"/>
          <path id="Path_395" data-name="Path 395" d="M462.6,231.517a.681.681,0,0,1-.41-.136l-.007-.006-1.544-1.181a.686.686,0,1,1,.835-1.089l1,.767,2.363-3.083a.686.686,0,0,1,.962-.127h0l-.015.02.015-.02a.687.687,0,0,1,.127.962l-2.78,3.625a.686.686,0,0,1-.546.268Z" transform="translate(-456.685 -222.44)" fill="#fff"/>
        </g>
        <circle id="Ellipse_44-2" data-name="Ellipse 44" cx="6.57" cy="6.57" r="6.57" transform="translate(16.531 55.84)" fill="#ccc"/>
        <circle id="Ellipse_44-3" data-name="Ellipse 44" cx="6.57" cy="6.57" r="6.57" transform="translate(15.951 83.956)" fill="#ccc"/>
        <path id="Path_27223" data-name="Path 27223" d="M683.764,147.193H670.257a3.718,3.718,0,0,1-3.718-3.718V133.5a.232.232,0,0,1,.377-.182l16.992,13.461a.232.232,0,0,1-.144.415Z" transform="translate(-588.284 -133.008)" fill="#e6e6e6"/>
      </g>
      <g id="Group_11025" data-name="Group 11025" transform="translate(984.84 4742.227)">
        <path id="Path_27201" data-name="Path 27201" d="M837.443,433.629C833.987,444,819.849,433,819.849,433l3.77-39.271c5.655-4.4,11.624-.628,11.624-.628Z" transform="translate(-789.45 -370.309)" fill="#e6e6e6"/>
        <path id="Path_27202" data-name="Path 27202" d="M661.731,464.458l4.817.051-1.2,13.886h-3.613Z" transform="translate(-614.481 -366.343)" fill="#ffb8b8"/>
        <path id="Path_27203" data-name="Path 27203" d="M873.9,695.555h7.116a4.54,4.54,0,0,1,4.535,4.535v.147H873.9Z" transform="translate(-827.571 -584.682)" fill="#2f2e41"/>
        <path id="Path_27204" data-name="Path 27204" d="M604.66,464.457h-5.333l1.719,13.937h3.613Z" transform="translate(-570.469 -366.342)" fill="#ffb8b8"/>
        <path id="Path_27205" data-name="Path 27205" d="M796.309,700.237v-.147a4.535,4.535,0,0,1,4.535-4.535h7.116v4.682Z" transform="translate(-772.848 -584.682)" fill="#2f2e41"/>
        <path id="Path_27206" data-name="Path 27206" d="M828.871,569.949,822.56,533.16l-5.847,36.314-5.924.329-1.58-48.655.119-.027c.979-.219,24.031-5.282,27.81,1.961l.019.037L834,570.114Z" transform="translate(-781.946 -460.302)" fill="#2f2e41"/>
        <circle id="Ellipse_435" data-name="Ellipse 435" cx="7.239" cy="7.239" r="7.239" transform="translate(32.998 4.341)" fill="#ffb8b8"/>
        <path id="Path_27207" data-name="Path 27207" d="M860.187,436.4c-.849-.235-1.46-1.209-1.924-3.067-.08-.32-7.6-32.335-1.24-38.135l1.465-4.07,2,1.337c.709.007,7.964.19,8.584,4.84.607,4.552,2.259,35.047.6,36.944a.359.359,0,0,1-.273.138c-1.683,0-2.194-1.867-2.314-2.463a12.2,12.2,0,0,0-3.551,2.734c-1.213,1.213-2.165,1.795-2.951,1.795A1.483,1.483,0,0,1,860.187,436.4Z" transform="translate(-813.869 -369.981)" fill="#2f2e41"/>
        <path id="Path_27208" data-name="Path 27208" d="M804.151,434.662a12.2,12.2,0,0,0-3.551-2.734c-.12.6-.631,2.463-2.314,2.463a.359.359,0,0,1-.273-.138c-1.661-1.9-.008-32.392.6-36.943.62-4.65,7.874-4.834,8.584-4.84l2-1.337,1.465,4.07c6.355,5.8-1.16,37.815-1.24,38.135-.464,1.857-1.076,2.832-1.924,3.067a1.486,1.486,0,0,1-.4.053C806.316,436.457,805.364,435.875,804.151,434.662Z" transform="translate(-773.542 -369.981)" fill="#2f2e41"/>
        <path id="Path_27209" data-name="Path 27209" d="M837.088,335.08a7.428,7.428,0,0,0-3.6-13.422,4.05,4.05,0,0,1-1.937-.435c-.491-.336-.755-.919-1.206-1.307a2.631,2.631,0,0,0-2.041-.515,7.384,7.384,0,0,0-2.052.674c-1.605.716-3.311,1.6-4.042,3.195a4.408,4.408,0,0,0,.542,4.323,6.015,6.015,0,0,0,3.836,2.265,9.588,9.588,0,0,0,4.5-.406,11.105,11.105,0,0,1,2.9-.744,3.94,3.94,0,0,1,2.99,6.65" transform="translate(-790.875 -319.366)" fill="#2f2e41"/>
        <path id="Path_27210" data-name="Path 27210" d="M731.842,486.8a3.183,3.183,0,0,0,3.109-3.256l4.221-7.122-3.262-2.99-4.447,7.017a3.183,3.183,0,0,0,.378,6.351Z" transform="translate(-725.084 -428.026)" fill="#ffb8b8"/>
        <path id="Path_27211" data-name="Path 27211" d="M894.03,512.945a3.183,3.183,0,0,0,.928-4.405l-.162-8.278-4.347-.825-.085,8.307a3.183,3.183,0,0,0,3.666,5.2Z" transform="translate(-838.297 -446.365)" fill="#ffb8b8"/>
        <path id="Path_27212" data-name="Path 27212" d="M743.875,424.4l-.049-.078.049-.078c6.332-10.168,19.622-22.869,19.756-23l.042-.04,1.642-.017,1.775,4.421c-.553,1.063-15.442,21.842-17.409,23.22a1.356,1.356,0,0,1-1.086.2,2.862,2.862,0,0,1-.921-.392C745.859,427.517,743.968,424.544,743.875,424.4Z" transform="translate(-735.833 -377.072)" fill="#2f2e41"/>
        <path id="Path_27213" data-name="Path 27213" d="M888.6,442.018a1.347,1.347,0,0,1-.8-.732c-.948-2.212,3.115-30.151,3.288-31.339l.033-.225,1.374.87.013.059c.041.178,4.042,17.977,2.957,29.8l-.008.085-.077.036a17.666,17.666,0,0,1-5.719,1.607A3.006,3.006,0,0,1,888.6,442.018Z" transform="translate(-837.275 -383.091)" fill="#2f2e41"/>
      </g>
    </g>
  </g>
</svg>
