<svg xmlns="http://www.w3.org/2000/svg" xmlns:xlink="http://www.w3.org/1999/xlink" width="233.978" height="161.247" viewBox="0 0 233.978 161.247">
  <defs>
    <clipPath id="clip-path">
      <path id="Path_27522" data-name="Path 27522" d="M766.981,227.984H714.965a.685.685,0,0,0-.684.684v40.305a.685.685,0,0,0,.684.684h52.017a.685.685,0,0,0,.685-.684V228.668A.685.685,0,0,0,766.981,227.984Z" transform="translate(-707.056 -222.052)" fill="#fff"/>
    </clipPath>
    <clipPath id="clip-path-2">
      <path id="Path_27504" data-name="Path 27504" d="M533.966,418.476H481.95a.685.685,0,0,0-.684.684v40.305a.685.685,0,0,0,.684.684h52.017a.685.685,0,0,0,.684-.684V419.16A.685.685,0,0,0,533.966,418.476Z" transform="translate(-474.04 -412.544)" fill="#fff"/>
    </clipPath>
  </defs>
  <g id="Group_11135" data-name="Group 11135" transform="translate(-433 -5952.753)">
    <ellipse id="Ellipse_472" data-name="Ellipse 472" cx="104.5" cy="12" rx="104.5" ry="12" transform="translate(433 6090)" fill="#fadfe0"/>
    <g id="undraw_next_tasks_re_5eyy" transform="translate(482.744 5952.25)">
      <path id="Path_27379" data-name="Path 27379" d="M233.348,655.4a23.645,23.645,0,0,0,11.518,10.672,12.182,12.182,0,0,0,3.513,1.032,7.942,7.942,0,0,0,3.654-.478,16.753,16.753,0,0,1,3.361-1.068,4.3,4.3,0,0,1,3.251.876,8.789,8.789,0,0,1,2.311,3.165,8.636,8.636,0,0,0,2.57,3.517c.154.107-.06.328-.214.222-2.211-1.528-2.53-4.292-4.287-6.143a4.134,4.134,0,0,0-3.323-1.389,12.99,12.99,0,0,0-3.43,1.028,8.523,8.523,0,0,1-3.565.585,11.435,11.435,0,0,1-3.556-.9,24.539,24.539,0,0,1-6.728-4.186,22.943,22.943,0,0,1-5.377-6.826c-.081-.159.221-.261.3-.1Z" transform="translate(-231.747 -534.434)" fill="#fff"/>
      <path id="Path_27380" data-name="Path 27380" d="M258.268,697.219a4.77,4.77,0,0,1-5.363,1.363c-.177-.075-.033-.334.145-.26a4.416,4.416,0,0,0,4.987-1.277c.125-.152.355.023.231.174Z" transform="translate(-246.85 -566.229)" fill="#fff"/>
      <path id="Path_27381" data-name="Path 27381" d="M301.917,688.947a6.415,6.415,0,0,0-2.759-4.473c-.153-.107.061-.328.214-.221a6.67,6.67,0,0,1,2.86,4.66C302.254,689.091,301.939,689.124,301.917,688.947Z" transform="translate(-282.166 -556.49)" fill="#fff"/>
      <path id="Path_27382" data-name="Path 27382" d="M247.847,669.278a2.169,2.169,0,0,0,.836-1.939c-.024-.178.291-.21.315-.034a2.428,2.428,0,0,1-.92,2.146.18.18,0,0,1-.223.024.129.129,0,0,1-.009-.2Z" transform="translate(-243.02 -543.49)" fill="#fff"/>
      <path id="Path_27384" data-name="Path 27384" d="M315.676,598.469a22.053,22.053,0,0,0,1.4,15.262,9.577,9.577,0,0,0,1.932,2.77,6.466,6.466,0,0,0,3.059,1.565,14.549,14.549,0,0,1,3.24.906,3.415,3.415,0,0,1,1.84,2.5,9.009,9.009,0,0,1-.413,3.93,8.849,8.849,0,0,0-.457,4.368c.043.173-.267.245-.31.072-.621-2.488,1.011-5,.949-7.521a3.381,3.381,0,0,0-1.548-2.97,11.2,11.2,0,0,0-3.264-.977,7.006,7.006,0,0,1-3.065-1.426,8.944,8.944,0,0,1-2.05-2.684,20.913,20.913,0,0,1-2.2-7.178,23.1,23.1,0,0,1,.595-8.689C315.427,598.216,315.723,598.292,315.676,598.469Z" transform="translate(-294.002 -490.916)" fill="#fff"/>
      <path id="Path_27385" data-name="Path 27385" d="M305.522,651a4.123,4.123,0,0,1-4.938-1.735c-.082-.159.2-.3.284-.142a3.82,3.82,0,0,0,4.6,1.605C305.662,650.664,305.716,650.936,305.522,651Z" transform="translate(-283.283 -529.649)" fill="#fff"/>
      <path id="Path_27386" data-name="Path 27386" d="M343.537,663.919a6.81,6.81,0,0,0,.962-5.281c-.043-.173.268-.246.31-.072a7.089,7.089,0,0,1-1.014,5.495C343.692,664.223,343.434,664.081,343.537,663.919Z" transform="translate(-316.053 -536.834)" fill="#fff"/>
      <path id="Path_27387" data-name="Path 27387" d="M315.1,619.567a2.676,2.676,0,0,0,1.938-1.193c.1-.164.36-.022.259.141a3,3,0,0,1-2.141,1.324c-.086.01-.166-.02-.183-.1A.156.156,0,0,1,315.1,619.567Z" transform="translate(-294.271 -506.185)" fill="#fff"/>
      <g id="Group_11032" data-name="Group 11032">
        <path id="Path_27369" data-name="Path 27369" d="M322.091,135.105,372.6,91.9l.234.634L322.5,135.587Z" transform="translate(-257.252 -86.375)" fill="#2f2e41"/>
        <ellipse id="Ellipse_451" data-name="Ellipse 451" cx="7.402" cy="7.402" rx="7.402" ry="7.402" transform="translate(112.24 0.503)" fill="#e35156"/>
        <path id="Path_27370" data-name="Path 27370" d="M778.747,285.771H711.162a2.2,2.2,0,0,1,0-4.408h67.585a2.2,2.2,0,1,1,0,4.408Z" transform="translate(-596.717 -261.476)" fill="#e35156"/>
        <path id="Path_27371" data-name="Path 27371" d="M778.747,314.037H711.162a2.2,2.2,0,0,1,0-4.409h67.585a2.2,2.2,0,1,1,0,4.409Z" transform="translate(-596.717 -281.032)" fill="#e35156"/>
        <path id="Path_27372" data-name="Path 27372" d="M740.458,342.3h-29.3a2.2,2.2,0,0,1,0-4.409h29.3a2.2,2.2,0,0,1,0,4.409Z" transform="translate(-596.717 -300.588)" fill="#e35156"/>
        <g id="Group_11028" data-name="Group 11028" transform="translate(112.241 87.878)">
          <ellipse id="Ellipse_453" data-name="Ellipse 453" cx="5.074" cy="5.074" rx="5.074" ry="5.074" transform="translate(0 0)" fill="#e6e7e8"/>
          <path id="Path_27375" data-name="Path 27375" d="M752.287,619H705.962a1.511,1.511,0,1,1,0-3.022h46.325a1.511,1.511,0,0,1,0,3.022Z" transform="translate(-704.451 -602.689)" fill="#e6e7e8"/>
          <path id="Path_27376" data-name="Path 27376" d="M733.8,638.372H705.962a1.511,1.511,0,0,1,0-3.022H733.8a1.511,1.511,0,0,1,0,3.022Z" transform="translate(-704.451 -616.094)" fill="#e6e7e8"/>
          <path id="Path_27377" data-name="Path 27377" d="M726.042,657.746H705.961a1.511,1.511,0,1,1,0-3.022h20.081a1.511,1.511,0,1,1,0,3.022Z" transform="translate(-704.45 -629.498)" fill="#e6e7e8"/>
        </g>
        <g id="Group_11029" data-name="Group 11029" transform="translate(112.241 50.672)">
          <ellipse id="Ellipse_453-2" data-name="Ellipse 453" cx="5.074" cy="5.074" rx="5.074" ry="5.074" transform="translate(0 0)" fill="#e6e7e8"/>
          <path id="Path_27375-2" data-name="Path 27375" d="M752.287,619H705.962a1.511,1.511,0,1,1,0-3.022h46.325a1.511,1.511,0,0,1,0,3.022Z" transform="translate(-704.451 -602.689)" fill="#e6e7e8"/>
          <path id="Path_27376-2" data-name="Path 27376" d="M733.8,638.372H705.962a1.511,1.511,0,0,1,0-3.022H733.8a1.511,1.511,0,0,1,0,3.022Z" transform="translate(-704.451 -616.094)" fill="#e6e7e8"/>
          <path id="Path_27377-2" data-name="Path 27377" d="M726.042,657.746H705.961a1.511,1.511,0,1,1,0-3.022h20.081a1.511,1.511,0,1,1,0,3.022Z" transform="translate(-704.45 -629.498)" fill="#e6e7e8"/>
        </g>
        <path id="Path_27398" data-name="Path 27398" d="M532.219,416.158c-.041,0-.083,0-.124,0a2.535,2.535,0,0,1-1.879-.977l-3-3.858a2.541,2.541,0,0,1,.445-3.562l.108-.084a2.542,2.542,0,0,1,3.563.444,1.522,1.522,0,0,0,1.128.587,1.493,1.493,0,0,0,1.18-.474l6.093-6.431a2.541,2.541,0,0,1,3.588-.1l.1.094a2.541,2.541,0,0,1,.1,3.588l-9.455,9.98a2.534,2.534,0,0,1-1.842.792Z" transform="translate(-470.606 -344.256)" fill="#fff"/>
        <path id="Path_27401" data-name="Path 27401" d="M723.943,242.066h-.051a1.043,1.043,0,0,1-.773-.4l-1.234-1.587a1.045,1.045,0,0,1,.183-1.465l.044-.034a1.046,1.046,0,0,1,1.466.183.626.626,0,0,0,.464.241.615.615,0,0,0,.486-.195l2.506-2.646a1.045,1.045,0,0,1,1.476-.04l.041.039a1.045,1.045,0,0,1,.04,1.476l-3.89,4.106A1.043,1.043,0,0,1,723.943,242.066Z" transform="translate(-605.509 -229.976)" fill="#fff"/>
        <path id="Path_27465" data-name="Path 27465" d="M582.135,418.479a23.092,23.092,0,0,0,2.237-3.129,8.311,8.311,0,0,0,1.3-3.227,3.188,3.188,0,0,0-.954-2.724,2.243,2.243,0,0,0-2.631-.3,2.676,2.676,0,0,0-1.343,2.39,3.535,3.535,0,0,0,1.51,2.677,6.506,6.506,0,0,0,6.417.239c2.123-1.1,3.22-3.972,1.552-5.94-.347-.409-.924.048-.837.489a2.379,2.379,0,0,0,4.714-.583l-.75.438a5.726,5.726,0,0,0,5.7-.611,5.315,5.315,0,0,0,1.066-1.03,6.256,6.256,0,0,1,1.483-1.133l3.6-2.486c.529-.366.026-1.237-.507-.868l-3.259,2.252c-.543.375-1.09.746-1.629,1.126a11.142,11.142,0,0,0-.974,1.033,4.716,4.716,0,0,1-4.979.842.509.509,0,0,0-.75.438,1.377,1.377,0,1,1-2.735.324l-.837.49c1.076,1.269.359,3.216-.88,4.067a5.709,5.709,0,0,1-5,.526,2.949,2.949,0,0,1-1.736-1.593,1.757,1.757,0,0,1,.4-2.011,1.261,1.261,0,0,1,1.753-.019,2.256,2.256,0,0,1,.6,2.035,8.157,8.157,0,0,1-1.237,2.8,21.489,21.489,0,0,1-2,2.787c-.415.491.3,1.2.721.7Z" transform="translate(-465.822 -271.898)" fill="#e35156"/>
      </g>
      <g id="undraw_experts_re_i40h" transform="translate(-42.71 21.251)">
        <g id="Group_11031" data-name="Group 11031" transform="translate(0 37.841)">
          <path id="Path_27437" data-name="Path 27437" d="M269.856,356.562H203.391a.685.685,0,0,1-.684-.684V291.085a.685.685,0,0,1,.684-.684h66.466a.685.685,0,0,1,.684.684v64.793A.685.685,0,0,1,269.856,356.562Z" transform="translate(-202.706 -290.4)" fill="#f0f0f0"/>
          <path id="Path_27438" data-name="Path 27438" d="M289.141,318.1H237.125a.685.685,0,0,0-.684.684v40.305a.685.685,0,0,0,.684.684h52.017a.686.686,0,0,0,.684-.684V318.782a.685.685,0,0,0-.684-.684Z" transform="translate(-229.216 -312.166)" fill="#fff"/>
          <path id="Path_27439" data-name="Path 27439" d="M298.175,539.019H252.09a.381.381,0,0,1-.38-.38V536.51a.381.381,0,0,1,.38-.38h46.085a.381.381,0,0,1,.38.38v2.129A.381.381,0,0,1,298.175,539.019Z" transform="translate(-241.215 -483.504)" fill="#fff"/>
          <path id="Path_27440" data-name="Path 27440" d="M282.2,563.166H252.09a.381.381,0,0,1-.38-.38v-2.129a.381.381,0,0,1,.38-.38H282.2a.381.381,0,0,1,.38.38v2.129A.381.381,0,0,1,282.2,563.166Z" transform="translate(-241.215 -502.48)" fill="#fff"/>
          <circle id="Ellipse_462" data-name="Ellipse 462" cx="6.614" cy="6.614" r="6.614" transform="translate(26.019 20.016)" fill="#ffb8b8"/>
          <path id="Path_27441" data-name="Path 27441" d="M143.749,266.029H129.086l.479-10.781.114-.12,1.646-1.738h5.237l1.941,1.88.157.152,4.132,3.961Z" transform="translate(-101.441 -218.423)" fill="#e35156"/>
          <path id="Path_27442" data-name="Path 27442" d="M302.7,472.381H291.609c-.027-2.434-.043-3.891-.043-3.891l.642-.391,0,0h0l7.069-4.292,1.484-2.411.008.085.436,5.082S301.932,468.892,302.7,472.381Z" transform="translate(-272.536 -424.775)" fill="#2f2e41"/>
          <path id="Path_27443" data-name="Path 27443" d="M385.934,472.381H374.183c.178-7.1-.78-10.986-.287-10.986l.287.227,3.463,2.735,4.564,1.675h0l3.147,1.154.552.2v.26C385.914,468.271,385.917,469.977,385.934,472.381Z" transform="translate(-337.121 -424.775)" fill="#2f2e41"/>
          <path id="Path_27444" data-name="Path 27444" d="M319.629,382.444s.562-.987.431-4.284,4.889-1.432,9.084-1.747,3.307,5.5,3.307,5.5a10.968,10.968,0,0,0,.951-3.154,9.168,9.168,0,0,0-.823-5.607c-.433-2.951-2.768-2.005-2.768-2.005a1.225,1.225,0,0,1,.908,1.374c-.952-1.669-3.287-.723-3.287-.723-3.114-1.954-6.27.619-6.27.619-3.762.854-1.556,3.846-1.556,3.846C315.823,378.18,319.629,382.444,319.629,382.444Z" transform="translate(-293.254 -353.745)" fill="#2f2e41"/>
          <path id="Path_27445" data-name="Path 27445" d="M281.916,496.977h-4.558a13.745,13.745,0,0,0,0-1.687c-.272-1.085,3.558-2.551,3.673-2.595l0,0h0l.73.392Z" transform="translate(-261.362 -449.371)" fill="#2f2e41"/>
          <path id="Path_27446" data-name="Path 27446" d="M414.71,489.241h-4.788l-.6-5.9.671-.49s.061.014.169.041h0a13.134,13.134,0,0,1,3.147,1.154,1.95,1.95,0,0,1,.552.462.57.57,0,0,1,.131.4C413.972,485.133,414.252,486.757,414.71,489.241Z" transform="translate(-365.075 -441.635)" fill="#2f2e41"/>
        </g>
        <g id="Group_11027" data-name="Group 11027" transform="translate(71.431 0)">
          <path id="Path_27447" data-name="Path 27447" d="M747.7,266.447H681.23a.685.685,0,0,1-.684-.684V200.97a.685.685,0,0,1,.684-.684H747.7a.685.685,0,0,1,.684.684v64.793A.685.685,0,0,1,747.7,266.447Z" transform="translate(-680.545 -200.285)" fill="#f0f0f0"/>
          <path id="Path_27448" data-name="Path 27448" d="M766.981,227.984H714.965a.685.685,0,0,0-.684.684v40.305a.685.685,0,0,0,.684.684h52.017a.685.685,0,0,0,.685-.684V228.668A.685.685,0,0,0,766.981,227.984Z" transform="translate(-707.056 -222.052)" fill="#fff"/>
          <path id="Path_27449" data-name="Path 27449" d="M776.015,448.9H729.93a.381.381,0,0,1-.38-.38v-2.129a.381.381,0,0,1,.38-.38h46.085a.381.381,0,0,1,.38.38v2.129a.381.381,0,0,1-.38.38Z" transform="translate(-719.055 -393.389)" fill="#fff"/>
          <path id="Path_27450" data-name="Path 27450" d="M760.045,473.051H729.93a.381.381,0,0,1-.38-.38v-2.129a.381.381,0,0,1,.38-.38h30.115a.381.381,0,0,1,.38.38v2.129a.381.381,0,0,1-.38.38Z" transform="translate(-719.055 -412.365)" fill="#fff"/>
          <g id="Mask_Group_6" data-name="Mask Group 6" clip-path="url(#clip-path)">
            <g id="svgexport-7" transform="translate(15.515 16.354)">
              <g id="Group_11046" data-name="Group 11046" transform="translate(2.001)">
                <g id="Group_11037" data-name="Group 11037" transform="translate(8.233 14.811)">
                  <path id="Path_27505" data-name="Path 27505" d="M18.213,27.262a.547.547,0,0,0-.941.447,13.394,13.394,0,0,1-.068,2.769c-.052.6-.108,1.26-.144,1.991a.547.547,0,0,0,.546.574.537.537,0,0,0,.173-.028l1.051-.35a.544.544,0,0,0,.582.219l.945-.236a1.613,1.613,0,0,0,.68-.366.547.547,0,0,0,.148-.583,12.042,12.042,0,0,0-2.971-4.437Z" transform="translate(-17.059 -27.09)" fill="#e35156"/>
                  <path id="Path_27506" data-name="Path 27506" d="M43.351,30.487a13.4,13.4,0,0,1-.068-2.769.541.541,0,0,0-.314-.559.559.559,0,0,0-.64.127,11.983,11.983,0,0,0-2.957,4.422.545.545,0,0,0,.148.583,1.614,1.614,0,0,0,.685.367l.94.235a.544.544,0,0,0,.582-.219l1.051.35a.544.544,0,0,0,.5-.083.55.55,0,0,0,.216-.463c-.037-.732-.093-1.39-.145-1.992Z" transform="translate(-27.158 -27.098)" fill="#e35156"/>
                </g>
                <g id="Group_11038" data-name="Group 11038" transform="translate(6.56 7.851)">
                  <path id="Path_27507" data-name="Path 27507" d="M18.374,18.537v-3.63a.546.546,0,0,0-.767-.5,8.892,8.892,0,0,0-1.981,1.168A3.78,3.78,0,0,0,14,18.537c0,1.534.985,2.587,2.043,3.719a11.087,11.087,0,0,1,2.722,4.032.545.545,0,0,0,.37.348.556.556,0,0,0,.147.02.547.547,0,0,0,.35-.127,1.6,1.6,0,0,0,.524-.839l.541-2.165a.545.545,0,0,0-.165-.539A6.127,6.127,0,0,1,18.374,18.537Z" transform="translate(-14 -14.36)" fill="#e35156"/>
                  <path id="Path_27508" data-name="Path 27508" d="M42.8,15.574a8.913,8.913,0,0,0-1.981-1.167.546.546,0,0,0-.767.5v3.63a6.094,6.094,0,0,1-2.163,4.431.546.546,0,0,0-.166.54l.546,2.18a1.6,1.6,0,0,0,.525.84.546.546,0,0,0,.35.127.56.56,0,0,0,.147-.02.547.547,0,0,0,.37-.348A11.134,11.134,0,0,1,42.4,22.239c1.043-1.115,2.028-2.168,2.028-3.7A3.782,3.782,0,0,0,42.8,15.574Z" transform="translate(-24.747 -14.36)" fill="#e35156"/>
                </g>
                <path id="Path_27509" data-name="Path 27509" d="M32.8,13.337A16.673,16.673,0,0,0,26.561,12a16.673,16.673,0,0,0-6.235,1.337.546.546,0,0,0-.325.5v2.892a.72.72,0,0,0,.084.293c.594,1.115,1.768,3.075,2.952,3.667a.547.547,0,0,0,.792-.489c0-.533,0-1.64,2.734-1.64s2.734,1.108,2.734,1.64a.547.547,0,0,0,.791.49c1.063-.529,2.076-2.134,2.839-3.473.052-.093.092-.162.116-.2a.552.552,0,0,0,.081-.288V13.837a.546.546,0,0,0-.325-.5Z" transform="translate(-10.159 -5.439)" fill="#f5e0cd"/>
                <path id="Path_27510" data-name="Path 27510" d="M32.7,33.076l-.936-.235a.541.541,0,0,1-.235-.131.511.511,0,0,1-.165-.265l-.547-2.181a.547.547,0,0,0-.9-.271,5.8,5.8,0,0,1-3.3,1.579,5.746,5.746,0,0,1-3.308-1.565.547.547,0,0,0-.9.274l-.542,2.166a.53.53,0,0,1-.182.28.5.5,0,0,1-.213.115l-.94.235a.546.546,0,0,0-.4.649c.521,2.345,3.065,3.861,6.482,3.861s5.961-1.516,6.482-3.861A.546.546,0,0,0,32.7,33.076Z" transform="translate(-10.213 -13.53)" fill="#f0d0b4"/>
                <g id="Group_11042" data-name="Group 11042" transform="translate(9.841 8.524)">
                  <g id="Group_11041" data-name="Group 11041">
                    <g id="Group_11040" data-name="Group 11040">
                      <g id="Group_11039" data-name="Group 11039">
                        <path id="Path_27511" data-name="Path 27511" d="M33.121,18V15.591a12.3,12.3,0,0,1-2.894,4.693c-.417-1.153-1.645-1.736-3.667-1.736s-3.25.583-3.667,1.736A12.3,12.3,0,0,1,20,15.591v3.5a7.071,7.071,0,0,0,2.528,5.246A6.713,6.713,0,0,0,26.561,26.2a6.713,6.713,0,0,0,4.033-1.862,7.071,7.071,0,0,0,2.527-5.246Z" transform="translate(-20 -15.591)" fill="#57555c"/>
                      </g>
                    </g>
                  </g>
                </g>
                <path id="Path_27512" data-name="Path 27512" d="M30.187,25C28.372,25,28,25.656,28,26.64a.548.548,0,0,0,.057.244,2.566,2.566,0,0,0,2.129,1.4,2.566,2.566,0,0,0,2.129-1.4.548.548,0,0,0,.057-.244C32.374,25.656,32,25,30.187,25Z" transform="translate(-13.786 -11.332)" fill="#f5e0cd"/>
                <path id="Path_27513" data-name="Path 27513" d="M33.064,3.036C31.726.361,29.026,0,26.56,0s-5.165.361-6.5,3.036a.547.547,0,0,0,.489.791H32.574a.547.547,0,0,0,.489-.791Z" transform="translate(-10.159)" fill="#e35156"/>
                <path id="Path_27514" data-name="Path 27514" d="M33.432,13.484c-.045-.284-.071-.594-.1-.923a9.618,9.618,0,0,0-.705-3.231.548.548,0,0,0-.5-.33H17.912a.548.548,0,0,0-.5.33,9.62,9.62,0,0,0-.705,3.231c-.027.329-.052.639-.1.923a.547.547,0,0,0,.882.513,7.791,7.791,0,0,1,1.739-1.02,15.735,15.735,0,0,1,5.793-1.243,15.735,15.735,0,0,1,5.794,1.244A7.827,7.827,0,0,1,32.55,14a.547.547,0,0,0,.882-.513Z" transform="translate(-8.618 -4.079)" fill="#e35156"/>
                <path id="Path_27515" data-name="Path 27515" d="M31.855,5H17.64a1.64,1.64,0,0,0,0,3.28H31.855a1.64,1.64,0,1,0,0-3.28Z" transform="translate(-8.346 -2.266)" fill="#57555c"/>
                <path id="Path_27516" data-name="Path 27516" d="M33.682,17.467c0,1.536-1,2.608-2.067,3.74a11.743,11.743,0,0,0-2.531,3.57.677.677,0,0,1-.334-.159.526.526,0,0,1-.164-.262l-.18-.711a13.978,13.978,0,0,1,2.411-3.187c.99-1.055,1.771-1.886,1.771-2.991,0-2.832-5.779-4.374-8.748-4.374s-8.748,1.542-8.748,4.374c0,1.1.782,1.935,1.771,2.991a13.978,13.978,0,0,1,2.411,3.187l-.18.711a.561.561,0,0,1-.18.279.733.733,0,0,1-.317.142,11.743,11.743,0,0,0-2.531-3.57C15,20.075,14,19,14,17.467,14,13.651,20.517,12,23.841,12s9.841,1.651,9.841,5.467Z" transform="translate(-7.44 -5.439)" fill="#e35156"/>
                <path id="Path_27517" data-name="Path 27517" d="M26.2,35.564l-1.607-.536a.539.539,0,0,0-.466.057.547.547,0,0,0-.25.4c-.014.119-.033.234-.057.341-.4,1.8-2.575,3-5.414,3s-5.016-1.208-5.414-3c-.024-.109-.043-.224-.057-.343a.547.547,0,0,0-.716-.453l-1.6.535c-5.973,1.5-6.072,1.991-8.6,14.638a.547.547,0,0,0,.536.654h31.71a.547.547,0,0,0,.536-.654c-2.531-12.647-2.63-13.14-8.6-14.637Z" transform="translate(-2.001 -15.864)" fill="#2f2e41"/>
                <g id="Group_11043" data-name="Group 11043" transform="translate(8.201 30.07)">
                  <path id="Path_27518" data-name="Path 27518" d="M17.547,55a.546.546,0,0,0-.547.547v4.374h1.093V55.547A.546.546,0,0,0,17.547,55Z" transform="translate(-17 -55)" fill="#262535"/>
                  <path id="Path_27519" data-name="Path 27519" d="M45.547,55a.546.546,0,0,0-.547.547v4.374h1.093V55.547A.546.546,0,0,0,45.547,55Z" transform="translate(-29.692 -55)" fill="#262535"/>
                </g>
                <g id="Group_11045" data-name="Group 11045" transform="translate(15.855 22.962)">
                  <g id="Group_11044" data-name="Group 11044">
                    <path id="Path_27520" data-name="Path 27520" d="M31,54.028V42.547a.547.547,0,0,1,1.093,0V54.028Z" transform="translate(-31 -42)" fill="#262535"/>
                  </g>
                </g>
                <path id="Path_27521" data-name="Path 27521" d="M33.12,35.157a4.1,4.1,0,0,1-.022.448c-.273,2.581-2.909,4.314-6.555,4.314s-6.282-1.733-6.555-4.314a4.111,4.111,0,0,1-.027-.448l.394-.131a.548.548,0,0,1,.716.454v.005c.246,2.307,2.925,3.34,5.473,3.34s5.227-1.033,5.473-3.34v-.005a.548.548,0,0,1,.716-.454Z" transform="translate(-10.141 -15.863)" fill="#262535"/>
              </g>
            </g>
          </g>
        </g>
        <g id="Group_11030" data-name="Group 11030" transform="translate(52.431 59.338)">
          <path id="Path_27454" data-name="Path 27454" d="M514.68,456.94H448.215a.685.685,0,0,1-.684-.684V391.463a.685.685,0,0,1,.684-.684H514.68a.685.685,0,0,1,.684.684v64.793A.685.685,0,0,1,514.68,456.94Z" transform="translate(-447.53 -390.778)" fill="#e4e4e4"/>
          <path id="Path_27455" data-name="Path 27455" d="M533.966,418.476H481.95a.685.685,0,0,0-.684.684v40.305a.685.685,0,0,0,.684.684h52.017a.685.685,0,0,0,.684-.684V419.16A.685.685,0,0,0,533.966,418.476Z" transform="translate(-474.04 -412.544)" fill="#fff"/>
          <path id="Path_27456" data-name="Path 27456" d="M543,639.4H496.915a.381.381,0,0,1-.38-.38v-2.129a.381.381,0,0,1,.38-.38H543a.381.381,0,0,1,.38.38v2.129A.381.381,0,0,1,543,639.4Z" transform="translate(-486.04 -583.882)" fill="#fff"/>
          <path id="Path_27457" data-name="Path 27457" d="M527.03,663.543H496.915a.381.381,0,0,1-.38-.38v-2.129a.381.381,0,0,1,.38-.38H527.03a.381.381,0,0,1,.38.38v2.129A.381.381,0,0,1,527.03,663.543Z" transform="translate(-486.04 -602.857)" fill="#fff"/>
          <g id="Mask_Group_5" data-name="Mask Group 5" clip-path="url(#clip-path-2)">
            <g id="svgexport-6" transform="translate(-19.291 16.994)">
              <path id="Path_27481" data-name="Path 27481" d="M297.145,181.673a13.344,13.344,0,0,1-.672-2.063.154.154,0,0,0-.155-.116.152.152,0,0,0-.143.131l-.082.592c0,.007,0,.014,0,.021a8.415,8.415,0,0,1-2.032,5.542.152.152,0,0,0-.036.107,7.781,7.781,0,0,0,.276,1.715.152.152,0,0,0,.219.09.62.62,0,0,1,.791.169l1.131,1.5a.137.137,0,0,0,.016.047.152.152,0,0,0,.16.077l.012,0c.213.044.42.09.623.136a.154.154,0,0,0,.033,0,.152.152,0,0,0,.133-.224.576.576,0,0,1-.024-.508A9.084,9.084,0,0,0,297.145,181.673Zm0,0" transform="translate(-236.909 -165.189)" fill="#d5373a"/>
              <path id="Path_27482" data-name="Path 27482" d="M145.173,186.125a.152.152,0,0,0,.13.229.16.16,0,0,0,.034,0c.242-.055.491-.11.742-.162h.012a.152.152,0,0,0,.176-.124l1.132-1.5a.621.621,0,0,1,.791-.169.151.151,0,0,0,.219-.09,7.793,7.793,0,0,0,.276-1.715.15.15,0,0,0-.036-.107,8.414,8.414,0,0,1-2.032-5.542.156.156,0,0,0,0-.021l-.12-.878a.152.152,0,0,0-.3-.012,13.487,13.487,0,0,1-.738,2.346,9.088,9.088,0,0,0-.25,7.221A.58.58,0,0,1,145.173,186.125Zm0,0" transform="translate(-99.383 -161.891)" fill="#c4222a"/>
              <path id="Path_27483" data-name="Path 27483" d="M195.2,260.631l3.51-2.058a.764.764,0,0,1,.071-.036,7.8,7.8,0,0,1-.335-2.11,8.621,8.621,0,0,1-1.247,1.193,4.572,4.572,0,0,1-5.6,0,8.655,8.655,0,0,1-1.247-1.193,7.787,7.787,0,0,1-.335,2.11.728.728,0,0,1,.071.036l3.51,2.058a.77.77,0,0,1,.364.506l.436,2.091.436-2.091a.769.769,0,0,1,.364-.506Zm0,0" transform="translate(-141.196 -235.991)" fill="#f9af9d"/>
              <path id="Path_27484" data-name="Path 27484" d="M176.074,102.716a1.683,1.683,0,0,1-.255-1.028c.015-.2.025-.438.022-.7a26.467,26.467,0,0,0-5.656-.567,26.1,26.1,0,0,0-5.809.6c0,.248.009.477.023.671a1.668,1.668,0,0,1-.255,1.019,3.137,3.137,0,0,0-.272.543,3.751,3.751,0,0,0-.212,1.869l.322,2.343a8.61,8.61,0,0,0,3.328,6.847,4.572,4.572,0,0,0,5.6,0,8.61,8.61,0,0,0,3.328-6.847l.322-2.343a3.753,3.753,0,0,0-.205-1.852A3.131,3.131,0,0,0,176.074,102.716Zm0,0" transform="translate(-116.9 -92.422)" fill="#fcc4b9"/>
              <path id="Path_27485" data-name="Path 27485" d="M170.044,115.221a10.132,10.132,0,0,1-2.348-6.847l-.227-2.343a5.212,5.212,0,0,1,.15-1.869,3.761,3.761,0,0,1,.191-.543,2.23,2.23,0,0,0,.18-1.019c0-.088-.009-.617-.012-1.193a23.345,23.345,0,0,0-3.6.522c0,.248.009.477.023.671a1.668,1.668,0,0,1-.255,1.019,3.137,3.137,0,0,0-.272.543,3.75,3.75,0,0,0-.212,1.869l.322,2.343a8.61,8.61,0,0,0,3.328,6.847,4.576,4.576,0,0,0,3.919.818,2.967,2.967,0,0,1-1.185-.818Zm0,0" transform="translate(-116.9 -93.325)" fill="#f9af9d"/>
              <path id="Path_27486" data-name="Path 27486" d="M156.126,10.645H142.15a1.26,1.26,0,0,1-1.256-1.256V8.244a8.244,8.244,0,1,1,16.487,0V9.389a1.26,1.26,0,0,1-1.256,1.256Zm0,0" transform="translate(-95.982)" fill="#e04d52"/>
              <path id="Path_27487" data-name="Path 27487" d="M156.126,10.645H142.15a1.26,1.26,0,0,1-1.256-1.256V8.244a8.244,8.244,0,1,1,16.487,0V9.389a1.26,1.26,0,0,1-1.256,1.256Zm0,0" transform="translate(-95.982)" fill="#e04d52"/>
              <path id="Path_27488" data-name="Path 27488" d="M145.949,9.774V5.717a5.739,5.739,0,0,1,4.568-5.6A8.24,8.24,0,0,0,140.9,8.244V9.389a1.26,1.26,0,0,0,1.256,1.256h4.668a.873.873,0,0,1-.871-.871Zm0,0" transform="translate(-95.983 0)" fill="#d5373a"/>
              <path id="Path_27489" data-name="Path 27489" d="M319.462,83.938h-2.144a18.823,18.823,0,0,0,.841,9.853,8.9,8.9,0,0,1,.251,7.1.732.732,0,0,0,.214.866l1.241.994a14.051,14.051,0,0,0,2.049-6.4c0-3.166-2.452-7.6-2.452-12.413Zm0,0" transform="translate(-258.062 -77.248)" fill="#e04d52"/>
              <path id="Path_27490" data-name="Path 27490" d="M112.57,83.937c0,4.817-2.453,9.247-2.453,12.413a14.05,14.05,0,0,0,2.05,6.4l1.241-.994a.732.732,0,0,0,.214-.866,8.9,8.9,0,0,1,.251-7.1,18.823,18.823,0,0,0,.841-9.853Zm0,0" transform="translate(-67.658 -77.248)" fill="#d5373a"/>
              <path id="Path_27491" data-name="Path 27491" d="M130.94,80.8a1.046,1.046,0,0,1-.975-.645,1,1,0,0,1,.6-1.308,25.8,25.8,0,0,1,8.532-1.252,26.316,26.316,0,0,1,8.359,1.189,1,1,0,0,1,.617,1.3,1.057,1.057,0,0,1-1.344.6,24.137,24.137,0,0,0-7.632-1.063,23.63,23.63,0,0,0-7.774,1.115,1.075,1.075,0,0,1-.379.069Zm0,0" transform="translate(-85.858 -71.414)" fill="#2c354c"/>
              <path id="Path_27492" data-name="Path 27492" d="M129.965,82.071a1.046,1.046,0,0,0,.975.645,1.068,1.068,0,0,0,.379-.069,18.684,18.684,0,0,1,4.505-.952h0a1.2,1.2,0,0,1-.068-1.838l.068-.062-.095-.088c-.01-.009-.019-.02-.028-.03a21.072,21.072,0,0,0-5.14,1.086A1,1,0,0,0,129.965,82.071Zm0,0" transform="translate(-85.858 -73.327)" fill="#202942"/>
              <path id="Path_27493" data-name="Path 27493" d="M130.94,56.963a1.046,1.046,0,0,1-.975-.645,1,1,0,0,1,.6-1.308,25.8,25.8,0,0,1,8.532-1.252,26.316,26.316,0,0,1,8.359,1.189,1,1,0,0,1,.617,1.3,1.057,1.057,0,0,1-1.344.6,24.137,24.137,0,0,0-7.632-1.063,23.631,23.631,0,0,0-7.774,1.115,1.075,1.075,0,0,1-.379.069Zm0,0" transform="translate(-85.858 -49.474)" fill="#40495e"/>
              <path id="Path_27494" data-name="Path 27494" d="M135.809,55.64l.164-.129a21.5,21.5,0,0,0-5.412,1.112,1,1,0,0,0-.6,1.308,1.046,1.046,0,0,0,.975.645,1.078,1.078,0,0,0,.379-.069,18.68,18.68,0,0,1,4.505-.953l-.095-.088A1.2,1.2,0,0,1,135.809,55.64Zm0,0" transform="translate(-85.859 -51.088)" fill="#2c354c"/>
              <path id="Path_27495" data-name="Path 27495" d="M53.209,319.633a19.511,19.511,0,0,0,16.608-9.256c-.169-.87-.362-1.7-.584-2.477a.229.229,0,0,0-.011-.024c-.078-.212-1.315-3.2-9.47-4.9a.184.184,0,0,0-.111.012l-6.325,2.828h0a.244.244,0,0,1-.209,0h0l-6.325-2.828a.181.181,0,0,0-.111-.012c-8.155,1.7-9.392,4.685-9.47,4.9a.223.223,0,0,0-.011.023c-.222.775-.416,1.608-.584,2.477a19.511,19.511,0,0,0,16.608,9.256Zm0,0" transform="translate(0 -278.831)" fill="#2f2e41"/>
              <path id="Path_27496" data-name="Path 27496" d="M237,343.959v-8.135a.755.755,0,0,0-.085-.348l-.567.253h0a.247.247,0,0,1-.21,0h0l-.566-.253a.754.754,0,0,0-.085.348v8.135a.758.758,0,0,0,1.516,0Zm0,0" transform="translate(-183.038 -308.742)" fill="#2f2e41"/>
              <path id="Path_27497" data-name="Path 27497" d="M236.923,335.477l-.566.253h0a.246.246,0,0,1-.209,0h0l-.566-.253a.754.754,0,0,0-.085.348v3.624a.758.758,0,1,1,1.516,0v-3.624A.754.754,0,0,0,236.923,335.477Zm0,0" transform="translate(-183.041 -308.742)" fill="#262535"/>
              <path id="Path_27498" data-name="Path 27498" d="M250.314,279.81a.769.769,0,0,0-1-.2l-3.51,2.058a.769.769,0,0,0-.364.507L245,284.265a9.647,9.647,0,0,0,6.485-2.9Zm0,0" transform="translate(-191.792 -257.229)" fill="#262535"/>
              <path id="Path_27499" data-name="Path 27499" d="M164.793,279.81a.769.769,0,0,1,1-.2l3.51,2.058a.769.769,0,0,1,.364.507l.436,2.091a9.647,9.647,0,0,1-6.485-2.9Zm0,0" transform="translate(-116.897 -257.229)" fill="#262535"/>
              <path id="Path_27500" data-name="Path 27500" d="M190.144,197.548a.767.767,0,0,1-.568,0c-3.257-1.295-4.49,2.854-4.49,3.754a1.161,1.161,0,0,0,.18.591,7.239,7.239,0,0,0,3.981,3.621,1.668,1.668,0,0,0,1.226,0,7.239,7.239,0,0,0,3.981-3.62,1.161,1.161,0,0,0,.181-.592C194.635,200.4,193.4,196.253,190.144,197.548Zm2.87,4.647c-.375.463-1.013,1.112-1.638,1.112a1.212,1.212,0,0,1-1.115-.722.446.446,0,0,0-.4-.251h-.005a.445.445,0,0,0-.4.251,1.212,1.212,0,0,1-1.115.722c-.626,0-1.263-.649-1.638-1.112a1.019,1.019,0,0,1-.111-1.12c.685-1.294,2.559-1.768,3.111-1.882a.76.76,0,0,1,.309,0c.55.114,2.418.586,3.107,1.875A1.025,1.025,0,0,1,193.014,202.195Zm0,0" transform="translate(-136.652 -181.577)" fill="#40495e"/>
              <path id="Path_27501" data-name="Path 27501" d="M189.3,204.861s0,0,0-.011a1.16,1.16,0,0,1-.953.463c-.626,0-1.263-.649-1.638-1.112a1.021,1.021,0,0,1-.111-1.12,3.145,3.145,0,0,1,1.272-1.211c-1.125-.772-.437-2.3-.4-2.39-1.7.68-2.386,3.157-2.386,3.828a1.158,1.158,0,0,0,.181.591,7.238,7.238,0,0,0,3.981,3.621,1.668,1.668,0,0,0,1.226,0,2.136,2.136,0,0,1-1.177-2.66Zm0,0" transform="translate(-136.652 -183.583)" fill="#2c354c"/>
              <g id="Group_11036" data-name="Group 11036" transform="translate(36.601 23.7)">
                <path id="Path_27502" data-name="Path 27502" d="M246.783,298.316a1.666,1.666,0,0,1,.275-.918l-1.258.737a.769.769,0,0,0-.364.506L245,300.734a8.282,8.282,0,0,0,3.376-.747,1.673,1.673,0,0,1-1.593-1.67Zm0,0" transform="translate(-228.392 -297.398)" fill="#262535"/>
                <path id="Path_27503" data-name="Path 27503" d="M42.46,319.584v-7.162a6.818,6.818,0,0,1,3.006-6c-7.077,1.725-8.2,4.425-8.269,4.626,0,.008-.008.015-.011.023-.222.775-.416,1.608-.584,2.477a19.631,19.631,0,0,0,5.859,6.032Zm0,0" transform="translate(-36.601 -305.706)" fill="#2f2e41"/>
              </g>
            </g>
          </g>
        </g>
      </g>
      <g id="Group_11033" data-name="Group 11033" transform="translate(-33.23 -43.4)">
        <path id="Path_27473" data-name="Path 27473" d="M345.51,323.316l.1-36.193a2.766,2.766,0,0,1,2.771-2.755l27.334.076a2.766,2.766,0,0,1,2.755,2.771l-.1,36.193a2.766,2.766,0,0,1-2.771,2.755l-27.334-.076A2.766,2.766,0,0,1,345.51,323.316Z" transform="translate(-333.786 -231.483)" fill="#e6e6e6"/>
        <g id="Group_11034" data-name="Group 11034" transform="translate(13.851 55.058)">
          <path id="Path_27474" data-name="Path 27474" d="M362.928,328.017l.065-23.268a2.591,2.591,0,0,1,2.595-2.58l23.491.065a2.591,2.591,0,0,1,2.581,2.595l-.089,32.207a2.591,2.591,0,0,1-2.595,2.581l-14.552-.04a11.54,11.54,0,0,1-11.495-11.558Z" transform="translate(-362.928 -302.168)" fill="#fff"/>
          <path id="Path_27475" data-name="Path 27475" d="M415.45,370.066H397.133a1.1,1.1,0,1,1,0-2.2H415.45a1.1,1.1,0,0,1,0,2.2Z" transform="translate(-391.991 -359.845)" fill="#e35156"/>
          <path id="Path_27476" data-name="Path 27476" d="M401.163,328.566h-4.03a1.1,1.1,0,0,1,0-2.2h4.03a1.1,1.1,0,0,1,0,2.2Z" transform="translate(-391.991 -323.413)" fill="#e35156"/>
          <path id="Path_27477" data-name="Path 27477" d="M415.45,411.566H397.133a1.1,1.1,0,1,1,0-2.2H415.45a1.1,1.1,0,0,1,0,2.2Z" transform="translate(-391.991 -396.277)" fill="#e35156"/>
          <path id="Path_27478" data-name="Path 27478" d="M415.45,453.066H397.133a1.1,1.1,0,0,1,0-2.2H415.45a1.1,1.1,0,0,1,0,2.2Z" transform="translate(-391.991 -432.71)" fill="#e35156"/>
          <g id="Group_11033-2" data-name="Group 11033" transform="translate(17.604 24.964)">
            <circle id="Ellipse_465" data-name="Ellipse 465" cx="4.373" cy="4.373" r="4.373" fill="#e35156"/>
            <path id="Path_27479" data-name="Path 27479" d="M525.938,528.32a.486.486,0,0,1-.389-.195l-1.193-1.591a.486.486,0,0,1,.778-.584l.781,1.041,2-3.007a.486.486,0,1,1,.81.54l-2.386,3.579a.487.487,0,0,1-.391.216Z" transform="translate(-522.162 -521.671)" fill="#fff"/>
          </g>
        </g>
      </g>
    </g>
  </g>
</svg>
