<svg id="Layer_1" data-name="Layer 1" xmlns="http://www.w3.org/2000/svg" viewBox="0 0 360 340"><defs><style>.cls-1{fill:#d8e9ff;opacity:0.5;}.cls-2{fill:#dceafb;}.cls-3{fill:#a8ccff;}.cls-4{fill:#c9e0ff;}.cls-5{fill:#4393c4;}.cls-6{fill:#87bad6;}.cls-17,.cls-7{fill:#4b99cc;}.cls-7{opacity:0.57;}.cls-8{fill:#6ca3ea;}.cls-9{fill:#f3faff;}.cls-10{fill:#ffae73;}.cls-11{fill:#255466;}.cls-12{fill:#f9924f;}.cls-13{fill:#398299;}.cls-14{fill:#fff;}.cls-15{fill:#4b9ba9;}.cls-16{fill:#2f6c7f;}.cls-17{opacity:0.31;}.cls-18{fill:#fddbba;}.cls-19{fill:#2d3554;}.cls-20{fill:#dceaff;}</style></defs><title>steps_01</title><path class="cls-1" d="M345.8,295.75h0a1.3,1.3,0,0,1-.08.17l-.59,1.28-312-.12s-.31-.41-.85-1.2l-.1-.14c-1.39-2-4.19-6.32-7.48-12.36h0C16,267.34,3.9,238.94,5.94,207.43a102,102,0,0,1,5.48-27.23c9.74-27.87,38.82-46.65,65-47,10.14-.14,19.84,2.47,27.83,8.38a15.54,15.54,0,0,0,5.27,2.41,27.56,27.56,0,0,0,5.82.83c17,.73,44.68-10.93,61.09-40.28a67.2,67.2,0,0,1,37.47-31.1c.71-.25,1.43-.49,2.16-.71a79.16,79.16,0,0,1,10.74-2.55q1-.16,2-.3a96.3,96.3,0,0,1,49.55,6.63c2.1.86,4.17,1.8,6.22,2.8,30,14.79,53.33,45,51.28,87.11-.08,1.67-.2,3.36-.37,5.06q-.45,4.88-1.37,9.94c-.37,2-.78,4-1.25,6C320.5,240.85,369.92,243.27,345.8,295.75Z"/><path class="cls-2" d="M328.66,295.75h0l-228.88,0,2-88.32v-24h8.56V164.72h17.08v15.91h5.21V151.21h1.14v-2.06h.2v2.06h4.12v-2.06h.21v2.06h5.83v-2.06h.2v2.06H148v-2.06h.2v2.06h1.51v27.46h5.77v-4.44l6.8,0v-7.2h1.36v-1.42h.18v1.42h6.3v-1.42h.19v1.42h1.26v14.32h8.1v5.26h4.49v-3.06h4.18V171.45h2.08v-5.66h.31v5.66h5V160.83h.49v10.62h3.3v-.15h0V170h0v-1.28h0v-2.12h0V165.2h0v-2.12h0v-1.35h0V159.6h0v-1.46h0V156h0v-1.87h0V152h0v-1.4h1V149h.16v1.59h7.28V149h.16v1.59h1.33v11.1h.93V159.6h0v-1.46h0V156h0v-1.46h0v-2.12h10.35l.24.17v14.15h1.63v-2h18.64v15.91h5.69V151.21h1.24v-2.06h.22v2.06h4.49v-2.06h.23v2.06h6.36v-2.06h.23v2.06h4v-2.06h.22v2.06h1.65v27.46h6.29v-4.44l7.42,0v-7.2h1.49v-1.42h.2v1.42h6.88v-1.42h.2v1.42h1.38v14.32h8.83v5.26h4.91v-3.06h4.56V171.45h2.27v-5.66h.34v5.66h5.44V160.83h.54v10.62h2.67c-.28,3.25-.72,6.56-1.29,9.94q-.51,3-1.18,6C304.81,240.85,351.39,243.27,328.66,295.75Z"/><path class="cls-3" d="M320.78,79.28V295.74h-7.57V76.48C315.77,77.34,318.29,78.28,320.78,79.28Z"/><path class="cls-4" d="M107.8,144V295.88H44.87s0-.09-.08-.14c-1.13-2-3.42-6.32-6.09-12.36h0c-7.1-16-16.93-44.44-15.28-75.95a122.6,122.6,0,0,1,4.47-27.23c7.94-27.87,31.62-46.65,53-47a34.57,34.57,0,0,1,22.45,8.38A12.48,12.48,0,0,0,107.8,144Z"/><path class="cls-5" d="M252.93,69.85V96.51c0,2.08-.51,3.77-1.13,3.77h-.16c-.62,0-1.13-1.69-1.13-3.77V70.15C251.32,70,252.12,69.94,252.93,69.85Z"/><path class="cls-6" d="M251.09,93.87c-8.78,0-15.9,7.53-15.9,16.82H267C267,101.4,259.88,93.87,251.09,93.87Z"/><path class="cls-7" d="M252.36,94.07a6.53,6.53,0,0,0-1.4-.15c-5.72,0-10.36,7.51-10.36,16.77h2.79C243.39,102.19,247.3,95.18,252.36,94.07Z"/><path class="cls-8" d="M270.52,295.58l-17.09-70.92,1.19-2.79,16.93,73.7a.3.3,0,0,1-.29.37H271A.47.47,0,0,1,270.52,295.58Z"/><path class="cls-6" d="M193.4,295.94h0a.57.57,0,0,1-.56-.66l5-30.5H200l-6,30.65A.63.63,0,0,1,193.4,295.94Z"/><path class="cls-6" d="M241.68,295.94h0a.56.56,0,0,1-.56-.66l5-30.5h2.16l-6,30.65A.63.63,0,0,1,241.68,295.94Z"/><polygon class="cls-9" points="253.39 264.84 193.28 264.84 205.74 186.78 265.84 186.78 253.39 264.84"/><rect class="cls-6" x="188.86" y="264.24" width="69.03" height="2.3"/><path class="cls-6" d="M229.54,203.11a13.52,13.52,0,0,1-.27,1.82,12.51,12.51,0,0,1-11.84,9.86c-6.21,0-10.86-5.2-10.38-11.64s5.89-11.67,12.1-11.68a10.52,10.52,0,0,1,3.67.64,10.11,10.11,0,0,1,4.12,2.86,10.38,10.38,0,0,1,1.12,1.57,8.79,8.79,0,0,1,.53,1,11.35,11.35,0,0,1,.88,3.12,11.91,11.91,0,0,1,.1,1.71C229.57,202.62,229.56,202.86,229.54,203.11Z"/><path class="cls-6" d="M228.59,197.55l-10.3,5.58s4.25-7.48,6-10.34a10.17,10.17,0,0,1,2.66,2.18,10.38,10.38,0,0,1,1.12,1.57A8.79,8.79,0,0,1,228.59,197.55Z"/><path class="cls-5" d="M229.66,196.14l-9.41,5.09s3.88-6.83,5.47-9.44a9.34,9.34,0,0,1,2.43,2,9.8,9.8,0,0,1,1,1.43Q229.44,195.66,229.66,196.14Z"/><path class="cls-6" d="M248.6,258.91H199.13l5-28.54h49.47Zm-49.07-.29H248.3l4.91-28H204.44Z"/><path class="cls-5" d="M245.65,255H201.78s7.78-4.17,9.91-4,5.21,1.91,7.18,2,4.11-5.86,6.31-5.58,3,5.52,4.16,5a11.44,11.44,0,0,1,6.51,0c2,.73,4.84-2.33,6.57-2.24S245.65,255,245.65,255Z"/><polygon class="cls-5" points="212.33 246.6 203.95 246.6 204.02 246.16 212.4 246.16 212.33 246.6"/><polygon class="cls-5" points="212.16 247.55 203.78 247.55 203.86 247.11 212.24 247.11 212.16 247.55"/><path class="cls-6" d="M204.29,240.68h43.87s-6.32-4.17-8.53-4-5.87,1.91-7.87,2-2-5.86-4.35-5.58-5,5.52-5.91,5a11.34,11.34,0,0,0-6.52,0c-2.23.73-4-2.33-5.78-2.24S204.29,240.68,204.29,240.68Z"/><polygon class="cls-6" points="214.69 233.11 206.31 233.11 206.39 232.67 214.77 232.67 214.69 233.11"/><polygon class="cls-6" points="214.53 234.06 206.15 234.06 206.22 233.62 214.6 233.62 214.53 234.06"/><polygon class="cls-6" points="207.13 226.38 205.21 226.38 206.88 217.36 208.8 217.36 207.13 226.38"/><polygon class="cls-6" points="209.75 226.38 207.83 226.38 209.12 219.39 211.05 219.39 209.75 226.38"/><polygon class="cls-6" points="212.37 226.38 210.45 226.38 211.8 219.09 213.72 219.09 212.37 226.38"/><polygon class="cls-6" points="215 226.38 213.07 226.38 214.1 220.84 216.02 220.84 215 226.38"/><polygon class="cls-6" points="217.62 226.38 215.69 226.38 216.79 220.43 218.72 220.43 217.62 226.38"/><polygon class="cls-6" points="220.24 226.38 218.31 226.38 219.17 221.77 221.09 221.77 220.24 226.38"/><polygon class="cls-5" points="232.87 226.38 230.95 226.38 232.62 217.36 234.54 217.36 232.87 226.38"/><polygon class="cls-5" points="235.5 226.38 233.57 226.38 234.87 219.39 236.79 219.39 235.5 226.38"/><polygon class="cls-5" points="238.12 226.38 236.19 226.38 237.54 219.09 239.47 219.09 238.12 226.38"/><polygon class="cls-5" points="240.74 226.38 238.81 226.38 239.84 220.84 241.76 220.84 240.74 226.38"/><polygon class="cls-5" points="243.36 226.38 241.44 226.38 242.54 220.43 244.46 220.43 243.36 226.38"/><polygon class="cls-5" points="245.98 226.38 244.06 226.38 244.91 221.77 246.84 221.77 245.98 226.38"/><polygon class="cls-6" points="242.14 196.94 235.87 196.94 236.03 196.09 242.3 196.09 242.14 196.94"/><polygon class="cls-6" points="249.82 196.94 242.91 196.94 243.07 196.09 249.98 196.09 249.82 196.94"/><polygon class="cls-6" points="254.75 196.94 250.34 196.94 250.5 196.09 254.91 196.09 254.75 196.94"/><polygon class="cls-6" points="258.87 196.94 255.47 196.94 255.63 196.09 259.03 196.09 258.87 196.94"/><polygon class="cls-6" points="241.45 200.6 235.19 200.6 235.35 199.75 241.61 199.75 241.45 200.6"/><polygon class="cls-6" points="249.13 200.6 242.22 200.6 242.38 199.75 249.3 199.75 249.13 200.6"/><polygon class="cls-6" points="254.06 200.6 249.66 200.6 249.82 199.75 254.23 199.75 254.06 200.6"/><polygon class="cls-6" points="258.18 200.6 254.78 200.6 254.94 199.75 258.34 199.75 258.18 200.6"/><polygon class="cls-6" points="245.86 194.94 236.25 194.94 236.41 194.08 246.02 194.08 245.86 194.94"/><polygon class="cls-6" points="252.32 194.94 246.78 194.94 246.94 194.08 252.48 194.08 252.32 194.94"/><polygon class="cls-6" points="259.25 194.94 253.1 194.94 253.26 194.08 259.41 194.08 259.25 194.94"/><polygon class="cls-6" points="245.13 198.83 235.52 198.83 235.68 197.98 245.29 197.98 245.13 198.83"/><polygon class="cls-6" points="251.59 198.83 246.04 198.83 246.21 197.98 251.75 197.98 251.59 198.83"/><polygon class="cls-6" points="258.52 198.83 252.37 198.83 252.53 197.98 258.68 197.98 258.52 198.83"/><polygon class="cls-6" points="240.76 204.27 234.5 204.27 234.66 203.41 240.93 203.41 240.76 204.27"/><polygon class="cls-6" points="248.45 204.27 241.53 204.27 241.69 203.41 248.61 203.41 248.45 204.27"/><polygon class="cls-6" points="253.38 204.27 248.97 204.27 249.13 203.41 253.54 203.41 253.38 204.27"/><polygon class="cls-6" points="257.5 204.27 254.09 204.27 254.25 203.41 257.66 203.41 257.5 204.27"/><polygon class="cls-6" points="244.44 202.5 234.83 202.5 234.99 201.64 244.6 201.64 244.44 202.5"/><polygon class="cls-6" points="250.9 202.5 245.36 202.5 245.52 201.64 251.06 201.64 250.9 202.5"/><polygon class="cls-6" points="257.83 202.5 251.68 202.5 251.84 201.64 257.99 201.64 257.83 202.5"/><polygon class="cls-6" points="240.12 207.7 233.85 207.7 234.02 206.84 240.28 206.84 240.12 207.7"/><polygon class="cls-6" points="247.8 207.7 240.89 207.7 241.05 206.84 247.96 206.84 247.8 207.7"/><polygon class="cls-6" points="252.73 207.7 248.32 207.7 248.49 206.84 252.89 206.84 252.73 207.7"/><polygon class="cls-6" points="256.85 207.7 253.45 207.7 253.61 206.84 257.01 206.84 256.85 207.7"/><polygon class="cls-6" points="243.8 205.93 234.19 205.93 234.35 205.07 243.96 205.07 243.8 205.93"/><polygon class="cls-6" points="250.25 205.93 244.71 205.93 244.87 205.07 250.41 205.07 250.25 205.93"/><polygon class="cls-6" points="257.19 205.93 251.03 205.93 251.2 205.07 257.35 205.07 257.19 205.93"/><polygon class="cls-6" points="225.86 218.7 222.8 218.7 222.88 218.28 225.94 218.28 225.86 218.7"/><polygon class="cls-6" points="229.62 218.7 226.24 218.7 226.32 218.28 229.7 218.28 229.62 218.7"/><polygon class="cls-6" points="225.53 220.5 222.46 220.5 222.54 220.07 225.61 220.07 225.53 220.5"/><polygon class="cls-6" points="229.29 220.5 225.9 220.5 225.98 220.07 229.37 220.07 229.29 220.5"/><polygon class="cls-6" points="227.69 217.72 222.98 217.72 223.06 217.3 227.76 217.3 227.69 217.72"/><polygon class="cls-6" points="230.84 217.72 228.13 217.72 228.21 217.3 230.92 217.3 230.84 217.72"/><polygon class="cls-6" points="227.33 219.63 222.62 219.63 222.7 219.21 227.41 219.21 227.33 219.63"/><polygon class="cls-6" points="230.49 219.63 227.78 219.63 227.85 219.21 230.57 219.21 230.49 219.63"/><polygon class="cls-6" points="250.42 218.7 247.36 218.7 247.44 218.28 250.5 218.28 250.42 218.7"/><polygon class="cls-6" points="254.19 218.7 250.8 218.7 250.88 218.28 254.26 218.28 254.19 218.7"/><polygon class="cls-6" points="250.09 220.5 247.02 220.5 247.1 220.07 250.17 220.07 250.09 220.5"/><polygon class="cls-6" points="253.85 220.5 250.46 220.5 250.54 220.07 253.93 220.07 253.85 220.5"/><polygon class="cls-6" points="252.25 217.72 247.54 217.72 247.62 217.3 252.33 217.3 252.25 217.72"/><polygon class="cls-6" points="255.41 217.72 252.69 217.72 252.77 217.3 255.49 217.3 255.41 217.72"/><polygon class="cls-6" points="251.89 219.63 247.18 219.63 247.26 219.21 251.97 219.21 251.89 219.63"/><polygon class="cls-6" points="255.05 219.63 252.34 219.63 252.42 219.21 255.13 219.21 255.05 219.63"/><path class="cls-10" d="M266.74,294.78c-.11,1.47-2.18,1.49-4.53,1.21s-1.73.33-5,.37-4.43-1-4.59-1.51,1.45-.77,3.14-1.18l.64-.16c1.91-.48,3.18-1.92,4.81-3.16s3.55-5.47,3.55-5.47l4.49-.2s-1.89,3.84-2.6,5.49a5.43,5.43,0,0,0-.06,3.09A5.58,5.58,0,0,1,266.74,294.78Z"/><path class="cls-11" d="M262.21,296c-2.35-.27-1.73.33-5,.37s-4.43-1-4.59-1.51,1.45-.77,3.14-1.18l0,0a9.23,9.23,0,0,0,4.83.87c2.21-.23,4.46-1.15,6-1.31a5.58,5.58,0,0,1,.16,1.52C266.63,296.25,264.56,296.27,262.21,296Z"/><path class="cls-10" d="M297.77,295.09c-.1,1.47-2.17,1.48-4.52,1.21s-1.73.33-5,.38-4.42-1-4.58-1.51,1.44-.77,3.13-1.18l.64-.16c1.92-.49,3.18-1.92,4.81-3.17s0-8.2,0-8.2l4.95-.48s-.24,5.9-.24,8.59a15.2,15.2,0,0,0,.67,3A5.61,5.61,0,0,1,297.77,295.09Z"/><path class="cls-11" d="M293.25,296.3c-2.35-.27-1.73.33-5,.38s-4.42-1-4.58-1.51,1.44-.77,3.13-1.18l0,0a9.28,9.28,0,0,0,4.83.86c2.21-.23,4.46-1.15,6-1.32a5.61,5.61,0,0,1,.16,1.53C297.67,296.56,295.6,296.57,293.25,296.3Z"/><path class="cls-11" d="M283.35,173.88c-.85-3.5.38-5.13,1.49-6a5.3,5.3,0,0,1,1.75-2.57,6.24,6.24,0,0,1,3.41-.65,1.58,1.58,0,0,0-.72-.34,5.27,5.27,0,0,1,1.89.49c8.12-3.13,9.4,8.83,9.22,11.61s-.14,6.05,4.08,8.24c8.07,4.17-2.68,19.91-2.68,19.91.21-2.24-10.15-14.09-15.55-17.64a15.47,15.47,0,0,1-1.82-5.63,14.66,14.66,0,0,0,1.1,5.09C283.06,184.13,282.7,178.68,283.35,173.88Z"/><path class="cls-10" d="M286.56,187.11s2.61,1.38,4.59.84,3.08-2.93,3.06-2.94c-.79-.15-1-1.24-1-5.9l-.36.07-6,1.18s.14,1.89.14,3.67C287,185.53,286.9,187,286.56,187.11Z"/><path class="cls-12" d="M286.84,180.36s.14,1.89.14,3.67c3.36-.09,5.14-3.16,5.87-4.85Z"/><path class="cls-13" d="M262.41,287.26a1.48,1.48,0,0,0,1.34,1.92l2.34.11,2.49.08a2,2,0,0,0,1.6-.74A69.81,69.81,0,0,0,282,266.33c.11-.33.21-.66.33-1,2.44-7.12,7.51-16.07,10.18-24.16.42-1.29.8-2.5,1.15-3.65.11-.37.21-.73.31-1.09A86.08,86.08,0,0,0,297,220.32l-19.28.15A423.52,423.52,0,0,1,262.41,287.26Z"/><path class="cls-14" d="M280.42,209.4c.05,9.17-1.34,13.11-1.34,13.11a25.87,25.87,0,0,0,18.05,1.1l7-2c-.16-.37-1.53-6.51-1.69-6.85-2.07-4.44-2.63-6.31-2.88-7.68a29.59,29.59,0,0,1-.24-7.68,61.86,61.86,0,0,1,2.38-12.07,60.36,60.36,0,0,1-8-2.72,6.25,6.25,0,0,1-4.3,1.6c-2-.05-2.58-.88-2.48-1.8-2.08,1.16-3.74,2.26-3.74,2.26-1.77,3.07-5.36,6-5.62,10.77C277.56,198.61,280.42,209.14,280.42,209.4Z"/><path class="cls-15" d="M297,210.42c.84,1.19,2.45,8.44,6.47,9.35-2.07-5.16-3.64-7.43-3.89-9a39.86,39.86,0,0,1-.24-8.92c-1.34-2.36-2.34-4-2.34-4-.11-.39-2.14-6.67-2.79-1.05S296.05,209.09,297,210.42Z"/><path class="cls-10" d="M285.72,182.05s7.95.13,8-4.82,1-8.27-4-8.56-6.07,1.59-6.47,3.24S283.65,181.89,285.72,182.05Z"/><path class="cls-11" d="M286,168.54s2.17,5.81,5.51,6.67,4.79,0,4.79,0a9.48,9.48,0,0,1-3.09-5.59S287.66,165.78,286,168.54Z"/><path class="cls-11" d="M286.56,169a7,7,0,0,0-2,2.55c-.39,1.27-.57,3.86-1.33,3.77,0,0-1.64-4,.21-6.18S286.56,169,286.56,169Z"/><polygon class="cls-10" points="273.21 215.76 269.46 227.21 271.6 228.07 277.81 217.96 273.21 215.76"/><path class="cls-6" d="M283.34,186s-4.43,1.76-5.71,4.5-3.22,21.11-4,23-1.35,3.38-1.35,3.38a9.24,9.24,0,0,0,4.48,2C279,219,283.34,186,283.34,186Z"/><path class="cls-6" d="M287,184.42s-4.6,11.37-4.74,13.67-.54,37.6-.54,37.6.27,1.63-2.84.95-3.92-1.35-3.92-1.35,3-21.78,2.16-29.36S283.34,186,283.34,186Z"/><path class="cls-16" d="M266.09,289.29l2.7.08a1.55,1.55,0,0,0,1.25-.56A69.64,69.64,0,0,0,282,266.33c.11-.33.21-.66.33-1,2.44-7.12,7.51-16.07,10.18-24.16.42-1.29.8-2.5,1.15-3.65.11-.37.21-.73.31-1.09l-2.83-2.15s-8.52,13.8-11.16,26.78C277.65,272.34,268.47,285.91,266.09,289.29Z"/><path class="cls-13" d="M290.8,262.27c-.05,6,.24,19.29,1,25.8a1.17,1.17,0,0,0,1.17,1h3.92a.76.76,0,0,0,.74-.62c2-10.18,3.43-18.63,4.48-25.94.88-6.11,1.66-11.35,2.26-15.87s1-8.34,1.17-11.55c0-.51,0-1,.05-1.48s0-.94,0-1.4l-16.65-1.62C289.12,241.68,290.83,258.6,290.8,262.27Z"/><path class="cls-16" d="M294.94,289.11h1.77a.93.93,0,0,0,.91-.75c2-10.12,3.41-18.53,4.45-25.81.88-6.11,1.66-11.35,2.26-15.87s1-8.34,1.17-11.55l-6.11,3.59s3.9,1.38,2.41,11.79S297,287.64,294.94,289.11Z"/><path class="cls-6" d="M294.16,235s1.17,4.23,5.23,3.69a49,49,0,0,0,9.83-3s-1.74-5.48-3.89-12.68c-2.61-8.72-5.84-19.95-7.37-27a43.8,43.8,0,0,1-.83-4.83l-3.36-6.53s-5,11.26-5.29,14.1S294.16,235,294.16,235Z"/><path class="cls-10" d="M298.21,198.34l-4.44-13.68a66.74,66.74,0,0,1,8.43,3.09s1.76,2.27,2.85,7.5c0,0,1.15,12.58-1.42,17.18,0,0-8.12,1.62-21.11-2.85v-3s14.21.74,17.12,1.08Z"/><path class="cls-17" d="M294.34,204.72c.18,4.59,1.26,13.52,10.91,18.3l.08,0c-2.61-8.72-5.84-19.95-7.37-27C296.19,198.67,294.24,202.18,294.34,204.72Z"/><path class="cls-6" d="M293.77,184.66s8.23.58,10.22,5,2.61,19.12.09,23.45c0,0-3.48,1-9.63-.16l-.22,0s-2-4.8-.21-5.75c0,0,5.19.27,4.65-1.44S293.77,184.66,293.77,184.66Z"/><path class="cls-11" d="M273.11,208.45l.25.78L286.87,205a.51.51,0,0,0,.09-.48.37.37,0,0,0-.33-.3Z"/><polygon class="cls-11" points="272.14 209.19 273.11 208.45 273.36 209.23 272.14 209.19"/><path class="cls-10" d="M270,226.9s-3.43,1.9-3.88,3.34-.14,4.47.4,4.42,1.36-3.25,1.81-3.47,1.08-.91,1.08-.41-.45,1.4-.22,1.53.95-1.26,1.44-1.53.71-2.5,1.19-3.1S270,226.9,270,226.9Z"/><path class="cls-10" d="M282.52,206.61s-3.06-1.89-4.35-1.6-4.56,2.67-3,3.18,2.86,0,3.46.35,1.06,1.05,3.88,1S282.52,206.61,282.52,206.61Z"/><path class="cls-8" d="M134,295.94H134a.53.53,0,0,1-.53-.55l.8-34.89,2.37-.28-2,35.18A.58.58,0,0,1,134,295.94Z"/><path class="cls-8" d="M120.2,295.94h0a.53.53,0,0,1-.53-.55l.8-34.89,2.37-.28-2,35.18A.58.58,0,0,1,120.2,295.94Z"/><path class="cls-8" d="M158.33,295.94h0a.55.55,0,0,0,.54-.55l-.81-34.89-2.37-.28,2,35.18A.58.58,0,0,0,158.33,295.94Z"/><path class="cls-8" d="M118.63,258.33V234.42a7.62,7.62,0,0,1,7.62-7.62h17.22a7.62,7.62,0,0,1,7.62,7.62v24.83Z"/><path class="cls-8" d="M118.63,258.33h35.55a0,0,0,0,1,0,0v3.78a0,0,0,0,1,0,0H121.64a3,3,0,0,1-3-3v-.76A0,0,0,0,1,118.63,258.33Z"/><rect class="cls-8" x="131.31" y="258.33" width="28.55" height="3.78" rx="1.51"/><path class="cls-10" d="M177,282c.24,1.2,2,1,3.87.54s1.46.08,4.18-.22,3.55-1.31,3.64-1.72-1.28-.49-2.72-.65l-.55-.07c-1.63-.2-2.82-1.25-4.3-2.12s-3.5-4.15-3.5-4.15l-3.73.3s2,3,2.72,4.27a4.51,4.51,0,0,1,.36,2.54A5,5,0,0,0,177,282Z"/><path class="cls-11" d="M180.86,282.56c1.91-.47,1.46.08,4.18-.22s3.55-1.31,3.64-1.72-1.28-.49-2.72-.65v0a7.78,7.78,0,0,1-3.9,1.21c-1.85,0-3.81-.49-5.09-.47a5,5,0,0,0,0,1.28C177.23,283.22,179,283,180.86,282.56Z"/><path class="cls-10" d="M144.89,287.4c-.74,1,.54,2.13,2.16,3.25s.89,1.15,2.92,3,3.34,1.79,3.7,1.58-.48-1.27-1.31-2.46l-.31-.46c-.93-1.36-.93-2.95-1.26-4.63s2.29-7.45,2.29-7.45l-4.18-.52a47.2,47.2,0,0,1-1,5c-.27.84-1.43,1.39-2,1.86A4.86,4.86,0,0,0,144.89,287.4Z"/><path class="cls-11" d="M147.05,290.65c1.61,1.13.89,1.15,2.92,3s3.34,1.79,3.7,1.58-.48-1.27-1.31-2.46h0a7.7,7.7,0,0,1-3.49-2.12c-1.26-1.36-2.15-3.17-3-4.12a4.86,4.86,0,0,0-.94.87C144.15,288.37,145.43,289.53,147.05,290.65Z"/><path class="cls-16" d="M162,257.47l-3.82,10.27-5,13.41a8.07,8.07,0,0,1-2.64-.24,11.73,11.73,0,0,1-2.56-1.25s1.38-14.4,4-22.66a14.86,14.86,0,0,1,2.22-4.81C158.13,247.46,162,257.47,162,257.47Z"/><path class="cls-13" d="M158.07,241.16c-2.5-.81-10-.33-17.2,1.07l-1.09-1.92L124.3,239.1s-5.1,11.33-2.31,18.55a2.61,2.61,0,0,0,2.62,1.76H137c7.69,0,16.28-5.29,17.4-5.51,1.82-.36,2.54,3.27,4.36,7.09s17.1,16.92,17.1,16.92a13.14,13.14,0,0,0,3.32-.34,3.33,3.33,0,0,0,1.43-.9S163.71,243,158.07,241.16Z"/><path class="cls-11" d="M134.36,193.47a16.21,16.21,0,0,0-5.63.15c-5.88.68-7.19,9.81-6.75,12.37.8,4.7-1.46,6-4.16,9.79-5.4,7.55-1.67,13.76,2.74,15.3,2.64.93,6.24-1.59,6.24-1.59s9.34-8.83,13.93-13.13C148.44,213.18,139.91,194.79,134.36,193.47Z"/><path class="cls-10" d="M135.62,215s-2.4,1.6-4.37,1.26-3.82-2.73-3.79-2.74c.75-.23,1.41-1.1.94-5.62l.35,0,5.93.57s0,1.84.22,3.56C135,213.51,135.27,214.87,135.62,215Z"/><path class="cls-12" d="M134.68,208.5s0,1.84.22,3.56c-3.26.24-5.28-2.56-6.15-4.13Z"/><path class="cls-10" d="M135.93,210s-7.68.9-8.17-3.9-1.8-7.9,3.08-8.68,6,1,6.58,2.52S137.92,209.66,135.93,210Z"/><path class="cls-11" d="M136.5,197.49s-3.71,5.32-6.86,6.47-4.64.43-4.64.43a13.11,13.11,0,0,0,2-4.92,2.37,2.37,0,0,1,1.53-1.82C130.79,196.87,135.15,195.66,136.5,197.49Z"/><path class="cls-11" d="M133.44,197.89a12.07,12.07,0,0,1,2.77,2.14,9.34,9.34,0,0,1,1.47,4.72s1.25-5.45-.76-7.44S133.44,197.89,133.44,197.89Z"/><path class="cls-6" d="M141.52,227.72c-.23,15.52-.06,12.27-1.76,13.75a6.6,6.6,0,0,1-3.07.66c-4.76.32-13.13-.47-13.45-1.35-1.09-3-.32-4-1.23-8.64q-.15-.75-.36-1.62c-.76-3.2-1.5-4.29,1.21-9.43,2.45-4.66,5.11-8.38,5.34-8.24,6.48,3.85,6.9.55,6.9.55S141.64,220.14,141.52,227.72Z"/><path class="cls-13" d="M158.14,267.74l-5.1,14a8.48,8.48,0,0,1-3.16.4,4,4,0,0,1-2.11-.94s1.56-15.91,4.14-24.17Z"/><path class="cls-6" d="M135.1,213.4s6.67,1.13,7.45,4,6.52,18.7,6.52,18.7-4.51,1.67-6.08.1-5.45-14.53-5.45-14.53Z"/><path class="cls-17" d="M136.69,242.13c-4.76.32-13.13-.47-13.45-1.35-1.09-3-.32-4-1.23-8.64l2.23-5.09s-.32,5.82,1.8,7.71,8.7,3.66,9.73,5.24A5.84,5.84,0,0,1,136.69,242.13Z"/><path class="cls-10" d="M137.08,238.82a10.4,10.4,0,0,0,1.82,1.32,1.12,1.12,0,0,0,.63,0l-1-1.21Z"/><path class="cls-10" d="M136.52,237.38l3.58.93a.58.58,0,0,1-.49.31,7.46,7.46,0,0,1-1.5-.1Z"/><path class="cls-10" d="M130.43,239.36s5.12-2.28,6.09-2a12.87,12.87,0,0,1,3.81,2.16c.39.55-2-.07-2.77-.12a6.5,6.5,0,0,0-2.18,1,7.71,7.71,0,0,1-4,1.24Z"/><path class="cls-6" d="M128.2,212.85s-7.25,1.36-8.6,3.37c-2.93,4.38-9.16,22.55-5.67,25,3.93,2.74,17.9.72,17.9.72s.47-2.17-.18-3.22S120.49,236,120,235.46s4.79-7.5,4.23-8.84C122.44,222.32,128.2,212.85,128.2,212.85Z"/><path class="cls-10" d="M156.85,238.58s5.08,1.37,5.6,2.16a12.26,12.26,0,0,1,1.5,3.82c0,.63-1.43-1.24-1.95-1.72a6.13,6.13,0,0,0-2.15-.59,6.35,6.35,0,0,1-2.8-1.27,1.46,1.46,0,0,0-.84-.19Z"/><path class="cls-10" d="M162,242.12a9.72,9.72,0,0,0,.55,2,1,1,0,0,0,.45.38l0-1.49Z"/><path class="cls-10" d="M162.45,240.74l2.06,2.8a.55.55,0,0,1-.55-.07,7.4,7.4,0,0,1-1-1Z"/><path class="cls-10" d="M157.05,241a3.2,3.2,0,0,0,1.41,1.55c.94.41,1.63,1,1.78.8s-.71-1.39-.71-1.39Z"/><path class="cls-6" d="M147.72,232.36l10.67,6.74a8.76,8.76,0,0,1-1.5,1.64c-2,.73-10.86,0-13.9-4.54Z"/><path class="cls-18" d="M143.49,239.69c.63,0,6.89-.43,6.89-.43a2.94,2.94,0,0,0,.21,1.7l-6.1,1.17-1.26-.37Z"/><path class="cls-11" d="M133.05,240.7l10.44-1s-.37,1.93,1,2.44L133,243A1.79,1.79,0,0,1,133.05,240.7Z"/><path class="cls-11" d="M150.37,239.39l-7.06.55s.05-.25.18-.25l7-.5,0,.19Z"/><polygon class="cls-11" points="144.49 242.13 150.7 240.95 150.65 240.78 144.02 242.05 144.49 242.13"/><path class="cls-8" d="M72.14,295.88h0a.58.58,0,0,1-.59-.6l.89-39L75,256l-2.24,39.28A.64.64,0,0,1,72.14,295.88Z"/><path class="cls-8" d="M56.8,295.88h-.06a.59.59,0,0,1-.59-.6l.9-39,2.63-.31-2.24,39.28A.64.64,0,0,1,56.8,295.88Z"/><path class="cls-8" d="M99.13,295.88h.06a.59.59,0,0,0,.59-.6l-.89-39L96.25,256l2.25,39.28A.63.63,0,0,0,99.13,295.88Z"/><path class="cls-8" d="M55.06,253.89v-26.7a8.48,8.48,0,0,1,8.45-8.5H82.64a8.48,8.48,0,0,1,8.45,8.5v27.72Z"/><path class="cls-8" d="M55.06,253.89H94.52a0,0,0,0,1,0,0v4.22a0,0,0,0,1,0,0H58.42a3.37,3.37,0,0,1-3.37-3.37v-.85A0,0,0,0,1,55.06,253.89Z"/><rect class="cls-8" x="69.13" y="253.89" width="31.69" height="4.22" rx="1.68"/><path class="cls-6" d="M83.92,208.83s-1.6,1.36-1.94,4.89c-.27,2.68,1.59,23.5,3,25.15,3.94,4.66,8.88,2.69,10.81,3.4l1.82-1.64s-6.41-4.73-6.9-6.28C88.82,228.41,90,211.07,83.92,208.83Z"/><path class="cls-11" d="M82.77,191.85s.11-3.82-4.92-4.57-6.43.43-7.29,1.71-2.46,6.53-2.3,8.62,5.91,4.66,5.81,5.88S82.77,191.85,82.77,191.85Z"/><path class="cls-10" d="M106.13,292.59c-.16,1.29,1.6,1.67,3.64,1.85s1.41.58,4.21,1.2,3.94-.12,4.16-.5-1.09-.92-2.47-1.57l-.51-.26c-1.55-.75-2.37-2.22-3.55-3.59s-2.07-5.36-2.07-5.36l-3.79-1s1,3.66,1.26,5.22a4.84,4.84,0,0,1-.48,2.68A5.3,5.3,0,0,0,106.13,292.59Z"/><path class="cls-11" d="M109.77,294.44c2,.18,1.41.58,4.21,1.2s3.94-.12,4.16-.5-1.09-.92-2.47-1.57l0,0a7.85,7.85,0,0,1-4.26-.11c-1.84-.58-3.6-1.77-4.86-2.19a5.3,5.3,0,0,0-.4,1.3C106,293.88,107.73,294.26,109.77,294.44Z"/><path class="cls-16" d="M77.76,240s25.33,2.63,29.51,6.51,3.43,40,3.43,40c-.65.68-1.13.66-2.16.58a14.47,14.47,0,0,1-3-.93s-5.43-17.74-5.5-21.85-.92-11.07-2.65-11.49-22.23,1.89-24.48-4.59a13.94,13.94,0,0,1,1.49-11.8Z"/><path class="cls-6" d="M65.92,246.5a11.57,11.57,0,0,0,6.33,2c5.87.21,13.19-.49,14.63-1.85a2.43,2.43,0,0,0,.61-1.67c.16-2.25-.92-6-1.64-9-.47-2-.79-3.72-.52-4.6.79-2.68,3.27-8.13,3.48-9.92S86.88,210,83.92,208.83s-14.37,0-14.37,0c-4.47.9-4.65,10.41-3.17,18.51l.12.62C68.1,236.18,62.87,244.46,65.92,246.5Z"/><path class="cls-10" d="M80.67,210.57c-.08.53-1.5,1.37-4.56.57s-3.27-1.73-3.27-2.35,1.27-1.75,1.25-6.33l.35.07,5.9,1.16s-.13,1.86-.14,3.61C80.2,208.77,80.81,209.71,80.67,210.57Z"/><path class="cls-12" d="M80.34,203.69s-.13,1.86-.14,3.61c-3.3-.1-5-3.11-5.76-4.77Z"/><path class="cls-10" d="M81.44,205.35s-7.81.13-7.81-4.74-1-8.12,4-8.4,6,1.56,6.35,3.18S83.47,205.19,81.44,205.35Z"/><path class="cls-11" d="M81.15,192.09s-2.13,5.7-5.41,6.55-4.71,0-4.71,0a9.28,9.28,0,0,0,3-5.49S79.54,189.37,81.15,192.09Z"/><path class="cls-11" d="M80.62,192.55a6.87,6.87,0,0,1,2,2.51c.39,1.24.56,3.79,1.31,3.7,0,0,1.61-3.88-.2-6.07S80.62,192.55,80.62,192.55Z"/><path class="cls-10" d="M87.1,293.65c0,1.3,1.77,1.47,3.83,1.42s1.46.41,4.31.71,3.91-.58,4.08-1-1.19-.79-2.63-1.28l-.54-.19c-1.62-.58-2.6-1.93-3.92-3.16s1.51-6.79,1.51-6.79l-3.62-1.79s-.68,4-1.57,7.53c-.23.91-1,2.4-1.2,3.2A5.39,5.39,0,0,0,87.1,293.65Z"/><path class="cls-17" d="M66.08,245.54c1.09.73,2.89,2.82,6.17,2.94,5.41-1.23,11.57-2.67,15.24-3.52.16-2.25-.92-6-1.64-9-4.27,1.3-10.63-3.15-12.77-4.9s-2.18-8-2.18-8l-4.52,4.3.12.62C68.1,236.18,63,243.49,66.08,245.54Z"/><path class="cls-11" d="M90.93,295.07c2-.06,1.46.41,4.31.71s3.91-.58,4.08-1-1.19-.79-2.63-1.28l0,0a7.91,7.91,0,0,1-4.24.38c-1.89-.36-3.77-1.35-5.08-1.61a5.39,5.39,0,0,0-.25,1.33C87.08,295,88.87,295.12,90.93,295.07Z"/><path class="cls-13" d="M72.29,241.53c6.43-.18,25.64,1.35,29.33,4.13,4.55,3.43-8.43,40.47-8.43,40.47a17.88,17.88,0,0,1-2,.09,6.33,6.33,0,0,1-2.9-.86s0-21.8,1.57-26c1.4-3.86,2.26-5.22.5-5.45s-23.66,2.57-25.49-4.05a16.4,16.4,0,0,1,.68-9.95S66.35,241.7,72.29,241.53Z"/><path class="cls-6" d="M69.55,208.82s-4.47.38-4.82,3.92c-.26,2.68-2.21,21.7-.81,23.35,3.94,4.66,17.07,5.64,19,6.35l.53-2.2s-14-7.06-13.81-8.67S73.83,208.19,69.55,208.82Z"/><path class="cls-11" d="M73,189.2s.32-2-2.51-2.57-2.88,5.48-3.18,6.93.45,2.31,1.53,2.4S73,189.2,73,189.2Z"/><path class="cls-10" d="M83.61,240.14s4-1.13,4.94-.86,4.21,2.42,3.76,3-3.33-.35-4.65-.17-2.35.83-3.3.69a10.63,10.63,0,0,1-1.94-.52Z"/><path class="cls-10" d="M83.61,240.14a15.11,15.11,0,0,0,2.51-1.57.15.15,0,0,1,.24,0c.15.23.29.68-.39,1.13A3.7,3.7,0,0,1,83.61,240.14Z"/><path class="cls-10" d="M97.6,240.63s4.15.23,5,.78,3.2,3.66,2.57,4.07-3-1.42-4.34-1.68-2.48,0-3.34-.41a11.82,11.82,0,0,1-1.67-1.12Z"/><rect class="cls-19" x="26" y="296.13" width="323" height="1.39" rx="0.69"/><rect class="cls-8" x="56.21" y="147.55" width="19.2" height="18.62" rx="7.44"/><rect class="cls-20" x="57.04" y="148.36" width="17.53" height="17.01" rx="6.79"/><circle class="cls-8" cx="65.81" cy="150.06" r="0.4"/><path class="cls-8" d="M68.62,150.62a.4.4,0,1,1,.69.39.4.4,0,0,1-.69-.39Z"/><path class="cls-8" d="M71.37,152.81a.39.39,0,0,1,.55.12.4.4,0,0,1-.12.55.41.41,0,0,1-.55-.12A.39.39,0,0,1,71.37,152.81Z"/><path class="cls-8" d="M72.73,156.19a.4.4,0,1,1-.4.39A.4.4,0,0,1,72.73,156.19Z"/><circle class="cls-8" cx="71.75" cy="160.39" r="0.4"/><path class="cls-8" d="M69.54,162.61a.42.42,0,0,1,0,.57.4.4,0,0,1-.56,0,.4.4,0,0,1,0-.57A.4.4,0,0,1,69.54,162.61Z"/><circle class="cls-8" cx="65.81" cy="163.9" r="0.4"/><path class="cls-8" d="M63,150.62a.39.39,0,0,0-.54-.15.4.4,0,0,0,.39.69A.39.39,0,0,0,63,150.62Z"/><path class="cls-8" d="M60.24,152.81a.39.39,0,0,0-.55.12.4.4,0,0,0,.11.55.41.41,0,0,0,.55-.12A.4.4,0,0,0,60.24,152.81Z"/><path class="cls-8" d="M58.87,156.19a.4.4,0,0,0,0,.79.4.4,0,1,0,0-.79Z"/><circle class="cls-8" cx="59.85" cy="160.39" r="0.4"/><path class="cls-8" d="M62.07,162.61a.4.4,0,0,0,0,.57.4.4,0,0,0,.56,0,.42.42,0,0,0,0-.57A.4.4,0,0,0,62.07,162.61Z"/><path class="cls-8" d="M65.7,156.58a.4.4,0,1,1,.4.4A.4.4,0,0,1,65.7,156.58Z"/><rect class="cls-8" x="66.04" y="151.62" width="0.11" height="4.97"/><rect class="cls-8" x="65.69" y="155.38" width="3.35" height="0.33" transform="translate(-81.67 74.79) rotate(-38.13)"/></svg>